<?xml version="1.0" encoding="utf-8" standalone="no"?>
<!DOCTYPE svg PUBLIC "-//W3C//DTD SVG 1.1//EN"
  "http://www.w3.org/Graphics/SVG/1.1/DTD/svg11.dtd">
<!-- Created with matplotlib (https://matplotlib.org/) -->
<svg height="1230.98125pt" version="1.1" viewBox="0 0 1275.81875 1230.98125" width="1275.81875pt" xmlns="http://www.w3.org/2000/svg" xmlns:xlink="http://www.w3.org/1999/xlink">
 <defs>
  <style type="text/css">
*{stroke-linecap:butt;stroke-linejoin:round;}
  </style>
 </defs>
 <g id="figure_1">
  <g id="patch_1">
   <path d="M -0 1230.98125 
L 1275.81875 1230.98125 
L 1275.81875 0 
L -0 0 
z
" style="fill:none;"/>
  </g>
  <g id="axes_1">
   <g id="patch_2">
    <path d="M 152.61875 1116 
L 1268.61875 1116 
L 1268.61875 7.2 
L 152.61875 7.2 
z
" style="fill:none;"/>
   </g>
   <g id="matplotlib.axis_1">
    <g id="xtick_1">
     <g id="line2d_1">
      <path clip-path="url(#p57db582726)" d="M 203.346023 1116 
L 203.346023 7.2 
" style="fill:none;stroke:#000000;stroke-linecap:square;stroke-width:2;"/>
     </g>
     <g id="line2d_2">
      <defs>
       <path d="M 0 0 
L 0 3.5 
" id="mccb7ce94ee" style="stroke:#000000;stroke-width:0.8;"/>
      </defs>
      <g>
       <use style="stroke:#000000;stroke-width:0.8;" x="203.346023" xlink:href="#mccb7ce94ee" y="1116"/>
      </g>
     </g>
     <g id="text_1">
      <!-- 0 -->
      <defs>
       <path d="M 31.78125 66.40625 
Q 24.171875 66.40625 20.328125 58.90625 
Q 16.5 51.421875 16.5 36.375 
Q 16.5 21.390625 20.328125 13.890625 
Q 24.171875 6.390625 31.78125 6.390625 
Q 39.453125 6.390625 43.28125 13.890625 
Q 47.125 21.390625 47.125 36.375 
Q 47.125 51.421875 43.28125 58.90625 
Q 39.453125 66.40625 31.78125 66.40625 
z
M 31.78125 74.21875 
Q 44.046875 74.21875 50.515625 64.515625 
Q 56.984375 54.828125 56.984375 36.375 
Q 56.984375 17.96875 50.515625 8.265625 
Q 44.046875 -1.421875 31.78125 -1.421875 
Q 19.53125 -1.421875 13.0625 8.265625 
Q 6.59375 17.96875 6.59375 36.375 
Q 6.59375 54.828125 13.0625 64.515625 
Q 19.53125 74.21875 31.78125 74.21875 
z
" id="DejaVuSans-48"/>
      </defs>
      <g transform="translate(190.621023 1153.39375)scale(0.4 -0.4)">
       <use xlink:href="#DejaVuSans-48"/>
      </g>
     </g>
    </g>
    <g id="xtick_2">
     <g id="line2d_3">
      <path clip-path="url(#p57db582726)" d="M 406.255114 1116 
L 406.255114 7.2 
" style="fill:none;stroke:#000000;stroke-linecap:square;stroke-width:2;"/>
     </g>
     <g id="line2d_4">
      <g>
       <use style="stroke:#000000;stroke-width:0.8;" x="406.255114" xlink:href="#mccb7ce94ee" y="1116"/>
      </g>
     </g>
     <g id="text_2">
      <!-- 10 -->
      <defs>
       <path d="M 12.40625 8.296875 
L 28.515625 8.296875 
L 28.515625 63.921875 
L 10.984375 60.40625 
L 10.984375 69.390625 
L 28.421875 72.90625 
L 38.28125 72.90625 
L 38.28125 8.296875 
L 54.390625 8.296875 
L 54.390625 0 
L 12.40625 0 
z
" id="DejaVuSans-49"/>
      </defs>
      <g transform="translate(380.805114 1153.39375)scale(0.4 -0.4)">
       <use xlink:href="#DejaVuSans-49"/>
       <use x="63.623047" xlink:href="#DejaVuSans-48"/>
      </g>
     </g>
    </g>
    <g id="xtick_3">
     <g id="line2d_5">
      <path clip-path="url(#p57db582726)" d="M 609.164205 1116 
L 609.164205 7.2 
" style="fill:none;stroke:#000000;stroke-linecap:square;stroke-width:2;"/>
     </g>
     <g id="line2d_6">
      <g>
       <use style="stroke:#000000;stroke-width:0.8;" x="609.164205" xlink:href="#mccb7ce94ee" y="1116"/>
      </g>
     </g>
     <g id="text_3">
      <!-- 20 -->
      <defs>
       <path d="M 19.1875 8.296875 
L 53.609375 8.296875 
L 53.609375 0 
L 7.328125 0 
L 7.328125 8.296875 
Q 12.9375 14.109375 22.625 23.890625 
Q 32.328125 33.6875 34.8125 36.53125 
Q 39.546875 41.84375 41.421875 45.53125 
Q 43.3125 49.21875 43.3125 52.78125 
Q 43.3125 58.59375 39.234375 62.25 
Q 35.15625 65.921875 28.609375 65.921875 
Q 23.96875 65.921875 18.8125 64.3125 
Q 13.671875 62.703125 7.8125 59.421875 
L 7.8125 69.390625 
Q 13.765625 71.78125 18.9375 73 
Q 24.125 74.21875 28.421875 74.21875 
Q 39.75 74.21875 46.484375 68.546875 
Q 53.21875 62.890625 53.21875 53.421875 
Q 53.21875 48.921875 51.53125 44.890625 
Q 49.859375 40.875 45.40625 35.40625 
Q 44.1875 33.984375 37.640625 27.21875 
Q 31.109375 20.453125 19.1875 8.296875 
z
" id="DejaVuSans-50"/>
      </defs>
      <g transform="translate(583.714205 1153.39375)scale(0.4 -0.4)">
       <use xlink:href="#DejaVuSans-50"/>
       <use x="63.623047" xlink:href="#DejaVuSans-48"/>
      </g>
     </g>
    </g>
    <g id="xtick_4">
     <g id="line2d_7">
      <path clip-path="url(#p57db582726)" d="M 812.073295 1116 
L 812.073295 7.2 
" style="fill:none;stroke:#000000;stroke-linecap:square;stroke-width:2;"/>
     </g>
     <g id="line2d_8">
      <g>
       <use style="stroke:#000000;stroke-width:0.8;" x="812.073295" xlink:href="#mccb7ce94ee" y="1116"/>
      </g>
     </g>
     <g id="text_4">
      <!-- 30 -->
      <defs>
       <path d="M 40.578125 39.3125 
Q 47.65625 37.796875 51.625 33 
Q 55.609375 28.21875 55.609375 21.1875 
Q 55.609375 10.40625 48.1875 4.484375 
Q 40.765625 -1.421875 27.09375 -1.421875 
Q 22.515625 -1.421875 17.65625 -0.515625 
Q 12.796875 0.390625 7.625 2.203125 
L 7.625 11.71875 
Q 11.71875 9.328125 16.59375 8.109375 
Q 21.484375 6.890625 26.8125 6.890625 
Q 36.078125 6.890625 40.9375 10.546875 
Q 45.796875 14.203125 45.796875 21.1875 
Q 45.796875 27.640625 41.28125 31.265625 
Q 36.765625 34.90625 28.71875 34.90625 
L 20.21875 34.90625 
L 20.21875 43.015625 
L 29.109375 43.015625 
Q 36.375 43.015625 40.234375 45.921875 
Q 44.09375 48.828125 44.09375 54.296875 
Q 44.09375 59.90625 40.109375 62.90625 
Q 36.140625 65.921875 28.71875 65.921875 
Q 24.65625 65.921875 20.015625 65.03125 
Q 15.375 64.15625 9.8125 62.3125 
L 9.8125 71.09375 
Q 15.4375 72.65625 20.34375 73.4375 
Q 25.25 74.21875 29.59375 74.21875 
Q 40.828125 74.21875 47.359375 69.109375 
Q 53.90625 64.015625 53.90625 55.328125 
Q 53.90625 49.265625 50.4375 45.09375 
Q 46.96875 40.921875 40.578125 39.3125 
z
" id="DejaVuSans-51"/>
      </defs>
      <g transform="translate(786.623295 1153.39375)scale(0.4 -0.4)">
       <use xlink:href="#DejaVuSans-51"/>
       <use x="63.623047" xlink:href="#DejaVuSans-48"/>
      </g>
     </g>
    </g>
    <g id="xtick_5">
     <g id="line2d_9">
      <path clip-path="url(#p57db582726)" d="M 1014.982386 1116 
L 1014.982386 7.2 
" style="fill:none;stroke:#000000;stroke-linecap:square;stroke-width:2;"/>
     </g>
     <g id="line2d_10">
      <g>
       <use style="stroke:#000000;stroke-width:0.8;" x="1014.982386" xlink:href="#mccb7ce94ee" y="1116"/>
      </g>
     </g>
     <g id="text_5">
      <!-- 40 -->
      <defs>
       <path d="M 37.796875 64.3125 
L 12.890625 25.390625 
L 37.796875 25.390625 
z
M 35.203125 72.90625 
L 47.609375 72.90625 
L 47.609375 25.390625 
L 58.015625 25.390625 
L 58.015625 17.1875 
L 47.609375 17.1875 
L 47.609375 0 
L 37.796875 0 
L 37.796875 17.1875 
L 4.890625 17.1875 
L 4.890625 26.703125 
z
" id="DejaVuSans-52"/>
      </defs>
      <g transform="translate(989.532386 1153.39375)scale(0.4 -0.4)">
       <use xlink:href="#DejaVuSans-52"/>
       <use x="63.623047" xlink:href="#DejaVuSans-48"/>
      </g>
     </g>
    </g>
    <g id="xtick_6">
     <g id="line2d_11">
      <path clip-path="url(#p57db582726)" d="M 1217.891477 1116 
L 1217.891477 7.2 
" style="fill:none;stroke:#000000;stroke-linecap:square;stroke-width:2;"/>
     </g>
     <g id="line2d_12">
      <g>
       <use style="stroke:#000000;stroke-width:0.8;" x="1217.891477" xlink:href="#mccb7ce94ee" y="1116"/>
      </g>
     </g>
     <g id="text_6">
      <!-- 50 -->
      <defs>
       <path d="M 10.796875 72.90625 
L 49.515625 72.90625 
L 49.515625 64.59375 
L 19.828125 64.59375 
L 19.828125 46.734375 
Q 21.96875 47.46875 24.109375 47.828125 
Q 26.265625 48.1875 28.421875 48.1875 
Q 40.625 48.1875 47.75 41.5 
Q 54.890625 34.8125 54.890625 23.390625 
Q 54.890625 11.625 47.5625 5.09375 
Q 40.234375 -1.421875 26.90625 -1.421875 
Q 22.3125 -1.421875 17.546875 -0.640625 
Q 12.796875 0.140625 7.71875 1.703125 
L 7.71875 11.625 
Q 12.109375 9.234375 16.796875 8.0625 
Q 21.484375 6.890625 26.703125 6.890625 
Q 35.15625 6.890625 40.078125 11.328125 
Q 45.015625 15.765625 45.015625 23.390625 
Q 45.015625 31 40.078125 35.4375 
Q 35.15625 39.890625 26.703125 39.890625 
Q 22.75 39.890625 18.8125 39.015625 
Q 14.890625 38.140625 10.796875 36.28125 
z
" id="DejaVuSans-53"/>
      </defs>
      <g transform="translate(1192.441477 1153.39375)scale(0.4 -0.4)">
       <use xlink:href="#DejaVuSans-53"/>
       <use x="63.623047" xlink:href="#DejaVuSans-48"/>
      </g>
     </g>
    </g>
    <g id="text_7">
     <!-- PVI [%] -->
     <defs>
      <path d="M 19.671875 64.796875 
L 19.671875 37.40625 
L 32.078125 37.40625 
Q 38.96875 37.40625 42.71875 40.96875 
Q 46.484375 44.53125 46.484375 51.125 
Q 46.484375 57.671875 42.71875 61.234375 
Q 38.96875 64.796875 32.078125 64.796875 
z
M 9.8125 72.90625 
L 32.078125 72.90625 
Q 44.34375 72.90625 50.609375 67.359375 
Q 56.890625 61.8125 56.890625 51.125 
Q 56.890625 40.328125 50.609375 34.8125 
Q 44.34375 29.296875 32.078125 29.296875 
L 19.671875 29.296875 
L 19.671875 0 
L 9.8125 0 
z
" id="DejaVuSans-80"/>
      <path d="M 28.609375 0 
L 0.78125 72.90625 
L 11.078125 72.90625 
L 34.1875 11.53125 
L 57.328125 72.90625 
L 67.578125 72.90625 
L 39.796875 0 
z
" id="DejaVuSans-86"/>
      <path d="M 9.8125 72.90625 
L 19.671875 72.90625 
L 19.671875 0 
L 9.8125 0 
z
" id="DejaVuSans-73"/>
      <path id="DejaVuSans-32"/>
      <path d="M 8.59375 75.984375 
L 29.296875 75.984375 
L 29.296875 69 
L 17.578125 69 
L 17.578125 -6.203125 
L 29.296875 -6.203125 
L 29.296875 -13.1875 
L 8.59375 -13.1875 
z
" id="DejaVuSans-91"/>
      <path d="M 72.703125 32.078125 
Q 68.453125 32.078125 66.03125 28.46875 
Q 63.625 24.859375 63.625 18.40625 
Q 63.625 12.0625 66.03125 8.421875 
Q 68.453125 4.78125 72.703125 4.78125 
Q 76.859375 4.78125 79.265625 8.421875 
Q 81.6875 12.0625 81.6875 18.40625 
Q 81.6875 24.8125 79.265625 28.4375 
Q 76.859375 32.078125 72.703125 32.078125 
z
M 72.703125 38.28125 
Q 80.421875 38.28125 84.953125 32.90625 
Q 89.5 27.546875 89.5 18.40625 
Q 89.5 9.28125 84.9375 3.921875 
Q 80.375 -1.421875 72.703125 -1.421875 
Q 64.890625 -1.421875 60.34375 3.921875 
Q 55.8125 9.28125 55.8125 18.40625 
Q 55.8125 27.59375 60.375 32.9375 
Q 64.9375 38.28125 72.703125 38.28125 
z
M 22.3125 68.015625 
Q 18.109375 68.015625 15.6875 64.375 
Q 13.28125 60.75 13.28125 54.390625 
Q 13.28125 47.953125 15.671875 44.328125 
Q 18.0625 40.71875 22.3125 40.71875 
Q 26.5625 40.71875 28.96875 44.328125 
Q 31.390625 47.953125 31.390625 54.390625 
Q 31.390625 60.6875 28.953125 64.34375 
Q 26.515625 68.015625 22.3125 68.015625 
z
M 66.40625 74.21875 
L 74.21875 74.21875 
L 28.609375 -1.421875 
L 20.796875 -1.421875 
z
M 22.3125 74.21875 
Q 30.03125 74.21875 34.609375 68.875 
Q 39.203125 63.53125 39.203125 54.390625 
Q 39.203125 45.171875 34.640625 39.84375 
Q 30.078125 34.515625 22.3125 34.515625 
Q 14.546875 34.515625 10.03125 39.859375 
Q 5.515625 45.21875 5.515625 54.390625 
Q 5.515625 63.484375 10.046875 68.84375 
Q 14.59375 74.21875 22.3125 74.21875 
z
" id="DejaVuSans-37"/>
      <path d="M 30.421875 75.984375 
L 30.421875 -13.1875 
L 9.71875 -13.1875 
L 9.71875 -6.203125 
L 21.390625 -6.203125 
L 21.390625 69 
L 9.71875 69 
L 9.71875 75.984375 
z
" id="DejaVuSans-93"/>
     </defs>
     <g transform="translate(601.709375 1211.303125)scale(0.6 -0.6)">
      <use xlink:href="#DejaVuSans-80"/>
      <use x="60.302734" xlink:href="#DejaVuSans-86"/>
      <use x="128.710938" xlink:href="#DejaVuSans-73"/>
      <use x="158.203125" xlink:href="#DejaVuSans-32"/>
      <use x="189.990234" xlink:href="#DejaVuSans-91"/>
      <use x="229.003906" xlink:href="#DejaVuSans-37"/>
      <use x="324.023438" xlink:href="#DejaVuSans-93"/>
     </g>
    </g>
   </g>
   <g id="matplotlib.axis_2">
    <g id="ytick_1">
     <g id="line2d_13">
      <path clip-path="url(#p57db582726)" d="M 152.61875 1067.758454 
L 1268.61875 1067.758454 
" style="fill:none;stroke:#000000;stroke-linecap:square;stroke-width:2;"/>
     </g>
     <g id="line2d_14">
      <defs>
       <path d="M 0 0 
L -3.5 0 
" id="m81916cd447" style="stroke:#000000;stroke-width:0.8;"/>
      </defs>
      <g>
       <use style="stroke:#000000;stroke-width:0.8;" x="152.61875" xlink:href="#m81916cd447" y="1067.758454"/>
      </g>
     </g>
     <g id="text_8">
      <!-- 0 -->
      <g transform="translate(120.16875 1082.955329)scale(0.4 -0.4)">
       <use xlink:href="#DejaVuSans-48"/>
      </g>
     </g>
    </g>
    <g id="ytick_2">
     <g id="line2d_15">
      <path clip-path="url(#p57db582726)" d="M 152.61875 912.344403 
L 1268.61875 912.344403 
" style="fill:none;stroke:#000000;stroke-linecap:square;stroke-width:2;"/>
     </g>
     <g id="line2d_16">
      <g>
       <use style="stroke:#000000;stroke-width:0.8;" x="152.61875" xlink:href="#m81916cd447" y="912.344403"/>
      </g>
     </g>
     <g id="text_9">
      <!-- 20 -->
      <g transform="translate(94.71875 927.541278)scale(0.4 -0.4)">
       <use xlink:href="#DejaVuSans-50"/>
       <use x="63.623047" xlink:href="#DejaVuSans-48"/>
      </g>
     </g>
    </g>
    <g id="ytick_3">
     <g id="line2d_17">
      <path clip-path="url(#p57db582726)" d="M 152.61875 756.930353 
L 1268.61875 756.930353 
" style="fill:none;stroke:#000000;stroke-linecap:square;stroke-width:2;"/>
     </g>
     <g id="line2d_18">
      <g>
       <use style="stroke:#000000;stroke-width:0.8;" x="152.61875" xlink:href="#m81916cd447" y="756.930353"/>
      </g>
     </g>
     <g id="text_10">
      <!-- 40 -->
      <g transform="translate(94.71875 772.127228)scale(0.4 -0.4)">
       <use xlink:href="#DejaVuSans-52"/>
       <use x="63.623047" xlink:href="#DejaVuSans-48"/>
      </g>
     </g>
    </g>
    <g id="ytick_4">
     <g id="line2d_19">
      <path clip-path="url(#p57db582726)" d="M 152.61875 601.516303 
L 1268.61875 601.516303 
" style="fill:none;stroke:#000000;stroke-linecap:square;stroke-width:2;"/>
     </g>
     <g id="line2d_20">
      <g>
       <use style="stroke:#000000;stroke-width:0.8;" x="152.61875" xlink:href="#m81916cd447" y="601.516303"/>
      </g>
     </g>
     <g id="text_11">
      <!-- 60 -->
      <defs>
       <path d="M 33.015625 40.375 
Q 26.375 40.375 22.484375 35.828125 
Q 18.609375 31.296875 18.609375 23.390625 
Q 18.609375 15.53125 22.484375 10.953125 
Q 26.375 6.390625 33.015625 6.390625 
Q 39.65625 6.390625 43.53125 10.953125 
Q 47.40625 15.53125 47.40625 23.390625 
Q 47.40625 31.296875 43.53125 35.828125 
Q 39.65625 40.375 33.015625 40.375 
z
M 52.59375 71.296875 
L 52.59375 62.3125 
Q 48.875 64.0625 45.09375 64.984375 
Q 41.3125 65.921875 37.59375 65.921875 
Q 27.828125 65.921875 22.671875 59.328125 
Q 17.53125 52.734375 16.796875 39.40625 
Q 19.671875 43.65625 24.015625 45.921875 
Q 28.375 48.1875 33.59375 48.1875 
Q 44.578125 48.1875 50.953125 41.515625 
Q 57.328125 34.859375 57.328125 23.390625 
Q 57.328125 12.15625 50.6875 5.359375 
Q 44.046875 -1.421875 33.015625 -1.421875 
Q 20.359375 -1.421875 13.671875 8.265625 
Q 6.984375 17.96875 6.984375 36.375 
Q 6.984375 53.65625 15.1875 63.9375 
Q 23.390625 74.21875 37.203125 74.21875 
Q 40.921875 74.21875 44.703125 73.484375 
Q 48.484375 72.75 52.59375 71.296875 
z
" id="DejaVuSans-54"/>
      </defs>
      <g transform="translate(94.71875 616.713178)scale(0.4 -0.4)">
       <use xlink:href="#DejaVuSans-54"/>
       <use x="63.623047" xlink:href="#DejaVuSans-48"/>
      </g>
     </g>
    </g>
    <g id="ytick_5">
     <g id="line2d_21">
      <path clip-path="url(#p57db582726)" d="M 152.61875 446.102253 
L 1268.61875 446.102253 
" style="fill:none;stroke:#000000;stroke-linecap:square;stroke-width:2;"/>
     </g>
     <g id="line2d_22">
      <g>
       <use style="stroke:#000000;stroke-width:0.8;" x="152.61875" xlink:href="#m81916cd447" y="446.102253"/>
      </g>
     </g>
     <g id="text_12">
      <!-- 80 -->
      <defs>
       <path d="M 31.78125 34.625 
Q 24.75 34.625 20.71875 30.859375 
Q 16.703125 27.09375 16.703125 20.515625 
Q 16.703125 13.921875 20.71875 10.15625 
Q 24.75 6.390625 31.78125 6.390625 
Q 38.8125 6.390625 42.859375 10.171875 
Q 46.921875 13.96875 46.921875 20.515625 
Q 46.921875 27.09375 42.890625 30.859375 
Q 38.875 34.625 31.78125 34.625 
z
M 21.921875 38.8125 
Q 15.578125 40.375 12.03125 44.71875 
Q 8.5 49.078125 8.5 55.328125 
Q 8.5 64.0625 14.71875 69.140625 
Q 20.953125 74.21875 31.78125 74.21875 
Q 42.671875 74.21875 48.875 69.140625 
Q 55.078125 64.0625 55.078125 55.328125 
Q 55.078125 49.078125 51.53125 44.71875 
Q 48 40.375 41.703125 38.8125 
Q 48.828125 37.15625 52.796875 32.3125 
Q 56.78125 27.484375 56.78125 20.515625 
Q 56.78125 9.90625 50.3125 4.234375 
Q 43.84375 -1.421875 31.78125 -1.421875 
Q 19.734375 -1.421875 13.25 4.234375 
Q 6.78125 9.90625 6.78125 20.515625 
Q 6.78125 27.484375 10.78125 32.3125 
Q 14.796875 37.15625 21.921875 38.8125 
z
M 18.3125 54.390625 
Q 18.3125 48.734375 21.84375 45.5625 
Q 25.390625 42.390625 31.78125 42.390625 
Q 38.140625 42.390625 41.71875 45.5625 
Q 45.3125 48.734375 45.3125 54.390625 
Q 45.3125 60.0625 41.71875 63.234375 
Q 38.140625 66.40625 31.78125 66.40625 
Q 25.390625 66.40625 21.84375 63.234375 
Q 18.3125 60.0625 18.3125 54.390625 
z
" id="DejaVuSans-56"/>
      </defs>
      <g transform="translate(94.71875 461.299128)scale(0.4 -0.4)">
       <use xlink:href="#DejaVuSans-56"/>
       <use x="63.623047" xlink:href="#DejaVuSans-48"/>
      </g>
     </g>
    </g>
    <g id="ytick_6">
     <g id="line2d_23">
      <path clip-path="url(#p57db582726)" d="M 152.61875 290.688202 
L 1268.61875 290.688202 
" style="fill:none;stroke:#000000;stroke-linecap:square;stroke-width:2;"/>
     </g>
     <g id="line2d_24">
      <g>
       <use style="stroke:#000000;stroke-width:0.8;" x="152.61875" xlink:href="#m81916cd447" y="290.688202"/>
      </g>
     </g>
     <g id="text_13">
      <!-- 100 -->
      <g transform="translate(69.26875 305.885077)scale(0.4 -0.4)">
       <use xlink:href="#DejaVuSans-49"/>
       <use x="63.623047" xlink:href="#DejaVuSans-48"/>
       <use x="127.246094" xlink:href="#DejaVuSans-48"/>
      </g>
     </g>
    </g>
    <g id="ytick_7">
     <g id="line2d_25">
      <path clip-path="url(#p57db582726)" d="M 152.61875 135.274152 
L 1268.61875 135.274152 
" style="fill:none;stroke:#000000;stroke-linecap:square;stroke-width:2;"/>
     </g>
     <g id="line2d_26">
      <g>
       <use style="stroke:#000000;stroke-width:0.8;" x="152.61875" xlink:href="#m81916cd447" y="135.274152"/>
      </g>
     </g>
     <g id="text_14">
      <!-- 120 -->
      <g transform="translate(69.26875 150.471027)scale(0.4 -0.4)">
       <use xlink:href="#DejaVuSans-49"/>
       <use x="63.623047" xlink:href="#DejaVuSans-50"/>
       <use x="127.246094" xlink:href="#DejaVuSans-48"/>
      </g>
     </g>
    </g>
    <g id="text_15">
     <!-- time [s] -->
     <defs>
      <path d="M 18.3125 70.21875 
L 18.3125 54.6875 
L 36.8125 54.6875 
L 36.8125 47.703125 
L 18.3125 47.703125 
L 18.3125 18.015625 
Q 18.3125 11.328125 20.140625 9.421875 
Q 21.96875 7.515625 27.59375 7.515625 
L 36.8125 7.515625 
L 36.8125 0 
L 27.59375 0 
Q 17.1875 0 13.234375 3.875 
Q 9.28125 7.765625 9.28125 18.015625 
L 9.28125 47.703125 
L 2.6875 47.703125 
L 2.6875 54.6875 
L 9.28125 54.6875 
L 9.28125 70.21875 
z
" id="DejaVuSans-116"/>
      <path d="M 9.421875 54.6875 
L 18.40625 54.6875 
L 18.40625 0 
L 9.421875 0 
z
M 9.421875 75.984375 
L 18.40625 75.984375 
L 18.40625 64.59375 
L 9.421875 64.59375 
z
" id="DejaVuSans-105"/>
      <path d="M 52 44.1875 
Q 55.375 50.25 60.0625 53.125 
Q 64.75 56 71.09375 56 
Q 79.640625 56 84.28125 50.015625 
Q 88.921875 44.046875 88.921875 33.015625 
L 88.921875 0 
L 79.890625 0 
L 79.890625 32.71875 
Q 79.890625 40.578125 77.09375 44.375 
Q 74.3125 48.1875 68.609375 48.1875 
Q 61.625 48.1875 57.5625 43.546875 
Q 53.515625 38.921875 53.515625 30.90625 
L 53.515625 0 
L 44.484375 0 
L 44.484375 32.71875 
Q 44.484375 40.625 41.703125 44.40625 
Q 38.921875 48.1875 33.109375 48.1875 
Q 26.21875 48.1875 22.15625 43.53125 
Q 18.109375 38.875 18.109375 30.90625 
L 18.109375 0 
L 9.078125 0 
L 9.078125 54.6875 
L 18.109375 54.6875 
L 18.109375 46.1875 
Q 21.1875 51.21875 25.484375 53.609375 
Q 29.78125 56 35.6875 56 
Q 41.65625 56 45.828125 52.96875 
Q 50 49.953125 52 44.1875 
z
" id="DejaVuSans-109"/>
      <path d="M 56.203125 29.59375 
L 56.203125 25.203125 
L 14.890625 25.203125 
Q 15.484375 15.921875 20.484375 11.0625 
Q 25.484375 6.203125 34.421875 6.203125 
Q 39.59375 6.203125 44.453125 7.46875 
Q 49.3125 8.734375 54.109375 11.28125 
L 54.109375 2.78125 
Q 49.265625 0.734375 44.1875 -0.34375 
Q 39.109375 -1.421875 33.890625 -1.421875 
Q 20.796875 -1.421875 13.15625 6.1875 
Q 5.515625 13.8125 5.515625 26.8125 
Q 5.515625 40.234375 12.765625 48.109375 
Q 20.015625 56 32.328125 56 
Q 43.359375 56 49.78125 48.890625 
Q 56.203125 41.796875 56.203125 29.59375 
z
M 47.21875 32.234375 
Q 47.125 39.59375 43.09375 43.984375 
Q 39.0625 48.390625 32.421875 48.390625 
Q 24.90625 48.390625 20.390625 44.140625 
Q 15.875 39.890625 15.1875 32.171875 
z
" id="DejaVuSans-101"/>
      <path d="M 44.28125 53.078125 
L 44.28125 44.578125 
Q 40.484375 46.53125 36.375 47.5 
Q 32.28125 48.484375 27.875 48.484375 
Q 21.1875 48.484375 17.84375 46.4375 
Q 14.5 44.390625 14.5 40.28125 
Q 14.5 37.15625 16.890625 35.375 
Q 19.28125 33.59375 26.515625 31.984375 
L 29.59375 31.296875 
Q 39.15625 29.25 43.1875 25.515625 
Q 47.21875 21.78125 47.21875 15.09375 
Q 47.21875 7.46875 41.1875 3.015625 
Q 35.15625 -1.421875 24.609375 -1.421875 
Q 20.21875 -1.421875 15.453125 -0.5625 
Q 10.6875 0.296875 5.421875 2 
L 5.421875 11.28125 
Q 10.40625 8.6875 15.234375 7.390625 
Q 20.0625 6.109375 24.8125 6.109375 
Q 31.15625 6.109375 34.5625 8.28125 
Q 37.984375 10.453125 37.984375 14.40625 
Q 37.984375 18.0625 35.515625 20.015625 
Q 33.0625 21.96875 24.703125 23.78125 
L 21.578125 24.515625 
Q 13.234375 26.265625 9.515625 29.90625 
Q 5.8125 33.546875 5.8125 39.890625 
Q 5.8125 47.609375 11.28125 51.796875 
Q 16.75 56 26.8125 56 
Q 31.78125 56 36.171875 55.265625 
Q 40.578125 54.546875 44.28125 53.078125 
z
" id="DejaVuSans-115"/>
     </defs>
     <g transform="translate(52.790625 677.948438)rotate(-90)scale(0.6 -0.6)">
      <use xlink:href="#DejaVuSans-116"/>
      <use x="39.208984" xlink:href="#DejaVuSans-105"/>
      <use x="66.992188" xlink:href="#DejaVuSans-109"/>
      <use x="164.404297" xlink:href="#DejaVuSans-101"/>
      <use x="225.927734" xlink:href="#DejaVuSans-32"/>
      <use x="257.714844" xlink:href="#DejaVuSans-91"/>
      <use x="296.728516" xlink:href="#DejaVuSans-115"/>
      <use x="348.828125" xlink:href="#DejaVuSans-93"/>
     </g>
    </g>
   </g>
   <g id="line2d_27">
    <path clip-path="url(#p57db582726)" d="M 203.346023 1054.771749 
L 302.156348 1047.44046 
L 309.114822 1046.89473 
L 335.557022 1044.915979 
L 446.8926 1036.442151 
L 512.302252 1031.142266 
L 554.053093 1027.61931 
L 613.895967 1022.375775 
L 658.430198 1018.309953 
L 679.305619 1016.289154 
L 719.664766 1012.436958 
L 805.949839 1003.729678 
L 915.893722 992.199732 
L 1014.704047 981.266321 
L 1103.77251 971.329154 
L 1190.057583 961.743863 
L 1217.891477 958.654936 
L 1217.891477 958.654936 
" style="fill:none;stroke:#1f77b4;stroke-linecap:square;stroke-width:3;"/>
   </g>
   <g id="line2d_28">
    <path clip-path="url(#p57db582726)" d="M 203.346023 1065.6 
L 208.131614 1061.57505 
L 210.52441 1059.286698 
L 212.917206 1057.196101 
L 215.310002 1053.360457 
L 217.702798 1049.953961 
L 220.095594 1047.27413 
L 224.881186 1043.116414 
L 232.059573 1033.981776 
L 234.452369 1031.996696 
L 236.845165 1029.485813 
L 239.237961 1025.557088 
L 244.023553 1021.516206 
L 255.987532 1010.900446 
L 258.380328 1007.676989 
L 263.16592 1003.527325 
L 265.558716 1001.445149 
L 267.951512 999.080066 
L 270.344307 997.086859 
L 272.737103 994.073995 
L 284.701083 983.750614 
L 287.093879 980.455952 
L 291.87947 976.219926 
L 294.272266 973.554564 
L 296.665062 971.958458 
L 299.057858 969.200811 
L 301.450654 966.871996 
L 311.021837 958.834724 
L 313.414633 956.16245 
L 315.807429 954.200975 
L 320.593021 950.072908 
L 330.164205 942.090064 
L 332.557 939.91224 
L 334.949796 937.26669 
L 339.735388 933.125731 
L 344.52098 929.231744 
L 346.913776 926.927212 
L 349.306572 924.973656 
L 351.699367 922.310768 
L 356.484959 918.098773 
L 358.877755 914.782999 
L 361.270551 912.484578 
L 363.663347 909.974204 
L 366.056143 907.866291 
L 368.448939 904.351244 
L 375.627326 898.366234 
L 378.020122 896.449074 
L 380.412918 893.848643 
L 382.805714 890.917306 
L 389.984102 884.318584 
L 397.162489 878.256973 
L 399.555285 876.286376 
L 401.948081 874.145758 
L 421.090448 858.409868 
L 425.87604 854.220531 
L 435.447223 846.360445 
L 442.625611 840.330832 
L 449.803999 834.348068 
L 452.196795 831.860884 
L 456.982386 827.933865 
L 461.767978 823.951993 
L 464.160774 822.04563 
L 466.55357 819.762813 
L 473.731958 813.455617 
L 480.910345 806.717735 
L 485.695937 802.155713 
L 497.659916 790.846633 
L 500.052712 788.629862 
L 512.016692 776.867244 
L 514.409488 774.632836 
L 516.802283 770.368159 
L 519.195079 767.558731 
L 521.587875 765.307685 
L 523.980671 761.999056 
L 526.373467 759.788792 
L 531.159059 754.477362 
L 538.337446 746.626024 
L 540.730242 743.849867 
L 543.123038 741.334789 
L 545.515834 738.046499 
L 550.301426 732.836895 
L 552.694222 729.622298 
L 557.479813 724.513108 
L 559.872609 721.240749 
L 564.658201 716.134006 
L 569.443793 710.864805 
L 574.229385 705.695032 
L 586.193364 692.71798 
L 588.58616 689.984838 
L 590.978956 687.431052 
L 593.371752 685.824107 
L 600.550139 677.887473 
L 602.942935 676.323146 
L 605.335731 674.474761 
L 607.728527 671.901362 
L 610.121323 668.38015 
L 612.514119 665.805871 
L 614.906915 664.21201 
L 617.299711 661.377059 
L 622.085302 656.169805 
L 624.478098 653.094344 
L 626.870894 651.396504 
L 629.26369 648.773357 
L 631.656486 646.883046 
L 636.442078 642.565439 
L 638.834873 639.768531 
L 641.227669 638.001708 
L 643.620465 635.44255 
L 648.406057 630.109199 
L 650.798853 628.080261 
L 662.762832 619.360917 
L 669.94122 614.214624 
L 672.334016 612.496403 
L 674.726812 610.093719 
L 677.119608 608.469681 
L 679.512404 606.384195 
L 684.297995 602.666678 
L 686.690791 600.610918 
L 689.083587 598.262326 
L 696.261975 592.157478 
L 701.047566 587.147155 
L 703.440362 584.912928 
L 713.011546 575.354303 
L 715.404342 572.719012 
L 720.189934 567.893956 
L 722.582729 565.083831 
L 724.975525 562.927443 
L 729.761117 558.213845 
L 732.153913 556.155851 
L 734.546709 553.621513 
L 736.939505 550.888017 
L 746.510688 540.850544 
L 756.081872 531.230664 
L 760.867464 525.843311 
L 763.260259 523.156243 
L 768.045851 518.236426 
L 770.438647 516.299371 
L 780.009831 506.09379 
L 784.795422 501.357088 
L 787.188218 498.845924 
L 789.581014 495.927901 
L 791.97381 493.68388 
L 796.759402 488.317002 
L 801.544994 483.202763 
L 803.937789 480.702396 
L 806.330585 478.565472 
L 813.508973 471.096196 
L 815.901769 468.116998 
L 825.472952 458.404372 
L 827.865748 456.205967 
L 830.258544 453.693247 
L 837.436932 447.004631 
L 839.829728 444.386953 
L 844.615319 439.682491 
L 849.400911 435.350233 
L 851.793707 432.859012 
L 854.186503 430.551818 
L 858.972095 426.345695 
L 861.364891 424.373417 
L 863.757687 422.013547 
L 866.150482 419.84616 
L 868.543278 417.329784 
L 873.32887 412.963256 
L 885.292849 400.984901 
L 887.685645 398.193442 
L 904.435217 380.882303 
L 909.220808 376.093722 
L 918.791992 368.008294 
L 921.184788 366.065483 
L 923.577584 363.354403 
L 935.541563 351.002991 
L 937.934359 349.048082 
L 945.112747 341.466983 
L 949.898338 336.708271 
L 959.469522 326.690036 
L 961.862318 324.619934 
L 964.255114 322.266011 
L 966.64791 320.233177 
L 971.433501 315.432848 
L 973.826297 312.860797 
L 976.219093 309.979071 
L 983.397481 302.364799 
L 992.968664 292.108469 
L 997.754256 287.555624 
L 1000.147052 285.074673 
L 1002.539848 281.932723 
L 1004.932644 279.253942 
L 1007.32544 276.988654 
L 1009.718235 274.450227 
L 1012.111031 271.277449 
L 1014.503827 268.653561 
L 1016.896623 265.656246 
L 1019.289419 262.99486 
L 1021.682215 260.64986 
L 1024.075011 257.414465 
L 1028.860602 252.277921 
L 1031.253398 249.169958 
L 1033.646194 246.839402 
L 1036.03899 244.100244 
L 1038.431786 241.00698 
L 1040.824582 238.3959 
L 1045.610174 233.762984 
L 1052.788561 226.258535 
L 1055.181357 223.666209 
L 1057.574153 221.46457 
L 1059.966949 218.940914 
L 1064.752541 214.664711 
L 1067.145337 212.168526 
L 1074.323724 205.543445 
L 1076.71652 203.401028 
L 1081.502112 198.488168 
L 1086.287704 193.378225 
L 1095.858887 183.346005 
L 1098.251683 180.978139 
L 1100.644479 178.836255 
L 1107.822867 171.822153 
L 1112.608458 167.602801 
L 1117.39405 162.953973 
L 1122.179642 157.553682 
L 1124.572438 154.474232 
L 1129.35803 149.0822 
L 1134.143621 144.34858 
L 1136.536417 141.947918 
L 1138.929213 139.717174 
L 1143.714805 134.621596 
L 1146.107601 132.483882 
L 1153.285988 125.366372 
L 1155.678784 122.6614 
L 1158.07158 120.263899 
L 1160.464376 117.202099 
L 1162.857172 115.061743 
L 1165.249968 113.078669 
L 1174.821151 103.487048 
L 1191.570723 85.607562 
L 1203.534702 72.473801 
L 1208.320294 67.385133 
L 1210.71309 65.196297 
L 1217.891477 57.6 
L 1217.891477 57.6 
" style="fill:none;stroke:#ff7f0e;stroke-linecap:square;stroke-width:3;"/>
   </g>
   <g id="patch_3">
    <path d="M 152.61875 1116 
L 152.61875 7.2 
" style="fill:none;stroke:#000000;stroke-linecap:square;stroke-linejoin:miter;stroke-width:3;"/>
   </g>
   <g id="patch_4">
    <path d="M 1268.61875 1116 
L 1268.61875 7.2 
" style="fill:none;stroke:#000000;stroke-linecap:square;stroke-linejoin:miter;stroke-width:3;"/>
   </g>
   <g id="patch_5">
    <path d="M 152.61875 1116 
L 1268.61875 1116 
" style="fill:none;stroke:#000000;stroke-linecap:square;stroke-linejoin:miter;stroke-width:3;"/>
   </g>
   <g id="patch_6">
    <path d="M 152.61875 7.2 
L 1268.61875 7.2 
" style="fill:none;stroke:#000000;stroke-linecap:square;stroke-linejoin:miter;stroke-width:3;"/>
   </g>
   <g id="legend_1">
    <g id="patch_7">
     <path d="M 180.61875 156.625 
L 614.875 156.625 
Q 622.875 156.625 622.875 148.625 
L 622.875 35.2 
Q 622.875 27.2 614.875 27.2 
L 180.61875 27.2 
Q 172.61875 27.2 172.61875 35.2 
L 172.61875 148.625 
Q 172.61875 156.625 180.61875 156.625 
z
" style="fill:#ffffff;opacity:0.8;stroke:#cccccc;stroke-linejoin:miter;"/>
    </g>
    <g id="line2d_29">
     <path d="M 188.61875 59.59375 
L 268.61875 59.59375 
" style="fill:none;stroke:#1f77b4;stroke-linecap:square;stroke-width:3;"/>
    </g>
    <g id="line2d_30"/>
    <g id="text_16">
     <!-- NU-ADM 13200 -->
     <defs>
      <path d="M 9.8125 72.90625 
L 23.09375 72.90625 
L 55.421875 11.921875 
L 55.421875 72.90625 
L 64.984375 72.90625 
L 64.984375 0 
L 51.703125 0 
L 19.390625 60.984375 
L 19.390625 0 
L 9.8125 0 
z
" id="DejaVuSans-78"/>
      <path d="M 8.6875 72.90625 
L 18.609375 72.90625 
L 18.609375 28.609375 
Q 18.609375 16.890625 22.84375 11.734375 
Q 27.09375 6.59375 36.625 6.59375 
Q 46.09375 6.59375 50.34375 11.734375 
Q 54.59375 16.890625 54.59375 28.609375 
L 54.59375 72.90625 
L 64.5 72.90625 
L 64.5 27.390625 
Q 64.5 13.140625 57.4375 5.859375 
Q 50.390625 -1.421875 36.625 -1.421875 
Q 22.796875 -1.421875 15.734375 5.859375 
Q 8.6875 13.140625 8.6875 27.390625 
z
" id="DejaVuSans-85"/>
      <path d="M 4.890625 31.390625 
L 31.203125 31.390625 
L 31.203125 23.390625 
L 4.890625 23.390625 
z
" id="DejaVuSans-45"/>
      <path d="M 34.1875 63.1875 
L 20.796875 26.90625 
L 47.609375 26.90625 
z
M 28.609375 72.90625 
L 39.796875 72.90625 
L 67.578125 0 
L 57.328125 0 
L 50.6875 18.703125 
L 17.828125 18.703125 
L 11.1875 0 
L 0.78125 0 
z
" id="DejaVuSans-65"/>
      <path d="M 19.671875 64.796875 
L 19.671875 8.109375 
L 31.59375 8.109375 
Q 46.6875 8.109375 53.6875 14.9375 
Q 60.6875 21.78125 60.6875 36.53125 
Q 60.6875 51.171875 53.6875 57.984375 
Q 46.6875 64.796875 31.59375 64.796875 
z
M 9.8125 72.90625 
L 30.078125 72.90625 
Q 51.265625 72.90625 61.171875 64.09375 
Q 71.09375 55.28125 71.09375 36.53125 
Q 71.09375 17.671875 61.125 8.828125 
Q 51.171875 0 30.078125 0 
L 9.8125 0 
z
" id="DejaVuSans-68"/>
      <path d="M 9.8125 72.90625 
L 24.515625 72.90625 
L 43.109375 23.296875 
L 61.8125 72.90625 
L 76.515625 72.90625 
L 76.515625 0 
L 66.890625 0 
L 66.890625 64.015625 
L 48.09375 14.015625 
L 38.1875 14.015625 
L 19.390625 64.015625 
L 19.390625 0 
L 9.8125 0 
z
" id="DejaVuSans-77"/>
     </defs>
     <g transform="translate(300.61875 73.59375)scale(0.4 -0.4)">
      <use xlink:href="#DejaVuSans-78"/>
      <use x="74.804688" xlink:href="#DejaVuSans-85"/>
      <use x="147.998047" xlink:href="#DejaVuSans-45"/>
      <use x="184.050781" xlink:href="#DejaVuSans-65"/>
      <use x="252.458984" xlink:href="#DejaVuSans-68"/>
      <use x="329.460938" xlink:href="#DejaVuSans-77"/>
      <use x="415.740234" xlink:href="#DejaVuSans-32"/>
      <use x="447.527344" xlink:href="#DejaVuSans-49"/>
      <use x="511.150391" xlink:href="#DejaVuSans-51"/>
      <use x="574.773438" xlink:href="#DejaVuSans-50"/>
      <use x="638.396484" xlink:href="#DejaVuSans-48"/>
      <use x="702.019531" xlink:href="#DejaVuSans-48"/>
     </g>
    </g>
    <g id="line2d_31">
     <path d="M 188.61875 118.30625 
L 268.61875 118.30625 
" style="fill:none;stroke:#ff7f0e;stroke-linecap:square;stroke-width:3;"/>
    </g>
    <g id="line2d_32"/>
    <g id="text_17">
     <!-- fs 13200 -->
     <defs>
      <path d="M 37.109375 75.984375 
L 37.109375 68.5 
L 28.515625 68.5 
Q 23.6875 68.5 21.796875 66.546875 
Q 19.921875 64.59375 19.921875 59.515625 
L 19.921875 54.6875 
L 34.71875 54.6875 
L 34.71875 47.703125 
L 19.921875 47.703125 
L 19.921875 0 
L 10.890625 0 
L 10.890625 47.703125 
L 2.296875 47.703125 
L 2.296875 54.6875 
L 10.890625 54.6875 
L 10.890625 58.5 
Q 10.890625 67.625 15.140625 71.796875 
Q 19.390625 75.984375 28.609375 75.984375 
z
" id="DejaVuSans-102"/>
     </defs>
     <g transform="translate(300.61875 132.30625)scale(0.4 -0.4)">
      <use xlink:href="#DejaVuSans-102"/>
      <use x="35.205078" xlink:href="#DejaVuSans-115"/>
      <use x="87.304688" xlink:href="#DejaVuSans-32"/>
      <use x="119.091797" xlink:href="#DejaVuSans-49"/>
      <use x="182.714844" xlink:href="#DejaVuSans-51"/>
      <use x="246.337891" xlink:href="#DejaVuSans-50"/>
      <use x="309.960938" xlink:href="#DejaVuSans-48"/>
      <use x="373.583984" xlink:href="#DejaVuSans-48"/>
     </g>
    </g>
   </g>
  </g>
 </g>
 <defs>
  <clipPath id="p57db582726">
   <rect height="1108.8" width="1116" x="152.61875" y="7.2"/>
  </clipPath>
 </defs>
</svg>
