<?xml version="1.0" encoding="utf-8" standalone="no"?>
<!DOCTYPE svg PUBLIC "-//W3C//DTD SVG 1.1//EN"
  "http://www.w3.org/Graphics/SVG/1.1/DTD/svg11.dtd">
<!-- Created with matplotlib (https://matplotlib.org/) -->
<svg height="1264.375pt" version="1.1" viewBox="0 0 1265.6125 1264.375" width="1265.6125pt" xmlns="http://www.w3.org/2000/svg" xmlns:xlink="http://www.w3.org/1999/xlink">
 <defs>
  <style type="text/css">
*{stroke-linecap:butt;stroke-linejoin:round;}
  </style>
 </defs>
 <g id="figure_1">
  <g id="patch_1">
   <path d="M 0 1264.375 
L 1265.6125 1264.375 
L 1265.6125 0 
L 0 0 
z
" style="fill:none;"/>
  </g>
  <g id="axes_1">
   <g id="patch_2">
    <path d="M 142.4125 1149.39375 
L 1258.4125 1149.39375 
L 1258.4125 40.59375 
L 142.4125 40.59375 
z
" style="fill:none;"/>
   </g>
   <g id="matplotlib.axis_1">
    <g id="xtick_1">
     <g id="line2d_1">
      <path clip-path="url(#pa9abdf91ff)" d="M 193.139773 1149.39375 
L 193.139773 40.59375 
" style="fill:none;stroke:#000000;stroke-linecap:square;stroke-width:2;"/>
     </g>
     <g id="line2d_2">
      <defs>
       <path d="M 0 0 
L 0 3.5 
" id="m699a1b7c3e" style="stroke:#000000;stroke-width:0.8;"/>
      </defs>
      <g>
       <use style="stroke:#000000;stroke-width:0.8;" x="193.139773" xlink:href="#m699a1b7c3e" y="1149.39375"/>
      </g>
     </g>
     <g id="text_1">
      <!-- 0 -->
      <defs>
       <path d="M 31.78125 66.40625 
Q 24.171875 66.40625 20.328125 58.90625 
Q 16.5 51.421875 16.5 36.375 
Q 16.5 21.390625 20.328125 13.890625 
Q 24.171875 6.390625 31.78125 6.390625 
Q 39.453125 6.390625 43.28125 13.890625 
Q 47.125 21.390625 47.125 36.375 
Q 47.125 51.421875 43.28125 58.90625 
Q 39.453125 66.40625 31.78125 66.40625 
z
M 31.78125 74.21875 
Q 44.046875 74.21875 50.515625 64.515625 
Q 56.984375 54.828125 56.984375 36.375 
Q 56.984375 17.96875 50.515625 8.265625 
Q 44.046875 -1.421875 31.78125 -1.421875 
Q 19.53125 -1.421875 13.0625 8.265625 
Q 6.59375 17.96875 6.59375 36.375 
Q 6.59375 54.828125 13.0625 64.515625 
Q 19.53125 74.21875 31.78125 74.21875 
z
" id="DejaVuSans-48"/>
      </defs>
      <g transform="translate(180.414773 1186.7875)scale(0.4 -0.4)">
       <use xlink:href="#DejaVuSans-48"/>
      </g>
     </g>
    </g>
    <g id="xtick_2">
     <g id="line2d_3">
      <path clip-path="url(#pa9abdf91ff)" d="M 396.048864 1149.39375 
L 396.048864 40.59375 
" style="fill:none;stroke:#000000;stroke-linecap:square;stroke-width:2;"/>
     </g>
     <g id="line2d_4">
      <g>
       <use style="stroke:#000000;stroke-width:0.8;" x="396.048864" xlink:href="#m699a1b7c3e" y="1149.39375"/>
      </g>
     </g>
     <g id="text_2">
      <!-- 10 -->
      <defs>
       <path d="M 12.40625 8.296875 
L 28.515625 8.296875 
L 28.515625 63.921875 
L 10.984375 60.40625 
L 10.984375 69.390625 
L 28.421875 72.90625 
L 38.28125 72.90625 
L 38.28125 8.296875 
L 54.390625 8.296875 
L 54.390625 0 
L 12.40625 0 
z
" id="DejaVuSans-49"/>
      </defs>
      <g transform="translate(370.598864 1186.7875)scale(0.4 -0.4)">
       <use xlink:href="#DejaVuSans-49"/>
       <use x="63.623047" xlink:href="#DejaVuSans-48"/>
      </g>
     </g>
    </g>
    <g id="xtick_3">
     <g id="line2d_5">
      <path clip-path="url(#pa9abdf91ff)" d="M 598.957955 1149.39375 
L 598.957955 40.59375 
" style="fill:none;stroke:#000000;stroke-linecap:square;stroke-width:2;"/>
     </g>
     <g id="line2d_6">
      <g>
       <use style="stroke:#000000;stroke-width:0.8;" x="598.957955" xlink:href="#m699a1b7c3e" y="1149.39375"/>
      </g>
     </g>
     <g id="text_3">
      <!-- 20 -->
      <defs>
       <path d="M 19.1875 8.296875 
L 53.609375 8.296875 
L 53.609375 0 
L 7.328125 0 
L 7.328125 8.296875 
Q 12.9375 14.109375 22.625 23.890625 
Q 32.328125 33.6875 34.8125 36.53125 
Q 39.546875 41.84375 41.421875 45.53125 
Q 43.3125 49.21875 43.3125 52.78125 
Q 43.3125 58.59375 39.234375 62.25 
Q 35.15625 65.921875 28.609375 65.921875 
Q 23.96875 65.921875 18.8125 64.3125 
Q 13.671875 62.703125 7.8125 59.421875 
L 7.8125 69.390625 
Q 13.765625 71.78125 18.9375 73 
Q 24.125 74.21875 28.421875 74.21875 
Q 39.75 74.21875 46.484375 68.546875 
Q 53.21875 62.890625 53.21875 53.421875 
Q 53.21875 48.921875 51.53125 44.890625 
Q 49.859375 40.875 45.40625 35.40625 
Q 44.1875 33.984375 37.640625 27.21875 
Q 31.109375 20.453125 19.1875 8.296875 
z
" id="DejaVuSans-50"/>
      </defs>
      <g transform="translate(573.507955 1186.7875)scale(0.4 -0.4)">
       <use xlink:href="#DejaVuSans-50"/>
       <use x="63.623047" xlink:href="#DejaVuSans-48"/>
      </g>
     </g>
    </g>
    <g id="xtick_4">
     <g id="line2d_7">
      <path clip-path="url(#pa9abdf91ff)" d="M 801.867045 1149.39375 
L 801.867045 40.59375 
" style="fill:none;stroke:#000000;stroke-linecap:square;stroke-width:2;"/>
     </g>
     <g id="line2d_8">
      <g>
       <use style="stroke:#000000;stroke-width:0.8;" x="801.867045" xlink:href="#m699a1b7c3e" y="1149.39375"/>
      </g>
     </g>
     <g id="text_4">
      <!-- 30 -->
      <defs>
       <path d="M 40.578125 39.3125 
Q 47.65625 37.796875 51.625 33 
Q 55.609375 28.21875 55.609375 21.1875 
Q 55.609375 10.40625 48.1875 4.484375 
Q 40.765625 -1.421875 27.09375 -1.421875 
Q 22.515625 -1.421875 17.65625 -0.515625 
Q 12.796875 0.390625 7.625 2.203125 
L 7.625 11.71875 
Q 11.71875 9.328125 16.59375 8.109375 
Q 21.484375 6.890625 26.8125 6.890625 
Q 36.078125 6.890625 40.9375 10.546875 
Q 45.796875 14.203125 45.796875 21.1875 
Q 45.796875 27.640625 41.28125 31.265625 
Q 36.765625 34.90625 28.71875 34.90625 
L 20.21875 34.90625 
L 20.21875 43.015625 
L 29.109375 43.015625 
Q 36.375 43.015625 40.234375 45.921875 
Q 44.09375 48.828125 44.09375 54.296875 
Q 44.09375 59.90625 40.109375 62.90625 
Q 36.140625 65.921875 28.71875 65.921875 
Q 24.65625 65.921875 20.015625 65.03125 
Q 15.375 64.15625 9.8125 62.3125 
L 9.8125 71.09375 
Q 15.4375 72.65625 20.34375 73.4375 
Q 25.25 74.21875 29.59375 74.21875 
Q 40.828125 74.21875 47.359375 69.109375 
Q 53.90625 64.015625 53.90625 55.328125 
Q 53.90625 49.265625 50.4375 45.09375 
Q 46.96875 40.921875 40.578125 39.3125 
z
" id="DejaVuSans-51"/>
      </defs>
      <g transform="translate(776.417045 1186.7875)scale(0.4 -0.4)">
       <use xlink:href="#DejaVuSans-51"/>
       <use x="63.623047" xlink:href="#DejaVuSans-48"/>
      </g>
     </g>
    </g>
    <g id="xtick_5">
     <g id="line2d_9">
      <path clip-path="url(#pa9abdf91ff)" d="M 1004.776136 1149.39375 
L 1004.776136 40.59375 
" style="fill:none;stroke:#000000;stroke-linecap:square;stroke-width:2;"/>
     </g>
     <g id="line2d_10">
      <g>
       <use style="stroke:#000000;stroke-width:0.8;" x="1004.776136" xlink:href="#m699a1b7c3e" y="1149.39375"/>
      </g>
     </g>
     <g id="text_5">
      <!-- 40 -->
      <defs>
       <path d="M 37.796875 64.3125 
L 12.890625 25.390625 
L 37.796875 25.390625 
z
M 35.203125 72.90625 
L 47.609375 72.90625 
L 47.609375 25.390625 
L 58.015625 25.390625 
L 58.015625 17.1875 
L 47.609375 17.1875 
L 47.609375 0 
L 37.796875 0 
L 37.796875 17.1875 
L 4.890625 17.1875 
L 4.890625 26.703125 
z
" id="DejaVuSans-52"/>
      </defs>
      <g transform="translate(979.326136 1186.7875)scale(0.4 -0.4)">
       <use xlink:href="#DejaVuSans-52"/>
       <use x="63.623047" xlink:href="#DejaVuSans-48"/>
      </g>
     </g>
    </g>
    <g id="xtick_6">
     <g id="line2d_11">
      <path clip-path="url(#pa9abdf91ff)" d="M 1207.685227 1149.39375 
L 1207.685227 40.59375 
" style="fill:none;stroke:#000000;stroke-linecap:square;stroke-width:2;"/>
     </g>
     <g id="line2d_12">
      <g>
       <use style="stroke:#000000;stroke-width:0.8;" x="1207.685227" xlink:href="#m699a1b7c3e" y="1149.39375"/>
      </g>
     </g>
     <g id="text_6">
      <!-- 50 -->
      <defs>
       <path d="M 10.796875 72.90625 
L 49.515625 72.90625 
L 49.515625 64.59375 
L 19.828125 64.59375 
L 19.828125 46.734375 
Q 21.96875 47.46875 24.109375 47.828125 
Q 26.265625 48.1875 28.421875 48.1875 
Q 40.625 48.1875 47.75 41.5 
Q 54.890625 34.8125 54.890625 23.390625 
Q 54.890625 11.625 47.5625 5.09375 
Q 40.234375 -1.421875 26.90625 -1.421875 
Q 22.3125 -1.421875 17.546875 -0.640625 
Q 12.796875 0.140625 7.71875 1.703125 
L 7.71875 11.625 
Q 12.109375 9.234375 16.796875 8.0625 
Q 21.484375 6.890625 26.703125 6.890625 
Q 35.15625 6.890625 40.078125 11.328125 
Q 45.015625 15.765625 45.015625 23.390625 
Q 45.015625 31 40.078125 35.4375 
Q 35.15625 39.890625 26.703125 39.890625 
Q 22.75 39.890625 18.8125 39.015625 
Q 14.890625 38.140625 10.796875 36.28125 
z
" id="DejaVuSans-53"/>
      </defs>
      <g transform="translate(1182.235227 1186.7875)scale(0.4 -0.4)">
       <use xlink:href="#DejaVuSans-53"/>
       <use x="63.623047" xlink:href="#DejaVuSans-48"/>
      </g>
     </g>
    </g>
    <g id="text_7">
     <!-- VPI [%] -->
     <defs>
      <path d="M 28.609375 0 
L 0.78125 72.90625 
L 11.078125 72.90625 
L 34.1875 11.53125 
L 57.328125 72.90625 
L 67.578125 72.90625 
L 39.796875 0 
z
" id="DejaVuSans-86"/>
      <path d="M 19.671875 64.796875 
L 19.671875 37.40625 
L 32.078125 37.40625 
Q 38.96875 37.40625 42.71875 40.96875 
Q 46.484375 44.53125 46.484375 51.125 
Q 46.484375 57.671875 42.71875 61.234375 
Q 38.96875 64.796875 32.078125 64.796875 
z
M 9.8125 72.90625 
L 32.078125 72.90625 
Q 44.34375 72.90625 50.609375 67.359375 
Q 56.890625 61.8125 56.890625 51.125 
Q 56.890625 40.328125 50.609375 34.8125 
Q 44.34375 29.296875 32.078125 29.296875 
L 19.671875 29.296875 
L 19.671875 0 
L 9.8125 0 
z
" id="DejaVuSans-80"/>
      <path d="M 9.8125 72.90625 
L 19.671875 72.90625 
L 19.671875 0 
L 9.8125 0 
z
" id="DejaVuSans-73"/>
      <path id="DejaVuSans-32"/>
      <path d="M 8.59375 75.984375 
L 29.296875 75.984375 
L 29.296875 69 
L 17.578125 69 
L 17.578125 -6.203125 
L 29.296875 -6.203125 
L 29.296875 -13.1875 
L 8.59375 -13.1875 
z
" id="DejaVuSans-91"/>
      <path d="M 72.703125 32.078125 
Q 68.453125 32.078125 66.03125 28.46875 
Q 63.625 24.859375 63.625 18.40625 
Q 63.625 12.0625 66.03125 8.421875 
Q 68.453125 4.78125 72.703125 4.78125 
Q 76.859375 4.78125 79.265625 8.421875 
Q 81.6875 12.0625 81.6875 18.40625 
Q 81.6875 24.8125 79.265625 28.4375 
Q 76.859375 32.078125 72.703125 32.078125 
z
M 72.703125 38.28125 
Q 80.421875 38.28125 84.953125 32.90625 
Q 89.5 27.546875 89.5 18.40625 
Q 89.5 9.28125 84.9375 3.921875 
Q 80.375 -1.421875 72.703125 -1.421875 
Q 64.890625 -1.421875 60.34375 3.921875 
Q 55.8125 9.28125 55.8125 18.40625 
Q 55.8125 27.59375 60.375 32.9375 
Q 64.9375 38.28125 72.703125 38.28125 
z
M 22.3125 68.015625 
Q 18.109375 68.015625 15.6875 64.375 
Q 13.28125 60.75 13.28125 54.390625 
Q 13.28125 47.953125 15.671875 44.328125 
Q 18.0625 40.71875 22.3125 40.71875 
Q 26.5625 40.71875 28.96875 44.328125 
Q 31.390625 47.953125 31.390625 54.390625 
Q 31.390625 60.6875 28.953125 64.34375 
Q 26.515625 68.015625 22.3125 68.015625 
z
M 66.40625 74.21875 
L 74.21875 74.21875 
L 28.609375 -1.421875 
L 20.796875 -1.421875 
z
M 22.3125 74.21875 
Q 30.03125 74.21875 34.609375 68.875 
Q 39.203125 63.53125 39.203125 54.390625 
Q 39.203125 45.171875 34.640625 39.84375 
Q 30.078125 34.515625 22.3125 34.515625 
Q 14.546875 34.515625 10.03125 39.859375 
Q 5.515625 45.21875 5.515625 54.390625 
Q 5.515625 63.484375 10.046875 68.84375 
Q 14.59375 74.21875 22.3125 74.21875 
z
" id="DejaVuSans-37"/>
      <path d="M 30.421875 75.984375 
L 30.421875 -13.1875 
L 9.71875 -13.1875 
L 9.71875 -6.203125 
L 21.390625 -6.203125 
L 21.390625 69 
L 9.71875 69 
L 9.71875 75.984375 
z
" id="DejaVuSans-93"/>
     </defs>
     <g transform="translate(591.503125 1244.696875)scale(0.6 -0.6)">
      <use xlink:href="#DejaVuSans-86"/>
      <use x="68.408203" xlink:href="#DejaVuSans-80"/>
      <use x="128.710938" xlink:href="#DejaVuSans-73"/>
      <use x="158.203125" xlink:href="#DejaVuSans-32"/>
      <use x="189.990234" xlink:href="#DejaVuSans-91"/>
      <use x="229.003906" xlink:href="#DejaVuSans-37"/>
      <use x="324.023438" xlink:href="#DejaVuSans-93"/>
     </g>
    </g>
   </g>
   <g id="matplotlib.axis_2">
    <g id="ytick_1">
     <g id="line2d_13">
      <path clip-path="url(#pa9abdf91ff)" d="M 142.4125 1099.818302 
L 1258.4125 1099.818302 
" style="fill:none;stroke:#000000;stroke-linecap:square;stroke-width:2;"/>
     </g>
     <g id="line2d_14">
      <defs>
       <path d="M 0 0 
L -3.5 0 
" id="m44b89d2c15" style="stroke:#000000;stroke-width:0.8;"/>
      </defs>
      <g>
       <use style="stroke:#000000;stroke-width:0.8;" x="142.4125" xlink:href="#m44b89d2c15" y="1099.818302"/>
      </g>
     </g>
     <g id="text_8">
      <!-- 0.0 -->
      <defs>
       <path d="M 10.6875 12.40625 
L 21 12.40625 
L 21 0 
L 10.6875 0 
z
" id="DejaVuSans-46"/>
      </defs>
      <g transform="translate(71.8 1115.015177)scale(0.4 -0.4)">
       <use xlink:href="#DejaVuSans-48"/>
       <use x="63.623047" xlink:href="#DejaVuSans-46"/>
       <use x="95.410156" xlink:href="#DejaVuSans-48"/>
      </g>
     </g>
    </g>
    <g id="ytick_2">
     <g id="line2d_15">
      <path clip-path="url(#pa9abdf91ff)" d="M 142.4125 912.973019 
L 1258.4125 912.973019 
" style="fill:none;stroke:#000000;stroke-linecap:square;stroke-width:2;"/>
     </g>
     <g id="line2d_16">
      <g>
       <use style="stroke:#000000;stroke-width:0.8;" x="142.4125" xlink:href="#m44b89d2c15" y="912.973019"/>
      </g>
     </g>
     <g id="text_9">
      <!-- 0.5 -->
      <g transform="translate(71.8 928.169894)scale(0.4 -0.4)">
       <use xlink:href="#DejaVuSans-48"/>
       <use x="63.623047" xlink:href="#DejaVuSans-46"/>
       <use x="95.410156" xlink:href="#DejaVuSans-53"/>
      </g>
     </g>
    </g>
    <g id="ytick_3">
     <g id="line2d_17">
      <path clip-path="url(#pa9abdf91ff)" d="M 142.4125 726.127736 
L 1258.4125 726.127736 
" style="fill:none;stroke:#000000;stroke-linecap:square;stroke-width:2;"/>
     </g>
     <g id="line2d_18">
      <g>
       <use style="stroke:#000000;stroke-width:0.8;" x="142.4125" xlink:href="#m44b89d2c15" y="726.127736"/>
      </g>
     </g>
     <g id="text_10">
      <!-- 1.0 -->
      <g transform="translate(71.8 741.324611)scale(0.4 -0.4)">
       <use xlink:href="#DejaVuSans-49"/>
       <use x="63.623047" xlink:href="#DejaVuSans-46"/>
       <use x="95.410156" xlink:href="#DejaVuSans-48"/>
      </g>
     </g>
    </g>
    <g id="ytick_4">
     <g id="line2d_19">
      <path clip-path="url(#pa9abdf91ff)" d="M 142.4125 539.282452 
L 1258.4125 539.282452 
" style="fill:none;stroke:#000000;stroke-linecap:square;stroke-width:2;"/>
     </g>
     <g id="line2d_20">
      <g>
       <use style="stroke:#000000;stroke-width:0.8;" x="142.4125" xlink:href="#m44b89d2c15" y="539.282452"/>
      </g>
     </g>
     <g id="text_11">
      <!-- 1.5 -->
      <g transform="translate(71.8 554.479327)scale(0.4 -0.4)">
       <use xlink:href="#DejaVuSans-49"/>
       <use x="63.623047" xlink:href="#DejaVuSans-46"/>
       <use x="95.410156" xlink:href="#DejaVuSans-53"/>
      </g>
     </g>
    </g>
    <g id="ytick_5">
     <g id="line2d_21">
      <path clip-path="url(#pa9abdf91ff)" d="M 142.4125 352.437169 
L 1258.4125 352.437169 
" style="fill:none;stroke:#000000;stroke-linecap:square;stroke-width:2;"/>
     </g>
     <g id="line2d_22">
      <g>
       <use style="stroke:#000000;stroke-width:0.8;" x="142.4125" xlink:href="#m44b89d2c15" y="352.437169"/>
      </g>
     </g>
     <g id="text_12">
      <!-- 2.0 -->
      <g transform="translate(71.8 367.634044)scale(0.4 -0.4)">
       <use xlink:href="#DejaVuSans-50"/>
       <use x="63.623047" xlink:href="#DejaVuSans-46"/>
       <use x="95.410156" xlink:href="#DejaVuSans-48"/>
      </g>
     </g>
    </g>
    <g id="ytick_6">
     <g id="line2d_23">
      <path clip-path="url(#pa9abdf91ff)" d="M 142.4125 165.591886 
L 1258.4125 165.591886 
" style="fill:none;stroke:#000000;stroke-linecap:square;stroke-width:2;"/>
     </g>
     <g id="line2d_24">
      <g>
       <use style="stroke:#000000;stroke-width:0.8;" x="142.4125" xlink:href="#m44b89d2c15" y="165.591886"/>
      </g>
     </g>
     <g id="text_13">
      <!-- 2.5 -->
      <g transform="translate(71.8 180.788761)scale(0.4 -0.4)">
       <use xlink:href="#DejaVuSans-50"/>
       <use x="63.623047" xlink:href="#DejaVuSans-46"/>
       <use x="95.410156" xlink:href="#DejaVuSans-53"/>
      </g>
     </g>
    </g>
    <g id="text_14">
     <!-- $||e_m||_{\infty}$[%] -->
     <defs>
      <path d="M 21 76.421875 
L 21 -23.578125 
L 12.703125 -23.578125 
L 12.703125 76.421875 
z
" id="DejaVuSans-124"/>
      <path d="M 48.09375 32.234375 
Q 48.25 33.015625 48.3125 33.84375 
Q 48.390625 34.671875 48.390625 35.5 
Q 48.390625 41.453125 44.890625 44.921875 
Q 41.40625 48.390625 35.40625 48.390625 
Q 28.71875 48.390625 23.578125 44.15625 
Q 18.453125 39.9375 15.828125 32.171875 
z
M 55.90625 25.203125 
L 14.109375 25.203125 
Q 13.8125 23.34375 13.71875 22.265625 
Q 13.625 21.1875 13.625 20.40625 
Q 13.625 13.625 17.796875 9.90625 
Q 21.96875 6.203125 29.59375 6.203125 
Q 35.453125 6.203125 40.671875 7.515625 
Q 45.90625 8.84375 50.390625 11.375 
L 48.6875 2.484375 
Q 43.84375 0.53125 38.6875 -0.4375 
Q 33.546875 -1.421875 28.21875 -1.421875 
Q 16.84375 -1.421875 10.71875 4.015625 
Q 4.59375 9.46875 4.59375 19.484375 
Q 4.59375 28.03125 7.640625 35.375 
Q 10.6875 42.71875 16.609375 48.484375 
Q 20.40625 52.09375 25.65625 54.046875 
Q 30.90625 56 36.8125 56 
Q 46.09375 56 51.578125 50.4375 
Q 57.078125 44.875 57.078125 35.5 
Q 57.078125 33.25 56.78125 30.6875 
Q 56.5 28.125 55.90625 25.203125 
z
" id="DejaVuSans-Oblique-101"/>
      <path d="M 89.796875 33.015625 
L 83.40625 0 
L 74.421875 0 
L 80.71875 32.71875 
Q 81.109375 34.8125 81.296875 36.328125 
Q 81.5 37.84375 81.5 38.921875 
Q 81.5 43.3125 79.046875 45.75 
Q 76.609375 48.1875 72.21875 48.1875 
Q 65.671875 48.1875 60.546875 43.28125 
Q 55.421875 38.375 53.90625 30.515625 
L 47.90625 0 
L 38.921875 0 
L 45.3125 32.71875 
Q 45.703125 34.515625 45.890625 36.046875 
Q 46.09375 37.59375 46.09375 38.8125 
Q 46.09375 43.265625 43.65625 45.71875 
Q 41.21875 48.1875 36.921875 48.1875 
Q 30.28125 48.1875 25.140625 43.28125 
Q 20.015625 38.375 18.5 30.515625 
L 12.5 0 
L 3.515625 0 
L 14.203125 54.6875 
L 23.1875 54.6875 
L 21.484375 46.1875 
Q 25.140625 50.984375 30.046875 53.484375 
Q 34.96875 56 40.578125 56 
Q 46.53125 56 50.359375 52.875 
Q 54.203125 49.75 54.984375 44.1875 
Q 59.078125 49.953125 64.46875 52.96875 
Q 69.875 56 75.875 56 
Q 82.90625 56 86.734375 51.953125 
Q 90.578125 47.90625 90.578125 40.484375 
Q 90.578125 38.875 90.375 36.9375 
Q 90.1875 35.015625 89.796875 33.015625 
z
" id="DejaVuSans-Oblique-109"/>
      <path d="M 45.5625 17.046875 
Q 44.046875 18.796875 41.65625 22.90625 
Q 38.375 17.046875 35.5 14.453125 
Q 31.890625 11.328125 26.265625 11.328125 
Q 19.671875 11.328125 15.328125 16.265625 
Q 10.75 21.4375 10.75 29.984375 
Q 10.75 38.1875 15.328125 43.75 
Q 19.4375 48.6875 26.375 48.6875 
Q 29.9375 48.6875 32.5625 47.21875 
Q 35.640625 45.609375 37.75 42.828125 
Q 39.703125 40.328125 41.65625 36.96875 
Q 44.921875 42.828125 47.796875 45.40625 
Q 51.421875 48.53125 57.03125 48.53125 
Q 63.625 48.53125 67.96875 43.609375 
Q 72.5625 38.421875 72.5625 29.890625 
Q 72.5625 21.6875 67.96875 16.109375 
Q 63.875 11.1875 56.9375 11.1875 
Q 53.375 11.1875 50.734375 12.640625 
Q 48.09375 13.96875 45.5625 17.046875 
z
M 25.734375 17.71875 
Q 33.796875 17.71875 38.625 29.4375 
Q 32.421875 42.234375 25.734375 42.234375 
Q 20.84375 42.234375 18.359375 38.71875 
Q 15.671875 34.96875 15.671875 29.984375 
Q 15.671875 24.515625 18.359375 21.140625 
Q 21.09375 17.71875 25.734375 17.71875 
z
M 57.5625 42.140625 
Q 50.296875 42.140625 44.671875 30.421875 
Q 50.828125 17.625 57.5625 17.625 
Q 62.453125 17.625 64.9375 21.140625 
Q 67.625 24.90625 67.625 29.890625 
Q 67.625 35.359375 64.9375 38.71875 
Q 62.203125 42.140625 57.5625 42.140625 
z
" id="DejaVuSans-8734"/>
     </defs>
     <g transform="translate(53.4 745.89375)rotate(-90)scale(0.6 -0.6)">
      <use transform="translate(0 0.578125)" xlink:href="#DejaVuSans-124"/>
      <use transform="translate(33.691406 0.578125)" xlink:href="#DejaVuSans-124"/>
      <use transform="translate(67.382812 0.578125)" xlink:href="#DejaVuSans-Oblique-101"/>
      <use transform="translate(128.90625 -15.828125)scale(0.7)" xlink:href="#DejaVuSans-Oblique-109"/>
      <use transform="translate(199.829102 0.578125)" xlink:href="#DejaVuSans-124"/>
      <use transform="translate(233.520508 0.578125)" xlink:href="#DejaVuSans-124"/>
      <use transform="translate(268.168945 -15.828125)scale(0.7)" xlink:href="#DejaVuSans-8734"/>
      <use transform="translate(329.213867 0.578125)" xlink:href="#DejaVuSans-91"/>
      <use transform="translate(368.227539 0.578125)" xlink:href="#DejaVuSans-37"/>
      <use transform="translate(463.24707 0.578125)" xlink:href="#DejaVuSans-93"/>
     </g>
    </g>
    <g id="text_15">
     <!-- 1e−12 -->
     <defs>
      <path d="M 56.203125 29.59375 
L 56.203125 25.203125 
L 14.890625 25.203125 
Q 15.484375 15.921875 20.484375 11.0625 
Q 25.484375 6.203125 34.421875 6.203125 
Q 39.59375 6.203125 44.453125 7.46875 
Q 49.3125 8.734375 54.109375 11.28125 
L 54.109375 2.78125 
Q 49.265625 0.734375 44.1875 -0.34375 
Q 39.109375 -1.421875 33.890625 -1.421875 
Q 20.796875 -1.421875 13.15625 6.1875 
Q 5.515625 13.8125 5.515625 26.8125 
Q 5.515625 40.234375 12.765625 48.109375 
Q 20.015625 56 32.328125 56 
Q 43.359375 56 49.78125 48.890625 
Q 56.203125 41.796875 56.203125 29.59375 
z
M 47.21875 32.234375 
Q 47.125 39.59375 43.09375 43.984375 
Q 39.0625 48.390625 32.421875 48.390625 
Q 24.90625 48.390625 20.390625 44.140625 
Q 15.875 39.890625 15.1875 32.171875 
z
" id="DejaVuSans-101"/>
      <path d="M 10.59375 35.5 
L 73.1875 35.5 
L 73.1875 27.203125 
L 10.59375 27.203125 
z
" id="DejaVuSans-8722"/>
     </defs>
     <g transform="translate(142.4125 37.59375)scale(0.4 -0.4)">
      <use xlink:href="#DejaVuSans-49"/>
      <use x="63.623047" xlink:href="#DejaVuSans-101"/>
      <use x="125.146484" xlink:href="#DejaVuSans-8722"/>
      <use x="208.935547" xlink:href="#DejaVuSans-49"/>
      <use x="272.558594" xlink:href="#DejaVuSans-50"/>
     </g>
    </g>
   </g>
   <g id="line2d_25">
    <path clip-path="url(#pa9abdf91ff)" d="M 193.139773 651.587061 
L 195.532569 225.101921 
L 197.925364 438.245178 
L 200.31816 457.816745 
L 202.710956 193.647663 
L 205.103752 293.776784 
L 207.496548 837.967581 
L 209.889344 987.510052 
L 212.28214 318.70878 
L 214.674936 168.544335 
L 217.067732 750.847501 
L 219.460527 851.620645 
L 221.853323 861.840322 
L 224.246119 1004.377708 
L 226.638915 104.700492 
L 229.031711 422.727618 
L 231.424507 602.354707 
L 233.817303 403.471563 
L 236.210099 963.456409 
L 238.602895 758.835009 
L 240.99569 667.183791 
L 243.388486 381.641672 
L 245.781282 905.253586 
L 248.174078 520.927547 
L 250.566874 267.181806 
L 252.95967 970.98448 
L 255.352466 248.202789 
L 257.745262 520.15189 
L 260.138057 762.473502 
L 262.530853 1084.479776 
L 264.923649 912.350515 
L 267.316445 798.164851 
L 269.709241 504.641632 
L 272.102037 487.61091 
L 274.494833 698.546795 
L 276.887629 387.814104 
L 279.280425 656.053001 
L 281.67322 358.227422 
L 284.066016 338.45248 
L 286.458812 1022.651583 
L 288.851608 739.375195 
L 291.244404 135.341723 
L 293.6372 610.396319 
L 296.029996 559.056057 
L 298.422792 779.063145 
L 300.815587 367.568949 
L 303.208383 841.798241 
L 305.601179 359.583353 
L 307.993975 366.198866 
L 310.386771 398.457806 
L 312.779567 156.179231 
L 315.172363 428.012353 
L 317.565159 1007.440891 
L 319.957955 197.821009 
L 322.35075 869.40913 
L 324.743546 974.289972 
L 327.136342 103.771932 
L 329.529138 490.773718 
L 331.921934 905.283203 
L 334.31473 713.294199 
L 336.707526 383.345361 
L 341.493117 900.087714 
L 343.885913 352.067833 
L 346.278709 1086.924955 
L 348.671505 1020.083652 
L 351.064301 591.194346 
L 353.457097 806.778001 
L 355.849893 572.058443 
L 358.242689 778.145947 
L 360.635485 825.019863 
L 363.02828 1025.08184 
L 365.421076 589.261779 
L 367.813872 932.904556 
L 370.206668 131.798719 
L 372.599464 809.636086 
L 374.99226 364.418042 
L 379.777852 924.318294 
L 382.170648 630.996733 
L 384.563443 833.250975 
L 386.956239 409.169173 
L 389.349035 327.049665 
L 391.741831 619.439344 
L 394.134627 894.079145 
L 396.527423 295.27097 
L 398.920219 690.480001 
L 401.313015 737.18541 
L 403.70581 973.535452 
L 406.098606 773.341606 
L 408.491402 977.785686 
L 410.884198 573.543471 
L 413.276994 241.50131 
L 415.66979 709.158805 
L 418.062586 523.675581 
L 420.455382 314.434346 
L 422.848178 697.779036 
L 425.240973 361.402661 
L 427.633769 420.286018 
L 430.026565 212.478647 
L 432.419361 689.581174 
L 434.812157 693.464076 
L 437.204953 798.777154 
L 439.597749 615.177218 
L 441.990545 800.81414 
L 444.38334 547.728325 
L 446.776136 760.150736 
L 449.168932 879.208967 
L 451.561728 337.562963 
L 453.954524 311.088613 
L 456.34732 985.146494 
L 458.740116 576.518084 
L 461.132912 582.82532 
L 463.525708 634.246327 
L 465.918503 341.315334 
L 468.311299 756.439048 
L 470.704095 683.850584 
L 473.096891 299.682084 
L 475.489687 219.418297 
L 477.882483 737.896966 
L 480.275279 674.274285 
L 482.668075 115.396404 
L 485.06087 422.129501 
L 487.453666 132.79048 
L 489.846462 264.601842 
L 492.239258 753.21578 
L 494.632054 278.00712 
L 497.02485 143.06766 
L 499.417646 172.048313 
L 501.810442 360.491351 
L 504.203238 967.305515 
L 506.596033 685.208387 
L 508.988829 607.23866 
L 511.381625 931.482486 
L 513.774421 652.754822 
L 516.167217 1056.343954 
L 518.560013 646.834287 
L 520.952809 786.939349 
L 523.345605 255.208801 
L 525.738401 895.011899 
L 528.131196 679.349769 
L 530.523992 1058.634395 
L 532.916788 699.202783 
L 535.309584 1086.625048 
L 537.70238 266.222313 
L 540.095176 835.738469 
L 542.487972 313.920898 
L 544.880768 855.702302 
L 547.273563 713.46823 
L 549.666359 1098.527921 
L 552.059155 561.733017 
L 554.451951 1082.028934 
L 556.844747 244.2037 
L 559.237543 1035.210728 
L 561.630339 803.974057 
L 564.023135 701.540669 
L 566.415931 672.449349 
L 568.808726 898.476254 
L 571.201522 733.371704 
L 573.594318 583.250935 
L 575.987114 221.54208 
L 578.37991 920.548372 
L 580.772706 126.549814 
L 583.165502 607.649197 
L 585.558298 439.601777 
L 587.951093 370.718904 
L 590.343889 947.955042 
L 592.736685 876.333178 
L 595.129481 900.335095 
L 597.522277 893.939253 
L 599.915073 598.632607 
L 602.307869 111.348783 
L 604.700665 901.499824 
L 607.093461 1083.725645 
L 609.486256 227.152145 
L 611.879052 562.784579 
L 614.271848 827.505936 
L 616.664644 323.421814 
L 619.05744 1035.973006 
L 621.450236 491.749825 
L 623.843032 717.415531 
L 626.235828 258.606338 
L 628.628623 100.195721 
L 631.021419 547.657712 
L 633.414215 110.24213 
L 635.807011 812.108329 
L 638.199807 202.554717 
L 640.592603 878.533838 
L 642.985399 486.581601 
L 647.770991 866.906 
L 650.163786 366.908325 
L 652.556582 354.4993 
L 654.949378 801.429094 
L 657.342174 272.658486 
L 659.73497 699.458049 
L 662.127766 926.978489 
L 664.520562 533.001565 
L 666.913358 185.178424 
L 669.306154 886.692135 
L 671.698949 323.659595 
L 674.091745 97.174655 
L 676.484541 355.663269 
L 678.877337 1060.660744 
L 681.270133 348.026843 
L 683.662929 788.149952 
L 686.055725 198.538425 
L 688.448521 1013.932587 
L 690.841316 282.545476 
L 693.234112 903.113328 
L 695.626908 413.135412 
L 698.019704 214.372136 
L 700.4125 529.355186 
L 702.805296 547.764855 
L 705.198092 481.003143 
L 707.590888 802.395213 
L 709.983684 466.063019 
L 712.376479 524.24415 
L 714.769275 528.579349 
L 717.162071 587.042596 
L 719.554867 276.951762 
L 721.947663 813.899796 
L 724.340459 184.171898 
L 726.733255 800.580262 
L 729.126051 233.266185 
L 731.518846 396.61266 
L 733.911642 273.283836 
L 736.304438 538.057952 
L 738.697234 372.634692 
L 741.09003 518.682091 
L 743.482826 735.983316 
L 745.875622 110.579733 
L 748.268418 366.195956 
L 750.661214 733.411989 
L 753.054009 527.882795 
L 755.446805 382.682284 
L 757.839601 389.911084 
L 760.232397 568.517747 
L 762.625193 523.829555 
L 765.017989 1038.428923 
L 767.410785 118.668952 
L 769.803581 98.039421 
L 772.196377 132.408097 
L 774.589172 775.499778 
L 776.981968 471.235493 
L 779.374764 1004.454571 
L 781.76756 435.162529 
L 784.160356 143.929553 
L 786.553152 341.347608 
L 788.945948 165.11446 
L 791.338744 543.107947 
L 793.731539 328.588291 
L 796.124335 175.055013 
L 798.517131 748.90943 
L 800.909927 456.974343 
L 803.302723 732.985722 
L 805.695519 1027.801611 
L 808.088315 954.742047 
L 810.481111 192.989503 
L 812.873907 754.965048 
L 815.266702 875.690032 
L 817.659498 401.807465 
L 820.052294 268.554844 
L 822.44509 449.13681 
L 824.837886 833.848105 
L 827.230682 174.236603 
L 829.623478 812.016167 
L 832.016274 623.083658 
L 834.409069 549.316309 
L 836.801865 1047.821152 
L 839.194661 207.897386 
L 841.587457 613.612865 
L 846.373049 356.784975 
L 848.765845 277.556067 
L 851.158641 1014.261628 
L 853.551437 453.711032 
L 855.944232 133.892353 
L 858.337028 978.962835 
L 860.729824 658.961359 
L 863.12262 837.65796 
L 865.515416 1055.32363 
L 867.908212 159.350985 
L 870.301008 835.570368 
L 872.693804 777.677247 
L 875.086599 538.983314 
L 877.479395 627.922889 
L 879.872191 1019.513685 
L 882.264987 227.631807 
L 884.657783 949.215442 
L 887.050579 729.644209 
L 889.443375 1097.262421 
L 891.836171 134.144596 
L 894.228967 92.342916 
L 896.621762 122.63609 
L 899.014558 352.022788 
L 901.407354 830.868981 
L 903.80015 424.720219 
L 906.192946 612.067059 
L 908.585742 139.914179 
L 910.978538 456.549121 
L 913.371334 1026.998125 
L 915.76413 816.588417 
L 918.156925 656.739273 
L 920.549721 202.978229 
L 922.942517 406.166255 
L 925.335313 460.85991 
L 927.728109 523.819432 
L 930.120905 233.349098 
L 932.513701 820.804253 
L 934.906497 116.317899 
L 937.299292 341.46139 
L 939.692088 815.098697 
L 942.084884 129.208797 
L 944.47768 515.442345 
L 946.870476 445.341348 
L 949.263272 530.073087 
L 951.656068 857.636137 
L 954.048864 157.833124 
L 956.44166 102.840865 
L 958.834455 558.73388 
L 961.227251 974.557208 
L 963.620047 981.054552 
L 966.012843 495.864843 
L 968.405639 726.191149 
L 970.798435 1070.811703 
L 973.191231 1044.030324 
L 975.584027 1048.717844 
L 980.369618 548.433468 
L 982.762414 811.148711 
L 985.15521 831.680962 
L 987.548006 748.445502 
L 989.940802 291.740529 
L 992.333598 494.304494 
L 994.726394 877.557746 
L 997.11919 547.665025 
L 999.511985 263.590286 
L 1001.904781 479.985227 
L 1004.297577 669.52413 
L 1006.690373 720.689326 
L 1009.083169 1073.387788 
L 1011.475965 578.961521 
L 1013.868761 677.903414 
L 1016.261557 165.720849 
L 1018.654352 336.31091 
L 1021.047148 948.565265 
L 1023.439944 194.696897 
L 1025.83274 944.841986 
L 1028.225536 764.625465 
L 1030.618332 902.935376 
L 1033.011128 265.285331 
L 1035.403924 422.402226 
L 1037.79672 517.756882 
L 1040.189515 1000.300354 
L 1042.582311 995.328586 
L 1044.975107 841.167466 
L 1047.367903 256.948536 
L 1049.760699 1056.872201 
L 1052.153495 1038.385646 
L 1054.546291 414.271886 
L 1056.939087 444.227845 
L 1059.331883 394.634227 
L 1061.724678 256.89309 
L 1064.117474 924.640213 
L 1066.51027 446.978392 
L 1068.903066 872.194545 
L 1071.295862 677.530791 
L 1073.688658 779.326102 
L 1076.081454 549.093963 
L 1078.47425 407.2364 
L 1080.867045 698.711617 
L 1083.259841 1015.95113 
L 1085.652637 720.85511 
L 1088.045433 465.766079 
L 1090.438229 162.26623 
L 1092.831025 400.743619 
L 1095.223821 332.19899 
L 1097.616617 287.343417 
L 1100.009413 880.259077 
L 1102.402208 322.865439 
L 1104.795004 245.87686 
L 1107.1878 892.874656 
L 1109.580596 291.715859 
L 1111.973392 327.040644 
L 1114.366188 427.108636 
L 1116.758984 1087.752857 
L 1119.15178 208.933696 
L 1121.544575 896.236371 
L 1123.937371 687.821501 
L 1126.330167 362.134101 
L 1128.722963 616.983486 
L 1131.115759 855.807557 
L 1133.508555 206.275565 
L 1135.901351 602.626364 
L 1138.294147 255.467426 
L 1140.686943 348.146456 
L 1143.079738 897.276073 
L 1145.472534 622.734655 
L 1147.86533 228.989845 
L 1150.258126 466.108969 
L 1152.650922 424.986164 
L 1155.043718 494.158281 
L 1157.436514 886.398241 
L 1159.82931 90.99375 
L 1162.222105 1098.99375 
L 1164.614901 798.995788 
L 1167.007697 793.08729 
L 1169.400493 422.746788 
L 1171.793289 325.118643 
L 1174.186085 180.19177 
L 1176.578881 950.297978 
L 1178.971677 325.253674 
L 1181.364473 1023.866727 
L 1183.757268 645.734369 
L 1186.150064 1086.500646 
L 1188.54286 868.550157 
L 1190.935656 445.661826 
L 1193.328452 681.65673 
L 1195.721248 1052.019403 
L 1198.114044 764.385826 
L 1200.50684 322.51828 
L 1202.899636 697.60257 
L 1205.292431 906.617034 
L 1207.685227 773.098185 
L 1207.685227 773.098185 
" style="fill:none;stroke:#1f77b4;stroke-linecap:square;stroke-width:1.5;"/>
   </g>
   <g id="patch_3">
    <path d="M 142.4125 1149.39375 
L 142.4125 40.59375 
" style="fill:none;stroke:#000000;stroke-linecap:square;stroke-linejoin:miter;stroke-width:3;"/>
   </g>
   <g id="patch_4">
    <path d="M 1258.4125 1149.39375 
L 1258.4125 40.59375 
" style="fill:none;stroke:#000000;stroke-linecap:square;stroke-linejoin:miter;stroke-width:3;"/>
   </g>
   <g id="patch_5">
    <path d="M 142.4125 1149.39375 
L 1258.4125 1149.39375 
" style="fill:none;stroke:#000000;stroke-linecap:square;stroke-linejoin:miter;stroke-width:3;"/>
   </g>
   <g id="patch_6">
    <path d="M 142.4125 40.59375 
L 1258.4125 40.59375 
" style="fill:none;stroke:#000000;stroke-linecap:square;stroke-linejoin:miter;stroke-width:3;"/>
   </g>
  </g>
 </g>
 <defs>
  <clipPath id="pa9abdf91ff">
   <rect height="1108.8" width="1116" x="142.4125" y="40.59375"/>
  </clipPath>
 </defs>
</svg>
