<?xml version="1.0" encoding="utf-8" standalone="no"?>
<!DOCTYPE svg PUBLIC "-//W3C//DTD SVG 1.1//EN"
  "http://www.w3.org/Graphics/SVG/1.1/DTD/svg11.dtd">
<!-- Created with matplotlib (https://matplotlib.org/) -->
<svg height="1264.375pt" version="1.1" viewBox="0 0 1265.6125 1264.375" width="1265.6125pt" xmlns="http://www.w3.org/2000/svg" xmlns:xlink="http://www.w3.org/1999/xlink">
 <defs>
  <style type="text/css">
*{stroke-linecap:butt;stroke-linejoin:round;}
  </style>
 </defs>
 <g id="figure_1">
  <g id="patch_1">
   <path d="M 0 1264.375 
L 1265.6125 1264.375 
L 1265.6125 0 
L 0 0 
z
" style="fill:none;"/>
  </g>
  <g id="axes_1">
   <g id="patch_2">
    <path d="M 142.4125 1149.39375 
L 1258.4125 1149.39375 
L 1258.4125 40.59375 
L 142.4125 40.59375 
z
" style="fill:none;"/>
   </g>
   <g id="matplotlib.axis_1">
    <g id="xtick_1">
     <g id="line2d_1">
      <path clip-path="url(#p565aa0cce8)" d="M 193.139773 1149.39375 
L 193.139773 40.59375 
" style="fill:none;stroke:#000000;stroke-linecap:square;stroke-width:2;"/>
     </g>
     <g id="line2d_2">
      <defs>
       <path d="M 0 0 
L 0 3.5 
" id="ma7a4d2f267" style="stroke:#000000;stroke-width:0.8;"/>
      </defs>
      <g>
       <use style="stroke:#000000;stroke-width:0.8;" x="193.139773" xlink:href="#ma7a4d2f267" y="1149.39375"/>
      </g>
     </g>
     <g id="text_1">
      <!-- 0 -->
      <defs>
       <path d="M 31.78125 66.40625 
Q 24.171875 66.40625 20.328125 58.90625 
Q 16.5 51.421875 16.5 36.375 
Q 16.5 21.390625 20.328125 13.890625 
Q 24.171875 6.390625 31.78125 6.390625 
Q 39.453125 6.390625 43.28125 13.890625 
Q 47.125 21.390625 47.125 36.375 
Q 47.125 51.421875 43.28125 58.90625 
Q 39.453125 66.40625 31.78125 66.40625 
z
M 31.78125 74.21875 
Q 44.046875 74.21875 50.515625 64.515625 
Q 56.984375 54.828125 56.984375 36.375 
Q 56.984375 17.96875 50.515625 8.265625 
Q 44.046875 -1.421875 31.78125 -1.421875 
Q 19.53125 -1.421875 13.0625 8.265625 
Q 6.59375 17.96875 6.59375 36.375 
Q 6.59375 54.828125 13.0625 64.515625 
Q 19.53125 74.21875 31.78125 74.21875 
z
" id="DejaVuSans-48"/>
      </defs>
      <g transform="translate(180.414773 1186.7875)scale(0.4 -0.4)">
       <use xlink:href="#DejaVuSans-48"/>
      </g>
     </g>
    </g>
    <g id="xtick_2">
     <g id="line2d_3">
      <path clip-path="url(#p565aa0cce8)" d="M 319.957955 1149.39375 
L 319.957955 40.59375 
" style="fill:none;stroke:#000000;stroke-linecap:square;stroke-width:2;"/>
     </g>
     <g id="line2d_4">
      <g>
       <use style="stroke:#000000;stroke-width:0.8;" x="319.957955" xlink:href="#ma7a4d2f267" y="1149.39375"/>
      </g>
     </g>
     <g id="text_2">
      <!-- 10 -->
      <defs>
       <path d="M 12.40625 8.296875 
L 28.515625 8.296875 
L 28.515625 63.921875 
L 10.984375 60.40625 
L 10.984375 69.390625 
L 28.421875 72.90625 
L 38.28125 72.90625 
L 38.28125 8.296875 
L 54.390625 8.296875 
L 54.390625 0 
L 12.40625 0 
z
" id="DejaVuSans-49"/>
      </defs>
      <g transform="translate(294.507955 1186.7875)scale(0.4 -0.4)">
       <use xlink:href="#DejaVuSans-49"/>
       <use x="63.623047" xlink:href="#DejaVuSans-48"/>
      </g>
     </g>
    </g>
    <g id="xtick_3">
     <g id="line2d_5">
      <path clip-path="url(#p565aa0cce8)" d="M 446.776136 1149.39375 
L 446.776136 40.59375 
" style="fill:none;stroke:#000000;stroke-linecap:square;stroke-width:2;"/>
     </g>
     <g id="line2d_6">
      <g>
       <use style="stroke:#000000;stroke-width:0.8;" x="446.776136" xlink:href="#ma7a4d2f267" y="1149.39375"/>
      </g>
     </g>
     <g id="text_3">
      <!-- 20 -->
      <defs>
       <path d="M 19.1875 8.296875 
L 53.609375 8.296875 
L 53.609375 0 
L 7.328125 0 
L 7.328125 8.296875 
Q 12.9375 14.109375 22.625 23.890625 
Q 32.328125 33.6875 34.8125 36.53125 
Q 39.546875 41.84375 41.421875 45.53125 
Q 43.3125 49.21875 43.3125 52.78125 
Q 43.3125 58.59375 39.234375 62.25 
Q 35.15625 65.921875 28.609375 65.921875 
Q 23.96875 65.921875 18.8125 64.3125 
Q 13.671875 62.703125 7.8125 59.421875 
L 7.8125 69.390625 
Q 13.765625 71.78125 18.9375 73 
Q 24.125 74.21875 28.421875 74.21875 
Q 39.75 74.21875 46.484375 68.546875 
Q 53.21875 62.890625 53.21875 53.421875 
Q 53.21875 48.921875 51.53125 44.890625 
Q 49.859375 40.875 45.40625 35.40625 
Q 44.1875 33.984375 37.640625 27.21875 
Q 31.109375 20.453125 19.1875 8.296875 
z
" id="DejaVuSans-50"/>
      </defs>
      <g transform="translate(421.326136 1186.7875)scale(0.4 -0.4)">
       <use xlink:href="#DejaVuSans-50"/>
       <use x="63.623047" xlink:href="#DejaVuSans-48"/>
      </g>
     </g>
    </g>
    <g id="xtick_4">
     <g id="line2d_7">
      <path clip-path="url(#p565aa0cce8)" d="M 573.594318 1149.39375 
L 573.594318 40.59375 
" style="fill:none;stroke:#000000;stroke-linecap:square;stroke-width:2;"/>
     </g>
     <g id="line2d_8">
      <g>
       <use style="stroke:#000000;stroke-width:0.8;" x="573.594318" xlink:href="#ma7a4d2f267" y="1149.39375"/>
      </g>
     </g>
     <g id="text_4">
      <!-- 30 -->
      <defs>
       <path d="M 40.578125 39.3125 
Q 47.65625 37.796875 51.625 33 
Q 55.609375 28.21875 55.609375 21.1875 
Q 55.609375 10.40625 48.1875 4.484375 
Q 40.765625 -1.421875 27.09375 -1.421875 
Q 22.515625 -1.421875 17.65625 -0.515625 
Q 12.796875 0.390625 7.625 2.203125 
L 7.625 11.71875 
Q 11.71875 9.328125 16.59375 8.109375 
Q 21.484375 6.890625 26.8125 6.890625 
Q 36.078125 6.890625 40.9375 10.546875 
Q 45.796875 14.203125 45.796875 21.1875 
Q 45.796875 27.640625 41.28125 31.265625 
Q 36.765625 34.90625 28.71875 34.90625 
L 20.21875 34.90625 
L 20.21875 43.015625 
L 29.109375 43.015625 
Q 36.375 43.015625 40.234375 45.921875 
Q 44.09375 48.828125 44.09375 54.296875 
Q 44.09375 59.90625 40.109375 62.90625 
Q 36.140625 65.921875 28.71875 65.921875 
Q 24.65625 65.921875 20.015625 65.03125 
Q 15.375 64.15625 9.8125 62.3125 
L 9.8125 71.09375 
Q 15.4375 72.65625 20.34375 73.4375 
Q 25.25 74.21875 29.59375 74.21875 
Q 40.828125 74.21875 47.359375 69.109375 
Q 53.90625 64.015625 53.90625 55.328125 
Q 53.90625 49.265625 50.4375 45.09375 
Q 46.96875 40.921875 40.578125 39.3125 
z
" id="DejaVuSans-51"/>
      </defs>
      <g transform="translate(548.144318 1186.7875)scale(0.4 -0.4)">
       <use xlink:href="#DejaVuSans-51"/>
       <use x="63.623047" xlink:href="#DejaVuSans-48"/>
      </g>
     </g>
    </g>
    <g id="xtick_5">
     <g id="line2d_9">
      <path clip-path="url(#p565aa0cce8)" d="M 700.4125 1149.39375 
L 700.4125 40.59375 
" style="fill:none;stroke:#000000;stroke-linecap:square;stroke-width:2;"/>
     </g>
     <g id="line2d_10">
      <g>
       <use style="stroke:#000000;stroke-width:0.8;" x="700.4125" xlink:href="#ma7a4d2f267" y="1149.39375"/>
      </g>
     </g>
     <g id="text_5">
      <!-- 40 -->
      <defs>
       <path d="M 37.796875 64.3125 
L 12.890625 25.390625 
L 37.796875 25.390625 
z
M 35.203125 72.90625 
L 47.609375 72.90625 
L 47.609375 25.390625 
L 58.015625 25.390625 
L 58.015625 17.1875 
L 47.609375 17.1875 
L 47.609375 0 
L 37.796875 0 
L 37.796875 17.1875 
L 4.890625 17.1875 
L 4.890625 26.703125 
z
" id="DejaVuSans-52"/>
      </defs>
      <g transform="translate(674.9625 1186.7875)scale(0.4 -0.4)">
       <use xlink:href="#DejaVuSans-52"/>
       <use x="63.623047" xlink:href="#DejaVuSans-48"/>
      </g>
     </g>
    </g>
    <g id="xtick_6">
     <g id="line2d_11">
      <path clip-path="url(#p565aa0cce8)" d="M 827.230682 1149.39375 
L 827.230682 40.59375 
" style="fill:none;stroke:#000000;stroke-linecap:square;stroke-width:2;"/>
     </g>
     <g id="line2d_12">
      <g>
       <use style="stroke:#000000;stroke-width:0.8;" x="827.230682" xlink:href="#ma7a4d2f267" y="1149.39375"/>
      </g>
     </g>
     <g id="text_6">
      <!-- 50 -->
      <defs>
       <path d="M 10.796875 72.90625 
L 49.515625 72.90625 
L 49.515625 64.59375 
L 19.828125 64.59375 
L 19.828125 46.734375 
Q 21.96875 47.46875 24.109375 47.828125 
Q 26.265625 48.1875 28.421875 48.1875 
Q 40.625 48.1875 47.75 41.5 
Q 54.890625 34.8125 54.890625 23.390625 
Q 54.890625 11.625 47.5625 5.09375 
Q 40.234375 -1.421875 26.90625 -1.421875 
Q 22.3125 -1.421875 17.546875 -0.640625 
Q 12.796875 0.140625 7.71875 1.703125 
L 7.71875 11.625 
Q 12.109375 9.234375 16.796875 8.0625 
Q 21.484375 6.890625 26.703125 6.890625 
Q 35.15625 6.890625 40.078125 11.328125 
Q 45.015625 15.765625 45.015625 23.390625 
Q 45.015625 31 40.078125 35.4375 
Q 35.15625 39.890625 26.703125 39.890625 
Q 22.75 39.890625 18.8125 39.015625 
Q 14.890625 38.140625 10.796875 36.28125 
z
" id="DejaVuSans-53"/>
      </defs>
      <g transform="translate(801.780682 1186.7875)scale(0.4 -0.4)">
       <use xlink:href="#DejaVuSans-53"/>
       <use x="63.623047" xlink:href="#DejaVuSans-48"/>
      </g>
     </g>
    </g>
    <g id="xtick_7">
     <g id="line2d_13">
      <path clip-path="url(#p565aa0cce8)" d="M 954.048864 1149.39375 
L 954.048864 40.59375 
" style="fill:none;stroke:#000000;stroke-linecap:square;stroke-width:2;"/>
     </g>
     <g id="line2d_14">
      <g>
       <use style="stroke:#000000;stroke-width:0.8;" x="954.048864" xlink:href="#ma7a4d2f267" y="1149.39375"/>
      </g>
     </g>
     <g id="text_7">
      <!-- 60 -->
      <defs>
       <path d="M 33.015625 40.375 
Q 26.375 40.375 22.484375 35.828125 
Q 18.609375 31.296875 18.609375 23.390625 
Q 18.609375 15.53125 22.484375 10.953125 
Q 26.375 6.390625 33.015625 6.390625 
Q 39.65625 6.390625 43.53125 10.953125 
Q 47.40625 15.53125 47.40625 23.390625 
Q 47.40625 31.296875 43.53125 35.828125 
Q 39.65625 40.375 33.015625 40.375 
z
M 52.59375 71.296875 
L 52.59375 62.3125 
Q 48.875 64.0625 45.09375 64.984375 
Q 41.3125 65.921875 37.59375 65.921875 
Q 27.828125 65.921875 22.671875 59.328125 
Q 17.53125 52.734375 16.796875 39.40625 
Q 19.671875 43.65625 24.015625 45.921875 
Q 28.375 48.1875 33.59375 48.1875 
Q 44.578125 48.1875 50.953125 41.515625 
Q 57.328125 34.859375 57.328125 23.390625 
Q 57.328125 12.15625 50.6875 5.359375 
Q 44.046875 -1.421875 33.015625 -1.421875 
Q 20.359375 -1.421875 13.671875 8.265625 
Q 6.984375 17.96875 6.984375 36.375 
Q 6.984375 53.65625 15.1875 63.9375 
Q 23.390625 74.21875 37.203125 74.21875 
Q 40.921875 74.21875 44.703125 73.484375 
Q 48.484375 72.75 52.59375 71.296875 
z
" id="DejaVuSans-54"/>
      </defs>
      <g transform="translate(928.598864 1186.7875)scale(0.4 -0.4)">
       <use xlink:href="#DejaVuSans-54"/>
       <use x="63.623047" xlink:href="#DejaVuSans-48"/>
      </g>
     </g>
    </g>
    <g id="xtick_8">
     <g id="line2d_15">
      <path clip-path="url(#p565aa0cce8)" d="M 1080.867045 1149.39375 
L 1080.867045 40.59375 
" style="fill:none;stroke:#000000;stroke-linecap:square;stroke-width:2;"/>
     </g>
     <g id="line2d_16">
      <g>
       <use style="stroke:#000000;stroke-width:0.8;" x="1080.867045" xlink:href="#ma7a4d2f267" y="1149.39375"/>
      </g>
     </g>
     <g id="text_8">
      <!-- 70 -->
      <defs>
       <path d="M 8.203125 72.90625 
L 55.078125 72.90625 
L 55.078125 68.703125 
L 28.609375 0 
L 18.3125 0 
L 43.21875 64.59375 
L 8.203125 64.59375 
z
" id="DejaVuSans-55"/>
      </defs>
      <g transform="translate(1055.417045 1186.7875)scale(0.4 -0.4)">
       <use xlink:href="#DejaVuSans-55"/>
       <use x="63.623047" xlink:href="#DejaVuSans-48"/>
      </g>
     </g>
    </g>
    <g id="xtick_9">
     <g id="line2d_17">
      <path clip-path="url(#p565aa0cce8)" d="M 1207.685227 1149.39375 
L 1207.685227 40.59375 
" style="fill:none;stroke:#000000;stroke-linecap:square;stroke-width:2;"/>
     </g>
     <g id="line2d_18">
      <g>
       <use style="stroke:#000000;stroke-width:0.8;" x="1207.685227" xlink:href="#ma7a4d2f267" y="1149.39375"/>
      </g>
     </g>
     <g id="text_9">
      <!-- 80 -->
      <defs>
       <path d="M 31.78125 34.625 
Q 24.75 34.625 20.71875 30.859375 
Q 16.703125 27.09375 16.703125 20.515625 
Q 16.703125 13.921875 20.71875 10.15625 
Q 24.75 6.390625 31.78125 6.390625 
Q 38.8125 6.390625 42.859375 10.171875 
Q 46.921875 13.96875 46.921875 20.515625 
Q 46.921875 27.09375 42.890625 30.859375 
Q 38.875 34.625 31.78125 34.625 
z
M 21.921875 38.8125 
Q 15.578125 40.375 12.03125 44.71875 
Q 8.5 49.078125 8.5 55.328125 
Q 8.5 64.0625 14.71875 69.140625 
Q 20.953125 74.21875 31.78125 74.21875 
Q 42.671875 74.21875 48.875 69.140625 
Q 55.078125 64.0625 55.078125 55.328125 
Q 55.078125 49.078125 51.53125 44.71875 
Q 48 40.375 41.703125 38.8125 
Q 48.828125 37.15625 52.796875 32.3125 
Q 56.78125 27.484375 56.78125 20.515625 
Q 56.78125 9.90625 50.3125 4.234375 
Q 43.84375 -1.421875 31.78125 -1.421875 
Q 19.734375 -1.421875 13.25 4.234375 
Q 6.78125 9.90625 6.78125 20.515625 
Q 6.78125 27.484375 10.78125 32.3125 
Q 14.796875 37.15625 21.921875 38.8125 
z
M 18.3125 54.390625 
Q 18.3125 48.734375 21.84375 45.5625 
Q 25.390625 42.390625 31.78125 42.390625 
Q 38.140625 42.390625 41.71875 45.5625 
Q 45.3125 48.734375 45.3125 54.390625 
Q 45.3125 60.0625 41.71875 63.234375 
Q 38.140625 66.40625 31.78125 66.40625 
Q 25.390625 66.40625 21.84375 63.234375 
Q 18.3125 60.0625 18.3125 54.390625 
z
" id="DejaVuSans-56"/>
      </defs>
      <g transform="translate(1182.235227 1186.7875)scale(0.4 -0.4)">
       <use xlink:href="#DejaVuSans-56"/>
       <use x="63.623047" xlink:href="#DejaVuSans-48"/>
      </g>
     </g>
    </g>
    <g id="text_10">
     <!-- VPI [%] -->
     <defs>
      <path d="M 28.609375 0 
L 0.78125 72.90625 
L 11.078125 72.90625 
L 34.1875 11.53125 
L 57.328125 72.90625 
L 67.578125 72.90625 
L 39.796875 0 
z
" id="DejaVuSans-86"/>
      <path d="M 19.671875 64.796875 
L 19.671875 37.40625 
L 32.078125 37.40625 
Q 38.96875 37.40625 42.71875 40.96875 
Q 46.484375 44.53125 46.484375 51.125 
Q 46.484375 57.671875 42.71875 61.234375 
Q 38.96875 64.796875 32.078125 64.796875 
z
M 9.8125 72.90625 
L 32.078125 72.90625 
Q 44.34375 72.90625 50.609375 67.359375 
Q 56.890625 61.8125 56.890625 51.125 
Q 56.890625 40.328125 50.609375 34.8125 
Q 44.34375 29.296875 32.078125 29.296875 
L 19.671875 29.296875 
L 19.671875 0 
L 9.8125 0 
z
" id="DejaVuSans-80"/>
      <path d="M 9.8125 72.90625 
L 19.671875 72.90625 
L 19.671875 0 
L 9.8125 0 
z
" id="DejaVuSans-73"/>
      <path id="DejaVuSans-32"/>
      <path d="M 8.59375 75.984375 
L 29.296875 75.984375 
L 29.296875 69 
L 17.578125 69 
L 17.578125 -6.203125 
L 29.296875 -6.203125 
L 29.296875 -13.1875 
L 8.59375 -13.1875 
z
" id="DejaVuSans-91"/>
      <path d="M 72.703125 32.078125 
Q 68.453125 32.078125 66.03125 28.46875 
Q 63.625 24.859375 63.625 18.40625 
Q 63.625 12.0625 66.03125 8.421875 
Q 68.453125 4.78125 72.703125 4.78125 
Q 76.859375 4.78125 79.265625 8.421875 
Q 81.6875 12.0625 81.6875 18.40625 
Q 81.6875 24.8125 79.265625 28.4375 
Q 76.859375 32.078125 72.703125 32.078125 
z
M 72.703125 38.28125 
Q 80.421875 38.28125 84.953125 32.90625 
Q 89.5 27.546875 89.5 18.40625 
Q 89.5 9.28125 84.9375 3.921875 
Q 80.375 -1.421875 72.703125 -1.421875 
Q 64.890625 -1.421875 60.34375 3.921875 
Q 55.8125 9.28125 55.8125 18.40625 
Q 55.8125 27.59375 60.375 32.9375 
Q 64.9375 38.28125 72.703125 38.28125 
z
M 22.3125 68.015625 
Q 18.109375 68.015625 15.6875 64.375 
Q 13.28125 60.75 13.28125 54.390625 
Q 13.28125 47.953125 15.671875 44.328125 
Q 18.0625 40.71875 22.3125 40.71875 
Q 26.5625 40.71875 28.96875 44.328125 
Q 31.390625 47.953125 31.390625 54.390625 
Q 31.390625 60.6875 28.953125 64.34375 
Q 26.515625 68.015625 22.3125 68.015625 
z
M 66.40625 74.21875 
L 74.21875 74.21875 
L 28.609375 -1.421875 
L 20.796875 -1.421875 
z
M 22.3125 74.21875 
Q 30.03125 74.21875 34.609375 68.875 
Q 39.203125 63.53125 39.203125 54.390625 
Q 39.203125 45.171875 34.640625 39.84375 
Q 30.078125 34.515625 22.3125 34.515625 
Q 14.546875 34.515625 10.03125 39.859375 
Q 5.515625 45.21875 5.515625 54.390625 
Q 5.515625 63.484375 10.046875 68.84375 
Q 14.59375 74.21875 22.3125 74.21875 
z
" id="DejaVuSans-37"/>
      <path d="M 30.421875 75.984375 
L 30.421875 -13.1875 
L 9.71875 -13.1875 
L 9.71875 -6.203125 
L 21.390625 -6.203125 
L 21.390625 69 
L 9.71875 69 
L 9.71875 75.984375 
z
" id="DejaVuSans-93"/>
     </defs>
     <g transform="translate(591.503125 1244.696875)scale(0.6 -0.6)">
      <use xlink:href="#DejaVuSans-86"/>
      <use x="68.408203" xlink:href="#DejaVuSans-80"/>
      <use x="128.710938" xlink:href="#DejaVuSans-73"/>
      <use x="158.203125" xlink:href="#DejaVuSans-32"/>
      <use x="189.990234" xlink:href="#DejaVuSans-91"/>
      <use x="229.003906" xlink:href="#DejaVuSans-37"/>
      <use x="324.023438" xlink:href="#DejaVuSans-93"/>
     </g>
    </g>
   </g>
   <g id="matplotlib.axis_2">
    <g id="ytick_1">
     <g id="line2d_19">
      <path clip-path="url(#p565aa0cce8)" d="M 142.4125 1099.567837 
L 1258.4125 1099.567837 
" style="fill:none;stroke:#000000;stroke-linecap:square;stroke-width:2;"/>
     </g>
     <g id="line2d_20">
      <defs>
       <path d="M 0 0 
L -3.5 0 
" id="mb6ad881d45" style="stroke:#000000;stroke-width:0.8;"/>
      </defs>
      <g>
       <use style="stroke:#000000;stroke-width:0.8;" x="142.4125" xlink:href="#mb6ad881d45" y="1099.567837"/>
      </g>
     </g>
     <g id="text_11">
      <!-- 0.0 -->
      <defs>
       <path d="M 10.6875 12.40625 
L 21 12.40625 
L 21 0 
L 10.6875 0 
z
" id="DejaVuSans-46"/>
      </defs>
      <g transform="translate(71.8 1114.764712)scale(0.4 -0.4)">
       <use xlink:href="#DejaVuSans-48"/>
       <use x="63.623047" xlink:href="#DejaVuSans-46"/>
       <use x="95.410156" xlink:href="#DejaVuSans-48"/>
      </g>
     </g>
    </g>
    <g id="ytick_2">
     <g id="line2d_21">
      <path clip-path="url(#p565aa0cce8)" d="M 142.4125 912.003554 
L 1258.4125 912.003554 
" style="fill:none;stroke:#000000;stroke-linecap:square;stroke-width:2;"/>
     </g>
     <g id="line2d_22">
      <g>
       <use style="stroke:#000000;stroke-width:0.8;" x="142.4125" xlink:href="#mb6ad881d45" y="912.003554"/>
      </g>
     </g>
     <g id="text_12">
      <!-- 0.5 -->
      <g transform="translate(71.8 927.200429)scale(0.4 -0.4)">
       <use xlink:href="#DejaVuSans-48"/>
       <use x="63.623047" xlink:href="#DejaVuSans-46"/>
       <use x="95.410156" xlink:href="#DejaVuSans-53"/>
      </g>
     </g>
    </g>
    <g id="ytick_3">
     <g id="line2d_23">
      <path clip-path="url(#p565aa0cce8)" d="M 142.4125 724.439272 
L 1258.4125 724.439272 
" style="fill:none;stroke:#000000;stroke-linecap:square;stroke-width:2;"/>
     </g>
     <g id="line2d_24">
      <g>
       <use style="stroke:#000000;stroke-width:0.8;" x="142.4125" xlink:href="#mb6ad881d45" y="724.439272"/>
      </g>
     </g>
     <g id="text_13">
      <!-- 1.0 -->
      <g transform="translate(71.8 739.636147)scale(0.4 -0.4)">
       <use xlink:href="#DejaVuSans-49"/>
       <use x="63.623047" xlink:href="#DejaVuSans-46"/>
       <use x="95.410156" xlink:href="#DejaVuSans-48"/>
      </g>
     </g>
    </g>
    <g id="ytick_4">
     <g id="line2d_25">
      <path clip-path="url(#p565aa0cce8)" d="M 142.4125 536.87499 
L 1258.4125 536.87499 
" style="fill:none;stroke:#000000;stroke-linecap:square;stroke-width:2;"/>
     </g>
     <g id="line2d_26">
      <g>
       <use style="stroke:#000000;stroke-width:0.8;" x="142.4125" xlink:href="#mb6ad881d45" y="536.87499"/>
      </g>
     </g>
     <g id="text_14">
      <!-- 1.5 -->
      <g transform="translate(71.8 552.071865)scale(0.4 -0.4)">
       <use xlink:href="#DejaVuSans-49"/>
       <use x="63.623047" xlink:href="#DejaVuSans-46"/>
       <use x="95.410156" xlink:href="#DejaVuSans-53"/>
      </g>
     </g>
    </g>
    <g id="ytick_5">
     <g id="line2d_27">
      <path clip-path="url(#p565aa0cce8)" d="M 142.4125 349.310708 
L 1258.4125 349.310708 
" style="fill:none;stroke:#000000;stroke-linecap:square;stroke-width:2;"/>
     </g>
     <g id="line2d_28">
      <g>
       <use style="stroke:#000000;stroke-width:0.8;" x="142.4125" xlink:href="#mb6ad881d45" y="349.310708"/>
      </g>
     </g>
     <g id="text_15">
      <!-- 2.0 -->
      <g transform="translate(71.8 364.507583)scale(0.4 -0.4)">
       <use xlink:href="#DejaVuSans-50"/>
       <use x="63.623047" xlink:href="#DejaVuSans-46"/>
       <use x="95.410156" xlink:href="#DejaVuSans-48"/>
      </g>
     </g>
    </g>
    <g id="ytick_6">
     <g id="line2d_29">
      <path clip-path="url(#p565aa0cce8)" d="M 142.4125 161.746426 
L 1258.4125 161.746426 
" style="fill:none;stroke:#000000;stroke-linecap:square;stroke-width:2;"/>
     </g>
     <g id="line2d_30">
      <g>
       <use style="stroke:#000000;stroke-width:0.8;" x="142.4125" xlink:href="#mb6ad881d45" y="161.746426"/>
      </g>
     </g>
     <g id="text_16">
      <!-- 2.5 -->
      <g transform="translate(71.8 176.943301)scale(0.4 -0.4)">
       <use xlink:href="#DejaVuSans-50"/>
       <use x="63.623047" xlink:href="#DejaVuSans-46"/>
       <use x="95.410156" xlink:href="#DejaVuSans-53"/>
      </g>
     </g>
    </g>
    <g id="text_17">
     <!-- $||e_m||_{\infty}$[%] -->
     <defs>
      <path d="M 21 76.421875 
L 21 -23.578125 
L 12.703125 -23.578125 
L 12.703125 76.421875 
z
" id="DejaVuSans-124"/>
      <path d="M 48.09375 32.234375 
Q 48.25 33.015625 48.3125 33.84375 
Q 48.390625 34.671875 48.390625 35.5 
Q 48.390625 41.453125 44.890625 44.921875 
Q 41.40625 48.390625 35.40625 48.390625 
Q 28.71875 48.390625 23.578125 44.15625 
Q 18.453125 39.9375 15.828125 32.171875 
z
M 55.90625 25.203125 
L 14.109375 25.203125 
Q 13.8125 23.34375 13.71875 22.265625 
Q 13.625 21.1875 13.625 20.40625 
Q 13.625 13.625 17.796875 9.90625 
Q 21.96875 6.203125 29.59375 6.203125 
Q 35.453125 6.203125 40.671875 7.515625 
Q 45.90625 8.84375 50.390625 11.375 
L 48.6875 2.484375 
Q 43.84375 0.53125 38.6875 -0.4375 
Q 33.546875 -1.421875 28.21875 -1.421875 
Q 16.84375 -1.421875 10.71875 4.015625 
Q 4.59375 9.46875 4.59375 19.484375 
Q 4.59375 28.03125 7.640625 35.375 
Q 10.6875 42.71875 16.609375 48.484375 
Q 20.40625 52.09375 25.65625 54.046875 
Q 30.90625 56 36.8125 56 
Q 46.09375 56 51.578125 50.4375 
Q 57.078125 44.875 57.078125 35.5 
Q 57.078125 33.25 56.78125 30.6875 
Q 56.5 28.125 55.90625 25.203125 
z
" id="DejaVuSans-Oblique-101"/>
      <path d="M 89.796875 33.015625 
L 83.40625 0 
L 74.421875 0 
L 80.71875 32.71875 
Q 81.109375 34.8125 81.296875 36.328125 
Q 81.5 37.84375 81.5 38.921875 
Q 81.5 43.3125 79.046875 45.75 
Q 76.609375 48.1875 72.21875 48.1875 
Q 65.671875 48.1875 60.546875 43.28125 
Q 55.421875 38.375 53.90625 30.515625 
L 47.90625 0 
L 38.921875 0 
L 45.3125 32.71875 
Q 45.703125 34.515625 45.890625 36.046875 
Q 46.09375 37.59375 46.09375 38.8125 
Q 46.09375 43.265625 43.65625 45.71875 
Q 41.21875 48.1875 36.921875 48.1875 
Q 30.28125 48.1875 25.140625 43.28125 
Q 20.015625 38.375 18.5 30.515625 
L 12.5 0 
L 3.515625 0 
L 14.203125 54.6875 
L 23.1875 54.6875 
L 21.484375 46.1875 
Q 25.140625 50.984375 30.046875 53.484375 
Q 34.96875 56 40.578125 56 
Q 46.53125 56 50.359375 52.875 
Q 54.203125 49.75 54.984375 44.1875 
Q 59.078125 49.953125 64.46875 52.96875 
Q 69.875 56 75.875 56 
Q 82.90625 56 86.734375 51.953125 
Q 90.578125 47.90625 90.578125 40.484375 
Q 90.578125 38.875 90.375 36.9375 
Q 90.1875 35.015625 89.796875 33.015625 
z
" id="DejaVuSans-Oblique-109"/>
      <path d="M 45.5625 17.046875 
Q 44.046875 18.796875 41.65625 22.90625 
Q 38.375 17.046875 35.5 14.453125 
Q 31.890625 11.328125 26.265625 11.328125 
Q 19.671875 11.328125 15.328125 16.265625 
Q 10.75 21.4375 10.75 29.984375 
Q 10.75 38.1875 15.328125 43.75 
Q 19.4375 48.6875 26.375 48.6875 
Q 29.9375 48.6875 32.5625 47.21875 
Q 35.640625 45.609375 37.75 42.828125 
Q 39.703125 40.328125 41.65625 36.96875 
Q 44.921875 42.828125 47.796875 45.40625 
Q 51.421875 48.53125 57.03125 48.53125 
Q 63.625 48.53125 67.96875 43.609375 
Q 72.5625 38.421875 72.5625 29.890625 
Q 72.5625 21.6875 67.96875 16.109375 
Q 63.875 11.1875 56.9375 11.1875 
Q 53.375 11.1875 50.734375 12.640625 
Q 48.09375 13.96875 45.5625 17.046875 
z
M 25.734375 17.71875 
Q 33.796875 17.71875 38.625 29.4375 
Q 32.421875 42.234375 25.734375 42.234375 
Q 20.84375 42.234375 18.359375 38.71875 
Q 15.671875 34.96875 15.671875 29.984375 
Q 15.671875 24.515625 18.359375 21.140625 
Q 21.09375 17.71875 25.734375 17.71875 
z
M 57.5625 42.140625 
Q 50.296875 42.140625 44.671875 30.421875 
Q 50.828125 17.625 57.5625 17.625 
Q 62.453125 17.625 64.9375 21.140625 
Q 67.625 24.90625 67.625 29.890625 
Q 67.625 35.359375 64.9375 38.71875 
Q 62.203125 42.140625 57.5625 42.140625 
z
" id="DejaVuSans-8734"/>
     </defs>
     <g transform="translate(53.4 745.89375)rotate(-90)scale(0.6 -0.6)">
      <use transform="translate(0 0.578125)" xlink:href="#DejaVuSans-124"/>
      <use transform="translate(33.691406 0.578125)" xlink:href="#DejaVuSans-124"/>
      <use transform="translate(67.382812 0.578125)" xlink:href="#DejaVuSans-Oblique-101"/>
      <use transform="translate(128.90625 -15.828125)scale(0.7)" xlink:href="#DejaVuSans-Oblique-109"/>
      <use transform="translate(199.829102 0.578125)" xlink:href="#DejaVuSans-124"/>
      <use transform="translate(233.520508 0.578125)" xlink:href="#DejaVuSans-124"/>
      <use transform="translate(268.168945 -15.828125)scale(0.7)" xlink:href="#DejaVuSans-8734"/>
      <use transform="translate(329.213867 0.578125)" xlink:href="#DejaVuSans-91"/>
      <use transform="translate(368.227539 0.578125)" xlink:href="#DejaVuSans-37"/>
      <use transform="translate(463.24707 0.578125)" xlink:href="#DejaVuSans-93"/>
     </g>
    </g>
    <g id="text_18">
     <!-- 1e−12 -->
     <defs>
      <path d="M 56.203125 29.59375 
L 56.203125 25.203125 
L 14.890625 25.203125 
Q 15.484375 15.921875 20.484375 11.0625 
Q 25.484375 6.203125 34.421875 6.203125 
Q 39.59375 6.203125 44.453125 7.46875 
Q 49.3125 8.734375 54.109375 11.28125 
L 54.109375 2.78125 
Q 49.265625 0.734375 44.1875 -0.34375 
Q 39.109375 -1.421875 33.890625 -1.421875 
Q 20.796875 -1.421875 13.15625 6.1875 
Q 5.515625 13.8125 5.515625 26.8125 
Q 5.515625 40.234375 12.765625 48.109375 
Q 20.015625 56 32.328125 56 
Q 43.359375 56 49.78125 48.890625 
Q 56.203125 41.796875 56.203125 29.59375 
z
M 47.21875 32.234375 
Q 47.125 39.59375 43.09375 43.984375 
Q 39.0625 48.390625 32.421875 48.390625 
Q 24.90625 48.390625 20.390625 44.140625 
Q 15.875 39.890625 15.1875 32.171875 
z
" id="DejaVuSans-101"/>
      <path d="M 10.59375 35.5 
L 73.1875 35.5 
L 73.1875 27.203125 
L 10.59375 27.203125 
z
" id="DejaVuSans-8722"/>
     </defs>
     <g transform="translate(142.4125 37.59375)scale(0.4 -0.4)">
      <use xlink:href="#DejaVuSans-49"/>
      <use x="63.623047" xlink:href="#DejaVuSans-101"/>
      <use x="125.146484" xlink:href="#DejaVuSans-8722"/>
      <use x="208.935547" xlink:href="#DejaVuSans-49"/>
      <use x="272.558594" xlink:href="#DejaVuSans-50"/>
     </g>
    </g>
   </g>
   <g id="line2d_31">
    <path clip-path="url(#p565aa0cce8)" d="M 193.139773 888.552713 
L 195.532569 327.479316 
L 197.925364 706.424658 
L 200.31816 845.949103 
L 202.710956 168.03866 
L 205.103752 878.235953 
L 207.496548 174.145047 
L 209.889344 949.538206 
L 212.28214 496.221834 
L 214.674936 98.500841 
L 217.067732 450.338022 
L 219.460527 504.618003 
L 221.853323 760.765563 
L 224.246119 631.853761 
L 226.638915 554.947613 
L 229.031711 180.02376 
L 231.424507 839.860247 
L 233.817303 131.225678 
L 236.210099 571.805997 
L 238.602895 747.980383 
L 240.99569 876.974739 
L 243.388486 368.585237 
L 245.781282 584.297777 
L 248.174078 845.701747 
L 250.566874 488.178297 
L 252.95967 703.584605 
L 255.352466 766.483581 
L 257.745262 403.174283 
L 260.138057 241.992885 
L 262.530853 1030.397853 
L 264.923649 887.596249 
L 267.316445 943.470175 
L 269.709241 315.434343 
L 272.102037 493.251096 
L 274.494833 356.344454 
L 276.887629 285.101346 
L 279.280425 667.169124 
L 281.67322 439.388403 
L 284.066016 259.664581 
L 286.458812 320.624875 
L 288.851608 430.549959 
L 291.244404 1026.403332 
L 293.6372 586.470013 
L 296.029996 369.869453 
L 298.422792 926.545248 
L 300.815587 768.606187 
L 303.208383 898.195793 
L 305.601179 643.560262 
L 307.993975 185.353602 
L 310.386771 385.956385 
L 312.779567 857.099347 
L 315.172363 667.77954 
L 317.565159 426.106944 
L 319.957955 873.848351 
L 322.35075 702.485679 
L 324.743546 707.707194 
L 327.136342 576.908036 
L 329.529138 930.985372 
L 331.921934 803.933575 
L 334.31473 220.413222 
L 336.707526 400.713295 
L 339.100322 875.939037 
L 341.493117 1079.722124 
L 343.885913 709.537447 
L 346.278709 526.699173 
L 348.671505 417.792842 
L 351.064301 98.847926 
L 353.457097 218.936046 
L 355.849893 460.181848 
L 358.242689 290.347734 
L 360.635485 741.556674 
L 363.02828 213.778002 
L 365.421076 337.477193 
L 367.813872 893.767295 
L 370.206668 943.780279 
L 372.599464 1073.593164 
L 374.99226 684.906998 
L 377.385056 248.123468 
L 379.777852 774.261813 
L 382.170648 699.438093 
L 384.563443 602.464991 
L 386.956239 1000.557207 
L 389.349035 510.113919 
L 391.741831 727.344304 
L 394.134627 234.009441 
L 396.527423 139.539379 
L 398.920219 933.95152 
L 401.313015 988.515568 
L 403.70581 157.483809 
L 406.098606 1068.597703 
L 408.491402 1059.419734 
L 410.884198 650.106657 
L 413.276994 438.822928 
L 415.66979 770.301279 
L 418.062586 873.477264 
L 420.455382 775.149494 
L 422.848178 629.047176 
L 425.240973 705.030692 
L 427.633769 628.338417 
L 430.026565 695.212175 
L 432.419361 1069.257687 
L 434.812157 612.22852 
L 437.204953 758.74393 
L 439.597749 591.693227 
L 441.990545 193.9547 
L 444.38334 304.378253 
L 446.776136 325.382605 
L 449.168932 166.641459 
L 451.561728 563.324253 
L 453.954524 740.262379 
L 456.34732 468.514838 
L 458.740116 616.099654 
L 461.132912 312.399878 
L 463.525708 247.819491 
L 465.918503 534.919451 
L 468.311299 517.154937 
L 470.704095 380.929981 
L 473.096891 885.691273 
L 475.489687 763.596742 
L 477.882483 786.805433 
L 480.275279 1025.694518 
L 482.668075 879.67139 
L 485.06087 823.015693 
L 487.453666 704.123621 
L 489.846462 144.258207 
L 492.239258 545.197107 
L 494.632054 183.627263 
L 497.02485 224.405007 
L 499.417646 1097.06475 
L 501.810442 451.461559 
L 504.203238 788.489417 
L 506.596033 383.800122 
L 508.988829 465.491911 
L 511.381625 602.704065 
L 513.774421 316.600074 
L 516.167217 462.216832 
L 518.560013 926.518633 
L 520.952809 461.289462 
L 523.345605 695.560515 
L 525.738401 874.514008 
L 528.131196 586.968481 
L 530.523992 515.020411 
L 532.916788 226.713682 
L 535.309584 683.250062 
L 537.70238 520.325339 
L 540.095176 616.128589 
L 542.487972 564.631261 
L 544.880768 1064.764045 
L 547.273563 699.864901 
L 549.666359 377.274738 
L 552.059155 273.143634 
L 554.451951 784.049473 
L 556.844747 124.339887 
L 559.237543 457.771175 
L 561.630339 221.487857 
L 564.023135 363.586983 
L 566.415931 760.707333 
L 568.808726 858.10663 
L 571.201522 977.449207 
L 573.594318 834.310274 
L 575.987114 863.309808 
L 578.37991 1096.208278 
L 580.772706 361.558775 
L 583.165502 557.124936 
L 585.558298 1086.388556 
L 587.951093 900.41574 
L 590.343889 1077.567074 
L 592.736685 909.71854 
L 595.129481 957.685124 
L 597.522277 892.692268 
L 599.915073 222.427962 
L 602.307869 226.096483 
L 604.700665 870.919132 
L 607.093461 186.442497 
L 609.486256 198.361321 
L 611.879052 907.004775 
L 614.271848 297.588771 
L 616.664644 182.475305 
L 619.05744 136.423774 
L 621.450236 576.161035 
L 623.843032 211.850705 
L 626.235828 466.514022 
L 628.628623 669.359874 
L 631.021419 948.863572 
L 633.414215 1075.906323 
L 635.807011 424.349109 
L 638.199807 666.907317 
L 640.592603 982.431005 
L 642.985399 761.183412 
L 645.378195 872.179406 
L 647.770991 342.458818 
L 650.163786 334.653144 
L 652.556582 932.905478 
L 654.949378 136.663646 
L 657.342174 554.533072 
L 659.73497 395.127527 
L 662.127766 585.905874 
L 664.520562 985.130328 
L 666.913358 103.973105 
L 669.306154 699.761981 
L 671.698949 911.850697 
L 674.091745 204.925179 
L 676.484541 119.607083 
L 678.877337 768.09293 
L 681.270133 685.573602 
L 683.662929 791.977584 
L 686.055725 814.983307 
L 688.448521 820.395821 
L 690.841316 438.734494 
L 693.234112 838.997678 
L 695.626908 940.359516 
L 698.019704 246.811105 
L 700.4125 532.676004 
L 702.805296 317.737287 
L 705.198092 90.99375 
L 707.590888 770.275396 
L 709.983684 1098.851081 
L 712.376479 356.49715 
L 714.769275 1098.99375 
L 717.162071 685.179754 
L 719.554867 949.870907 
L 721.947663 956.163854 
L 724.340459 814.934005 
L 726.733255 211.111464 
L 729.126051 766.688631 
L 731.518846 907.678583 
L 733.911642 1002.147828 
L 736.304438 513.631839 
L 738.697234 472.420545 
L 741.09003 1070.442113 
L 743.482826 175.638935 
L 745.875622 1009.528272 
L 748.268418 496.276721 
L 750.661214 92.200108 
L 753.054009 575.536088 
L 755.446805 860.118641 
L 757.839601 652.540304 
L 760.232397 565.099121 
L 762.625193 269.608354 
L 765.017989 941.128119 
L 767.410785 99.257968 
L 769.803581 796.216604 
L 772.196377 249.575323 
L 774.589172 523.517807 
L 776.981968 475.098921 
L 779.374764 212.878476 
L 781.76756 1091.383422 
L 784.160356 383.448792 
L 786.553152 368.176191 
L 788.945948 683.8546 
L 791.338744 532.967679 
L 793.731539 429.507836 
L 796.124335 278.358457 
L 798.517131 949.234567 
L 800.909927 551.949375 
L 803.302723 414.887845 
L 805.695519 505.876168 
L 808.088315 1082.63522 
L 810.481111 480.006435 
L 812.873907 527.297583 
L 815.266702 828.166723 
L 817.659498 863.036964 
L 820.052294 470.076415 
L 822.44509 1084.968349 
L 824.837886 1037.203536 
L 827.230682 518.305418 
L 829.623478 302.470219 
L 832.016274 560.999206 
L 834.409069 316.368466 
L 836.801865 985.006055 
L 839.194661 738.896059 
L 841.587457 329.296652 
L 843.980253 988.787006 
L 846.373049 126.593336 
L 848.765845 533.746358 
L 851.158641 266.14273 
L 853.551437 1020.75626 
L 855.944232 462.044794 
L 858.337028 892.935619 
L 863.12262 372.253837 
L 865.515416 916.261272 
L 867.908212 625.849211 
L 870.301008 235.545147 
L 872.693804 924.873172 
L 875.086599 1074.764667 
L 877.479395 116.837625 
L 879.872191 695.793229 
L 882.264987 409.484822 
L 884.657783 787.245956 
L 887.050579 845.484176 
L 889.443375 910.531311 
L 891.836171 856.813638 
L 894.228967 1007.645813 
L 896.621762 887.622386 
L 899.014558 717.561828 
L 901.407354 571.660493 
L 903.80015 375.680876 
L 906.192946 504.977997 
L 908.585742 946.574025 
L 910.978538 409.853296 
L 913.371334 1009.103547 
L 915.76413 761.502614 
L 918.156925 101.408556 
L 920.549721 142.229466 
L 922.942517 323.420337 
L 925.335313 488.049529 
L 927.728109 807.127562 
L 930.120905 521.599237 
L 932.513701 220.008186 
L 934.906497 451.974838 
L 937.299292 938.965444 
L 939.692088 1057.055745 
L 942.084884 725.718059 
L 944.47768 280.867915 
L 946.870476 1038.851779 
L 949.263272 1014.12333 
L 951.656068 195.690356 
L 954.048864 588.012643 
L 956.44166 233.578034 
L 958.834455 568.258362 
L 961.227251 956.54657 
L 963.620047 350.804353 
L 966.012843 348.914107 
L 968.405639 762.501393 
L 970.798435 517.434256 
L 973.191231 424.736098 
L 975.584027 311.795666 
L 977.976822 1047.641433 
L 980.369618 186.866151 
L 982.762414 931.479221 
L 985.15521 894.392558 
L 987.548006 570.428381 
L 989.940802 581.209155 
L 992.333598 241.08314 
L 994.726394 834.341092 
L 997.11919 554.648753 
L 999.511985 801.36933 
L 1001.904781 460.265641 
L 1004.297577 457.386762 
L 1006.690373 520.1865 
L 1009.083169 139.976252 
L 1011.475965 508.141508 
L 1013.868761 1079.14375 
L 1016.261557 592.545311 
L 1018.654352 1043.00711 
L 1021.047148 126.139096 
L 1023.439944 571.80895 
L 1025.83274 511.743396 
L 1028.225536 573.681962 
L 1030.618332 175.524994 
L 1033.011128 443.820265 
L 1035.403924 574.727577 
L 1037.79672 638.718569 
L 1040.189515 976.871276 
L 1042.582311 389.593148 
L 1044.975107 1004.32114 
L 1047.367903 490.613243 
L 1049.760699 159.016535 
L 1052.153495 881.190056 
L 1054.546291 528.492161 
L 1056.939087 318.895396 
L 1059.331883 611.669469 
L 1061.724678 162.675612 
L 1064.117474 149.475789 
L 1066.51027 538.340242 
L 1068.903066 1079.213552 
L 1071.295862 524.066217 
L 1073.688658 109.473468 
L 1076.081454 839.02249 
L 1078.47425 155.824841 
L 1080.867045 659.132474 
L 1083.259841 367.862588 
L 1085.652637 464.221891 
L 1088.045433 583.478165 
L 1090.438229 951.072765 
L 1092.831025 173.466538 
L 1095.223821 1087.200391 
L 1097.616617 805.654008 
L 1100.009413 745.933027 
L 1102.402208 551.179114 
L 1104.795004 1088.2975 
L 1107.1878 633.984446 
L 1109.580596 201.751726 
L 1111.973392 806.470243 
L 1114.366188 666.273248 
L 1116.758984 405.426079 
L 1119.15178 737.425496 
L 1121.544575 461.022365 
L 1123.937371 312.141574 
L 1126.330167 895.413789 
L 1128.722963 980.696755 
L 1131.115759 197.034163 
L 1133.508555 1080.807192 
L 1135.901351 401.2701 
L 1138.294147 492.541278 
L 1140.686943 815.272171 
L 1143.079738 395.395745 
L 1145.472534 279.083065 
L 1147.86533 237.710105 
L 1150.258126 869.993956 
L 1152.650922 462.438949 
L 1155.043718 501.230856 
L 1157.436514 790.067066 
L 1159.82931 156.913944 
L 1162.222105 312.008799 
L 1164.614901 826.910496 
L 1167.007697 715.74484 
L 1169.400493 874.992167 
L 1171.793289 620.836151 
L 1174.186085 606.880894 
L 1176.578881 880.110649 
L 1178.971677 253.526987 
L 1181.364473 795.481724 
L 1183.757268 1065.765064 
L 1186.150064 853.980749 
L 1188.54286 201.350869 
L 1190.935656 682.877354 
L 1193.328452 1006.102702 
L 1195.721248 570.673187 
L 1198.114044 637.893852 
L 1200.50684 621.318275 
L 1202.899636 1037.469043 
L 1205.292431 1052.793201 
L 1207.685227 662.154706 
L 1207.685227 662.154706 
" style="fill:none;stroke:#1f77b4;stroke-linecap:square;stroke-width:1.5;"/>
   </g>
   <g id="patch_3">
    <path d="M 142.4125 1149.39375 
L 142.4125 40.59375 
" style="fill:none;stroke:#000000;stroke-linecap:square;stroke-linejoin:miter;stroke-width:3;"/>
   </g>
   <g id="patch_4">
    <path d="M 1258.4125 1149.39375 
L 1258.4125 40.59375 
" style="fill:none;stroke:#000000;stroke-linecap:square;stroke-linejoin:miter;stroke-width:3;"/>
   </g>
   <g id="patch_5">
    <path d="M 142.4125 1149.39375 
L 1258.4125 1149.39375 
" style="fill:none;stroke:#000000;stroke-linecap:square;stroke-linejoin:miter;stroke-width:3;"/>
   </g>
   <g id="patch_6">
    <path d="M 142.4125 40.59375 
L 1258.4125 40.59375 
" style="fill:none;stroke:#000000;stroke-linecap:square;stroke-linejoin:miter;stroke-width:3;"/>
   </g>
  </g>
 </g>
 <defs>
  <clipPath id="p565aa0cce8">
   <rect height="1108.8" width="1116" x="142.4125" y="40.59375"/>
  </clipPath>
 </defs>
</svg>
