<?xml version="1.0" encoding="utf-8" standalone="no"?>
<!DOCTYPE svg PUBLIC "-//W3C//DTD SVG 1.1//EN"
  "http://www.w3.org/Graphics/SVG/1.1/DTD/svg11.dtd">
<!-- Created with matplotlib (https://matplotlib.org/) -->
<svg height="1230.98125pt" version="1.1" viewBox="0 0 1275.81875 1230.98125" width="1275.81875pt" xmlns="http://www.w3.org/2000/svg" xmlns:xlink="http://www.w3.org/1999/xlink">
 <defs>
  <style type="text/css">
*{stroke-linecap:butt;stroke-linejoin:round;}
  </style>
 </defs>
 <g id="figure_1">
  <g id="patch_1">
   <path d="M -0 1230.98125 
L 1275.81875 1230.98125 
L 1275.81875 0 
L -0 0 
z
" style="fill:none;"/>
  </g>
  <g id="axes_1">
   <g id="patch_2">
    <path d="M 152.61875 1116 
L 1268.61875 1116 
L 1268.61875 7.2 
L 152.61875 7.2 
z
" style="fill:none;"/>
   </g>
   <g id="matplotlib.axis_1">
    <g id="xtick_1">
     <g id="line2d_1">
      <path clip-path="url(#p1beee7c903)" d="M 203.13709 1116 
L 203.13709 7.2 
" style="fill:none;stroke:#000000;stroke-linecap:square;stroke-width:2;"/>
     </g>
     <g id="line2d_2">
      <defs>
       <path d="M 0 0 
L 0 3.5 
" id="m8a91b66e52" style="stroke:#000000;stroke-width:0.8;"/>
      </defs>
      <g>
       <use style="stroke:#000000;stroke-width:0.8;" x="203.13709" xlink:href="#m8a91b66e52" y="1116"/>
      </g>
     </g>
     <g id="text_1">
      <!-- 0 -->
      <defs>
       <path d="M 31.78125 66.40625 
Q 24.171875 66.40625 20.328125 58.90625 
Q 16.5 51.421875 16.5 36.375 
Q 16.5 21.390625 20.328125 13.890625 
Q 24.171875 6.390625 31.78125 6.390625 
Q 39.453125 6.390625 43.28125 13.890625 
Q 47.125 21.390625 47.125 36.375 
Q 47.125 51.421875 43.28125 58.90625 
Q 39.453125 66.40625 31.78125 66.40625 
z
M 31.78125 74.21875 
Q 44.046875 74.21875 50.515625 64.515625 
Q 56.984375 54.828125 56.984375 36.375 
Q 56.984375 17.96875 50.515625 8.265625 
Q 44.046875 -1.421875 31.78125 -1.421875 
Q 19.53125 -1.421875 13.0625 8.265625 
Q 6.59375 17.96875 6.59375 36.375 
Q 6.59375 54.828125 13.0625 64.515625 
Q 19.53125 74.21875 31.78125 74.21875 
z
" id="DejaVuSans-48"/>
      </defs>
      <g transform="translate(190.41209 1153.39375)scale(0.4 -0.4)">
       <use xlink:href="#DejaVuSans-48"/>
      </g>
     </g>
    </g>
    <g id="xtick_2">
     <g id="line2d_3">
      <path clip-path="url(#p1beee7c903)" d="M 330.157751 1116 
L 330.157751 7.2 
" style="fill:none;stroke:#000000;stroke-linecap:square;stroke-width:2;"/>
     </g>
     <g id="line2d_4">
      <g>
       <use style="stroke:#000000;stroke-width:0.8;" x="330.157751" xlink:href="#m8a91b66e52" y="1116"/>
      </g>
     </g>
     <g id="text_2">
      <!-- 10 -->
      <defs>
       <path d="M 12.40625 8.296875 
L 28.515625 8.296875 
L 28.515625 63.921875 
L 10.984375 60.40625 
L 10.984375 69.390625 
L 28.421875 72.90625 
L 38.28125 72.90625 
L 38.28125 8.296875 
L 54.390625 8.296875 
L 54.390625 0 
L 12.40625 0 
z
" id="DejaVuSans-49"/>
      </defs>
      <g transform="translate(304.707751 1153.39375)scale(0.4 -0.4)">
       <use xlink:href="#DejaVuSans-49"/>
       <use x="63.623047" xlink:href="#DejaVuSans-48"/>
      </g>
     </g>
    </g>
    <g id="xtick_3">
     <g id="line2d_5">
      <path clip-path="url(#p1beee7c903)" d="M 457.178412 1116 
L 457.178412 7.2 
" style="fill:none;stroke:#000000;stroke-linecap:square;stroke-width:2;"/>
     </g>
     <g id="line2d_6">
      <g>
       <use style="stroke:#000000;stroke-width:0.8;" x="457.178412" xlink:href="#m8a91b66e52" y="1116"/>
      </g>
     </g>
     <g id="text_3">
      <!-- 20 -->
      <defs>
       <path d="M 19.1875 8.296875 
L 53.609375 8.296875 
L 53.609375 0 
L 7.328125 0 
L 7.328125 8.296875 
Q 12.9375 14.109375 22.625 23.890625 
Q 32.328125 33.6875 34.8125 36.53125 
Q 39.546875 41.84375 41.421875 45.53125 
Q 43.3125 49.21875 43.3125 52.78125 
Q 43.3125 58.59375 39.234375 62.25 
Q 35.15625 65.921875 28.609375 65.921875 
Q 23.96875 65.921875 18.8125 64.3125 
Q 13.671875 62.703125 7.8125 59.421875 
L 7.8125 69.390625 
Q 13.765625 71.78125 18.9375 73 
Q 24.125 74.21875 28.421875 74.21875 
Q 39.75 74.21875 46.484375 68.546875 
Q 53.21875 62.890625 53.21875 53.421875 
Q 53.21875 48.921875 51.53125 44.890625 
Q 49.859375 40.875 45.40625 35.40625 
Q 44.1875 33.984375 37.640625 27.21875 
Q 31.109375 20.453125 19.1875 8.296875 
z
" id="DejaVuSans-50"/>
      </defs>
      <g transform="translate(431.728412 1153.39375)scale(0.4 -0.4)">
       <use xlink:href="#DejaVuSans-50"/>
       <use x="63.623047" xlink:href="#DejaVuSans-48"/>
      </g>
     </g>
    </g>
    <g id="xtick_4">
     <g id="line2d_7">
      <path clip-path="url(#p1beee7c903)" d="M 584.199073 1116 
L 584.199073 7.2 
" style="fill:none;stroke:#000000;stroke-linecap:square;stroke-width:2;"/>
     </g>
     <g id="line2d_8">
      <g>
       <use style="stroke:#000000;stroke-width:0.8;" x="584.199073" xlink:href="#m8a91b66e52" y="1116"/>
      </g>
     </g>
     <g id="text_4">
      <!-- 30 -->
      <defs>
       <path d="M 40.578125 39.3125 
Q 47.65625 37.796875 51.625 33 
Q 55.609375 28.21875 55.609375 21.1875 
Q 55.609375 10.40625 48.1875 4.484375 
Q 40.765625 -1.421875 27.09375 -1.421875 
Q 22.515625 -1.421875 17.65625 -0.515625 
Q 12.796875 0.390625 7.625 2.203125 
L 7.625 11.71875 
Q 11.71875 9.328125 16.59375 8.109375 
Q 21.484375 6.890625 26.8125 6.890625 
Q 36.078125 6.890625 40.9375 10.546875 
Q 45.796875 14.203125 45.796875 21.1875 
Q 45.796875 27.640625 41.28125 31.265625 
Q 36.765625 34.90625 28.71875 34.90625 
L 20.21875 34.90625 
L 20.21875 43.015625 
L 29.109375 43.015625 
Q 36.375 43.015625 40.234375 45.921875 
Q 44.09375 48.828125 44.09375 54.296875 
Q 44.09375 59.90625 40.109375 62.90625 
Q 36.140625 65.921875 28.71875 65.921875 
Q 24.65625 65.921875 20.015625 65.03125 
Q 15.375 64.15625 9.8125 62.3125 
L 9.8125 71.09375 
Q 15.4375 72.65625 20.34375 73.4375 
Q 25.25 74.21875 29.59375 74.21875 
Q 40.828125 74.21875 47.359375 69.109375 
Q 53.90625 64.015625 53.90625 55.328125 
Q 53.90625 49.265625 50.4375 45.09375 
Q 46.96875 40.921875 40.578125 39.3125 
z
" id="DejaVuSans-51"/>
      </defs>
      <g transform="translate(558.749073 1153.39375)scale(0.4 -0.4)">
       <use xlink:href="#DejaVuSans-51"/>
       <use x="63.623047" xlink:href="#DejaVuSans-48"/>
      </g>
     </g>
    </g>
    <g id="xtick_5">
     <g id="line2d_9">
      <path clip-path="url(#p1beee7c903)" d="M 711.219734 1116 
L 711.219734 7.2 
" style="fill:none;stroke:#000000;stroke-linecap:square;stroke-width:2;"/>
     </g>
     <g id="line2d_10">
      <g>
       <use style="stroke:#000000;stroke-width:0.8;" x="711.219734" xlink:href="#m8a91b66e52" y="1116"/>
      </g>
     </g>
     <g id="text_5">
      <!-- 40 -->
      <defs>
       <path d="M 37.796875 64.3125 
L 12.890625 25.390625 
L 37.796875 25.390625 
z
M 35.203125 72.90625 
L 47.609375 72.90625 
L 47.609375 25.390625 
L 58.015625 25.390625 
L 58.015625 17.1875 
L 47.609375 17.1875 
L 47.609375 0 
L 37.796875 0 
L 37.796875 17.1875 
L 4.890625 17.1875 
L 4.890625 26.703125 
z
" id="DejaVuSans-52"/>
      </defs>
      <g transform="translate(685.769734 1153.39375)scale(0.4 -0.4)">
       <use xlink:href="#DejaVuSans-52"/>
       <use x="63.623047" xlink:href="#DejaVuSans-48"/>
      </g>
     </g>
    </g>
    <g id="xtick_6">
     <g id="line2d_11">
      <path clip-path="url(#p1beee7c903)" d="M 838.240396 1116 
L 838.240396 7.2 
" style="fill:none;stroke:#000000;stroke-linecap:square;stroke-width:2;"/>
     </g>
     <g id="line2d_12">
      <g>
       <use style="stroke:#000000;stroke-width:0.8;" x="838.240396" xlink:href="#m8a91b66e52" y="1116"/>
      </g>
     </g>
     <g id="text_6">
      <!-- 50 -->
      <defs>
       <path d="M 10.796875 72.90625 
L 49.515625 72.90625 
L 49.515625 64.59375 
L 19.828125 64.59375 
L 19.828125 46.734375 
Q 21.96875 47.46875 24.109375 47.828125 
Q 26.265625 48.1875 28.421875 48.1875 
Q 40.625 48.1875 47.75 41.5 
Q 54.890625 34.8125 54.890625 23.390625 
Q 54.890625 11.625 47.5625 5.09375 
Q 40.234375 -1.421875 26.90625 -1.421875 
Q 22.3125 -1.421875 17.546875 -0.640625 
Q 12.796875 0.140625 7.71875 1.703125 
L 7.71875 11.625 
Q 12.109375 9.234375 16.796875 8.0625 
Q 21.484375 6.890625 26.703125 6.890625 
Q 35.15625 6.890625 40.078125 11.328125 
Q 45.015625 15.765625 45.015625 23.390625 
Q 45.015625 31 40.078125 35.4375 
Q 35.15625 39.890625 26.703125 39.890625 
Q 22.75 39.890625 18.8125 39.015625 
Q 14.890625 38.140625 10.796875 36.28125 
z
" id="DejaVuSans-53"/>
      </defs>
      <g transform="translate(812.790396 1153.39375)scale(0.4 -0.4)">
       <use xlink:href="#DejaVuSans-53"/>
       <use x="63.623047" xlink:href="#DejaVuSans-48"/>
      </g>
     </g>
    </g>
    <g id="xtick_7">
     <g id="line2d_13">
      <path clip-path="url(#p1beee7c903)" d="M 965.261057 1116 
L 965.261057 7.2 
" style="fill:none;stroke:#000000;stroke-linecap:square;stroke-width:2;"/>
     </g>
     <g id="line2d_14">
      <g>
       <use style="stroke:#000000;stroke-width:0.8;" x="965.261057" xlink:href="#m8a91b66e52" y="1116"/>
      </g>
     </g>
     <g id="text_7">
      <!-- 60 -->
      <defs>
       <path d="M 33.015625 40.375 
Q 26.375 40.375 22.484375 35.828125 
Q 18.609375 31.296875 18.609375 23.390625 
Q 18.609375 15.53125 22.484375 10.953125 
Q 26.375 6.390625 33.015625 6.390625 
Q 39.65625 6.390625 43.53125 10.953125 
Q 47.40625 15.53125 47.40625 23.390625 
Q 47.40625 31.296875 43.53125 35.828125 
Q 39.65625 40.375 33.015625 40.375 
z
M 52.59375 71.296875 
L 52.59375 62.3125 
Q 48.875 64.0625 45.09375 64.984375 
Q 41.3125 65.921875 37.59375 65.921875 
Q 27.828125 65.921875 22.671875 59.328125 
Q 17.53125 52.734375 16.796875 39.40625 
Q 19.671875 43.65625 24.015625 45.921875 
Q 28.375 48.1875 33.59375 48.1875 
Q 44.578125 48.1875 50.953125 41.515625 
Q 57.328125 34.859375 57.328125 23.390625 
Q 57.328125 12.15625 50.6875 5.359375 
Q 44.046875 -1.421875 33.015625 -1.421875 
Q 20.359375 -1.421875 13.671875 8.265625 
Q 6.984375 17.96875 6.984375 36.375 
Q 6.984375 53.65625 15.1875 63.9375 
Q 23.390625 74.21875 37.203125 74.21875 
Q 40.921875 74.21875 44.703125 73.484375 
Q 48.484375 72.75 52.59375 71.296875 
z
" id="DejaVuSans-54"/>
      </defs>
      <g transform="translate(939.811057 1153.39375)scale(0.4 -0.4)">
       <use xlink:href="#DejaVuSans-54"/>
       <use x="63.623047" xlink:href="#DejaVuSans-48"/>
      </g>
     </g>
    </g>
    <g id="xtick_8">
     <g id="line2d_15">
      <path clip-path="url(#p1beee7c903)" d="M 1092.281718 1116 
L 1092.281718 7.2 
" style="fill:none;stroke:#000000;stroke-linecap:square;stroke-width:2;"/>
     </g>
     <g id="line2d_16">
      <g>
       <use style="stroke:#000000;stroke-width:0.8;" x="1092.281718" xlink:href="#m8a91b66e52" y="1116"/>
      </g>
     </g>
     <g id="text_8">
      <!-- 70 -->
      <defs>
       <path d="M 8.203125 72.90625 
L 55.078125 72.90625 
L 55.078125 68.703125 
L 28.609375 0 
L 18.3125 0 
L 43.21875 64.59375 
L 8.203125 64.59375 
z
" id="DejaVuSans-55"/>
      </defs>
      <g transform="translate(1066.831718 1153.39375)scale(0.4 -0.4)">
       <use xlink:href="#DejaVuSans-55"/>
       <use x="63.623047" xlink:href="#DejaVuSans-48"/>
      </g>
     </g>
    </g>
    <g id="xtick_9">
     <g id="line2d_17">
      <path clip-path="url(#p1beee7c903)" d="M 1219.302379 1116 
L 1219.302379 7.2 
" style="fill:none;stroke:#000000;stroke-linecap:square;stroke-width:2;"/>
     </g>
     <g id="line2d_18">
      <g>
       <use style="stroke:#000000;stroke-width:0.8;" x="1219.302379" xlink:href="#m8a91b66e52" y="1116"/>
      </g>
     </g>
     <g id="text_9">
      <!-- 80 -->
      <defs>
       <path d="M 31.78125 34.625 
Q 24.75 34.625 20.71875 30.859375 
Q 16.703125 27.09375 16.703125 20.515625 
Q 16.703125 13.921875 20.71875 10.15625 
Q 24.75 6.390625 31.78125 6.390625 
Q 38.8125 6.390625 42.859375 10.171875 
Q 46.921875 13.96875 46.921875 20.515625 
Q 46.921875 27.09375 42.890625 30.859375 
Q 38.875 34.625 31.78125 34.625 
z
M 21.921875 38.8125 
Q 15.578125 40.375 12.03125 44.71875 
Q 8.5 49.078125 8.5 55.328125 
Q 8.5 64.0625 14.71875 69.140625 
Q 20.953125 74.21875 31.78125 74.21875 
Q 42.671875 74.21875 48.875 69.140625 
Q 55.078125 64.0625 55.078125 55.328125 
Q 55.078125 49.078125 51.53125 44.71875 
Q 48 40.375 41.703125 38.8125 
Q 48.828125 37.15625 52.796875 32.3125 
Q 56.78125 27.484375 56.78125 20.515625 
Q 56.78125 9.90625 50.3125 4.234375 
Q 43.84375 -1.421875 31.78125 -1.421875 
Q 19.734375 -1.421875 13.25 4.234375 
Q 6.78125 9.90625 6.78125 20.515625 
Q 6.78125 27.484375 10.78125 32.3125 
Q 14.796875 37.15625 21.921875 38.8125 
z
M 18.3125 54.390625 
Q 18.3125 48.734375 21.84375 45.5625 
Q 25.390625 42.390625 31.78125 42.390625 
Q 38.140625 42.390625 41.71875 45.5625 
Q 45.3125 48.734375 45.3125 54.390625 
Q 45.3125 60.0625 41.71875 63.234375 
Q 38.140625 66.40625 31.78125 66.40625 
Q 25.390625 66.40625 21.84375 63.234375 
Q 18.3125 60.0625 18.3125 54.390625 
z
" id="DejaVuSans-56"/>
      </defs>
      <g transform="translate(1193.852379 1153.39375)scale(0.4 -0.4)">
       <use xlink:href="#DejaVuSans-56"/>
       <use x="63.623047" xlink:href="#DejaVuSans-48"/>
      </g>
     </g>
    </g>
    <g id="text_10">
     <!-- PVI [%] -->
     <defs>
      <path d="M 19.671875 64.796875 
L 19.671875 37.40625 
L 32.078125 37.40625 
Q 38.96875 37.40625 42.71875 40.96875 
Q 46.484375 44.53125 46.484375 51.125 
Q 46.484375 57.671875 42.71875 61.234375 
Q 38.96875 64.796875 32.078125 64.796875 
z
M 9.8125 72.90625 
L 32.078125 72.90625 
Q 44.34375 72.90625 50.609375 67.359375 
Q 56.890625 61.8125 56.890625 51.125 
Q 56.890625 40.328125 50.609375 34.8125 
Q 44.34375 29.296875 32.078125 29.296875 
L 19.671875 29.296875 
L 19.671875 0 
L 9.8125 0 
z
" id="DejaVuSans-80"/>
      <path d="M 28.609375 0 
L 0.78125 72.90625 
L 11.078125 72.90625 
L 34.1875 11.53125 
L 57.328125 72.90625 
L 67.578125 72.90625 
L 39.796875 0 
z
" id="DejaVuSans-86"/>
      <path d="M 9.8125 72.90625 
L 19.671875 72.90625 
L 19.671875 0 
L 9.8125 0 
z
" id="DejaVuSans-73"/>
      <path id="DejaVuSans-32"/>
      <path d="M 8.59375 75.984375 
L 29.296875 75.984375 
L 29.296875 69 
L 17.578125 69 
L 17.578125 -6.203125 
L 29.296875 -6.203125 
L 29.296875 -13.1875 
L 8.59375 -13.1875 
z
" id="DejaVuSans-91"/>
      <path d="M 72.703125 32.078125 
Q 68.453125 32.078125 66.03125 28.46875 
Q 63.625 24.859375 63.625 18.40625 
Q 63.625 12.0625 66.03125 8.421875 
Q 68.453125 4.78125 72.703125 4.78125 
Q 76.859375 4.78125 79.265625 8.421875 
Q 81.6875 12.0625 81.6875 18.40625 
Q 81.6875 24.8125 79.265625 28.4375 
Q 76.859375 32.078125 72.703125 32.078125 
z
M 72.703125 38.28125 
Q 80.421875 38.28125 84.953125 32.90625 
Q 89.5 27.546875 89.5 18.40625 
Q 89.5 9.28125 84.9375 3.921875 
Q 80.375 -1.421875 72.703125 -1.421875 
Q 64.890625 -1.421875 60.34375 3.921875 
Q 55.8125 9.28125 55.8125 18.40625 
Q 55.8125 27.59375 60.375 32.9375 
Q 64.9375 38.28125 72.703125 38.28125 
z
M 22.3125 68.015625 
Q 18.109375 68.015625 15.6875 64.375 
Q 13.28125 60.75 13.28125 54.390625 
Q 13.28125 47.953125 15.671875 44.328125 
Q 18.0625 40.71875 22.3125 40.71875 
Q 26.5625 40.71875 28.96875 44.328125 
Q 31.390625 47.953125 31.390625 54.390625 
Q 31.390625 60.6875 28.953125 64.34375 
Q 26.515625 68.015625 22.3125 68.015625 
z
M 66.40625 74.21875 
L 74.21875 74.21875 
L 28.609375 -1.421875 
L 20.796875 -1.421875 
z
M 22.3125 74.21875 
Q 30.03125 74.21875 34.609375 68.875 
Q 39.203125 63.53125 39.203125 54.390625 
Q 39.203125 45.171875 34.640625 39.84375 
Q 30.078125 34.515625 22.3125 34.515625 
Q 14.546875 34.515625 10.03125 39.859375 
Q 5.515625 45.21875 5.515625 54.390625 
Q 5.515625 63.484375 10.046875 68.84375 
Q 14.59375 74.21875 22.3125 74.21875 
z
" id="DejaVuSans-37"/>
      <path d="M 30.421875 75.984375 
L 30.421875 -13.1875 
L 9.71875 -13.1875 
L 9.71875 -6.203125 
L 21.390625 -6.203125 
L 21.390625 69 
L 9.71875 69 
L 9.71875 75.984375 
z
" id="DejaVuSans-93"/>
     </defs>
     <g transform="translate(601.709375 1211.303125)scale(0.6 -0.6)">
      <use xlink:href="#DejaVuSans-80"/>
      <use x="60.302734" xlink:href="#DejaVuSans-86"/>
      <use x="128.710938" xlink:href="#DejaVuSans-73"/>
      <use x="158.203125" xlink:href="#DejaVuSans-32"/>
      <use x="189.990234" xlink:href="#DejaVuSans-91"/>
      <use x="229.003906" xlink:href="#DejaVuSans-37"/>
      <use x="324.023438" xlink:href="#DejaVuSans-93"/>
     </g>
    </g>
   </g>
   <g id="matplotlib.axis_2">
    <g id="ytick_1">
     <g id="line2d_19">
      <path clip-path="url(#p1beee7c903)" d="M 152.61875 1067.73503 
L 1268.61875 1067.73503 
" style="fill:none;stroke:#000000;stroke-linecap:square;stroke-width:2;"/>
     </g>
     <g id="line2d_20">
      <defs>
       <path d="M 0 0 
L -3.5 0 
" id="mef846d0929" style="stroke:#000000;stroke-width:0.8;"/>
      </defs>
      <g>
       <use style="stroke:#000000;stroke-width:0.8;" x="152.61875" xlink:href="#mef846d0929" y="1067.73503"/>
      </g>
     </g>
     <g id="text_11">
      <!-- 0 -->
      <g transform="translate(120.16875 1082.931905)scale(0.4 -0.4)">
       <use xlink:href="#DejaVuSans-48"/>
      </g>
     </g>
    </g>
    <g id="ytick_2">
     <g id="line2d_21">
      <path clip-path="url(#p1beee7c903)" d="M 152.61875 919.426298 
L 1268.61875 919.426298 
" style="fill:none;stroke:#000000;stroke-linecap:square;stroke-width:2;"/>
     </g>
     <g id="line2d_22">
      <g>
       <use style="stroke:#000000;stroke-width:0.8;" x="152.61875" xlink:href="#mef846d0929" y="919.426298"/>
      </g>
     </g>
     <g id="text_12">
      <!-- 100 -->
      <g transform="translate(69.26875 934.623173)scale(0.4 -0.4)">
       <use xlink:href="#DejaVuSans-49"/>
       <use x="63.623047" xlink:href="#DejaVuSans-48"/>
       <use x="127.246094" xlink:href="#DejaVuSans-48"/>
      </g>
     </g>
    </g>
    <g id="ytick_3">
     <g id="line2d_23">
      <path clip-path="url(#p1beee7c903)" d="M 152.61875 771.117566 
L 1268.61875 771.117566 
" style="fill:none;stroke:#000000;stroke-linecap:square;stroke-width:2;"/>
     </g>
     <g id="line2d_24">
      <g>
       <use style="stroke:#000000;stroke-width:0.8;" x="152.61875" xlink:href="#mef846d0929" y="771.117566"/>
      </g>
     </g>
     <g id="text_13">
      <!-- 200 -->
      <g transform="translate(69.26875 786.314441)scale(0.4 -0.4)">
       <use xlink:href="#DejaVuSans-50"/>
       <use x="63.623047" xlink:href="#DejaVuSans-48"/>
       <use x="127.246094" xlink:href="#DejaVuSans-48"/>
      </g>
     </g>
    </g>
    <g id="ytick_4">
     <g id="line2d_25">
      <path clip-path="url(#p1beee7c903)" d="M 152.61875 622.808834 
L 1268.61875 622.808834 
" style="fill:none;stroke:#000000;stroke-linecap:square;stroke-width:2;"/>
     </g>
     <g id="line2d_26">
      <g>
       <use style="stroke:#000000;stroke-width:0.8;" x="152.61875" xlink:href="#mef846d0929" y="622.808834"/>
      </g>
     </g>
     <g id="text_14">
      <!-- 300 -->
      <g transform="translate(69.26875 638.005709)scale(0.4 -0.4)">
       <use xlink:href="#DejaVuSans-51"/>
       <use x="63.623047" xlink:href="#DejaVuSans-48"/>
       <use x="127.246094" xlink:href="#DejaVuSans-48"/>
      </g>
     </g>
    </g>
    <g id="ytick_5">
     <g id="line2d_27">
      <path clip-path="url(#p1beee7c903)" d="M 152.61875 474.500102 
L 1268.61875 474.500102 
" style="fill:none;stroke:#000000;stroke-linecap:square;stroke-width:2;"/>
     </g>
     <g id="line2d_28">
      <g>
       <use style="stroke:#000000;stroke-width:0.8;" x="152.61875" xlink:href="#mef846d0929" y="474.500102"/>
      </g>
     </g>
     <g id="text_15">
      <!-- 400 -->
      <g transform="translate(69.26875 489.696977)scale(0.4 -0.4)">
       <use xlink:href="#DejaVuSans-52"/>
       <use x="63.623047" xlink:href="#DejaVuSans-48"/>
       <use x="127.246094" xlink:href="#DejaVuSans-48"/>
      </g>
     </g>
    </g>
    <g id="ytick_6">
     <g id="line2d_29">
      <path clip-path="url(#p1beee7c903)" d="M 152.61875 326.19137 
L 1268.61875 326.19137 
" style="fill:none;stroke:#000000;stroke-linecap:square;stroke-width:2;"/>
     </g>
     <g id="line2d_30">
      <g>
       <use style="stroke:#000000;stroke-width:0.8;" x="152.61875" xlink:href="#mef846d0929" y="326.19137"/>
      </g>
     </g>
     <g id="text_16">
      <!-- 500 -->
      <g transform="translate(69.26875 341.388245)scale(0.4 -0.4)">
       <use xlink:href="#DejaVuSans-53"/>
       <use x="63.623047" xlink:href="#DejaVuSans-48"/>
       <use x="127.246094" xlink:href="#DejaVuSans-48"/>
      </g>
     </g>
    </g>
    <g id="ytick_7">
     <g id="line2d_31">
      <path clip-path="url(#p1beee7c903)" d="M 152.61875 177.882638 
L 1268.61875 177.882638 
" style="fill:none;stroke:#000000;stroke-linecap:square;stroke-width:2;"/>
     </g>
     <g id="line2d_32">
      <g>
       <use style="stroke:#000000;stroke-width:0.8;" x="152.61875" xlink:href="#mef846d0929" y="177.882638"/>
      </g>
     </g>
     <g id="text_17">
      <!-- 600 -->
      <g transform="translate(69.26875 193.079513)scale(0.4 -0.4)">
       <use xlink:href="#DejaVuSans-54"/>
       <use x="63.623047" xlink:href="#DejaVuSans-48"/>
       <use x="127.246094" xlink:href="#DejaVuSans-48"/>
      </g>
     </g>
    </g>
    <g id="ytick_8">
     <g id="line2d_33">
      <path clip-path="url(#p1beee7c903)" d="M 152.61875 29.573906 
L 1268.61875 29.573906 
" style="fill:none;stroke:#000000;stroke-linecap:square;stroke-width:2;"/>
     </g>
     <g id="line2d_34">
      <g>
       <use style="stroke:#000000;stroke-width:0.8;" x="152.61875" xlink:href="#mef846d0929" y="29.573906"/>
      </g>
     </g>
     <g id="text_18">
      <!-- 700 -->
      <g transform="translate(69.26875 44.770781)scale(0.4 -0.4)">
       <use xlink:href="#DejaVuSans-55"/>
       <use x="63.623047" xlink:href="#DejaVuSans-48"/>
       <use x="127.246094" xlink:href="#DejaVuSans-48"/>
      </g>
     </g>
    </g>
    <g id="text_19">
     <!-- time [s] -->
     <defs>
      <path d="M 18.3125 70.21875 
L 18.3125 54.6875 
L 36.8125 54.6875 
L 36.8125 47.703125 
L 18.3125 47.703125 
L 18.3125 18.015625 
Q 18.3125 11.328125 20.140625 9.421875 
Q 21.96875 7.515625 27.59375 7.515625 
L 36.8125 7.515625 
L 36.8125 0 
L 27.59375 0 
Q 17.1875 0 13.234375 3.875 
Q 9.28125 7.765625 9.28125 18.015625 
L 9.28125 47.703125 
L 2.6875 47.703125 
L 2.6875 54.6875 
L 9.28125 54.6875 
L 9.28125 70.21875 
z
" id="DejaVuSans-116"/>
      <path d="M 9.421875 54.6875 
L 18.40625 54.6875 
L 18.40625 0 
L 9.421875 0 
z
M 9.421875 75.984375 
L 18.40625 75.984375 
L 18.40625 64.59375 
L 9.421875 64.59375 
z
" id="DejaVuSans-105"/>
      <path d="M 52 44.1875 
Q 55.375 50.25 60.0625 53.125 
Q 64.75 56 71.09375 56 
Q 79.640625 56 84.28125 50.015625 
Q 88.921875 44.046875 88.921875 33.015625 
L 88.921875 0 
L 79.890625 0 
L 79.890625 32.71875 
Q 79.890625 40.578125 77.09375 44.375 
Q 74.3125 48.1875 68.609375 48.1875 
Q 61.625 48.1875 57.5625 43.546875 
Q 53.515625 38.921875 53.515625 30.90625 
L 53.515625 0 
L 44.484375 0 
L 44.484375 32.71875 
Q 44.484375 40.625 41.703125 44.40625 
Q 38.921875 48.1875 33.109375 48.1875 
Q 26.21875 48.1875 22.15625 43.53125 
Q 18.109375 38.875 18.109375 30.90625 
L 18.109375 0 
L 9.078125 0 
L 9.078125 54.6875 
L 18.109375 54.6875 
L 18.109375 46.1875 
Q 21.1875 51.21875 25.484375 53.609375 
Q 29.78125 56 35.6875 56 
Q 41.65625 56 45.828125 52.96875 
Q 50 49.953125 52 44.1875 
z
" id="DejaVuSans-109"/>
      <path d="M 56.203125 29.59375 
L 56.203125 25.203125 
L 14.890625 25.203125 
Q 15.484375 15.921875 20.484375 11.0625 
Q 25.484375 6.203125 34.421875 6.203125 
Q 39.59375 6.203125 44.453125 7.46875 
Q 49.3125 8.734375 54.109375 11.28125 
L 54.109375 2.78125 
Q 49.265625 0.734375 44.1875 -0.34375 
Q 39.109375 -1.421875 33.890625 -1.421875 
Q 20.796875 -1.421875 13.15625 6.1875 
Q 5.515625 13.8125 5.515625 26.8125 
Q 5.515625 40.234375 12.765625 48.109375 
Q 20.015625 56 32.328125 56 
Q 43.359375 56 49.78125 48.890625 
Q 56.203125 41.796875 56.203125 29.59375 
z
M 47.21875 32.234375 
Q 47.125 39.59375 43.09375 43.984375 
Q 39.0625 48.390625 32.421875 48.390625 
Q 24.90625 48.390625 20.390625 44.140625 
Q 15.875 39.890625 15.1875 32.171875 
z
" id="DejaVuSans-101"/>
      <path d="M 44.28125 53.078125 
L 44.28125 44.578125 
Q 40.484375 46.53125 36.375 47.5 
Q 32.28125 48.484375 27.875 48.484375 
Q 21.1875 48.484375 17.84375 46.4375 
Q 14.5 44.390625 14.5 40.28125 
Q 14.5 37.15625 16.890625 35.375 
Q 19.28125 33.59375 26.515625 31.984375 
L 29.59375 31.296875 
Q 39.15625 29.25 43.1875 25.515625 
Q 47.21875 21.78125 47.21875 15.09375 
Q 47.21875 7.46875 41.1875 3.015625 
Q 35.15625 -1.421875 24.609375 -1.421875 
Q 20.21875 -1.421875 15.453125 -0.5625 
Q 10.6875 0.296875 5.421875 2 
L 5.421875 11.28125 
Q 10.40625 8.6875 15.234375 7.390625 
Q 20.0625 6.109375 24.8125 6.109375 
Q 31.15625 6.109375 34.5625 8.28125 
Q 37.984375 10.453125 37.984375 14.40625 
Q 37.984375 18.0625 35.515625 20.015625 
Q 33.0625 21.96875 24.703125 23.78125 
L 21.578125 24.515625 
Q 13.234375 26.265625 9.515625 29.90625 
Q 5.8125 33.546875 5.8125 39.890625 
Q 5.8125 47.609375 11.28125 51.796875 
Q 16.75 56 26.8125 56 
Q 31.78125 56 36.171875 55.265625 
Q 40.578125 54.546875 44.28125 53.078125 
z
" id="DejaVuSans-115"/>
     </defs>
     <g transform="translate(52.790625 677.948438)rotate(-90)scale(0.6 -0.6)">
      <use xlink:href="#DejaVuSans-116"/>
      <use x="39.208984" xlink:href="#DejaVuSans-105"/>
      <use x="66.992188" xlink:href="#DejaVuSans-109"/>
      <use x="164.404297" xlink:href="#DejaVuSans-101"/>
      <use x="225.927734" xlink:href="#DejaVuSans-32"/>
      <use x="257.714844" xlink:href="#DejaVuSans-91"/>
      <use x="296.728516" xlink:href="#DejaVuSans-115"/>
      <use x="348.828125" xlink:href="#DejaVuSans-93"/>
     </g>
    </g>
   </g>
   <g id="line2d_35">
    <path clip-path="url(#p1beee7c903)" d="M 203.346023 1065.088463 
L 204.720311 1063.435454 
L 205.873958 1062.50406 
L 210.817227 1059.865629 
L 214.670395 1058.058796 
L 217.303985 1056.769662 
L 220.643398 1055.312762 
L 224.817664 1053.517334 
L 229.003471 1051.573061 
L 233.344707 1049.975917 
L 240.468736 1047.315193 
L 244.701441 1045.972135 
L 248.934147 1044.481226 
L 253.166852 1042.920379 
L 260.221361 1040.220676 
L 265.864968 1037.85887 
L 272.919477 1034.784742 
L 280.524042 1031.463703 
L 289.694904 1027.914551 
L 295.197421 1025.590826 
L 302.53411 1022.464852 
L 311.704972 1018.277276 
L 316.433248 1016.515476 
L 325.970944 1012.971937 
L 342.661912 1006.499929 
L 347.43076 1004.539496 
L 356.968456 1000.40998 
L 364.121728 997.213328 
L 373.659424 992.890239 
L 407.041361 976.717396 
L 418.963481 970.629918 
L 435.654449 961.970434 
L 452.345417 953.158974 
L 458.347133 950.557997 
L 470.746138 945.24059 
L 492.444396 935.653665 
L 511.042903 927.28201 
L 523.441908 921.398743 
L 548.239918 909.361204 
L 557.539172 904.729578 
L 566.838425 900.055792 
L 579.23743 893.690611 
L 588.536684 888.772117 
L 607.135191 878.853333 
L 616.434445 873.728716 
L 628.83345 866.760234 
L 641.232454 859.662598 
L 650.531708 854.159137 
L 662.930713 846.761521 
L 675.329718 839.309056 
L 687.728723 831.530939 
L 703.227479 821.738284 
L 724.925737 807.73049 
L 737.324742 799.538507 
L 768.322254 778.784752 
L 817.918273 744.767231 
L 830.317278 736.110278 
L 867.514293 710.064915 
L 907.811059 681.293763 
L 932.609068 663.412663 
L 941.908322 656.655 
L 963.60658 640.934073 
L 976.005585 631.804268 
L 1003.903346 611.231687 
L 1010.050106 606.66187 
L 1031.509922 585.961806 
L 1060.12301 558.267832 
L 1079.198402 539.669809 
L 1107.81149 511.715182 
L 1117.349186 502.352536 
L 1131.65573 488.295261 
L 1141.193426 478.866631 
L 1150.731122 469.513916 
L 1156.304639 462.554082 
L 1161.807156 455.516022 
L 1178.314707 434.568399 
L 1183.817224 427.621757 
L 1185.440736 425.268364 
L 1217.891477 372.046694 
L 1217.891477 372.046694 
" style="fill:none;stroke:#1f77b4;stroke-linecap:square;stroke-width:3;"/>
   </g>
   <g id="line2d_36">
    <path clip-path="url(#p1beee7c903)" d="M 203.346023 1065.06826 
L 204.720311 1063.099857 
L 205.873958 1062.095401 
L 210.175032 1059.701184 
L 213.386006 1058.375264 
L 215.954785 1057.213608 
L 218.973692 1056.100367 
L 222.313104 1054.95415 
L 223.98281 1054.338391 
L 227.322223 1053.157976 
L 229.003471 1052.518854 
L 234.430016 1050.967713 
L 237.685943 1050.002332 
L 244.701441 1048.369103 
L 248.934147 1047.327054 
L 255.988655 1045.606632 
L 260.221361 1044.539056 
L 267.27587 1042.757938 
L 271.508575 1041.666299 
L 280.524042 1039.479113 
L 289.694904 1037.627376 
L 295.197421 1036.443371 
L 306.202455 1034.086984 
L 314.048824 1032.307284 
L 328.355368 1029.666418 
L 345.046336 1026.469568 
L 378.428272 1019.804371 
L 395.119241 1016.431757 
L 409.425785 1013.512664 
L 416.579057 1012.000133 
L 449.960993 1005.123783 
L 455.247382 1004.132854 
L 501.74365 996.559894 
L 532.741162 991.393934 
L 545.140167 989.279542 
L 563.738674 986.079151 
L 576.137679 983.92178 
L 594.736186 980.661578 
L 600.935689 979.523776 
L 625.733698 975.138664 
L 635.032952 973.415517 
L 653.631459 970.043344 
L 675.329718 966.086005 
L 687.728723 963.82345 
L 700.127727 961.476116 
L 724.925737 956.876594 
L 734.224991 955.107758 
L 755.923249 951.03014 
L 777.621508 946.868403 
L 793.120264 943.866103 
L 821.018025 938.344759 
L 830.317278 936.459409 
L 852.015537 932.076932 
L 858.215039 930.767493 
L 883.013049 925.731981 
L 892.312303 923.782409 
L 932.609068 915.476295 
L 941.908322 913.504161 
L 960.506829 909.599367 
L 985.304839 904.304217 
L 1010.050106 899.002588 
L 1024.35665 894.972043 
L 1031.509922 892.935432 
L 1048.20089 888.231164 
L 1057.738586 885.492703 
L 1095.88937 874.515959 
L 1103.042642 872.407309 
L 1119.73361 867.547868 
L 1126.886882 865.432274 
L 1145.962274 859.839441 
L 1152.636295 857.688197 
L 1165.475501 852.706344 
L 1170.978018 850.532083 
L 1183.817224 845.536603 
L 1188.26254 843.355931 
L 1212.24787 831.037865 
L 1217.891477 828.108535 
L 1217.891477 828.108535 
" style="fill:none;stroke:#ff7f0e;stroke-linecap:square;stroke-width:3;"/>
   </g>
   <g id="line2d_37">
    <path clip-path="url(#p1beee7c903)" d="M 203.346023 1065.06308 
L 204.331107 1063.672798 
L 205.223478 1062.777594 
L 207.47012 1061.362679 
L 214.028201 1058.616242 
L 221.478251 1056.013884 
L 224.817664 1054.93899 
L 228.157076 1053.781082 
L 231.174089 1052.911327 
L 243.290539 1050.016538 
L 250.345048 1048.514142 
L 254.577754 1047.568726 
L 261.632263 1046.013558 
L 265.864968 1045.031575 
L 274.330379 1043.108468 
L 277.152182 1042.411391 
L 280.524042 1041.766326 
L 291.529076 1039.687202 
L 298.865766 1038.301625 
L 309.870799 1036.170382 
L 314.048824 1035.406641 
L 325.970944 1033.577567 
L 385.581544 1023.899277 
L 390.350393 1023.051387 
L 409.425785 1019.815218 
L 416.579057 1018.535 
L 445.192145 1013.573677 
L 455.247382 1011.879105 
L 498.643899 1005.874546 
L 507.943152 1004.521722 
L 532.741162 1000.904742 
L 545.140167 999.061956 
L 563.738674 996.259056 
L 576.137679 994.352718 
L 594.736186 991.473 
L 600.935689 990.465059 
L 613.334693 988.47808 
L 644.332206 983.479725 
L 675.329718 978.452958 
L 687.728723 976.41543 
L 703.227479 973.782367 
L 737.324742 967.985181 
L 755.923249 964.779266 
L 765.222503 963.167537 
L 790.020513 958.838942 
L 796.220015 957.709775 
L 811.718771 954.96659 
L 867.514293 944.853695 
L 879.913298 942.565094 
L 895.412054 939.677902 
L 917.110312 935.622767 
L 926.409566 933.878916 
L 963.60658 926.894579 
L 972.905834 925.116344 
L 1003.903346 919.205973 
L 1010.050106 918.029716 
L 1024.35665 914.420445 
L 1031.509922 912.603213 
L 1048.20089 908.402296 
L 1057.738586 905.952248 
L 1107.81149 893.01371 
L 1114.964762 891.121479 
L 1141.193426 884.21834 
L 1150.731122 881.669574 
L 1156.304639 879.780756 
L 1159.972984 878.453302 
L 1174.646362 873.314502 
L 1180.148879 871.363321 
L 1183.817224 870.091882 
L 1189.673442 867.491326 
L 1205.193361 860.33744 
L 1209.426067 858.353715 
L 1217.891477 854.43022 
L 1217.891477 854.43022 
" style="fill:none;stroke:#2ca02c;stroke-linecap:square;stroke-width:3;"/>
   </g>
   <g id="line2d_38">
    <path clip-path="url(#p1beee7c903)" d="M 203.346023 1065.6 
L 203.841524 1057.645467 
L 204.806018 1047.392739 
L 205.687089 1041.401277 
L 207.310879 1033.352327 
L 208.855633 1027.31392 
L 209.43462 1025.226422 
L 211.4428 1020.056114 
L 217.600604 1002.028035 
L 228.913355 975.893991 
L 237.992188 959.855586 
L 245.345476 949.65105 
L 248.286792 945.604431 
L 252.698765 939.455579 
L 260.052053 929.267882 
L 261.52271 927.328293 
L 262.993368 925.10965 
L 265.934683 921.052103 
L 268.875998 917.013828 
L 274.758629 909.085648 
L 276.229286 906.56588 
L 277.699944 904.552425 
L 281.391498 900.423464 
L 285.215208 896.331867 
L 289.038918 892.234474 
L 292.862627 888.157447 
L 310.069322 869.613717 
L 312.023466 867.040977 
L 314.508878 865.051035 
L 316.994289 862.198556 
L 324.450523 856.137243 
L 326.935935 853.856374 
L 349.304637 835.199087 
L 354.27546 830.679297 
L 356.760871 828.074713 
L 359.246283 825.756202 
L 361.731694 823.073627 
L 374.158751 811.06185 
L 379.129574 806.150539 
L 381.614985 802.995654 
L 391.556631 793.870464 
L 394.042042 791.211887 
L 408.95451 776.894653 
L 416.410744 769.207963 
L 418.896156 766.385558 
L 428.837801 755.760557 
L 431.323213 752.602306 
L 433.808624 749.888941 
L 438.779447 744.825119 
L 441.264858 742.114565 
L 443.750269 739.000668 
L 453.898078 728.548648 
L 460.360148 723.056463 
L 476.515322 709.809893 
L 479.746357 708.185264 
L 482.977391 705.534122 
L 486.208426 702.521929 
L 489.439461 699.908368 
L 495.90153 696.555518 
L 499.132565 693.503204 
L 505.594635 688.198262 
L 508.82567 686.580119 
L 518.518774 678.516141 
L 521.749809 675.794434 
L 524.980844 674.046596 
L 528.211878 671.393495 
L 534.673948 667.027346 
L 537.904983 664.665289 
L 541.136018 662.526576 
L 544.367052 660.008436 
L 547.598087 655.814756 
L 550.829122 650.615055 
L 554.060157 648.104246 
L 557.291192 645.963844 
L 570.215331 638.85451 
L 583.13947 631.57239 
L 586.370505 629.91766 
L 589.601539 627.726262 
L 592.832574 625.933978 
L 599.294644 622.074036 
L 602.525679 620.234266 
L 618.680853 609.624159 
L 644.529131 590.566509 
L 654.222235 583.097143 
L 657.45327 581.345494 
L 660.684305 579.125782 
L 663.91534 576.696121 
L 667.146374 574.470723 
L 673.608444 569.55437 
L 680.070514 564.513394 
L 699.456722 549.984314 
L 712.380862 539.93299 
L 715.611896 537.703357 
L 718.842931 535.968237 
L 725.305001 530.833322 
L 728.536036 529.106556 
L 731.76707 526.928647 
L 734.998105 524.551191 
L 741.460175 519.047842 
L 744.69121 516.489408 
L 754.384314 509.665094 
L 760.846383 504.627372 
L 764.077418 502.227732 
L 767.308453 500.580589 
L 773.770523 495.511806 
L 793.156731 480.675876 
L 796.387766 478.3606 
L 802.849836 473.43557 
L 806.080871 471.030316 
L 812.54294 465.593103 
L 815.773975 463.127124 
L 819.00501 460.383879 
L 825.467079 455.917869 
L 828.698114 452.711536 
L 831.929149 450.341113 
L 838.391219 446.100478 
L 841.622253 444.084528 
L 844.853288 441.799298 
L 848.084323 439.692635 
L 851.315358 437.261096 
L 857.777427 432.878933 
L 864.239497 426.942339 
L 870.701566 421.723736 
L 877.163636 416.03062 
L 880.394671 413.544463 
L 883.625706 410.47442 
L 896.549845 400.21925 
L 906.242949 392.849808 
L 909.473984 390.745551 
L 915.936054 386.758269 
L 922.398123 382.673211 
L 928.860193 377.445801 
L 935.322262 372.338574 
L 941.784332 367.202535 
L 945.015367 365.218441 
L 951.477436 359.775339 
L 954.708471 357.082138 
L 957.939506 354.710601 
L 961.170541 351.615668 
L 967.63261 346.639039 
L 970.863645 342.248664 
L 974.09468 339.830032 
L 977.325715 335.863721 
L 980.556749 332.959427 
L 983.787784 330.463485 
L 987.018819 328.442725 
L 990.249854 326.044028 
L 993.480889 323.366122 
L 996.711923 318.349802 
L 999.942958 315.654763 
L 1003.173993 311.708171 
L 1006.405028 308.413489 
L 1009.636063 305.664136 
L 1017.147273 297.577243 
L 1019.632685 295.367265 
L 1022.118096 292.983661 
L 1029.57433 284.975689 
L 1032.059742 282.719321 
L 1042.001387 272.175022 
L 1049.457621 264.291138 
L 1056.913856 256.472145 
L 1059.399267 254.035239 
L 1066.855501 246.050588 
L 1069.340912 243.62864 
L 1071.826324 240.480346 
L 1074.311735 238.300693 
L 1079.282558 233.019919 
L 1081.767969 230.197605 
L 1084.253381 228.001111 
L 1086.738792 225.25889 
L 1091.709615 220.958951 
L 1094.195026 218.265858 
L 1096.680438 215.855295 
L 1101.65126 211.26524 
L 1104.136672 208.284857 
L 1106.622083 205.904402 
L 1109.107495 203.362884 
L 1111.592906 200.192496 
L 1121.534551 189.919457 
L 1124.019963 187.670801 
L 1133.961608 178.006197 
L 1141.417842 171.641779 
L 1143.903254 168.48472 
L 1146.388665 166.265306 
L 1151.285481 160.668399 
L 1155.10919 155.248211 
L 1157.021045 151.609884 
L 1160.844755 146.616291 
L 1162.75661 143.131731 
L 1164.668465 140.857467 
L 1170.40403 133.40865 
L 1172.315885 131.267203 
L 1176.139594 126.380433 
L 1179.963304 121.278889 
L 1181.875159 118.81316 
L 1185.477254 114.613443 
L 1188.418569 109.68445 
L 1189.889227 107.390584 
L 1195.771857 96.917579 
L 1197.242515 94.103105 
L 1200.18383 89.078313 
L 1204.595803 80.596223 
L 1206.06646 78.062091 
L 1209.007776 72.625845 
L 1211.949091 67.41856 
L 1213.419749 65.184258 
L 1217.831721 57.6 
L 1217.831721 57.6 
" style="fill:none;stroke:#d62728;stroke-linecap:square;stroke-width:3;"/>
   </g>
   <g id="patch_3">
    <path d="M 152.61875 1116 
L 152.61875 7.2 
" style="fill:none;stroke:#000000;stroke-linecap:square;stroke-linejoin:miter;stroke-width:3;"/>
   </g>
   <g id="patch_4">
    <path d="M 1268.61875 1116 
L 1268.61875 7.2 
" style="fill:none;stroke:#000000;stroke-linecap:square;stroke-linejoin:miter;stroke-width:3;"/>
   </g>
   <g id="patch_5">
    <path d="M 152.61875 1116 
L 1268.61875 1116 
" style="fill:none;stroke:#000000;stroke-linecap:square;stroke-linejoin:miter;stroke-width:3;"/>
   </g>
   <g id="patch_6">
    <path d="M 152.61875 7.2 
L 1268.61875 7.2 
" style="fill:none;stroke:#000000;stroke-linecap:square;stroke-linejoin:miter;stroke-width:3;"/>
   </g>
  </g>
 </g>
 <defs>
  <clipPath id="p1beee7c903">
   <rect height="1108.8" width="1116" x="152.61875" y="7.2"/>
  </clipPath>
 </defs>
</svg>
