<?xml version="1.0" encoding="utf-8" standalone="no"?>
<!DOCTYPE svg PUBLIC "-//W3C//DTD SVG 1.1//EN"
  "http://www.w3.org/Graphics/SVG/1.1/DTD/svg11.dtd">
<!-- Created with matplotlib (https://matplotlib.org/) -->
<svg height="891.7125pt" version="1.1" viewBox="0 0 934.75 891.7125" width="934.75pt" xmlns="http://www.w3.org/2000/svg" xmlns:xlink="http://www.w3.org/1999/xlink">
 <defs>
  <style type="text/css">
*{stroke-linecap:butt;stroke-linejoin:round;}
  </style>
 </defs>
 <g id="figure_1">
  <g id="patch_1">
   <path d="M 0 891.7125 
L 934.75 891.7125 
L 934.75 0 
L 0 0 
z
" style="fill:none;"/>
  </g>
  <g id="axes_1">
   <g id="patch_2">
    <path d="M 90.55 838.8 
L 927.55 838.8 
L 927.55 7.2 
L 90.55 7.2 
z
" style="fill:none;"/>
   </g>
   <g id="matplotlib.axis_1">
    <g id="xtick_1">
     <g id="line2d_1">
      <path clip-path="url(#p75b0e95575)" d="M 128.438755 838.8 
L 128.438755 7.2 
" style="fill:none;stroke:#000000;stroke-linecap:square;stroke-width:2;"/>
     </g>
     <g id="line2d_2">
      <defs>
       <path d="M 0 0 
L 0 3.5 
" id="m42d6e5dbcc" style="stroke:#000000;stroke-width:0.8;"/>
      </defs>
      <g>
       <use style="stroke:#000000;stroke-width:0.8;" x="128.438755" xlink:href="#m42d6e5dbcc" y="838.8"/>
      </g>
     </g>
     <g id="text_1">
      <!-- 0 -->
      <defs>
       <path d="M 31.78125 66.40625 
Q 24.171875 66.40625 20.328125 58.90625 
Q 16.5 51.421875 16.5 36.375 
Q 16.5 21.390625 20.328125 13.890625 
Q 24.171875 6.390625 31.78125 6.390625 
Q 39.453125 6.390625 43.28125 13.890625 
Q 47.125 21.390625 47.125 36.375 
Q 47.125 51.421875 43.28125 58.90625 
Q 39.453125 66.40625 31.78125 66.40625 
z
M 31.78125 74.21875 
Q 44.046875 74.21875 50.515625 64.515625 
Q 56.984375 54.828125 56.984375 36.375 
Q 56.984375 17.96875 50.515625 8.265625 
Q 44.046875 -1.421875 31.78125 -1.421875 
Q 19.53125 -1.421875 13.0625 8.265625 
Q 6.59375 17.96875 6.59375 36.375 
Q 6.59375 54.828125 13.0625 64.515625 
Q 19.53125 74.21875 31.78125 74.21875 
z
" id="DejaVuSans-48"/>
      </defs>
      <g transform="translate(115.713755 876.19375)scale(0.4 -0.4)">
       <use xlink:href="#DejaVuSans-48"/>
      </g>
     </g>
    </g>
    <g id="xtick_2">
     <g id="line2d_3">
      <path clip-path="url(#p75b0e95575)" d="M 318.969746 838.8 
L 318.969746 7.2 
" style="fill:none;stroke:#000000;stroke-linecap:square;stroke-width:2;"/>
     </g>
     <g id="line2d_4">
      <g>
       <use style="stroke:#000000;stroke-width:0.8;" x="318.969746" xlink:href="#m42d6e5dbcc" y="838.8"/>
      </g>
     </g>
     <g id="text_2">
      <!-- 20 -->
      <defs>
       <path d="M 19.1875 8.296875 
L 53.609375 8.296875 
L 53.609375 0 
L 7.328125 0 
L 7.328125 8.296875 
Q 12.9375 14.109375 22.625 23.890625 
Q 32.328125 33.6875 34.8125 36.53125 
Q 39.546875 41.84375 41.421875 45.53125 
Q 43.3125 49.21875 43.3125 52.78125 
Q 43.3125 58.59375 39.234375 62.25 
Q 35.15625 65.921875 28.609375 65.921875 
Q 23.96875 65.921875 18.8125 64.3125 
Q 13.671875 62.703125 7.8125 59.421875 
L 7.8125 69.390625 
Q 13.765625 71.78125 18.9375 73 
Q 24.125 74.21875 28.421875 74.21875 
Q 39.75 74.21875 46.484375 68.546875 
Q 53.21875 62.890625 53.21875 53.421875 
Q 53.21875 48.921875 51.53125 44.890625 
Q 49.859375 40.875 45.40625 35.40625 
Q 44.1875 33.984375 37.640625 27.21875 
Q 31.109375 20.453125 19.1875 8.296875 
z
" id="DejaVuSans-50"/>
      </defs>
      <g transform="translate(293.519746 876.19375)scale(0.4 -0.4)">
       <use xlink:href="#DejaVuSans-50"/>
       <use x="63.623047" xlink:href="#DejaVuSans-48"/>
      </g>
     </g>
    </g>
    <g id="xtick_3">
     <g id="line2d_5">
      <path clip-path="url(#p75b0e95575)" d="M 509.500738 838.8 
L 509.500738 7.2 
" style="fill:none;stroke:#000000;stroke-linecap:square;stroke-width:2;"/>
     </g>
     <g id="line2d_6">
      <g>
       <use style="stroke:#000000;stroke-width:0.8;" x="509.500738" xlink:href="#m42d6e5dbcc" y="838.8"/>
      </g>
     </g>
     <g id="text_3">
      <!-- 40 -->
      <defs>
       <path d="M 37.796875 64.3125 
L 12.890625 25.390625 
L 37.796875 25.390625 
z
M 35.203125 72.90625 
L 47.609375 72.90625 
L 47.609375 25.390625 
L 58.015625 25.390625 
L 58.015625 17.1875 
L 47.609375 17.1875 
L 47.609375 0 
L 37.796875 0 
L 37.796875 17.1875 
L 4.890625 17.1875 
L 4.890625 26.703125 
z
" id="DejaVuSans-52"/>
      </defs>
      <g transform="translate(484.050738 876.19375)scale(0.4 -0.4)">
       <use xlink:href="#DejaVuSans-52"/>
       <use x="63.623047" xlink:href="#DejaVuSans-48"/>
      </g>
     </g>
    </g>
    <g id="xtick_4">
     <g id="line2d_7">
      <path clip-path="url(#p75b0e95575)" d="M 700.03173 838.8 
L 700.03173 7.2 
" style="fill:none;stroke:#000000;stroke-linecap:square;stroke-width:2;"/>
     </g>
     <g id="line2d_8">
      <g>
       <use style="stroke:#000000;stroke-width:0.8;" x="700.03173" xlink:href="#m42d6e5dbcc" y="838.8"/>
      </g>
     </g>
     <g id="text_4">
      <!-- 60 -->
      <defs>
       <path d="M 33.015625 40.375 
Q 26.375 40.375 22.484375 35.828125 
Q 18.609375 31.296875 18.609375 23.390625 
Q 18.609375 15.53125 22.484375 10.953125 
Q 26.375 6.390625 33.015625 6.390625 
Q 39.65625 6.390625 43.53125 10.953125 
Q 47.40625 15.53125 47.40625 23.390625 
Q 47.40625 31.296875 43.53125 35.828125 
Q 39.65625 40.375 33.015625 40.375 
z
M 52.59375 71.296875 
L 52.59375 62.3125 
Q 48.875 64.0625 45.09375 64.984375 
Q 41.3125 65.921875 37.59375 65.921875 
Q 27.828125 65.921875 22.671875 59.328125 
Q 17.53125 52.734375 16.796875 39.40625 
Q 19.671875 43.65625 24.015625 45.921875 
Q 28.375 48.1875 33.59375 48.1875 
Q 44.578125 48.1875 50.953125 41.515625 
Q 57.328125 34.859375 57.328125 23.390625 
Q 57.328125 12.15625 50.6875 5.359375 
Q 44.046875 -1.421875 33.015625 -1.421875 
Q 20.359375 -1.421875 13.671875 8.265625 
Q 6.984375 17.96875 6.984375 36.375 
Q 6.984375 53.65625 15.1875 63.9375 
Q 23.390625 74.21875 37.203125 74.21875 
Q 40.921875 74.21875 44.703125 73.484375 
Q 48.484375 72.75 52.59375 71.296875 
z
" id="DejaVuSans-54"/>
      </defs>
      <g transform="translate(674.58173 876.19375)scale(0.4 -0.4)">
       <use xlink:href="#DejaVuSans-54"/>
       <use x="63.623047" xlink:href="#DejaVuSans-48"/>
      </g>
     </g>
    </g>
    <g id="xtick_5">
     <g id="line2d_9">
      <path clip-path="url(#p75b0e95575)" d="M 890.562722 838.8 
L 890.562722 7.2 
" style="fill:none;stroke:#000000;stroke-linecap:square;stroke-width:2;"/>
     </g>
     <g id="line2d_10">
      <g>
       <use style="stroke:#000000;stroke-width:0.8;" x="890.562722" xlink:href="#m42d6e5dbcc" y="838.8"/>
      </g>
     </g>
     <g id="text_5">
      <!-- 80 -->
      <defs>
       <path d="M 31.78125 34.625 
Q 24.75 34.625 20.71875 30.859375 
Q 16.703125 27.09375 16.703125 20.515625 
Q 16.703125 13.921875 20.71875 10.15625 
Q 24.75 6.390625 31.78125 6.390625 
Q 38.8125 6.390625 42.859375 10.171875 
Q 46.921875 13.96875 46.921875 20.515625 
Q 46.921875 27.09375 42.890625 30.859375 
Q 38.875 34.625 31.78125 34.625 
z
M 21.921875 38.8125 
Q 15.578125 40.375 12.03125 44.71875 
Q 8.5 49.078125 8.5 55.328125 
Q 8.5 64.0625 14.71875 69.140625 
Q 20.953125 74.21875 31.78125 74.21875 
Q 42.671875 74.21875 48.875 69.140625 
Q 55.078125 64.0625 55.078125 55.328125 
Q 55.078125 49.078125 51.53125 44.71875 
Q 48 40.375 41.703125 38.8125 
Q 48.828125 37.15625 52.796875 32.3125 
Q 56.78125 27.484375 56.78125 20.515625 
Q 56.78125 9.90625 50.3125 4.234375 
Q 43.84375 -1.421875 31.78125 -1.421875 
Q 19.734375 -1.421875 13.25 4.234375 
Q 6.78125 9.90625 6.78125 20.515625 
Q 6.78125 27.484375 10.78125 32.3125 
Q 14.796875 37.15625 21.921875 38.8125 
z
M 18.3125 54.390625 
Q 18.3125 48.734375 21.84375 45.5625 
Q 25.390625 42.390625 31.78125 42.390625 
Q 38.140625 42.390625 41.71875 45.5625 
Q 45.3125 48.734375 45.3125 54.390625 
Q 45.3125 60.0625 41.71875 63.234375 
Q 38.140625 66.40625 31.78125 66.40625 
Q 25.390625 66.40625 21.84375 63.234375 
Q 18.3125 60.0625 18.3125 54.390625 
z
" id="DejaVuSans-56"/>
      </defs>
      <g transform="translate(865.112722 876.19375)scale(0.4 -0.4)">
       <use xlink:href="#DejaVuSans-56"/>
       <use x="63.623047" xlink:href="#DejaVuSans-48"/>
      </g>
     </g>
    </g>
   </g>
   <g id="matplotlib.axis_2">
    <g id="ytick_1">
     <g id="line2d_11">
      <path clip-path="url(#p75b0e95575)" d="M 90.55 801.110817 
L 927.55 801.110817 
" style="fill:none;stroke:#000000;stroke-linecap:square;stroke-width:2;"/>
     </g>
     <g id="line2d_12">
      <defs>
       <path d="M 0 0 
L -3.5 0 
" id="m7a1905d940" style="stroke:#000000;stroke-width:0.8;"/>
      </defs>
      <g>
       <use style="stroke:#000000;stroke-width:0.8;" x="90.55" xlink:href="#m7a1905d940" y="801.110817"/>
      </g>
     </g>
     <g id="text_6">
      <!-- 0 -->
      <g transform="translate(58.1 816.307692)scale(0.4 -0.4)">
       <use xlink:href="#DejaVuSans-48"/>
      </g>
     </g>
    </g>
    <g id="ytick_2">
     <g id="line2d_13">
      <path clip-path="url(#p75b0e95575)" d="M 90.55 690.098097 
L 927.55 690.098097 
" style="fill:none;stroke:#000000;stroke-linecap:square;stroke-width:2;"/>
     </g>
     <g id="line2d_14">
      <g>
       <use style="stroke:#000000;stroke-width:0.8;" x="90.55" xlink:href="#m7a1905d940" y="690.098097"/>
      </g>
     </g>
     <g id="text_7">
      <!-- 100 -->
      <defs>
       <path d="M 12.40625 8.296875 
L 28.515625 8.296875 
L 28.515625 63.921875 
L 10.984375 60.40625 
L 10.984375 69.390625 
L 28.421875 72.90625 
L 38.28125 72.90625 
L 38.28125 8.296875 
L 54.390625 8.296875 
L 54.390625 0 
L 12.40625 0 
z
" id="DejaVuSans-49"/>
      </defs>
      <g transform="translate(7.2 705.294972)scale(0.4 -0.4)">
       <use xlink:href="#DejaVuSans-49"/>
       <use x="63.623047" xlink:href="#DejaVuSans-48"/>
       <use x="127.246094" xlink:href="#DejaVuSans-48"/>
      </g>
     </g>
    </g>
    <g id="ytick_3">
     <g id="line2d_15">
      <path clip-path="url(#p75b0e95575)" d="M 90.55 579.085378 
L 927.55 579.085378 
" style="fill:none;stroke:#000000;stroke-linecap:square;stroke-width:2;"/>
     </g>
     <g id="line2d_16">
      <g>
       <use style="stroke:#000000;stroke-width:0.8;" x="90.55" xlink:href="#m7a1905d940" y="579.085378"/>
      </g>
     </g>
     <g id="text_8">
      <!-- 200 -->
      <g transform="translate(7.2 594.282253)scale(0.4 -0.4)">
       <use xlink:href="#DejaVuSans-50"/>
       <use x="63.623047" xlink:href="#DejaVuSans-48"/>
       <use x="127.246094" xlink:href="#DejaVuSans-48"/>
      </g>
     </g>
    </g>
    <g id="ytick_4">
     <g id="line2d_17">
      <path clip-path="url(#p75b0e95575)" d="M 90.55 468.072659 
L 927.55 468.072659 
" style="fill:none;stroke:#000000;stroke-linecap:square;stroke-width:2;"/>
     </g>
     <g id="line2d_18">
      <g>
       <use style="stroke:#000000;stroke-width:0.8;" x="90.55" xlink:href="#m7a1905d940" y="468.072659"/>
      </g>
     </g>
     <g id="text_9">
      <!-- 300 -->
      <defs>
       <path d="M 40.578125 39.3125 
Q 47.65625 37.796875 51.625 33 
Q 55.609375 28.21875 55.609375 21.1875 
Q 55.609375 10.40625 48.1875 4.484375 
Q 40.765625 -1.421875 27.09375 -1.421875 
Q 22.515625 -1.421875 17.65625 -0.515625 
Q 12.796875 0.390625 7.625 2.203125 
L 7.625 11.71875 
Q 11.71875 9.328125 16.59375 8.109375 
Q 21.484375 6.890625 26.8125 6.890625 
Q 36.078125 6.890625 40.9375 10.546875 
Q 45.796875 14.203125 45.796875 21.1875 
Q 45.796875 27.640625 41.28125 31.265625 
Q 36.765625 34.90625 28.71875 34.90625 
L 20.21875 34.90625 
L 20.21875 43.015625 
L 29.109375 43.015625 
Q 36.375 43.015625 40.234375 45.921875 
Q 44.09375 48.828125 44.09375 54.296875 
Q 44.09375 59.90625 40.109375 62.90625 
Q 36.140625 65.921875 28.71875 65.921875 
Q 24.65625 65.921875 20.015625 65.03125 
Q 15.375 64.15625 9.8125 62.3125 
L 9.8125 71.09375 
Q 15.4375 72.65625 20.34375 73.4375 
Q 25.25 74.21875 29.59375 74.21875 
Q 40.828125 74.21875 47.359375 69.109375 
Q 53.90625 64.015625 53.90625 55.328125 
Q 53.90625 49.265625 50.4375 45.09375 
Q 46.96875 40.921875 40.578125 39.3125 
z
" id="DejaVuSans-51"/>
      </defs>
      <g transform="translate(7.2 483.269534)scale(0.4 -0.4)">
       <use xlink:href="#DejaVuSans-51"/>
       <use x="63.623047" xlink:href="#DejaVuSans-48"/>
       <use x="127.246094" xlink:href="#DejaVuSans-48"/>
      </g>
     </g>
    </g>
    <g id="ytick_5">
     <g id="line2d_19">
      <path clip-path="url(#p75b0e95575)" d="M 90.55 357.05994 
L 927.55 357.05994 
" style="fill:none;stroke:#000000;stroke-linecap:square;stroke-width:2;"/>
     </g>
     <g id="line2d_20">
      <g>
       <use style="stroke:#000000;stroke-width:0.8;" x="90.55" xlink:href="#m7a1905d940" y="357.05994"/>
      </g>
     </g>
     <g id="text_10">
      <!-- 400 -->
      <g transform="translate(7.2 372.256815)scale(0.4 -0.4)">
       <use xlink:href="#DejaVuSans-52"/>
       <use x="63.623047" xlink:href="#DejaVuSans-48"/>
       <use x="127.246094" xlink:href="#DejaVuSans-48"/>
      </g>
     </g>
    </g>
    <g id="ytick_6">
     <g id="line2d_21">
      <path clip-path="url(#p75b0e95575)" d="M 90.55 246.047221 
L 927.55 246.047221 
" style="fill:none;stroke:#000000;stroke-linecap:square;stroke-width:2;"/>
     </g>
     <g id="line2d_22">
      <g>
       <use style="stroke:#000000;stroke-width:0.8;" x="90.55" xlink:href="#m7a1905d940" y="246.047221"/>
      </g>
     </g>
     <g id="text_11">
      <!-- 500 -->
      <defs>
       <path d="M 10.796875 72.90625 
L 49.515625 72.90625 
L 49.515625 64.59375 
L 19.828125 64.59375 
L 19.828125 46.734375 
Q 21.96875 47.46875 24.109375 47.828125 
Q 26.265625 48.1875 28.421875 48.1875 
Q 40.625 48.1875 47.75 41.5 
Q 54.890625 34.8125 54.890625 23.390625 
Q 54.890625 11.625 47.5625 5.09375 
Q 40.234375 -1.421875 26.90625 -1.421875 
Q 22.3125 -1.421875 17.546875 -0.640625 
Q 12.796875 0.140625 7.71875 1.703125 
L 7.71875 11.625 
Q 12.109375 9.234375 16.796875 8.0625 
Q 21.484375 6.890625 26.703125 6.890625 
Q 35.15625 6.890625 40.078125 11.328125 
Q 45.015625 15.765625 45.015625 23.390625 
Q 45.015625 31 40.078125 35.4375 
Q 35.15625 39.890625 26.703125 39.890625 
Q 22.75 39.890625 18.8125 39.015625 
Q 14.890625 38.140625 10.796875 36.28125 
z
" id="DejaVuSans-53"/>
      </defs>
      <g transform="translate(7.2 261.244096)scale(0.4 -0.4)">
       <use xlink:href="#DejaVuSans-53"/>
       <use x="63.623047" xlink:href="#DejaVuSans-48"/>
       <use x="127.246094" xlink:href="#DejaVuSans-48"/>
      </g>
     </g>
    </g>
    <g id="ytick_7">
     <g id="line2d_23">
      <path clip-path="url(#p75b0e95575)" d="M 90.55 135.034501 
L 927.55 135.034501 
" style="fill:none;stroke:#000000;stroke-linecap:square;stroke-width:2;"/>
     </g>
     <g id="line2d_24">
      <g>
       <use style="stroke:#000000;stroke-width:0.8;" x="90.55" xlink:href="#m7a1905d940" y="135.034501"/>
      </g>
     </g>
     <g id="text_12">
      <!-- 600 -->
      <g transform="translate(7.2 150.231376)scale(0.4 -0.4)">
       <use xlink:href="#DejaVuSans-54"/>
       <use x="63.623047" xlink:href="#DejaVuSans-48"/>
       <use x="127.246094" xlink:href="#DejaVuSans-48"/>
      </g>
     </g>
    </g>
    <g id="ytick_8">
     <g id="line2d_25">
      <path clip-path="url(#p75b0e95575)" d="M 90.55 24.021782 
L 927.55 24.021782 
" style="fill:none;stroke:#000000;stroke-linecap:square;stroke-width:2;"/>
     </g>
     <g id="line2d_26">
      <g>
       <use style="stroke:#000000;stroke-width:0.8;" x="90.55" xlink:href="#m7a1905d940" y="24.021782"/>
      </g>
     </g>
     <g id="text_13">
      <!-- 700 -->
      <defs>
       <path d="M 8.203125 72.90625 
L 55.078125 72.90625 
L 55.078125 68.703125 
L 28.609375 0 
L 18.3125 0 
L 43.21875 64.59375 
L 8.203125 64.59375 
z
" id="DejaVuSans-55"/>
      </defs>
      <g transform="translate(7.2 39.218657)scale(0.4 -0.4)">
       <use xlink:href="#DejaVuSans-55"/>
       <use x="63.623047" xlink:href="#DejaVuSans-48"/>
       <use x="127.246094" xlink:href="#DejaVuSans-48"/>
      </g>
     </g>
    </g>
   </g>
   <g id="line2d_27">
    <path clip-path="url(#p75b0e95575)" d="M 128.595455 801 
L 130.003546 799.152348 
L 131.688528 797.794613 
L 141.568486 791.950454 
L 144.699185 790.227392 
L 147.838541 788.366097 
L 151.90845 786.424313 
L 154.350395 785.162912 
L 159.612018 783.000992 
L 174.426487 775.929979 
L 180.775545 772.5216 
L 185.10334 770.084777 
L 193.357115 766.200996 
L 200.235262 762.693059 
L 205.737779 759.732637 
L 209.864666 757.470768 
L 215.199192 755.114865 
L 225.9291 750.27272 
L 233.082372 746.891986 
L 238.447326 744.207016 
L 247.388916 739.634551 
L 274.213686 724.765132 
L 281.366958 720.562454 
L 292.096866 714.127642 
L 302.826774 707.576593 
L 315.345 699.803362 
L 319.846287 697.514468 
L 331.470354 691.65453 
L 347.744048 683.220069 
L 361.692928 675.824168 
L 370.992182 670.652888 
L 387.265876 661.450987 
L 396.56513 656.08375 
L 405.864383 650.589587 
L 417.48845 643.539435 
L 431.437331 634.929405 
L 438.411771 630.493324 
L 450.035838 622.952809 
L 463.984718 613.602745 
L 475.608786 605.647036 
L 482.583226 600.815854 
L 501.181733 587.41113 
L 508.156173 582.297057 
L 524.429867 570.218298 
L 538.378748 559.611736 
L 552.327628 548.949766 
L 587.199829 521.636185 
L 603.473523 508.669941 
L 617.422403 497.441447 
L 638.345724 480.620345 
L 647.644978 472.978081 
L 675.542739 449.913829 
L 684.841992 442.176607 
L 698.790873 430.547891 
L 712.739753 418.726983 
L 733.623517 400.998872 
L 753.295015 379.137208 
L 765.813241 365.145227 
L 785.484739 343.039006 
L 808.732873 316.715067 
L 828.404371 294.29279 
L 839.134279 282.059383 
L 843.314417 275.98227 
L 848.816934 267.823574 
L 863.948855 245.441032 
L 865.16649 243.38326 
L 889.504545 196.620647 
L 889.504545 196.620647 
" style="fill:none;stroke:#1f77b4;stroke-linecap:square;stroke-width:3;"/>
   </g>
   <g id="line2d_28">
    <path clip-path="url(#p75b0e95575)" d="M 128.595455 800.984878 
L 130.003546 798.870925 
L 131.688528 797.457894 
L 135.643796 795.164267 
L 138.052026 793.790784 
L 140.316206 792.683826 
L 143.446906 791.203096 
L 146.577605 789.717964 
L 147.838541 789.074047 
L 151.90845 787.48143 
L 154.350395 786.48805 
L 160.670195 784.411252 
L 168.077429 781.927075 
L 173.368311 780.0404 
L 181.833721 777.031335 
L 183.950074 776.224441 
L 186.478969 775.456396 
L 194.732745 773.030136 
L 215.199192 766.940946 
L 227.717418 763.648437 
L 233.082372 762.179332 
L 247.388916 758.222863 
L 252.75387 756.699009 
L 265.272096 753.144956 
L 272.425368 751.073812 
L 283.155276 747.945833 
L 288.52023 746.333476 
L 311.768364 739.420622 
L 315.345 738.328423 
L 324.495914 736.156576 
L 350.068861 730.075252 
L 361.692928 727.235937 
L 382.616249 722.036809 
L 401.214756 717.313943 
L 426.787704 710.681087 
L 445.386211 705.796086 
L 452.360651 703.896339 
L 468.634345 699.518988 
L 475.608786 697.585962 
L 494.207293 692.537614 
L 503.506546 689.918646 
L 570.926135 670.690639 
L 591.849456 664.465276 
L 601.14871 661.652299 
L 624.396844 654.534437 
L 640.670538 649.476361 
L 663.918672 642.245815 
L 673.217925 639.319338 
L 696.466059 631.906521 
L 719.714193 624.38141 
L 733.623517 619.823061 
L 749.718379 612.896009 
L 765.813241 605.917382 
L 789.061375 595.704316 
L 796.214647 592.525681 
L 810.521191 586.110333 
L 835.557643 574.803851 
L 840.563158 572.328591 
L 852.943822 564.885038 
L 863.948855 558.260532 
L 866.224666 556.563966 
L 876.806429 548.169011 
L 889.504545 537.994107 
L 889.504545 537.994107 
" style="fill:none;stroke:#ff7f0e;stroke-linecap:square;stroke-width:3;"/>
   </g>
   <g id="line2d_29">
    <path clip-path="url(#p75b0e95575)" d="M 128.595455 800.970684 
L 129.463989 799.534367 
L 130.003546 798.866839 
L 131.688528 797.486053 
L 135.643796 795.231437 
L 138.052026 793.888425 
L 140.316206 792.804915 
L 143.446906 791.354468 
L 146.577605 789.897799 
L 147.838541 789.262497 
L 151.90845 787.707446 
L 154.350395 786.7386 
L 163.844724 783.756171 
L 167.019253 782.708068 
L 172.310134 780.958895 
L 175.484663 779.862427 
L 181.833721 777.675193 
L 185.10334 776.52382 
L 193.357115 774.227824 
L 198.859632 772.604141 
L 213.410874 768.500268 
L 224.140782 765.93874 
L 236.659008 762.902791 
L 243.81228 761.07553 
L 254.542188 758.361074 
L 265.272096 755.5786 
L 270.63705 754.136406 
L 283.155276 750.805241 
L 288.52023 749.3191 
L 308.191728 743.930057 
L 317.521474 741.420735 
L 347.744048 734.761851 
L 366.342555 730.466753 
L 387.265876 725.571901 
L 394.240316 723.880777 
L 410.51401 719.942411 
L 417.48845 718.201349 
L 433.762144 714.156883 
L 438.411771 712.930721 
L 452.360651 709.369983 
L 468.634345 705.180397 
L 477.933599 702.72354 
L 494.207293 698.45509 
L 503.506546 695.925841 
L 561.626882 679.877031 
L 580.225389 674.626734 
L 587.199829 672.596132 
L 626.721657 661.044463 
L 642.995351 656.177036 
L 675.542739 646.338664 
L 682.517179 644.190277 
L 703.4405 637.769477 
L 731.338261 629.096923 
L 733.623517 628.373674 
L 747.930061 622.467787 
L 769.389877 613.559004 
L 798.002965 601.462613 
L 805.156237 598.38387 
L 821.251099 591.431092 
L 839.134279 583.62843 
L 843.314417 581.283181 
L 847.441305 578.883406 
L 857.070709 573.310278 
L 862.573226 570.108737 
L 863.948855 569.317146 
L 867.282842 566.904679 
L 888.446369 550.688754 
L 889.504545 549.87069 
L 889.504545 549.87069 
" style="fill:none;stroke:#2ca02c;stroke-linecap:square;stroke-width:3;"/>
   </g>
   <g id="line2d_30">
    <path clip-path="url(#p75b0e95575)" d="M 128.595455 799.512694 
L 129.102296 791.966683 
L 129.690451 785.884113 
L 130.351254 781.399357 
L 131.569097 775.374521 
L 133.161902 769.292082 
L 135.170083 763.933678 
L 137.178263 757.864446 
L 139.28639 751.927521 
L 147.770954 732.365549 
L 154.580079 720.360409 
L 170.021984 698.941257 
L 174.433957 692.871631 
L 179.948923 685.280903 
L 182.154909 682.357868 
L 183.257902 680.471759 
L 184.360896 678.964639 
L 208.637929 652.81216 
L 210.103537 650.886401 
L 211.967596 649.396881 
L 213.831654 647.26173 
L 219.42383 642.724689 
L 221.287889 641.017403 
L 238.064415 627.051966 
L 241.792532 623.668793 
L 243.656591 621.719198 
L 245.520649 619.983736 
L 247.384708 617.975762 
L 256.705001 608.984653 
L 260.433118 605.308416 
L 262.297176 602.946908 
L 269.75341 596.11648 
L 271.617469 594.126469 
L 282.80182 583.409669 
L 288.393996 577.655993 
L 292.122113 573.564261 
L 297.714288 567.59028 
L 299.578347 565.226252 
L 301.442405 563.195232 
L 305.170523 559.404838 
L 307.034581 557.375921 
L 308.89864 555.045093 
L 316.509496 547.2215 
L 321.356048 543.110465 
L 333.472429 533.195083 
L 335.895705 531.979008 
L 338.318981 529.994564 
L 340.742257 527.739863 
L 343.165533 525.783549 
L 348.012085 523.273859 
L 350.435361 520.989126 
L 355.281914 517.018248 
L 357.70519 515.807028 
L 367.398294 507.733679 
L 369.82157 506.425379 
L 372.244846 504.439468 
L 377.091398 501.171298 
L 379.514675 499.403241 
L 381.937951 497.802362 
L 384.361227 495.917472 
L 386.784503 492.7784 
L 389.207779 488.886296 
L 391.631055 487.006894 
L 394.054331 485.404751 
L 406.170712 478.714118 
L 411.017264 475.999377 
L 413.44054 474.632395 
L 415.863816 473.393789 
L 418.287092 471.753474 
L 420.710368 470.411906 
L 425.55692 467.522645 
L 427.980196 466.145532 
L 440.096577 458.203606 
L 459.482786 443.938489 
L 466.752614 438.347485 
L 469.17589 437.036333 
L 471.599166 435.374824 
L 474.022442 433.556163 
L 476.445718 431.890399 
L 483.715547 426.272131 
L 495.831927 417.177438 
L 500.678479 413.561721 
L 510.371584 406.038059 
L 512.79486 404.369125 
L 515.218136 403.070345 
L 520.064688 399.226735 
L 522.487964 397.934208 
L 524.91124 396.30399 
L 527.334516 394.524406 
L 532.181069 390.405014 
L 534.604345 388.489964 
L 541.874173 383.381798 
L 546.720725 379.61094 
L 549.144001 377.81475 
L 551.567277 376.581823 
L 556.413829 372.787715 
L 570.953486 361.682658 
L 573.376762 359.949617 
L 578.223314 356.263112 
L 580.64659 354.46272 
L 585.493143 350.392833 
L 587.916419 348.546987 
L 590.339695 346.493601 
L 595.186247 343.150683 
L 597.609523 340.750664 
L 600.032799 338.976345 
L 612.14918 331.005697 
L 614.572456 329.185631 
L 619.419008 325.905475 
L 624.26556 321.461789 
L 631.535388 315.476732 
L 633.958665 313.2941 
L 636.381941 311.43315 
L 638.805217 309.135148 
L 650.921597 299.628586 
L 655.768149 295.942694 
L 660.614702 292.907979 
L 667.88453 288.325262 
L 675.154358 282.451446 
L 682.424186 276.745082 
L 684.847462 275.259939 
L 692.117291 269.169717 
L 694.540567 267.394564 
L 696.963843 265.077931 
L 701.810395 261.352801 
L 704.233671 258.066498 
L 706.656947 256.256093 
L 709.080223 253.287212 
L 711.5035 251.113277 
L 713.926776 249.245003 
L 716.350052 247.732415 
L 718.773328 245.936931 
L 721.196604 243.932453 
L 723.61988 240.177614 
L 726.043156 238.160312 
L 728.466432 235.206192 
L 730.889708 232.740041 
L 733.312984 230.682083 
L 738.946393 224.628846 
L 742.67451 221.190437 
L 748.266685 215.196273 
L 750.130744 213.507327 
L 757.586978 205.614661 
L 765.043212 197.748119 
L 768.771329 193.860672 
L 770.635388 192.036589 
L 776.227563 186.059882 
L 778.091622 184.246994 
L 779.95568 181.890419 
L 781.819739 180.258895 
L 785.547856 176.306107 
L 787.411915 174.193535 
L 789.275973 172.549406 
L 791.140032 170.496787 
L 794.868149 167.278177 
L 796.732207 165.262331 
L 800.460324 161.771982 
L 802.324383 160.022197 
L 804.188441 157.791307 
L 807.916558 154.107089 
L 809.780617 151.733977 
L 817.236851 144.044355 
L 820.964968 140.549002 
L 828.421202 133.525564 
L 832.149319 130.363065 
L 834.013378 127.99993 
L 835.877436 126.338644 
L 839.550048 122.149222 
L 842.41783 118.092078 
L 843.851722 115.368701 
L 846.719504 111.630874 
L 848.153395 109.022596 
L 851.021177 105.448531 
L 852.455069 103.468902 
L 858.190633 96.483839 
L 861.058416 92.665209 
L 862.492307 90.81955 
L 865.193878 87.675959 
L 867.399864 83.986487 
L 868.502857 82.269472 
L 872.91483 74.430171 
L 875.120817 70.452527 
L 876.22381 68.562288 
L 879.53279 62.213237 
L 881.738776 58.201652 
L 885.047756 52.349433 
L 887.253742 48.809197 
L 889.459729 45 
L 889.459729 45 
" style="fill:none;stroke:#d62728;stroke-linecap:square;stroke-width:3;"/>
   </g>
   <g id="patch_3">
    <path d="M 90.55 838.8 
L 90.55 7.2 
" style="fill:none;stroke:#000000;stroke-linecap:square;stroke-linejoin:miter;stroke-width:3;"/>
   </g>
   <g id="patch_4">
    <path d="M 927.55 838.8 
L 927.55 7.2 
" style="fill:none;stroke:#000000;stroke-linecap:square;stroke-linejoin:miter;stroke-width:3;"/>
   </g>
   <g id="patch_5">
    <path d="M 90.55 838.8 
L 927.55 838.8 
" style="fill:none;stroke:#000000;stroke-linecap:square;stroke-linejoin:miter;stroke-width:3;"/>
   </g>
   <g id="patch_6">
    <path d="M 90.55 7.2 
L 927.55 7.2 
" style="fill:none;stroke:#000000;stroke-linecap:square;stroke-linejoin:miter;stroke-width:3;"/>
   </g>
   <g id="legend_1">
    <g id="patch_7">
     <path d="M 118.55 274.05 
L 611.2125 274.05 
Q 619.2125 274.05 619.2125 266.05 
L 619.2125 35.2 
Q 619.2125 27.2 611.2125 27.2 
L 118.55 27.2 
Q 110.55 27.2 110.55 35.2 
L 110.55 266.05 
Q 110.55 274.05 118.55 274.05 
z
" style="fill:#ffffff;opacity:0.8;stroke:#cccccc;stroke-linejoin:miter;"/>
    </g>
    <g id="line2d_31">
     <path d="M 126.55 59.59375 
L 206.55 59.59375 
" style="fill:none;stroke:#1f77b4;stroke-linecap:square;stroke-width:3;"/>
    </g>
    <g id="line2d_32"/>
    <g id="text_14">
     <!-- ADM &amp; A-AMS -->
     <defs>
      <path d="M 34.1875 63.1875 
L 20.796875 26.90625 
L 47.609375 26.90625 
z
M 28.609375 72.90625 
L 39.796875 72.90625 
L 67.578125 0 
L 57.328125 0 
L 50.6875 18.703125 
L 17.828125 18.703125 
L 11.1875 0 
L 0.78125 0 
z
" id="DejaVuSans-65"/>
      <path d="M 19.671875 64.796875 
L 19.671875 8.109375 
L 31.59375 8.109375 
Q 46.6875 8.109375 53.6875 14.9375 
Q 60.6875 21.78125 60.6875 36.53125 
Q 60.6875 51.171875 53.6875 57.984375 
Q 46.6875 64.796875 31.59375 64.796875 
z
M 9.8125 72.90625 
L 30.078125 72.90625 
Q 51.265625 72.90625 61.171875 64.09375 
Q 71.09375 55.28125 71.09375 36.53125 
Q 71.09375 17.671875 61.125 8.828125 
Q 51.171875 0 30.078125 0 
L 9.8125 0 
z
" id="DejaVuSans-68"/>
      <path d="M 9.8125 72.90625 
L 24.515625 72.90625 
L 43.109375 23.296875 
L 61.8125 72.90625 
L 76.515625 72.90625 
L 76.515625 0 
L 66.890625 0 
L 66.890625 64.015625 
L 48.09375 14.015625 
L 38.1875 14.015625 
L 19.390625 64.015625 
L 19.390625 0 
L 9.8125 0 
z
" id="DejaVuSans-77"/>
      <path id="DejaVuSans-32"/>
      <path d="M 24.3125 39.203125 
Q 19.875 35.25 17.796875 31.3125 
Q 15.71875 27.390625 15.71875 23.09375 
Q 15.71875 15.96875 20.890625 11.234375 
Q 26.078125 6.5 33.890625 6.5 
Q 38.53125 6.5 42.578125 8.03125 
Q 46.625 9.578125 50.203125 12.703125 
z
M 31.203125 44.671875 
L 56 19.28125 
Q 58.890625 23.640625 60.5 28.59375 
Q 62.109375 33.546875 62.40625 39.109375 
L 71.484375 39.109375 
Q 70.90625 32.671875 68.359375 26.359375 
Q 65.828125 20.0625 61.28125 13.921875 
L 74.90625 0 
L 62.59375 0 
L 55.609375 7.171875 
Q 50.53125 2.828125 44.96875 0.703125 
Q 39.40625 -1.421875 33.015625 -1.421875 
Q 21.234375 -1.421875 13.765625 5.296875 
Q 6.296875 12.015625 6.296875 22.515625 
Q 6.296875 28.765625 9.5625 34.25 
Q 12.84375 39.75 19.390625 44.578125 
Q 17.046875 47.65625 15.8125 50.703125 
Q 14.59375 53.765625 14.59375 56.6875 
Q 14.59375 64.59375 20.015625 69.40625 
Q 25.4375 74.21875 34.421875 74.21875 
Q 38.484375 74.21875 42.5 73.34375 
Q 46.53125 72.46875 50.6875 70.703125 
L 50.6875 61.8125 
Q 46.4375 64.109375 42.578125 65.296875 
Q 38.71875 66.5 35.40625 66.5 
Q 30.28125 66.5 27.078125 63.78125 
Q 23.875 61.078125 23.875 56.78125 
Q 23.875 54.296875 25.3125 51.78125 
Q 26.765625 49.265625 31.203125 44.671875 
z
" id="DejaVuSans-38"/>
      <path d="M 4.890625 31.390625 
L 31.203125 31.390625 
L 31.203125 23.390625 
L 4.890625 23.390625 
z
" id="DejaVuSans-45"/>
      <path d="M 53.515625 70.515625 
L 53.515625 60.890625 
Q 47.90625 63.578125 42.921875 64.890625 
Q 37.9375 66.21875 33.296875 66.21875 
Q 25.25 66.21875 20.875 63.09375 
Q 16.5 59.96875 16.5 54.203125 
Q 16.5 49.359375 19.40625 46.890625 
Q 22.3125 44.4375 30.421875 42.921875 
L 36.375 41.703125 
Q 47.40625 39.59375 52.65625 34.296875 
Q 57.90625 29 57.90625 20.125 
Q 57.90625 9.515625 50.796875 4.046875 
Q 43.703125 -1.421875 29.984375 -1.421875 
Q 24.8125 -1.421875 18.96875 -0.25 
Q 13.140625 0.921875 6.890625 3.21875 
L 6.890625 13.375 
Q 12.890625 10.015625 18.65625 8.296875 
Q 24.421875 6.59375 29.984375 6.59375 
Q 38.421875 6.59375 43.015625 9.90625 
Q 47.609375 13.234375 47.609375 19.390625 
Q 47.609375 24.75 44.3125 27.78125 
Q 41.015625 30.8125 33.5 32.328125 
L 27.484375 33.5 
Q 16.453125 35.6875 11.515625 40.375 
Q 6.59375 45.0625 6.59375 53.421875 
Q 6.59375 63.09375 13.40625 68.65625 
Q 20.21875 74.21875 32.171875 74.21875 
Q 37.3125 74.21875 42.625 73.28125 
Q 47.953125 72.359375 53.515625 70.515625 
z
" id="DejaVuSans-83"/>
     </defs>
     <g transform="translate(238.55 73.59375)scale(0.4 -0.4)">
      <use xlink:href="#DejaVuSans-65"/>
      <use x="68.408203" xlink:href="#DejaVuSans-68"/>
      <use x="145.410156" xlink:href="#DejaVuSans-77"/>
      <use x="231.689453" xlink:href="#DejaVuSans-32"/>
      <use x="263.476562" xlink:href="#DejaVuSans-38"/>
      <use x="341.455078" xlink:href="#DejaVuSans-32"/>
      <use x="373.242188" xlink:href="#DejaVuSans-65"/>
      <use x="441.619141" xlink:href="#DejaVuSans-45"/>
      <use x="477.671875" xlink:href="#DejaVuSans-65"/>
      <use x="546.080078" xlink:href="#DejaVuSans-77"/>
      <use x="632.359375" xlink:href="#DejaVuSans-83"/>
     </g>
    </g>
    <g id="line2d_33">
     <path d="M 126.55 118.30625 
L 206.55 118.30625 
" style="fill:none;stroke:#ff7f0e;stroke-linecap:square;stroke-width:3;"/>
    </g>
    <g id="line2d_34"/>
    <g id="text_15">
     <!-- NU-ADM  &amp; A-AMS -->
     <defs>
      <path d="M 9.8125 72.90625 
L 23.09375 72.90625 
L 55.421875 11.921875 
L 55.421875 72.90625 
L 64.984375 72.90625 
L 64.984375 0 
L 51.703125 0 
L 19.390625 60.984375 
L 19.390625 0 
L 9.8125 0 
z
" id="DejaVuSans-78"/>
      <path d="M 8.6875 72.90625 
L 18.609375 72.90625 
L 18.609375 28.609375 
Q 18.609375 16.890625 22.84375 11.734375 
Q 27.09375 6.59375 36.625 6.59375 
Q 46.09375 6.59375 50.34375 11.734375 
Q 54.59375 16.890625 54.59375 28.609375 
L 54.59375 72.90625 
L 64.5 72.90625 
L 64.5 27.390625 
Q 64.5 13.140625 57.4375 5.859375 
Q 50.390625 -1.421875 36.625 -1.421875 
Q 22.796875 -1.421875 15.734375 5.859375 
Q 8.6875 13.140625 8.6875 27.390625 
z
" id="DejaVuSans-85"/>
     </defs>
     <g transform="translate(238.55 132.30625)scale(0.4 -0.4)">
      <use xlink:href="#DejaVuSans-78"/>
      <use x="74.804688" xlink:href="#DejaVuSans-85"/>
      <use x="147.998047" xlink:href="#DejaVuSans-45"/>
      <use x="184.050781" xlink:href="#DejaVuSans-65"/>
      <use x="252.458984" xlink:href="#DejaVuSans-68"/>
      <use x="329.460938" xlink:href="#DejaVuSans-77"/>
      <use x="415.740234" xlink:href="#DejaVuSans-32"/>
      <use x="447.527344" xlink:href="#DejaVuSans-32"/>
      <use x="479.314453" xlink:href="#DejaVuSans-38"/>
      <use x="557.292969" xlink:href="#DejaVuSans-32"/>
      <use x="589.080078" xlink:href="#DejaVuSans-65"/>
      <use x="657.457031" xlink:href="#DejaVuSans-45"/>
      <use x="693.509766" xlink:href="#DejaVuSans-65"/>
      <use x="761.917969" xlink:href="#DejaVuSans-77"/>
      <use x="848.197266" xlink:href="#DejaVuSans-83"/>
     </g>
    </g>
    <g id="line2d_35">
     <path d="M 126.55 177.01875 
L 206.55 177.01875 
" style="fill:none;stroke:#2ca02c;stroke-linecap:square;stroke-width:3;"/>
    </g>
    <g id="line2d_36"/>
    <g id="text_16">
     <!-- A-AMS -->
     <g transform="translate(238.55 191.01875)scale(0.4 -0.4)">
      <use xlink:href="#DejaVuSans-65"/>
      <use x="68.376953" xlink:href="#DejaVuSans-45"/>
      <use x="104.429688" xlink:href="#DejaVuSans-65"/>
      <use x="172.837891" xlink:href="#DejaVuSans-77"/>
      <use x="259.117188" xlink:href="#DejaVuSans-83"/>
     </g>
    </g>
    <g id="line2d_37">
     <path d="M 126.55 235.73125 
L 206.55 235.73125 
" style="fill:none;stroke:#d62728;stroke-linecap:square;stroke-width:3;"/>
    </g>
    <g id="line2d_38"/>
    <g id="text_17">
     <!-- reference -->
     <defs>
      <path d="M 41.109375 46.296875 
Q 39.59375 47.171875 37.8125 47.578125 
Q 36.03125 48 33.890625 48 
Q 26.265625 48 22.1875 43.046875 
Q 18.109375 38.09375 18.109375 28.8125 
L 18.109375 0 
L 9.078125 0 
L 9.078125 54.6875 
L 18.109375 54.6875 
L 18.109375 46.1875 
Q 20.953125 51.171875 25.484375 53.578125 
Q 30.03125 56 36.53125 56 
Q 37.453125 56 38.578125 55.875 
Q 39.703125 55.765625 41.0625 55.515625 
z
" id="DejaVuSans-114"/>
      <path d="M 56.203125 29.59375 
L 56.203125 25.203125 
L 14.890625 25.203125 
Q 15.484375 15.921875 20.484375 11.0625 
Q 25.484375 6.203125 34.421875 6.203125 
Q 39.59375 6.203125 44.453125 7.46875 
Q 49.3125 8.734375 54.109375 11.28125 
L 54.109375 2.78125 
Q 49.265625 0.734375 44.1875 -0.34375 
Q 39.109375 -1.421875 33.890625 -1.421875 
Q 20.796875 -1.421875 13.15625 6.1875 
Q 5.515625 13.8125 5.515625 26.8125 
Q 5.515625 40.234375 12.765625 48.109375 
Q 20.015625 56 32.328125 56 
Q 43.359375 56 49.78125 48.890625 
Q 56.203125 41.796875 56.203125 29.59375 
z
M 47.21875 32.234375 
Q 47.125 39.59375 43.09375 43.984375 
Q 39.0625 48.390625 32.421875 48.390625 
Q 24.90625 48.390625 20.390625 44.140625 
Q 15.875 39.890625 15.1875 32.171875 
z
" id="DejaVuSans-101"/>
      <path d="M 37.109375 75.984375 
L 37.109375 68.5 
L 28.515625 68.5 
Q 23.6875 68.5 21.796875 66.546875 
Q 19.921875 64.59375 19.921875 59.515625 
L 19.921875 54.6875 
L 34.71875 54.6875 
L 34.71875 47.703125 
L 19.921875 47.703125 
L 19.921875 0 
L 10.890625 0 
L 10.890625 47.703125 
L 2.296875 47.703125 
L 2.296875 54.6875 
L 10.890625 54.6875 
L 10.890625 58.5 
Q 10.890625 67.625 15.140625 71.796875 
Q 19.390625 75.984375 28.609375 75.984375 
z
" id="DejaVuSans-102"/>
      <path d="M 54.890625 33.015625 
L 54.890625 0 
L 45.90625 0 
L 45.90625 32.71875 
Q 45.90625 40.484375 42.875 44.328125 
Q 39.84375 48.1875 33.796875 48.1875 
Q 26.515625 48.1875 22.3125 43.546875 
Q 18.109375 38.921875 18.109375 30.90625 
L 18.109375 0 
L 9.078125 0 
L 9.078125 54.6875 
L 18.109375 54.6875 
L 18.109375 46.1875 
Q 21.34375 51.125 25.703125 53.5625 
Q 30.078125 56 35.796875 56 
Q 45.21875 56 50.046875 50.171875 
Q 54.890625 44.34375 54.890625 33.015625 
z
" id="DejaVuSans-110"/>
      <path d="M 48.78125 52.59375 
L 48.78125 44.1875 
Q 44.96875 46.296875 41.140625 47.34375 
Q 37.3125 48.390625 33.40625 48.390625 
Q 24.65625 48.390625 19.8125 42.84375 
Q 14.984375 37.3125 14.984375 27.296875 
Q 14.984375 17.28125 19.8125 11.734375 
Q 24.65625 6.203125 33.40625 6.203125 
Q 37.3125 6.203125 41.140625 7.25 
Q 44.96875 8.296875 48.78125 10.40625 
L 48.78125 2.09375 
Q 45.015625 0.34375 40.984375 -0.53125 
Q 36.96875 -1.421875 32.421875 -1.421875 
Q 20.0625 -1.421875 12.78125 6.34375 
Q 5.515625 14.109375 5.515625 27.296875 
Q 5.515625 40.671875 12.859375 48.328125 
Q 20.21875 56 33.015625 56 
Q 37.15625 56 41.109375 55.140625 
Q 45.0625 54.296875 48.78125 52.59375 
z
" id="DejaVuSans-99"/>
     </defs>
     <g transform="translate(238.55 249.73125)scale(0.4 -0.4)">
      <use xlink:href="#DejaVuSans-114"/>
      <use x="41.082031" xlink:href="#DejaVuSans-101"/>
      <use x="102.605469" xlink:href="#DejaVuSans-102"/>
      <use x="137.810547" xlink:href="#DejaVuSans-101"/>
      <use x="199.333984" xlink:href="#DejaVuSans-114"/>
      <use x="240.416016" xlink:href="#DejaVuSans-101"/>
      <use x="301.939453" xlink:href="#DejaVuSans-110"/>
      <use x="365.318359" xlink:href="#DejaVuSans-99"/>
      <use x="420.298828" xlink:href="#DejaVuSans-101"/>
     </g>
    </g>
   </g>
  </g>
 </g>
 <defs>
  <clipPath id="p75b0e95575">
   <rect height="831.6" width="837" x="90.55" y="7.2"/>
  </clipPath>
 </defs>
</svg>
