<?xml version="1.0" encoding="utf-8" standalone="no"?>
<!DOCTYPE svg PUBLIC "-//W3C//DTD SVG 1.1//EN"
  "http://www.w3.org/Graphics/SVG/1.1/DTD/svg11.dtd">
<!-- Created with matplotlib (https://matplotlib.org/) -->
<svg height="1192.512pt" version="1.1" viewBox="0 0 1723.68 1192.512" width="1723.68pt" xmlns="http://www.w3.org/2000/svg" xmlns:xlink="http://www.w3.org/1999/xlink">
 <defs>
  <style type="text/css">
*{stroke-linecap:butt;stroke-linejoin:round;}
  </style>
 </defs>
 <g id="figure_1">
  <g id="patch_1">
   <path d="M -0 1192.512 
L 1723.68 1192.512 
L 1723.68 0 
L -0 0 
z
" style="fill:none;"/>
  </g>
  <g id="axes_1">
   <g id="patch_2">
    <path d="M 823.68 273.312 
L 1180.8 273.312 
L 1180.8 7.2 
L 823.68 7.2 
z
" style="fill:none;"/>
   </g>
   <g id="table_1">
    <g id="patch_3">
     <path d="M 288 321.312 
L 573.696 321.312 
L 573.696 273.312 
L 288 273.312 
z
" style="fill:#ffffff;stroke:#000000;stroke-linejoin:miter;"/>
    </g>
    <g id="text_1">
     <!-- $n^f=3300=30x110$ -->
     <defs>
      <path d="M 55.71875 33.015625 
L 49.3125 0 
L 40.28125 0 
L 46.6875 32.671875 
Q 47.125 34.96875 47.359375 36.71875 
Q 47.609375 38.484375 47.609375 39.5 
Q 47.609375 43.609375 45.015625 45.890625 
Q 42.4375 48.1875 37.796875 48.1875 
Q 30.5625 48.1875 25.34375 43.375 
Q 20.125 38.578125 18.5 30.328125 
L 12.5 0 
L 3.515625 0 
L 14.109375 54.6875 
L 23.09375 54.6875 
L 21.296875 46.09375 
Q 25.046875 50.828125 30.3125 53.40625 
Q 35.59375 56 41.40625 56 
Q 48.640625 56 52.609375 52.09375 
Q 56.59375 48.1875 56.59375 41.109375 
Q 56.59375 39.359375 56.375 37.359375 
Q 56.15625 35.359375 55.71875 33.015625 
z
" id="DejaVuSans-Oblique-110"/>
      <path d="M 47.796875 75.984375 
L 46.390625 68.5 
L 37.796875 68.5 
Q 32.90625 68.5 30.6875 66.578125 
Q 28.46875 64.65625 27.390625 59.515625 
L 26.421875 54.6875 
L 41.21875 54.6875 
L 39.890625 47.703125 
L 25.09375 47.703125 
L 15.828125 0 
L 6.78125 0 
L 16.109375 47.703125 
L 7.515625 47.703125 
L 8.796875 54.6875 
L 17.390625 54.6875 
L 18.109375 58.5 
Q 19.96875 68.171875 24.625 72.078125 
Q 29.296875 75.984375 39.3125 75.984375 
z
" id="DejaVuSans-Oblique-102"/>
      <path d="M 10.59375 45.40625 
L 73.1875 45.40625 
L 73.1875 37.203125 
L 10.59375 37.203125 
z
M 10.59375 25.484375 
L 73.1875 25.484375 
L 73.1875 17.1875 
L 10.59375 17.1875 
z
" id="DejaVuSans-61"/>
      <path d="M 40.578125 39.3125 
Q 47.65625 37.796875 51.625 33 
Q 55.609375 28.21875 55.609375 21.1875 
Q 55.609375 10.40625 48.1875 4.484375 
Q 40.765625 -1.421875 27.09375 -1.421875 
Q 22.515625 -1.421875 17.65625 -0.515625 
Q 12.796875 0.390625 7.625 2.203125 
L 7.625 11.71875 
Q 11.71875 9.328125 16.59375 8.109375 
Q 21.484375 6.890625 26.8125 6.890625 
Q 36.078125 6.890625 40.9375 10.546875 
Q 45.796875 14.203125 45.796875 21.1875 
Q 45.796875 27.640625 41.28125 31.265625 
Q 36.765625 34.90625 28.71875 34.90625 
L 20.21875 34.90625 
L 20.21875 43.015625 
L 29.109375 43.015625 
Q 36.375 43.015625 40.234375 45.921875 
Q 44.09375 48.828125 44.09375 54.296875 
Q 44.09375 59.90625 40.109375 62.90625 
Q 36.140625 65.921875 28.71875 65.921875 
Q 24.65625 65.921875 20.015625 65.03125 
Q 15.375 64.15625 9.8125 62.3125 
L 9.8125 71.09375 
Q 15.4375 72.65625 20.34375 73.4375 
Q 25.25 74.21875 29.59375 74.21875 
Q 40.828125 74.21875 47.359375 69.109375 
Q 53.90625 64.015625 53.90625 55.328125 
Q 53.90625 49.265625 50.4375 45.09375 
Q 46.96875 40.921875 40.578125 39.3125 
z
" id="DejaVuSans-51"/>
      <path d="M 31.78125 66.40625 
Q 24.171875 66.40625 20.328125 58.90625 
Q 16.5 51.421875 16.5 36.375 
Q 16.5 21.390625 20.328125 13.890625 
Q 24.171875 6.390625 31.78125 6.390625 
Q 39.453125 6.390625 43.28125 13.890625 
Q 47.125 21.390625 47.125 36.375 
Q 47.125 51.421875 43.28125 58.90625 
Q 39.453125 66.40625 31.78125 66.40625 
z
M 31.78125 74.21875 
Q 44.046875 74.21875 50.515625 64.515625 
Q 56.984375 54.828125 56.984375 36.375 
Q 56.984375 17.96875 50.515625 8.265625 
Q 44.046875 -1.421875 31.78125 -1.421875 
Q 19.53125 -1.421875 13.0625 8.265625 
Q 6.59375 17.96875 6.59375 36.375 
Q 6.59375 54.828125 13.0625 64.515625 
Q 19.53125 74.21875 31.78125 74.21875 
z
" id="DejaVuSans-48"/>
      <path d="M 60.015625 54.6875 
L 34.90625 27.875 
L 50.296875 0 
L 39.984375 0 
L 28.421875 21.6875 
L 8.296875 0 
L -2.59375 0 
L 24.3125 28.8125 
L 10.015625 54.6875 
L 20.3125 54.6875 
L 30.8125 34.90625 
L 49.125 54.6875 
z
" id="DejaVuSans-Oblique-120"/>
      <path d="M 12.40625 8.296875 
L 28.515625 8.296875 
L 28.515625 63.921875 
L 10.984375 60.40625 
L 10.984375 69.390625 
L 28.421875 72.90625 
L 38.28125 72.90625 
L 38.28125 8.296875 
L 54.390625 8.296875 
L 54.390625 0 
L 12.40625 0 
z
" id="DejaVuSans-49"/>
     </defs>
     <g transform="translate(314.088 303.9345)scale(0.24 -0.24)">
      <use transform="translate(0 0.529687)" xlink:href="#DejaVuSans-Oblique-110"/>
      <use transform="translate(68.028802 38.810937)scale(0.7)" xlink:href="#DejaVuSans-Oblique-102"/>
      <use transform="translate(114.889154 0.529687)" xlink:href="#DejaVuSans-61"/>
      <use transform="translate(218.160638 0.529687)" xlink:href="#DejaVuSans-51"/>
      <use transform="translate(281.783685 0.529687)" xlink:href="#DejaVuSans-51"/>
      <use transform="translate(345.406732 0.529687)" xlink:href="#DejaVuSans-48"/>
      <use transform="translate(409.029779 0.529687)" xlink:href="#DejaVuSans-48"/>
      <use transform="translate(492.135247 0.529687)" xlink:href="#DejaVuSans-61"/>
      <use transform="translate(595.406732 0.529687)" xlink:href="#DejaVuSans-51"/>
      <use transform="translate(659.029779 0.529687)" xlink:href="#DejaVuSans-48"/>
      <use transform="translate(722.652826 0.529687)" xlink:href="#DejaVuSans-Oblique-120"/>
      <use transform="translate(781.832513 0.529687)" xlink:href="#DejaVuSans-49"/>
      <use transform="translate(845.45556 0.529687)" xlink:href="#DejaVuSans-49"/>
      <use transform="translate(909.078607 0.529687)" xlink:href="#DejaVuSans-48"/>
     </g>
    </g>
    <g id="patch_4">
     <path d="M 573.696 321.312 
L 859.392 321.312 
L 859.392 273.312 
L 573.696 273.312 
z
" style="fill:#ffffff;stroke:#000000;stroke-linejoin:miter;"/>
    </g>
    <g id="text_2">
     <!-- $n^f=6600=60x110$ -->
     <defs>
      <path d="M 33.015625 40.375 
Q 26.375 40.375 22.484375 35.828125 
Q 18.609375 31.296875 18.609375 23.390625 
Q 18.609375 15.53125 22.484375 10.953125 
Q 26.375 6.390625 33.015625 6.390625 
Q 39.65625 6.390625 43.53125 10.953125 
Q 47.40625 15.53125 47.40625 23.390625 
Q 47.40625 31.296875 43.53125 35.828125 
Q 39.65625 40.375 33.015625 40.375 
z
M 52.59375 71.296875 
L 52.59375 62.3125 
Q 48.875 64.0625 45.09375 64.984375 
Q 41.3125 65.921875 37.59375 65.921875 
Q 27.828125 65.921875 22.671875 59.328125 
Q 17.53125 52.734375 16.796875 39.40625 
Q 19.671875 43.65625 24.015625 45.921875 
Q 28.375 48.1875 33.59375 48.1875 
Q 44.578125 48.1875 50.953125 41.515625 
Q 57.328125 34.859375 57.328125 23.390625 
Q 57.328125 12.15625 50.6875 5.359375 
Q 44.046875 -1.421875 33.015625 -1.421875 
Q 20.359375 -1.421875 13.671875 8.265625 
Q 6.984375 17.96875 6.984375 36.375 
Q 6.984375 53.65625 15.1875 63.9375 
Q 23.390625 74.21875 37.203125 74.21875 
Q 40.921875 74.21875 44.703125 73.484375 
Q 48.484375 72.75 52.59375 71.296875 
z
" id="DejaVuSans-54"/>
     </defs>
     <g transform="translate(599.784 303.9345)scale(0.24 -0.24)">
      <use transform="translate(0 0.529687)" xlink:href="#DejaVuSans-Oblique-110"/>
      <use transform="translate(68.028802 38.810937)scale(0.7)" xlink:href="#DejaVuSans-Oblique-102"/>
      <use transform="translate(114.889154 0.529687)" xlink:href="#DejaVuSans-61"/>
      <use transform="translate(218.160638 0.529687)" xlink:href="#DejaVuSans-54"/>
      <use transform="translate(281.783685 0.529687)" xlink:href="#DejaVuSans-54"/>
      <use transform="translate(345.406732 0.529687)" xlink:href="#DejaVuSans-48"/>
      <use transform="translate(409.029779 0.529687)" xlink:href="#DejaVuSans-48"/>
      <use transform="translate(492.135247 0.529687)" xlink:href="#DejaVuSans-61"/>
      <use transform="translate(595.406732 0.529687)" xlink:href="#DejaVuSans-54"/>
      <use transform="translate(659.029779 0.529687)" xlink:href="#DejaVuSans-48"/>
      <use transform="translate(722.652826 0.529687)" xlink:href="#DejaVuSans-Oblique-120"/>
      <use transform="translate(781.832513 0.529687)" xlink:href="#DejaVuSans-49"/>
      <use transform="translate(845.45556 0.529687)" xlink:href="#DejaVuSans-49"/>
      <use transform="translate(909.078607 0.529687)" xlink:href="#DejaVuSans-48"/>
     </g>
    </g>
    <g id="patch_5">
     <path d="M 859.392 321.312 
L 1145.088 321.312 
L 1145.088 273.312 
L 859.392 273.312 
z
" style="fill:#ffffff;stroke:#000000;stroke-linejoin:miter;"/>
    </g>
    <g id="text_3">
     <!-- $n^f=13200=60x220$ -->
     <defs>
      <path d="M 19.1875 8.296875 
L 53.609375 8.296875 
L 53.609375 0 
L 7.328125 0 
L 7.328125 8.296875 
Q 12.9375 14.109375 22.625 23.890625 
Q 32.328125 33.6875 34.8125 36.53125 
Q 39.546875 41.84375 41.421875 45.53125 
Q 43.3125 49.21875 43.3125 52.78125 
Q 43.3125 58.59375 39.234375 62.25 
Q 35.15625 65.921875 28.609375 65.921875 
Q 23.96875 65.921875 18.8125 64.3125 
Q 13.671875 62.703125 7.8125 59.421875 
L 7.8125 69.390625 
Q 13.765625 71.78125 18.9375 73 
Q 24.125 74.21875 28.421875 74.21875 
Q 39.75 74.21875 46.484375 68.546875 
Q 53.21875 62.890625 53.21875 53.421875 
Q 53.21875 48.921875 51.53125 44.890625 
Q 49.859375 40.875 45.40625 35.40625 
Q 44.1875 33.984375 37.640625 27.21875 
Q 31.109375 20.453125 19.1875 8.296875 
z
" id="DejaVuSans-50"/>
     </defs>
     <g transform="translate(877.8 303.9345)scale(0.24 -0.24)">
      <use transform="translate(0 0.529687)" xlink:href="#DejaVuSans-Oblique-110"/>
      <use transform="translate(68.028802 38.810937)scale(0.7)" xlink:href="#DejaVuSans-Oblique-102"/>
      <use transform="translate(114.889154 0.529687)" xlink:href="#DejaVuSans-61"/>
      <use transform="translate(218.160638 0.529687)" xlink:href="#DejaVuSans-49"/>
      <use transform="translate(281.783685 0.529687)" xlink:href="#DejaVuSans-51"/>
      <use transform="translate(345.406732 0.529687)" xlink:href="#DejaVuSans-50"/>
      <use transform="translate(409.029779 0.529687)" xlink:href="#DejaVuSans-48"/>
      <use transform="translate(472.652826 0.529687)" xlink:href="#DejaVuSans-48"/>
      <use transform="translate(555.758294 0.529687)" xlink:href="#DejaVuSans-61"/>
      <use transform="translate(659.029779 0.529687)" xlink:href="#DejaVuSans-54"/>
      <use transform="translate(722.652826 0.529687)" xlink:href="#DejaVuSans-48"/>
      <use transform="translate(786.275872 0.529687)" xlink:href="#DejaVuSans-Oblique-120"/>
      <use transform="translate(845.45556 0.529687)" xlink:href="#DejaVuSans-50"/>
      <use transform="translate(909.078607 0.529687)" xlink:href="#DejaVuSans-50"/>
      <use transform="translate(972.701654 0.529687)" xlink:href="#DejaVuSans-48"/>
     </g>
    </g>
    <g id="patch_6">
     <path d="M 1145.088 321.312 
L 1430.784 321.312 
L 1430.784 273.312 
L 1145.088 273.312 
z
" style="fill:#ffffff;stroke:#000000;stroke-linejoin:miter;"/>
    </g>
    <g id="text_4">
     <!-- $n^f=26400=120x220$ -->
     <defs>
      <path d="M 37.796875 64.3125 
L 12.890625 25.390625 
L 37.796875 25.390625 
z
M 35.203125 72.90625 
L 47.609375 72.90625 
L 47.609375 25.390625 
L 58.015625 25.390625 
L 58.015625 17.1875 
L 47.609375 17.1875 
L 47.609375 0 
L 37.796875 0 
L 37.796875 17.1875 
L 4.890625 17.1875 
L 4.890625 26.703125 
z
" id="DejaVuSans-52"/>
     </defs>
     <g transform="translate(1155.936 303.9345)scale(0.24 -0.24)">
      <use transform="translate(0 0.529687)" xlink:href="#DejaVuSans-Oblique-110"/>
      <use transform="translate(68.028802 38.810937)scale(0.7)" xlink:href="#DejaVuSans-Oblique-102"/>
      <use transform="translate(114.889154 0.529687)" xlink:href="#DejaVuSans-61"/>
      <use transform="translate(218.160638 0.529687)" xlink:href="#DejaVuSans-50"/>
      <use transform="translate(281.783685 0.529687)" xlink:href="#DejaVuSans-54"/>
      <use transform="translate(345.406732 0.529687)" xlink:href="#DejaVuSans-52"/>
      <use transform="translate(409.029779 0.529687)" xlink:href="#DejaVuSans-48"/>
      <use transform="translate(472.652826 0.529687)" xlink:href="#DejaVuSans-48"/>
      <use transform="translate(555.758294 0.529687)" xlink:href="#DejaVuSans-61"/>
      <use transform="translate(659.029779 0.529687)" xlink:href="#DejaVuSans-49"/>
      <use transform="translate(722.652826 0.529687)" xlink:href="#DejaVuSans-50"/>
      <use transform="translate(786.275872 0.529687)" xlink:href="#DejaVuSans-48"/>
      <use transform="translate(849.898919 0.529687)" xlink:href="#DejaVuSans-Oblique-120"/>
      <use transform="translate(909.078607 0.529687)" xlink:href="#DejaVuSans-50"/>
      <use transform="translate(972.701654 0.529687)" xlink:href="#DejaVuSans-50"/>
      <use transform="translate(1036.324701 0.529687)" xlink:href="#DejaVuSans-48"/>
     </g>
    </g>
    <g id="patch_7">
     <path d="M 1430.784 321.312 
L 1716.48 321.312 
L 1716.48 273.312 
L 1430.784 273.312 
z
" style="fill:#ffffff;stroke:#000000;stroke-linejoin:miter;"/>
    </g>
    <g id="text_5">
     <!-- $n^f=52800=120x440$ -->
     <defs>
      <path d="M 10.796875 72.90625 
L 49.515625 72.90625 
L 49.515625 64.59375 
L 19.828125 64.59375 
L 19.828125 46.734375 
Q 21.96875 47.46875 24.109375 47.828125 
Q 26.265625 48.1875 28.421875 48.1875 
Q 40.625 48.1875 47.75 41.5 
Q 54.890625 34.8125 54.890625 23.390625 
Q 54.890625 11.625 47.5625 5.09375 
Q 40.234375 -1.421875 26.90625 -1.421875 
Q 22.3125 -1.421875 17.546875 -0.640625 
Q 12.796875 0.140625 7.71875 1.703125 
L 7.71875 11.625 
Q 12.109375 9.234375 16.796875 8.0625 
Q 21.484375 6.890625 26.703125 6.890625 
Q 35.15625 6.890625 40.078125 11.328125 
Q 45.015625 15.765625 45.015625 23.390625 
Q 45.015625 31 40.078125 35.4375 
Q 35.15625 39.890625 26.703125 39.890625 
Q 22.75 39.890625 18.8125 39.015625 
Q 14.890625 38.140625 10.796875 36.28125 
z
" id="DejaVuSans-53"/>
      <path d="M 31.78125 34.625 
Q 24.75 34.625 20.71875 30.859375 
Q 16.703125 27.09375 16.703125 20.515625 
Q 16.703125 13.921875 20.71875 10.15625 
Q 24.75 6.390625 31.78125 6.390625 
Q 38.8125 6.390625 42.859375 10.171875 
Q 46.921875 13.96875 46.921875 20.515625 
Q 46.921875 27.09375 42.890625 30.859375 
Q 38.875 34.625 31.78125 34.625 
z
M 21.921875 38.8125 
Q 15.578125 40.375 12.03125 44.71875 
Q 8.5 49.078125 8.5 55.328125 
Q 8.5 64.0625 14.71875 69.140625 
Q 20.953125 74.21875 31.78125 74.21875 
Q 42.671875 74.21875 48.875 69.140625 
Q 55.078125 64.0625 55.078125 55.328125 
Q 55.078125 49.078125 51.53125 44.71875 
Q 48 40.375 41.703125 38.8125 
Q 48.828125 37.15625 52.796875 32.3125 
Q 56.78125 27.484375 56.78125 20.515625 
Q 56.78125 9.90625 50.3125 4.234375 
Q 43.84375 -1.421875 31.78125 -1.421875 
Q 19.734375 -1.421875 13.25 4.234375 
Q 6.78125 9.90625 6.78125 20.515625 
Q 6.78125 27.484375 10.78125 32.3125 
Q 14.796875 37.15625 21.921875 38.8125 
z
M 18.3125 54.390625 
Q 18.3125 48.734375 21.84375 45.5625 
Q 25.390625 42.390625 31.78125 42.390625 
Q 38.140625 42.390625 41.71875 45.5625 
Q 45.3125 48.734375 45.3125 54.390625 
Q 45.3125 60.0625 41.71875 63.234375 
Q 38.140625 66.40625 31.78125 66.40625 
Q 25.390625 66.40625 21.84375 63.234375 
Q 18.3125 60.0625 18.3125 54.390625 
z
" id="DejaVuSans-56"/>
     </defs>
     <g transform="translate(1441.632 303.9345)scale(0.24 -0.24)">
      <use transform="translate(0 0.529687)" xlink:href="#DejaVuSans-Oblique-110"/>
      <use transform="translate(68.028802 38.810937)scale(0.7)" xlink:href="#DejaVuSans-Oblique-102"/>
      <use transform="translate(114.889154 0.529687)" xlink:href="#DejaVuSans-61"/>
      <use transform="translate(218.160638 0.529687)" xlink:href="#DejaVuSans-53"/>
      <use transform="translate(281.783685 0.529687)" xlink:href="#DejaVuSans-50"/>
      <use transform="translate(345.406732 0.529687)" xlink:href="#DejaVuSans-56"/>
      <use transform="translate(409.029779 0.529687)" xlink:href="#DejaVuSans-48"/>
      <use transform="translate(472.652826 0.529687)" xlink:href="#DejaVuSans-48"/>
      <use transform="translate(555.758294 0.529687)" xlink:href="#DejaVuSans-61"/>
      <use transform="translate(659.029779 0.529687)" xlink:href="#DejaVuSans-49"/>
      <use transform="translate(722.652826 0.529687)" xlink:href="#DejaVuSans-50"/>
      <use transform="translate(786.275872 0.529687)" xlink:href="#DejaVuSans-48"/>
      <use transform="translate(849.898919 0.529687)" xlink:href="#DejaVuSans-Oblique-120"/>
      <use transform="translate(909.078607 0.529687)" xlink:href="#DejaVuSans-52"/>
      <use transform="translate(972.701654 0.529687)" xlink:href="#DejaVuSans-52"/>
      <use transform="translate(1036.324701 0.529687)" xlink:href="#DejaVuSans-48"/>
     </g>
    </g>
    <g id="patch_8">
     <path d="M 7.2 369.312 
L 288 369.312 
L 288 321.312 
L 7.2 321.312 
z
" style="fill:#ffffff;stroke:#000000;stroke-linejoin:miter;"/>
    </g>
    <g id="text_6">
     <!-- 0.1 -->
     <defs>
      <path d="M 10.6875 12.40625 
L 21 12.40625 
L 21 0 
L 10.6875 0 
z
" id="DejaVuSans-46"/>
     </defs>
     <g transform="translate(35.28 351.9345)scale(0.24 -0.24)">
      <use xlink:href="#DejaVuSans-48"/>
      <use x="63.623047" xlink:href="#DejaVuSans-46"/>
      <use x="95.410156" xlink:href="#DejaVuSans-49"/>
     </g>
    </g>
    <g id="patch_9">
     <path d="M 288 369.312 
L 573.696 369.312 
L 573.696 321.312 
L 288 321.312 
z
" style="fill:#ffffff;stroke:#000000;stroke-linejoin:miter;"/>
    </g>
    <g id="text_7">
     <!-- 0.539% -->
     <defs>
      <path d="M 10.984375 1.515625 
L 10.984375 10.5 
Q 14.703125 8.734375 18.5 7.8125 
Q 22.3125 6.890625 25.984375 6.890625 
Q 35.75 6.890625 40.890625 13.453125 
Q 46.046875 20.015625 46.78125 33.40625 
Q 43.953125 29.203125 39.59375 26.953125 
Q 35.25 24.703125 29.984375 24.703125 
Q 19.046875 24.703125 12.671875 31.3125 
Q 6.296875 37.9375 6.296875 49.421875 
Q 6.296875 60.640625 12.9375 67.421875 
Q 19.578125 74.21875 30.609375 74.21875 
Q 43.265625 74.21875 49.921875 64.515625 
Q 56.59375 54.828125 56.59375 36.375 
Q 56.59375 19.140625 48.40625 8.859375 
Q 40.234375 -1.421875 26.421875 -1.421875 
Q 22.703125 -1.421875 18.890625 -0.6875 
Q 15.09375 0.046875 10.984375 1.515625 
z
M 30.609375 32.421875 
Q 37.25 32.421875 41.125 36.953125 
Q 45.015625 41.5 45.015625 49.421875 
Q 45.015625 57.28125 41.125 61.84375 
Q 37.25 66.40625 30.609375 66.40625 
Q 23.96875 66.40625 20.09375 61.84375 
Q 16.21875 57.28125 16.21875 49.421875 
Q 16.21875 41.5 20.09375 36.953125 
Q 23.96875 32.421875 30.609375 32.421875 
z
" id="DejaVuSans-57"/>
      <path d="M 72.703125 32.078125 
Q 68.453125 32.078125 66.03125 28.46875 
Q 63.625 24.859375 63.625 18.40625 
Q 63.625 12.0625 66.03125 8.421875 
Q 68.453125 4.78125 72.703125 4.78125 
Q 76.859375 4.78125 79.265625 8.421875 
Q 81.6875 12.0625 81.6875 18.40625 
Q 81.6875 24.8125 79.265625 28.4375 
Q 76.859375 32.078125 72.703125 32.078125 
z
M 72.703125 38.28125 
Q 80.421875 38.28125 84.953125 32.90625 
Q 89.5 27.546875 89.5 18.40625 
Q 89.5 9.28125 84.9375 3.921875 
Q 80.375 -1.421875 72.703125 -1.421875 
Q 64.890625 -1.421875 60.34375 3.921875 
Q 55.8125 9.28125 55.8125 18.40625 
Q 55.8125 27.59375 60.375 32.9375 
Q 64.9375 38.28125 72.703125 38.28125 
z
M 22.3125 68.015625 
Q 18.109375 68.015625 15.6875 64.375 
Q 13.28125 60.75 13.28125 54.390625 
Q 13.28125 47.953125 15.671875 44.328125 
Q 18.0625 40.71875 22.3125 40.71875 
Q 26.5625 40.71875 28.96875 44.328125 
Q 31.390625 47.953125 31.390625 54.390625 
Q 31.390625 60.6875 28.953125 64.34375 
Q 26.515625 68.015625 22.3125 68.015625 
z
M 66.40625 74.21875 
L 74.21875 74.21875 
L 28.609375 -1.421875 
L 20.796875 -1.421875 
z
M 22.3125 74.21875 
Q 30.03125 74.21875 34.609375 68.875 
Q 39.203125 63.53125 39.203125 54.390625 
Q 39.203125 45.171875 34.640625 39.84375 
Q 30.078125 34.515625 22.3125 34.515625 
Q 14.546875 34.515625 10.03125 39.859375 
Q 5.515625 45.21875 5.515625 54.390625 
Q 5.515625 63.484375 10.046875 68.84375 
Q 14.59375 74.21875 22.3125 74.21875 
z
" id="DejaVuSans-37"/>
     </defs>
     <g transform="translate(453.61515 351.9345)scale(0.24 -0.24)">
      <use xlink:href="#DejaVuSans-48"/>
      <use x="63.623047" xlink:href="#DejaVuSans-46"/>
      <use x="95.410156" xlink:href="#DejaVuSans-53"/>
      <use x="159.033203" xlink:href="#DejaVuSans-51"/>
      <use x="222.65625" xlink:href="#DejaVuSans-57"/>
      <use x="286.279297" xlink:href="#DejaVuSans-37"/>
     </g>
    </g>
    <g id="patch_10">
     <path d="M 573.696 369.312 
L 859.392 369.312 
L 859.392 321.312 
L 573.696 321.312 
z
" style="fill:#ffffff;stroke:#000000;stroke-linejoin:miter;"/>
    </g>
    <g id="text_8">
     <!-- 0.454% -->
     <g transform="translate(739.31115 351.9345)scale(0.24 -0.24)">
      <use xlink:href="#DejaVuSans-48"/>
      <use x="63.623047" xlink:href="#DejaVuSans-46"/>
      <use x="95.410156" xlink:href="#DejaVuSans-52"/>
      <use x="159.033203" xlink:href="#DejaVuSans-53"/>
      <use x="222.65625" xlink:href="#DejaVuSans-52"/>
      <use x="286.279297" xlink:href="#DejaVuSans-37"/>
     </g>
    </g>
    <g id="patch_11">
     <path d="M 859.392 369.312 
L 1145.088 369.312 
L 1145.088 321.312 
L 859.392 321.312 
z
" style="fill:#ffffff;stroke:#000000;stroke-linejoin:miter;"/>
    </g>
    <g id="text_9">
     <!-- 0.493% -->
     <g transform="translate(1025.00715 351.9345)scale(0.24 -0.24)">
      <use xlink:href="#DejaVuSans-48"/>
      <use x="63.623047" xlink:href="#DejaVuSans-46"/>
      <use x="95.410156" xlink:href="#DejaVuSans-52"/>
      <use x="159.033203" xlink:href="#DejaVuSans-57"/>
      <use x="222.65625" xlink:href="#DejaVuSans-51"/>
      <use x="286.279297" xlink:href="#DejaVuSans-37"/>
     </g>
    </g>
    <g id="patch_12">
     <path d="M 1145.088 369.312 
L 1430.784 369.312 
L 1430.784 321.312 
L 1145.088 321.312 
z
" style="fill:#ffffff;stroke:#000000;stroke-linejoin:miter;"/>
    </g>
    <g id="text_10">
     <!-- 0.439% -->
     <g transform="translate(1310.70315 351.9345)scale(0.24 -0.24)">
      <use xlink:href="#DejaVuSans-48"/>
      <use x="63.623047" xlink:href="#DejaVuSans-46"/>
      <use x="95.410156" xlink:href="#DejaVuSans-52"/>
      <use x="159.033203" xlink:href="#DejaVuSans-51"/>
      <use x="222.65625" xlink:href="#DejaVuSans-57"/>
      <use x="286.279297" xlink:href="#DejaVuSans-37"/>
     </g>
    </g>
    <g id="patch_13">
     <path d="M 1430.784 369.312 
L 1716.48 369.312 
L 1716.48 321.312 
L 1430.784 321.312 
z
" style="fill:#ffffff;stroke:#000000;stroke-linejoin:miter;"/>
    </g>
    <g id="text_11">
     <!-- 0.570% -->
     <defs>
      <path d="M 8.203125 72.90625 
L 55.078125 72.90625 
L 55.078125 68.703125 
L 28.609375 0 
L 18.3125 0 
L 43.21875 64.59375 
L 8.203125 64.59375 
z
" id="DejaVuSans-55"/>
     </defs>
     <g transform="translate(1596.39915 351.9345)scale(0.24 -0.24)">
      <use xlink:href="#DejaVuSans-48"/>
      <use x="63.623047" xlink:href="#DejaVuSans-46"/>
      <use x="95.410156" xlink:href="#DejaVuSans-53"/>
      <use x="159.033203" xlink:href="#DejaVuSans-55"/>
      <use x="222.65625" xlink:href="#DejaVuSans-48"/>
      <use x="286.279297" xlink:href="#DejaVuSans-37"/>
     </g>
    </g>
    <g id="patch_14">
     <path d="M 7.2 417.312 
L 288 417.312 
L 288 369.312 
L 7.2 369.312 
z
" style="fill:#ffffff;stroke:#000000;stroke-linejoin:miter;"/>
    </g>
    <g id="text_12">
     <!-- 0.2  -->
     <defs>
      <path id="DejaVuSans-32"/>
     </defs>
     <g transform="translate(35.28 399.9345)scale(0.24 -0.24)">
      <use xlink:href="#DejaVuSans-48"/>
      <use x="63.623047" xlink:href="#DejaVuSans-46"/>
      <use x="95.410156" xlink:href="#DejaVuSans-50"/>
      <use x="159.033203" xlink:href="#DejaVuSans-32"/>
     </g>
    </g>
    <g id="patch_15">
     <path d="M 288 417.312 
L 573.696 417.312 
L 573.696 369.312 
L 288 369.312 
z
" style="fill:#ffffff;stroke:#000000;stroke-linejoin:miter;"/>
    </g>
    <g id="text_13">
     <!-- 77.96% -->
     <g transform="translate(453.61515 399.9345)scale(0.24 -0.24)">
      <use xlink:href="#DejaVuSans-55"/>
      <use x="63.623047" xlink:href="#DejaVuSans-55"/>
      <use x="127.246094" xlink:href="#DejaVuSans-46"/>
      <use x="159.033203" xlink:href="#DejaVuSans-57"/>
      <use x="222.65625" xlink:href="#DejaVuSans-54"/>
      <use x="286.279297" xlink:href="#DejaVuSans-37"/>
     </g>
    </g>
    <g id="patch_16">
     <path d="M 573.696 417.312 
L 859.392 417.312 
L 859.392 369.312 
L 573.696 369.312 
z
" style="fill:#ffffff;stroke:#000000;stroke-linejoin:miter;"/>
    </g>
    <g id="text_14">
     <!-- 78.14% -->
     <g transform="translate(739.31115 399.9345)scale(0.24 -0.24)">
      <use xlink:href="#DejaVuSans-55"/>
      <use x="63.623047" xlink:href="#DejaVuSans-56"/>
      <use x="127.246094" xlink:href="#DejaVuSans-46"/>
      <use x="159.033203" xlink:href="#DejaVuSans-49"/>
      <use x="222.65625" xlink:href="#DejaVuSans-52"/>
      <use x="286.279297" xlink:href="#DejaVuSans-37"/>
     </g>
    </g>
    <g id="patch_17">
     <path d="M 859.392 417.312 
L 1145.088 417.312 
L 1145.088 369.312 
L 859.392 369.312 
z
" style="fill:#ffffff;stroke:#000000;stroke-linejoin:miter;"/>
    </g>
    <g id="text_15">
     <!-- 78.16% -->
     <g transform="translate(1025.00715 399.9345)scale(0.24 -0.24)">
      <use xlink:href="#DejaVuSans-55"/>
      <use x="63.623047" xlink:href="#DejaVuSans-56"/>
      <use x="127.246094" xlink:href="#DejaVuSans-46"/>
      <use x="159.033203" xlink:href="#DejaVuSans-49"/>
      <use x="222.65625" xlink:href="#DejaVuSans-54"/>
      <use x="286.279297" xlink:href="#DejaVuSans-37"/>
     </g>
    </g>
    <g id="patch_18">
     <path d="M 1145.088 417.312 
L 1430.784 417.312 
L 1430.784 369.312 
L 1145.088 369.312 
z
" style="fill:#ffffff;stroke:#000000;stroke-linejoin:miter;"/>
    </g>
    <g id="text_16">
     <!-- 78.26% -->
     <g transform="translate(1310.70315 399.9345)scale(0.24 -0.24)">
      <use xlink:href="#DejaVuSans-55"/>
      <use x="63.623047" xlink:href="#DejaVuSans-56"/>
      <use x="127.246094" xlink:href="#DejaVuSans-46"/>
      <use x="159.033203" xlink:href="#DejaVuSans-50"/>
      <use x="222.65625" xlink:href="#DejaVuSans-54"/>
      <use x="286.279297" xlink:href="#DejaVuSans-37"/>
     </g>
    </g>
    <g id="patch_19">
     <path d="M 1430.784 417.312 
L 1716.48 417.312 
L 1716.48 369.312 
L 1430.784 369.312 
z
" style="fill:#ffffff;stroke:#000000;stroke-linejoin:miter;"/>
    </g>
    <g id="text_17">
     <!-- 78.17% -->
     <g transform="translate(1596.39915 399.9345)scale(0.24 -0.24)">
      <use xlink:href="#DejaVuSans-55"/>
      <use x="63.623047" xlink:href="#DejaVuSans-56"/>
      <use x="127.246094" xlink:href="#DejaVuSans-46"/>
      <use x="159.033203" xlink:href="#DejaVuSans-49"/>
      <use x="222.65625" xlink:href="#DejaVuSans-55"/>
      <use x="286.279297" xlink:href="#DejaVuSans-37"/>
     </g>
    </g>
    <g id="patch_20">
     <path d="M 7.2 465.312 
L 288 465.312 
L 288 417.312 
L 7.2 417.312 
z
" style="fill:#ffffff;stroke:#000000;stroke-linejoin:miter;"/>
    </g>
    <g id="text_18">
     <!-- 0.3 -->
     <g transform="translate(35.28 447.9345)scale(0.24 -0.24)">
      <use xlink:href="#DejaVuSans-48"/>
      <use x="63.623047" xlink:href="#DejaVuSans-46"/>
      <use x="95.410156" xlink:href="#DejaVuSans-51"/>
     </g>
    </g>
    <g id="patch_21">
     <path d="M 288 465.312 
L 573.696 465.312 
L 573.696 417.312 
L 288 417.312 
z
" style="fill:#ffffff;stroke:#000000;stroke-linejoin:miter;"/>
    </g>
    <g id="text_19">
     <!-- 0.408% -->
     <g transform="translate(453.61515 447.9345)scale(0.24 -0.24)">
      <use xlink:href="#DejaVuSans-48"/>
      <use x="63.623047" xlink:href="#DejaVuSans-46"/>
      <use x="95.410156" xlink:href="#DejaVuSans-52"/>
      <use x="159.033203" xlink:href="#DejaVuSans-48"/>
      <use x="222.65625" xlink:href="#DejaVuSans-56"/>
      <use x="286.279297" xlink:href="#DejaVuSans-37"/>
     </g>
    </g>
    <g id="patch_22">
     <path d="M 573.696 465.312 
L 859.392 465.312 
L 859.392 417.312 
L 573.696 417.312 
z
" style="fill:#ffffff;stroke:#000000;stroke-linejoin:miter;"/>
    </g>
    <g id="text_20">
     <!-- 0.279% -->
     <g transform="translate(739.31115 447.9345)scale(0.24 -0.24)">
      <use xlink:href="#DejaVuSans-48"/>
      <use x="63.623047" xlink:href="#DejaVuSans-46"/>
      <use x="95.410156" xlink:href="#DejaVuSans-50"/>
      <use x="159.033203" xlink:href="#DejaVuSans-55"/>
      <use x="222.65625" xlink:href="#DejaVuSans-57"/>
      <use x="286.279297" xlink:href="#DejaVuSans-37"/>
     </g>
    </g>
    <g id="patch_23">
     <path d="M 859.392 465.312 
L 1145.088 465.312 
L 1145.088 417.312 
L 859.392 417.312 
z
" style="fill:#ffffff;stroke:#000000;stroke-linejoin:miter;"/>
    </g>
    <g id="text_21">
     <!-- 0.213% -->
     <g transform="translate(1025.00715 447.9345)scale(0.24 -0.24)">
      <use xlink:href="#DejaVuSans-48"/>
      <use x="63.623047" xlink:href="#DejaVuSans-46"/>
      <use x="95.410156" xlink:href="#DejaVuSans-50"/>
      <use x="159.033203" xlink:href="#DejaVuSans-49"/>
      <use x="222.65625" xlink:href="#DejaVuSans-51"/>
      <use x="286.279297" xlink:href="#DejaVuSans-37"/>
     </g>
    </g>
    <g id="patch_24">
     <path d="M 1145.088 465.312 
L 1430.784 465.312 
L 1430.784 417.312 
L 1145.088 417.312 
z
" style="fill:#ffffff;stroke:#000000;stroke-linejoin:miter;"/>
    </g>
    <g id="text_22">
     <!-- 0.153% -->
     <g transform="translate(1310.70315 447.9345)scale(0.24 -0.24)">
      <use xlink:href="#DejaVuSans-48"/>
      <use x="63.623047" xlink:href="#DejaVuSans-46"/>
      <use x="95.410156" xlink:href="#DejaVuSans-49"/>
      <use x="159.033203" xlink:href="#DejaVuSans-53"/>
      <use x="222.65625" xlink:href="#DejaVuSans-51"/>
      <use x="286.279297" xlink:href="#DejaVuSans-37"/>
     </g>
    </g>
    <g id="patch_25">
     <path d="M 1430.784 465.312 
L 1716.48 465.312 
L 1716.48 417.312 
L 1430.784 417.312 
z
" style="fill:#ffffff;stroke:#000000;stroke-linejoin:miter;"/>
    </g>
    <g id="text_23">
     <!-- 0.131% -->
     <g transform="translate(1596.39915 447.9345)scale(0.24 -0.24)">
      <use xlink:href="#DejaVuSans-48"/>
      <use x="63.623047" xlink:href="#DejaVuSans-46"/>
      <use x="95.410156" xlink:href="#DejaVuSans-49"/>
      <use x="159.033203" xlink:href="#DejaVuSans-51"/>
      <use x="222.65625" xlink:href="#DejaVuSans-49"/>
      <use x="286.279297" xlink:href="#DejaVuSans-37"/>
     </g>
    </g>
    <g id="patch_26">
     <path d="M 7.2 513.312 
L 288 513.312 
L 288 465.312 
L 7.2 465.312 
z
" style="fill:#ffffff;stroke:#000000;stroke-linejoin:miter;"/>
    </g>
    <g id="text_24">
     <!-- 0.4 -->
     <g transform="translate(35.28 495.9345)scale(0.24 -0.24)">
      <use xlink:href="#DejaVuSans-48"/>
      <use x="63.623047" xlink:href="#DejaVuSans-46"/>
      <use x="95.410156" xlink:href="#DejaVuSans-52"/>
     </g>
    </g>
    <g id="patch_27">
     <path d="M 288 513.312 
L 573.696 513.312 
L 573.696 465.312 
L 288 465.312 
z
" style="fill:#ffffff;stroke:#000000;stroke-linejoin:miter;"/>
    </g>
    <g id="text_25">
     <!-- 0.028% -->
     <g transform="translate(453.61515 495.9345)scale(0.24 -0.24)">
      <use xlink:href="#DejaVuSans-48"/>
      <use x="63.623047" xlink:href="#DejaVuSans-46"/>
      <use x="95.410156" xlink:href="#DejaVuSans-48"/>
      <use x="159.033203" xlink:href="#DejaVuSans-50"/>
      <use x="222.65625" xlink:href="#DejaVuSans-56"/>
      <use x="286.279297" xlink:href="#DejaVuSans-37"/>
     </g>
    </g>
    <g id="patch_28">
     <path d="M 573.696 513.312 
L 859.392 513.312 
L 859.392 465.312 
L 573.696 465.312 
z
" style="fill:#ffffff;stroke:#000000;stroke-linejoin:miter;"/>
    </g>
    <g id="text_26">
     <!-- 0.019% -->
     <g transform="translate(739.31115 495.9345)scale(0.24 -0.24)">
      <use xlink:href="#DejaVuSans-48"/>
      <use x="63.623047" xlink:href="#DejaVuSans-46"/>
      <use x="95.410156" xlink:href="#DejaVuSans-48"/>
      <use x="159.033203" xlink:href="#DejaVuSans-49"/>
      <use x="222.65625" xlink:href="#DejaVuSans-57"/>
      <use x="286.279297" xlink:href="#DejaVuSans-37"/>
     </g>
    </g>
    <g id="patch_29">
     <path d="M 859.392 513.312 
L 1145.088 513.312 
L 1145.088 465.312 
L 859.392 465.312 
z
" style="fill:#ffffff;stroke:#000000;stroke-linejoin:miter;"/>
    </g>
    <g id="text_27">
     <!-- 0.015% -->
     <g transform="translate(1025.00715 495.9345)scale(0.24 -0.24)">
      <use xlink:href="#DejaVuSans-48"/>
      <use x="63.623047" xlink:href="#DejaVuSans-46"/>
      <use x="95.410156" xlink:href="#DejaVuSans-48"/>
      <use x="159.033203" xlink:href="#DejaVuSans-49"/>
      <use x="222.65625" xlink:href="#DejaVuSans-53"/>
      <use x="286.279297" xlink:href="#DejaVuSans-37"/>
     </g>
    </g>
    <g id="patch_30">
     <path d="M 1145.088 513.312 
L 1430.784 513.312 
L 1430.784 465.312 
L 1145.088 465.312 
z
" style="fill:#ffffff;stroke:#000000;stroke-linejoin:miter;"/>
    </g>
    <g id="text_28">
     <!-- 0.010% -->
     <g transform="translate(1310.70315 495.9345)scale(0.24 -0.24)">
      <use xlink:href="#DejaVuSans-48"/>
      <use x="63.623047" xlink:href="#DejaVuSans-46"/>
      <use x="95.410156" xlink:href="#DejaVuSans-48"/>
      <use x="159.033203" xlink:href="#DejaVuSans-49"/>
      <use x="222.65625" xlink:href="#DejaVuSans-48"/>
      <use x="286.279297" xlink:href="#DejaVuSans-37"/>
     </g>
    </g>
    <g id="patch_31">
     <path d="M 1430.784 513.312 
L 1716.48 513.312 
L 1716.48 465.312 
L 1430.784 465.312 
z
" style="fill:#ffffff;stroke:#000000;stroke-linejoin:miter;"/>
    </g>
    <g id="text_29">
     <!-- 0.009% -->
     <g transform="translate(1596.39915 495.9345)scale(0.24 -0.24)">
      <use xlink:href="#DejaVuSans-48"/>
      <use x="63.623047" xlink:href="#DejaVuSans-46"/>
      <use x="95.410156" xlink:href="#DejaVuSans-48"/>
      <use x="159.033203" xlink:href="#DejaVuSans-48"/>
      <use x="222.65625" xlink:href="#DejaVuSans-57"/>
      <use x="286.279297" xlink:href="#DejaVuSans-37"/>
     </g>
    </g>
    <g id="patch_32">
     <path d="M 7.2 561.312 
L 288 561.312 
L 288 513.312 
L 7.2 513.312 
z
" style="fill:#ffffff;stroke:#000000;stroke-linejoin:miter;"/>
    </g>
    <g id="text_30">
     <!-- 0.5 -->
     <g transform="translate(35.28 543.9345)scale(0.24 -0.24)">
      <use xlink:href="#DejaVuSans-48"/>
      <use x="63.623047" xlink:href="#DejaVuSans-46"/>
      <use x="95.410156" xlink:href="#DejaVuSans-53"/>
     </g>
    </g>
    <g id="patch_33">
     <path d="M 288 561.312 
L 573.696 561.312 
L 573.696 513.312 
L 288 513.312 
z
" style="fill:#ffffff;stroke:#000000;stroke-linejoin:miter;"/>
    </g>
    <g id="text_31">
     <!-- 0.000% -->
     <g transform="translate(453.61515 543.9345)scale(0.24 -0.24)">
      <use xlink:href="#DejaVuSans-48"/>
      <use x="63.623047" xlink:href="#DejaVuSans-46"/>
      <use x="95.410156" xlink:href="#DejaVuSans-48"/>
      <use x="159.033203" xlink:href="#DejaVuSans-48"/>
      <use x="222.65625" xlink:href="#DejaVuSans-48"/>
      <use x="286.279297" xlink:href="#DejaVuSans-37"/>
     </g>
    </g>
    <g id="patch_34">
     <path d="M 573.696 561.312 
L 859.392 561.312 
L 859.392 513.312 
L 573.696 513.312 
z
" style="fill:#ffffff;stroke:#000000;stroke-linejoin:miter;"/>
    </g>
    <g id="text_32">
     <!-- 0.000% -->
     <g transform="translate(739.31115 543.9345)scale(0.24 -0.24)">
      <use xlink:href="#DejaVuSans-48"/>
      <use x="63.623047" xlink:href="#DejaVuSans-46"/>
      <use x="95.410156" xlink:href="#DejaVuSans-48"/>
      <use x="159.033203" xlink:href="#DejaVuSans-48"/>
      <use x="222.65625" xlink:href="#DejaVuSans-48"/>
      <use x="286.279297" xlink:href="#DejaVuSans-37"/>
     </g>
    </g>
    <g id="patch_35">
     <path d="M 859.392 561.312 
L 1145.088 561.312 
L 1145.088 513.312 
L 859.392 513.312 
z
" style="fill:#ffffff;stroke:#000000;stroke-linejoin:miter;"/>
    </g>
    <g id="text_33">
     <!-- 0.000% -->
     <g transform="translate(1025.00715 543.9345)scale(0.24 -0.24)">
      <use xlink:href="#DejaVuSans-48"/>
      <use x="63.623047" xlink:href="#DejaVuSans-46"/>
      <use x="95.410156" xlink:href="#DejaVuSans-48"/>
      <use x="159.033203" xlink:href="#DejaVuSans-48"/>
      <use x="222.65625" xlink:href="#DejaVuSans-48"/>
      <use x="286.279297" xlink:href="#DejaVuSans-37"/>
     </g>
    </g>
    <g id="patch_36">
     <path d="M 1145.088 561.312 
L 1430.784 561.312 
L 1430.784 513.312 
L 1145.088 513.312 
z
" style="fill:#ffffff;stroke:#000000;stroke-linejoin:miter;"/>
    </g>
    <g id="text_34">
     <!-- 0.000% -->
     <g transform="translate(1310.70315 543.9345)scale(0.24 -0.24)">
      <use xlink:href="#DejaVuSans-48"/>
      <use x="63.623047" xlink:href="#DejaVuSans-46"/>
      <use x="95.410156" xlink:href="#DejaVuSans-48"/>
      <use x="159.033203" xlink:href="#DejaVuSans-48"/>
      <use x="222.65625" xlink:href="#DejaVuSans-48"/>
      <use x="286.279297" xlink:href="#DejaVuSans-37"/>
     </g>
    </g>
    <g id="patch_37">
     <path d="M 1430.784 561.312 
L 1716.48 561.312 
L 1716.48 513.312 
L 1430.784 513.312 
z
" style="fill:#ffffff;stroke:#000000;stroke-linejoin:miter;"/>
    </g>
    <g id="text_35">
     <!-- 0.000% -->
     <g transform="translate(1596.39915 543.9345)scale(0.24 -0.24)">
      <use xlink:href="#DejaVuSans-48"/>
      <use x="63.623047" xlink:href="#DejaVuSans-46"/>
      <use x="95.410156" xlink:href="#DejaVuSans-48"/>
      <use x="159.033203" xlink:href="#DejaVuSans-48"/>
      <use x="222.65625" xlink:href="#DejaVuSans-48"/>
      <use x="286.279297" xlink:href="#DejaVuSans-37"/>
     </g>
    </g>
    <g id="patch_38">
     <path d="M 7.2 609.312 
L 288 609.312 
L 288 561.312 
L 7.2 561.312 
z
" style="fill:#ffffff;stroke:#000000;stroke-linejoin:miter;"/>
    </g>
    <g id="text_36">
     <!-- 0.6 -->
     <g transform="translate(35.28 591.9345)scale(0.24 -0.24)">
      <use xlink:href="#DejaVuSans-48"/>
      <use x="63.623047" xlink:href="#DejaVuSans-46"/>
      <use x="95.410156" xlink:href="#DejaVuSans-54"/>
     </g>
    </g>
    <g id="patch_39">
     <path d="M 288 609.312 
L 573.696 609.312 
L 573.696 561.312 
L 288 561.312 
z
" style="fill:#ffffff;stroke:#000000;stroke-linejoin:miter;"/>
    </g>
    <g id="text_37">
     <!-- 0.005% -->
     <g transform="translate(453.61515 591.9345)scale(0.24 -0.24)">
      <use xlink:href="#DejaVuSans-48"/>
      <use x="63.623047" xlink:href="#DejaVuSans-46"/>
      <use x="95.410156" xlink:href="#DejaVuSans-48"/>
      <use x="159.033203" xlink:href="#DejaVuSans-48"/>
      <use x="222.65625" xlink:href="#DejaVuSans-53"/>
      <use x="286.279297" xlink:href="#DejaVuSans-37"/>
     </g>
    </g>
    <g id="patch_40">
     <path d="M 573.696 609.312 
L 859.392 609.312 
L 859.392 561.312 
L 573.696 561.312 
z
" style="fill:#ffffff;stroke:#000000;stroke-linejoin:miter;"/>
    </g>
    <g id="text_38">
     <!-- 0.004% -->
     <g transform="translate(739.31115 591.9345)scale(0.24 -0.24)">
      <use xlink:href="#DejaVuSans-48"/>
      <use x="63.623047" xlink:href="#DejaVuSans-46"/>
      <use x="95.410156" xlink:href="#DejaVuSans-48"/>
      <use x="159.033203" xlink:href="#DejaVuSans-48"/>
      <use x="222.65625" xlink:href="#DejaVuSans-52"/>
      <use x="286.279297" xlink:href="#DejaVuSans-37"/>
     </g>
    </g>
    <g id="patch_41">
     <path d="M 859.392 609.312 
L 1145.088 609.312 
L 1145.088 561.312 
L 859.392 561.312 
z
" style="fill:#ffffff;stroke:#000000;stroke-linejoin:miter;"/>
    </g>
    <g id="text_39">
     <!-- 0.004% -->
     <g transform="translate(1025.00715 591.9345)scale(0.24 -0.24)">
      <use xlink:href="#DejaVuSans-48"/>
      <use x="63.623047" xlink:href="#DejaVuSans-46"/>
      <use x="95.410156" xlink:href="#DejaVuSans-48"/>
      <use x="159.033203" xlink:href="#DejaVuSans-48"/>
      <use x="222.65625" xlink:href="#DejaVuSans-52"/>
      <use x="286.279297" xlink:href="#DejaVuSans-37"/>
     </g>
    </g>
    <g id="patch_42">
     <path d="M 1145.088 609.312 
L 1430.784 609.312 
L 1430.784 561.312 
L 1145.088 561.312 
z
" style="fill:#ffffff;stroke:#000000;stroke-linejoin:miter;"/>
    </g>
    <g id="text_40">
     <!-- 0.004% -->
     <g transform="translate(1310.70315 591.9345)scale(0.24 -0.24)">
      <use xlink:href="#DejaVuSans-48"/>
      <use x="63.623047" xlink:href="#DejaVuSans-46"/>
      <use x="95.410156" xlink:href="#DejaVuSans-48"/>
      <use x="159.033203" xlink:href="#DejaVuSans-48"/>
      <use x="222.65625" xlink:href="#DejaVuSans-52"/>
      <use x="286.279297" xlink:href="#DejaVuSans-37"/>
     </g>
    </g>
    <g id="patch_43">
     <path d="M 1430.784 609.312 
L 1716.48 609.312 
L 1716.48 561.312 
L 1430.784 561.312 
z
" style="fill:#ffffff;stroke:#000000;stroke-linejoin:miter;"/>
    </g>
    <g id="text_41">
     <!-- 0.005% -->
     <g transform="translate(1596.39915 591.9345)scale(0.24 -0.24)">
      <use xlink:href="#DejaVuSans-48"/>
      <use x="63.623047" xlink:href="#DejaVuSans-46"/>
      <use x="95.410156" xlink:href="#DejaVuSans-48"/>
      <use x="159.033203" xlink:href="#DejaVuSans-48"/>
      <use x="222.65625" xlink:href="#DejaVuSans-53"/>
      <use x="286.279297" xlink:href="#DejaVuSans-37"/>
     </g>
    </g>
    <g id="patch_44">
     <path d="M 7.2 657.312 
L 288 657.312 
L 288 609.312 
L 7.2 609.312 
z
" style="fill:#ffffff;stroke:#000000;stroke-linejoin:miter;"/>
    </g>
    <g id="text_42">
     <!-- 0.7 -->
     <g transform="translate(35.28 639.9345)scale(0.24 -0.24)">
      <use xlink:href="#DejaVuSans-48"/>
      <use x="63.623047" xlink:href="#DejaVuSans-46"/>
      <use x="95.410156" xlink:href="#DejaVuSans-55"/>
     </g>
    </g>
    <g id="patch_45">
     <path d="M 288 657.312 
L 573.696 657.312 
L 573.696 609.312 
L 288 609.312 
z
" style="fill:#ffffff;stroke:#000000;stroke-linejoin:miter;"/>
    </g>
    <g id="text_43">
     <!-- 21.05% -->
     <g transform="translate(453.61515 639.9345)scale(0.24 -0.24)">
      <use xlink:href="#DejaVuSans-50"/>
      <use x="63.623047" xlink:href="#DejaVuSans-49"/>
      <use x="127.246094" xlink:href="#DejaVuSans-46"/>
      <use x="159.033203" xlink:href="#DejaVuSans-48"/>
      <use x="222.65625" xlink:href="#DejaVuSans-53"/>
      <use x="286.279297" xlink:href="#DejaVuSans-37"/>
     </g>
    </g>
    <g id="patch_46">
     <path d="M 573.696 657.312 
L 859.392 657.312 
L 859.392 609.312 
L 573.696 609.312 
z
" style="fill:#ffffff;stroke:#000000;stroke-linejoin:miter;"/>
    </g>
    <g id="text_44">
     <!-- 21.09% -->
     <g transform="translate(739.31115 639.9345)scale(0.24 -0.24)">
      <use xlink:href="#DejaVuSans-50"/>
      <use x="63.623047" xlink:href="#DejaVuSans-49"/>
      <use x="127.246094" xlink:href="#DejaVuSans-46"/>
      <use x="159.033203" xlink:href="#DejaVuSans-48"/>
      <use x="222.65625" xlink:href="#DejaVuSans-57"/>
      <use x="286.279297" xlink:href="#DejaVuSans-37"/>
     </g>
    </g>
    <g id="patch_47">
     <path d="M 859.392 657.312 
L 1145.088 657.312 
L 1145.088 609.312 
L 859.392 609.312 
z
" style="fill:#ffffff;stroke:#000000;stroke-linejoin:miter;"/>
    </g>
    <g id="text_45">
     <!-- 21.10% -->
     <g transform="translate(1025.00715 639.9345)scale(0.24 -0.24)">
      <use xlink:href="#DejaVuSans-50"/>
      <use x="63.623047" xlink:href="#DejaVuSans-49"/>
      <use x="127.246094" xlink:href="#DejaVuSans-46"/>
      <use x="159.033203" xlink:href="#DejaVuSans-49"/>
      <use x="222.65625" xlink:href="#DejaVuSans-48"/>
      <use x="286.279297" xlink:href="#DejaVuSans-37"/>
     </g>
    </g>
    <g id="patch_48">
     <path d="M 1145.088 657.312 
L 1430.784 657.312 
L 1430.784 609.312 
L 1145.088 609.312 
z
" style="fill:#ffffff;stroke:#000000;stroke-linejoin:miter;"/>
    </g>
    <g id="text_46">
     <!-- 21.13% -->
     <g transform="translate(1310.70315 639.9345)scale(0.24 -0.24)">
      <use xlink:href="#DejaVuSans-50"/>
      <use x="63.623047" xlink:href="#DejaVuSans-49"/>
      <use x="127.246094" xlink:href="#DejaVuSans-46"/>
      <use x="159.033203" xlink:href="#DejaVuSans-49"/>
      <use x="222.65625" xlink:href="#DejaVuSans-51"/>
      <use x="286.279297" xlink:href="#DejaVuSans-37"/>
     </g>
    </g>
    <g id="patch_49">
     <path d="M 1430.784 657.312 
L 1716.48 657.312 
L 1716.48 609.312 
L 1430.784 609.312 
z
" style="fill:#ffffff;stroke:#000000;stroke-linejoin:miter;"/>
    </g>
    <g id="text_47">
     <!-- 21.10% -->
     <g transform="translate(1596.39915 639.9345)scale(0.24 -0.24)">
      <use xlink:href="#DejaVuSans-50"/>
      <use x="63.623047" xlink:href="#DejaVuSans-49"/>
      <use x="127.246094" xlink:href="#DejaVuSans-46"/>
      <use x="159.033203" xlink:href="#DejaVuSans-49"/>
      <use x="222.65625" xlink:href="#DejaVuSans-48"/>
      <use x="286.279297" xlink:href="#DejaVuSans-37"/>
     </g>
    </g>
    <g id="patch_50">
     <path d="M 7.2 705.312 
L 288 705.312 
L 288 657.312 
L 7.2 657.312 
z
" style="fill:#ffffff;stroke:#000000;stroke-linejoin:miter;"/>
    </g>
    <g id="text_48">
     <!-- $t_0$ [s] (A-AMS) -->
     <defs>
      <path d="M 42.28125 54.6875 
L 40.921875 47.703125 
L 23 47.703125 
L 17.1875 18.015625 
Q 16.890625 16.359375 16.75 15.234375 
Q 16.609375 14.109375 16.609375 13.484375 
Q 16.609375 10.359375 18.484375 8.9375 
Q 20.359375 7.515625 24.515625 7.515625 
L 33.59375 7.515625 
L 32.078125 0 
L 23.484375 0 
Q 15.484375 0 11.546875 3.125 
Q 7.625 6.25 7.625 12.59375 
Q 7.625 13.71875 7.765625 15.0625 
Q 7.90625 16.40625 8.203125 18.015625 
L 14.015625 47.703125 
L 6.390625 47.703125 
L 7.8125 54.6875 
L 15.28125 54.6875 
L 18.3125 70.21875 
L 27.296875 70.21875 
L 24.3125 54.6875 
z
" id="DejaVuSans-Oblique-116"/>
      <path d="M 8.59375 75.984375 
L 29.296875 75.984375 
L 29.296875 69 
L 17.578125 69 
L 17.578125 -6.203125 
L 29.296875 -6.203125 
L 29.296875 -13.1875 
L 8.59375 -13.1875 
z
" id="DejaVuSans-91"/>
      <path d="M 44.28125 53.078125 
L 44.28125 44.578125 
Q 40.484375 46.53125 36.375 47.5 
Q 32.28125 48.484375 27.875 48.484375 
Q 21.1875 48.484375 17.84375 46.4375 
Q 14.5 44.390625 14.5 40.28125 
Q 14.5 37.15625 16.890625 35.375 
Q 19.28125 33.59375 26.515625 31.984375 
L 29.59375 31.296875 
Q 39.15625 29.25 43.1875 25.515625 
Q 47.21875 21.78125 47.21875 15.09375 
Q 47.21875 7.46875 41.1875 3.015625 
Q 35.15625 -1.421875 24.609375 -1.421875 
Q 20.21875 -1.421875 15.453125 -0.5625 
Q 10.6875 0.296875 5.421875 2 
L 5.421875 11.28125 
Q 10.40625 8.6875 15.234375 7.390625 
Q 20.0625 6.109375 24.8125 6.109375 
Q 31.15625 6.109375 34.5625 8.28125 
Q 37.984375 10.453125 37.984375 14.40625 
Q 37.984375 18.0625 35.515625 20.015625 
Q 33.0625 21.96875 24.703125 23.78125 
L 21.578125 24.515625 
Q 13.234375 26.265625 9.515625 29.90625 
Q 5.8125 33.546875 5.8125 39.890625 
Q 5.8125 47.609375 11.28125 51.796875 
Q 16.75 56 26.8125 56 
Q 31.78125 56 36.171875 55.265625 
Q 40.578125 54.546875 44.28125 53.078125 
z
" id="DejaVuSans-115"/>
      <path d="M 30.421875 75.984375 
L 30.421875 -13.1875 
L 9.71875 -13.1875 
L 9.71875 -6.203125 
L 21.390625 -6.203125 
L 21.390625 69 
L 9.71875 69 
L 9.71875 75.984375 
z
" id="DejaVuSans-93"/>
      <path d="M 31 75.875 
Q 24.46875 64.65625 21.28125 53.65625 
Q 18.109375 42.671875 18.109375 31.390625 
Q 18.109375 20.125 21.3125 9.0625 
Q 24.515625 -2 31 -13.1875 
L 23.1875 -13.1875 
Q 15.875 -1.703125 12.234375 9.375 
Q 8.59375 20.453125 8.59375 31.390625 
Q 8.59375 42.28125 12.203125 53.3125 
Q 15.828125 64.359375 23.1875 75.875 
z
" id="DejaVuSans-40"/>
      <path d="M 34.1875 63.1875 
L 20.796875 26.90625 
L 47.609375 26.90625 
z
M 28.609375 72.90625 
L 39.796875 72.90625 
L 67.578125 0 
L 57.328125 0 
L 50.6875 18.703125 
L 17.828125 18.703125 
L 11.1875 0 
L 0.78125 0 
z
" id="DejaVuSans-65"/>
      <path d="M 4.890625 31.390625 
L 31.203125 31.390625 
L 31.203125 23.390625 
L 4.890625 23.390625 
z
" id="DejaVuSans-45"/>
      <path d="M 9.8125 72.90625 
L 24.515625 72.90625 
L 43.109375 23.296875 
L 61.8125 72.90625 
L 76.515625 72.90625 
L 76.515625 0 
L 66.890625 0 
L 66.890625 64.015625 
L 48.09375 14.015625 
L 38.1875 14.015625 
L 19.390625 64.015625 
L 19.390625 0 
L 9.8125 0 
z
" id="DejaVuSans-77"/>
      <path d="M 53.515625 70.515625 
L 53.515625 60.890625 
Q 47.90625 63.578125 42.921875 64.890625 
Q 37.9375 66.21875 33.296875 66.21875 
Q 25.25 66.21875 20.875 63.09375 
Q 16.5 59.96875 16.5 54.203125 
Q 16.5 49.359375 19.40625 46.890625 
Q 22.3125 44.4375 30.421875 42.921875 
L 36.375 41.703125 
Q 47.40625 39.59375 52.65625 34.296875 
Q 57.90625 29 57.90625 20.125 
Q 57.90625 9.515625 50.796875 4.046875 
Q 43.703125 -1.421875 29.984375 -1.421875 
Q 24.8125 -1.421875 18.96875 -0.25 
Q 13.140625 0.921875 6.890625 3.21875 
L 6.890625 13.375 
Q 12.890625 10.015625 18.65625 8.296875 
Q 24.421875 6.59375 29.984375 6.59375 
Q 38.421875 6.59375 43.015625 9.90625 
Q 47.609375 13.234375 47.609375 19.390625 
Q 47.609375 24.75 44.3125 27.78125 
Q 41.015625 30.8125 33.5 32.328125 
L 27.484375 33.5 
Q 16.453125 35.6875 11.515625 40.375 
Q 6.59375 45.0625 6.59375 53.421875 
Q 6.59375 63.09375 13.40625 68.65625 
Q 20.21875 74.21875 32.171875 74.21875 
Q 37.3125 74.21875 42.625 73.28125 
Q 47.953125 72.359375 53.515625 70.515625 
z
" id="DejaVuSans-83"/>
      <path d="M 8.015625 75.875 
L 15.828125 75.875 
Q 23.140625 64.359375 26.78125 53.3125 
Q 30.421875 42.28125 30.421875 31.390625 
Q 30.421875 20.453125 26.78125 9.375 
Q 23.140625 -1.703125 15.828125 -13.1875 
L 8.015625 -13.1875 
Q 14.5 -2 17.703125 9.0625 
Q 20.90625 20.125 20.90625 31.390625 
Q 20.90625 42.671875 17.703125 53.65625 
Q 14.5 64.65625 8.015625 75.875 
z
" id="DejaVuSans-41"/>
     </defs>
     <g transform="translate(35.28 687.9345)scale(0.24 -0.24)">
      <use transform="translate(0 0.015625)" xlink:href="#DejaVuSans-Oblique-116"/>
      <use transform="translate(39.208984 -16.390625)scale(0.7)" xlink:href="#DejaVuSans-48"/>
      <use transform="translate(86.479492 0.015625)" xlink:href="#DejaVuSans-32"/>
      <use transform="translate(118.266602 0.015625)" xlink:href="#DejaVuSans-91"/>
      <use transform="translate(157.280273 0.015625)" xlink:href="#DejaVuSans-115"/>
      <use transform="translate(209.379883 0.015625)" xlink:href="#DejaVuSans-93"/>
      <use transform="translate(248.393555 0.015625)" xlink:href="#DejaVuSans-32"/>
      <use transform="translate(280.180664 0.015625)" xlink:href="#DejaVuSans-40"/>
      <use transform="translate(319.194336 0.015625)" xlink:href="#DejaVuSans-65"/>
      <use transform="translate(387.602539 0.015625)" xlink:href="#DejaVuSans-45"/>
      <use transform="translate(423.686523 0.015625)" xlink:href="#DejaVuSans-65"/>
      <use transform="translate(492.094727 0.015625)" xlink:href="#DejaVuSans-77"/>
      <use transform="translate(578.374023 0.015625)" xlink:href="#DejaVuSans-83"/>
      <use transform="translate(641.850586 0.015625)" xlink:href="#DejaVuSans-41"/>
     </g>
    </g>
    <g id="patch_51">
     <path d="M 288 705.312 
L 573.696 705.312 
L 573.696 657.312 
L 288 657.312 
z
" style="fill:#ffffff;stroke:#000000;stroke-linejoin:miter;"/>
    </g>
    <g id="text_49">
     <!-- 0.465 -->
     <g transform="translate(476.4189 687.9345)scale(0.24 -0.24)">
      <use xlink:href="#DejaVuSans-48"/>
      <use x="63.623047" xlink:href="#DejaVuSans-46"/>
      <use x="95.410156" xlink:href="#DejaVuSans-52"/>
      <use x="159.033203" xlink:href="#DejaVuSans-54"/>
      <use x="222.65625" xlink:href="#DejaVuSans-53"/>
     </g>
    </g>
    <g id="patch_52">
     <path d="M 573.696 705.312 
L 859.392 705.312 
L 859.392 657.312 
L 573.696 657.312 
z
" style="fill:#ffffff;stroke:#000000;stroke-linejoin:miter;"/>
    </g>
    <g id="text_50">
     <!-- 0.849 -->
     <g transform="translate(762.1149 687.9345)scale(0.24 -0.24)">
      <use xlink:href="#DejaVuSans-48"/>
      <use x="63.623047" xlink:href="#DejaVuSans-46"/>
      <use x="95.410156" xlink:href="#DejaVuSans-56"/>
      <use x="159.033203" xlink:href="#DejaVuSans-52"/>
      <use x="222.65625" xlink:href="#DejaVuSans-57"/>
     </g>
    </g>
    <g id="patch_53">
     <path d="M 859.392 705.312 
L 1145.088 705.312 
L 1145.088 657.312 
L 859.392 657.312 
z
" style="fill:#ffffff;stroke:#000000;stroke-linejoin:miter;"/>
    </g>
    <g id="text_51">
     <!-- 1.687 -->
     <g transform="translate(1047.8109 687.9345)scale(0.24 -0.24)">
      <use xlink:href="#DejaVuSans-49"/>
      <use x="63.623047" xlink:href="#DejaVuSans-46"/>
      <use x="95.410156" xlink:href="#DejaVuSans-54"/>
      <use x="159.033203" xlink:href="#DejaVuSans-56"/>
      <use x="222.65625" xlink:href="#DejaVuSans-55"/>
     </g>
    </g>
    <g id="patch_54">
     <path d="M 1145.088 705.312 
L 1430.784 705.312 
L 1430.784 657.312 
L 1145.088 657.312 
z
" style="fill:#ffffff;stroke:#000000;stroke-linejoin:miter;"/>
    </g>
    <g id="text_52">
     <!-- 3.570 -->
     <g transform="translate(1333.5069 687.9345)scale(0.24 -0.24)">
      <use xlink:href="#DejaVuSans-51"/>
      <use x="63.623047" xlink:href="#DejaVuSans-46"/>
      <use x="95.410156" xlink:href="#DejaVuSans-53"/>
      <use x="159.033203" xlink:href="#DejaVuSans-55"/>
      <use x="222.65625" xlink:href="#DejaVuSans-48"/>
     </g>
    </g>
    <g id="patch_55">
     <path d="M 1430.784 705.312 
L 1716.48 705.312 
L 1716.48 657.312 
L 1430.784 657.312 
z
" style="fill:#ffffff;stroke:#000000;stroke-linejoin:miter;"/>
    </g>
    <g id="text_53">
     <!-- 7.006 -->
     <g transform="translate(1619.2029 687.9345)scale(0.24 -0.24)">
      <use xlink:href="#DejaVuSans-55"/>
      <use x="63.623047" xlink:href="#DejaVuSans-46"/>
      <use x="95.410156" xlink:href="#DejaVuSans-48"/>
      <use x="159.033203" xlink:href="#DejaVuSans-48"/>
      <use x="222.65625" xlink:href="#DejaVuSans-54"/>
     </g>
    </g>
    <g id="patch_56">
     <path d="M 7.2 753.312 
L 288 753.312 
L 288 705.312 
L 7.2 705.312 
z
" style="fill:#ffffff;stroke:#000000;stroke-linejoin:miter;"/>
    </g>
    <g id="text_54">
     <!-- 1.1 -->
     <g transform="translate(35.28 735.9345)scale(0.24 -0.24)">
      <use xlink:href="#DejaVuSans-49"/>
      <use x="63.623047" xlink:href="#DejaVuSans-46"/>
      <use x="95.410156" xlink:href="#DejaVuSans-49"/>
     </g>
    </g>
    <g id="patch_57">
     <path d="M 288 753.312 
L 573.696 753.312 
L 573.696 705.312 
L 288 705.312 
z
" style="fill:#ffffff;stroke:#000000;stroke-linejoin:miter;"/>
    </g>
    <g id="text_55">
     <!-- 5.420% -->
     <g transform="translate(453.61515 735.9345)scale(0.24 -0.24)">
      <use xlink:href="#DejaVuSans-53"/>
      <use x="63.623047" xlink:href="#DejaVuSans-46"/>
      <use x="95.410156" xlink:href="#DejaVuSans-52"/>
      <use x="159.033203" xlink:href="#DejaVuSans-50"/>
      <use x="222.65625" xlink:href="#DejaVuSans-48"/>
      <use x="286.279297" xlink:href="#DejaVuSans-37"/>
     </g>
    </g>
    <g id="patch_58">
     <path d="M 573.696 753.312 
L 859.392 753.312 
L 859.392 705.312 
L 573.696 705.312 
z
" style="fill:#ffffff;stroke:#000000;stroke-linejoin:miter;"/>
    </g>
    <g id="text_56">
     <!-- 4.413% -->
     <g transform="translate(739.31115 735.9345)scale(0.24 -0.24)">
      <use xlink:href="#DejaVuSans-52"/>
      <use x="63.623047" xlink:href="#DejaVuSans-46"/>
      <use x="95.410156" xlink:href="#DejaVuSans-52"/>
      <use x="159.033203" xlink:href="#DejaVuSans-49"/>
      <use x="222.65625" xlink:href="#DejaVuSans-51"/>
      <use x="286.279297" xlink:href="#DejaVuSans-37"/>
     </g>
    </g>
    <g id="patch_59">
     <path d="M 859.392 753.312 
L 1145.088 753.312 
L 1145.088 705.312 
L 859.392 705.312 
z
" style="fill:#ffffff;stroke:#000000;stroke-linejoin:miter;"/>
    </g>
    <g id="text_57">
     <!-- 3.379% -->
     <g transform="translate(1025.00715 735.9345)scale(0.24 -0.24)">
      <use xlink:href="#DejaVuSans-51"/>
      <use x="63.623047" xlink:href="#DejaVuSans-46"/>
      <use x="95.410156" xlink:href="#DejaVuSans-51"/>
      <use x="159.033203" xlink:href="#DejaVuSans-55"/>
      <use x="222.65625" xlink:href="#DejaVuSans-57"/>
      <use x="286.279297" xlink:href="#DejaVuSans-37"/>
     </g>
    </g>
    <g id="patch_60">
     <path d="M 1145.088 753.312 
L 1430.784 753.312 
L 1430.784 705.312 
L 1145.088 705.312 
z
" style="fill:#ffffff;stroke:#000000;stroke-linejoin:miter;"/>
    </g>
    <g id="text_58">
     <!-- 2.193% -->
     <g transform="translate(1310.70315 735.9345)scale(0.24 -0.24)">
      <use xlink:href="#DejaVuSans-50"/>
      <use x="63.623047" xlink:href="#DejaVuSans-46"/>
      <use x="95.410156" xlink:href="#DejaVuSans-49"/>
      <use x="159.033203" xlink:href="#DejaVuSans-57"/>
      <use x="222.65625" xlink:href="#DejaVuSans-51"/>
      <use x="286.279297" xlink:href="#DejaVuSans-37"/>
     </g>
    </g>
    <g id="patch_61">
     <path d="M 1430.784 753.312 
L 1716.48 753.312 
L 1716.48 705.312 
L 1430.784 705.312 
z
" style="fill:#ffffff;stroke:#000000;stroke-linejoin:miter;"/>
    </g>
    <g id="text_59">
     <!-- 2.223% -->
     <g transform="translate(1596.39915 735.9345)scale(0.24 -0.24)">
      <use xlink:href="#DejaVuSans-50"/>
      <use x="63.623047" xlink:href="#DejaVuSans-46"/>
      <use x="95.410156" xlink:href="#DejaVuSans-50"/>
      <use x="159.033203" xlink:href="#DejaVuSans-50"/>
      <use x="222.65625" xlink:href="#DejaVuSans-51"/>
      <use x="286.279297" xlink:href="#DejaVuSans-37"/>
     </g>
    </g>
    <g id="patch_62">
     <path d="M 7.2 801.312 
L 288 801.312 
L 288 753.312 
L 7.2 753.312 
z
" style="fill:#ffffff;stroke:#000000;stroke-linejoin:miter;"/>
    </g>
    <g id="text_60">
     <!-- 1.2  -->
     <g transform="translate(35.28 783.9345)scale(0.24 -0.24)">
      <use xlink:href="#DejaVuSans-49"/>
      <use x="63.623047" xlink:href="#DejaVuSans-46"/>
      <use x="95.410156" xlink:href="#DejaVuSans-50"/>
      <use x="159.033203" xlink:href="#DejaVuSans-32"/>
     </g>
    </g>
    <g id="patch_63">
     <path d="M 288 801.312 
L 573.696 801.312 
L 573.696 753.312 
L 288 753.312 
z
" style="fill:#ffffff;stroke:#000000;stroke-linejoin:miter;"/>
    </g>
    <g id="text_61">
     <!-- 1.284% -->
     <g transform="translate(453.61515 783.9345)scale(0.24 -0.24)">
      <use xlink:href="#DejaVuSans-49"/>
      <use x="63.623047" xlink:href="#DejaVuSans-46"/>
      <use x="95.410156" xlink:href="#DejaVuSans-50"/>
      <use x="159.033203" xlink:href="#DejaVuSans-56"/>
      <use x="222.65625" xlink:href="#DejaVuSans-52"/>
      <use x="286.279297" xlink:href="#DejaVuSans-37"/>
     </g>
    </g>
    <g id="patch_64">
     <path d="M 573.696 801.312 
L 859.392 801.312 
L 859.392 753.312 
L 573.696 753.312 
z
" style="fill:#ffffff;stroke:#000000;stroke-linejoin:miter;"/>
    </g>
    <g id="text_62">
     <!-- 0.787% -->
     <g transform="translate(739.31115 783.9345)scale(0.24 -0.24)">
      <use xlink:href="#DejaVuSans-48"/>
      <use x="63.623047" xlink:href="#DejaVuSans-46"/>
      <use x="95.410156" xlink:href="#DejaVuSans-55"/>
      <use x="159.033203" xlink:href="#DejaVuSans-56"/>
      <use x="222.65625" xlink:href="#DejaVuSans-55"/>
      <use x="286.279297" xlink:href="#DejaVuSans-37"/>
     </g>
    </g>
    <g id="patch_65">
     <path d="M 859.392 801.312 
L 1145.088 801.312 
L 1145.088 753.312 
L 859.392 753.312 
z
" style="fill:#ffffff;stroke:#000000;stroke-linejoin:miter;"/>
    </g>
    <g id="text_63">
     <!-- 0.548% -->
     <g transform="translate(1025.00715 783.9345)scale(0.24 -0.24)">
      <use xlink:href="#DejaVuSans-48"/>
      <use x="63.623047" xlink:href="#DejaVuSans-46"/>
      <use x="95.410156" xlink:href="#DejaVuSans-53"/>
      <use x="159.033203" xlink:href="#DejaVuSans-52"/>
      <use x="222.65625" xlink:href="#DejaVuSans-56"/>
      <use x="286.279297" xlink:href="#DejaVuSans-37"/>
     </g>
    </g>
    <g id="patch_66">
     <path d="M 1145.088 801.312 
L 1430.784 801.312 
L 1430.784 753.312 
L 1145.088 753.312 
z
" style="fill:#ffffff;stroke:#000000;stroke-linejoin:miter;"/>
    </g>
    <g id="text_64">
     <!-- 0.308% -->
     <g transform="translate(1310.70315 783.9345)scale(0.24 -0.24)">
      <use xlink:href="#DejaVuSans-48"/>
      <use x="63.623047" xlink:href="#DejaVuSans-46"/>
      <use x="95.410156" xlink:href="#DejaVuSans-51"/>
      <use x="159.033203" xlink:href="#DejaVuSans-48"/>
      <use x="222.65625" xlink:href="#DejaVuSans-56"/>
      <use x="286.279297" xlink:href="#DejaVuSans-37"/>
     </g>
    </g>
    <g id="patch_67">
     <path d="M 1430.784 801.312 
L 1716.48 801.312 
L 1716.48 753.312 
L 1430.784 753.312 
z
" style="fill:#ffffff;stroke:#000000;stroke-linejoin:miter;"/>
    </g>
    <g id="text_65">
     <!-- 0.274% -->
     <g transform="translate(1596.39915 783.9345)scale(0.24 -0.24)">
      <use xlink:href="#DejaVuSans-48"/>
      <use x="63.623047" xlink:href="#DejaVuSans-46"/>
      <use x="95.410156" xlink:href="#DejaVuSans-50"/>
      <use x="159.033203" xlink:href="#DejaVuSans-55"/>
      <use x="222.65625" xlink:href="#DejaVuSans-52"/>
      <use x="286.279297" xlink:href="#DejaVuSans-37"/>
     </g>
    </g>
    <g id="patch_68">
     <path d="M 7.2 849.312 
L 288 849.312 
L 288 801.312 
L 7.2 801.312 
z
" style="fill:#ffffff;stroke:#000000;stroke-linejoin:miter;"/>
    </g>
    <g id="text_66">
     <!-- 1.3 -->
     <g transform="translate(35.28 831.9345)scale(0.24 -0.24)">
      <use xlink:href="#DejaVuSans-49"/>
      <use x="63.623047" xlink:href="#DejaVuSans-46"/>
      <use x="95.410156" xlink:href="#DejaVuSans-51"/>
     </g>
    </g>
    <g id="patch_69">
     <path d="M 288 849.312 
L 573.696 849.312 
L 573.696 801.312 
L 288 801.312 
z
" style="fill:#ffffff;stroke:#000000;stroke-linejoin:miter;"/>
    </g>
    <g id="text_67">
     <!-- 7.013% -->
     <g transform="translate(453.61515 831.9345)scale(0.24 -0.24)">
      <use xlink:href="#DejaVuSans-55"/>
      <use x="63.623047" xlink:href="#DejaVuSans-46"/>
      <use x="95.410156" xlink:href="#DejaVuSans-48"/>
      <use x="159.033203" xlink:href="#DejaVuSans-49"/>
      <use x="222.65625" xlink:href="#DejaVuSans-51"/>
      <use x="286.279297" xlink:href="#DejaVuSans-37"/>
     </g>
    </g>
    <g id="patch_70">
     <path d="M 573.696 849.312 
L 859.392 849.312 
L 859.392 801.312 
L 573.696 801.312 
z
" style="fill:#ffffff;stroke:#000000;stroke-linejoin:miter;"/>
    </g>
    <g id="text_68">
     <!-- 4.443% -->
     <g transform="translate(739.31115 831.9345)scale(0.24 -0.24)">
      <use xlink:href="#DejaVuSans-52"/>
      <use x="63.623047" xlink:href="#DejaVuSans-46"/>
      <use x="95.410156" xlink:href="#DejaVuSans-52"/>
      <use x="159.033203" xlink:href="#DejaVuSans-52"/>
      <use x="222.65625" xlink:href="#DejaVuSans-51"/>
      <use x="286.279297" xlink:href="#DejaVuSans-37"/>
     </g>
    </g>
    <g id="patch_71">
     <path d="M 859.392 849.312 
L 1145.088 849.312 
L 1145.088 801.312 
L 859.392 801.312 
z
" style="fill:#ffffff;stroke:#000000;stroke-linejoin:miter;"/>
    </g>
    <g id="text_69">
     <!-- 3.278% -->
     <g transform="translate(1025.00715 831.9345)scale(0.24 -0.24)">
      <use xlink:href="#DejaVuSans-51"/>
      <use x="63.623047" xlink:href="#DejaVuSans-46"/>
      <use x="95.410156" xlink:href="#DejaVuSans-50"/>
      <use x="159.033203" xlink:href="#DejaVuSans-55"/>
      <use x="222.65625" xlink:href="#DejaVuSans-56"/>
      <use x="286.279297" xlink:href="#DejaVuSans-37"/>
     </g>
    </g>
    <g id="patch_72">
     <path d="M 1145.088 849.312 
L 1430.784 849.312 
L 1430.784 801.312 
L 1145.088 801.312 
z
" style="fill:#ffffff;stroke:#000000;stroke-linejoin:miter;"/>
    </g>
    <g id="text_70">
     <!-- 2.006% -->
     <g transform="translate(1310.70315 831.9345)scale(0.24 -0.24)">
      <use xlink:href="#DejaVuSans-50"/>
      <use x="63.623047" xlink:href="#DejaVuSans-46"/>
      <use x="95.410156" xlink:href="#DejaVuSans-48"/>
      <use x="159.033203" xlink:href="#DejaVuSans-48"/>
      <use x="222.65625" xlink:href="#DejaVuSans-54"/>
      <use x="286.279297" xlink:href="#DejaVuSans-37"/>
     </g>
    </g>
    <g id="patch_73">
     <path d="M 1430.784 849.312 
L 1716.48 849.312 
L 1716.48 801.312 
L 1430.784 801.312 
z
" style="fill:#ffffff;stroke:#000000;stroke-linejoin:miter;"/>
    </g>
    <g id="text_71">
     <!-- 1.842% -->
     <g transform="translate(1596.39915 831.9345)scale(0.24 -0.24)">
      <use xlink:href="#DejaVuSans-49"/>
      <use x="63.623047" xlink:href="#DejaVuSans-46"/>
      <use x="95.410156" xlink:href="#DejaVuSans-56"/>
      <use x="159.033203" xlink:href="#DejaVuSans-52"/>
      <use x="222.65625" xlink:href="#DejaVuSans-50"/>
      <use x="286.279297" xlink:href="#DejaVuSans-37"/>
     </g>
    </g>
    <g id="patch_74">
     <path d="M 7.2 897.312 
L 288 897.312 
L 288 849.312 
L 7.2 849.312 
z
" style="fill:#ffffff;stroke:#000000;stroke-linejoin:miter;"/>
    </g>
    <g id="text_72">
     <!-- 1.4 -->
     <g transform="translate(35.28 879.9345)scale(0.24 -0.24)">
      <use xlink:href="#DejaVuSans-49"/>
      <use x="63.623047" xlink:href="#DejaVuSans-46"/>
      <use x="95.410156" xlink:href="#DejaVuSans-52"/>
     </g>
    </g>
    <g id="patch_75">
     <path d="M 288 897.312 
L 573.696 897.312 
L 573.696 849.312 
L 288 849.312 
z
" style="fill:#ffffff;stroke:#000000;stroke-linejoin:miter;"/>
    </g>
    <g id="text_73">
     <!-- 1.279% -->
     <g transform="translate(453.61515 879.9345)scale(0.24 -0.24)">
      <use xlink:href="#DejaVuSans-49"/>
      <use x="63.623047" xlink:href="#DejaVuSans-46"/>
      <use x="95.410156" xlink:href="#DejaVuSans-50"/>
      <use x="159.033203" xlink:href="#DejaVuSans-55"/>
      <use x="222.65625" xlink:href="#DejaVuSans-57"/>
      <use x="286.279297" xlink:href="#DejaVuSans-37"/>
     </g>
    </g>
    <g id="patch_76">
     <path d="M 573.696 897.312 
L 859.392 897.312 
L 859.392 849.312 
L 573.696 849.312 
z
" style="fill:#ffffff;stroke:#000000;stroke-linejoin:miter;"/>
    </g>
    <g id="text_74">
     <!-- 0.994% -->
     <g transform="translate(739.31115 879.9345)scale(0.24 -0.24)">
      <use xlink:href="#DejaVuSans-48"/>
      <use x="63.623047" xlink:href="#DejaVuSans-46"/>
      <use x="95.410156" xlink:href="#DejaVuSans-57"/>
      <use x="159.033203" xlink:href="#DejaVuSans-57"/>
      <use x="222.65625" xlink:href="#DejaVuSans-52"/>
      <use x="286.279297" xlink:href="#DejaVuSans-37"/>
     </g>
    </g>
    <g id="patch_77">
     <path d="M 859.392 897.312 
L 1145.088 897.312 
L 1145.088 849.312 
L 859.392 849.312 
z
" style="fill:#ffffff;stroke:#000000;stroke-linejoin:miter;"/>
    </g>
    <g id="text_75">
     <!-- 0.798% -->
     <g transform="translate(1025.00715 879.9345)scale(0.24 -0.24)">
      <use xlink:href="#DejaVuSans-48"/>
      <use x="63.623047" xlink:href="#DejaVuSans-46"/>
      <use x="95.410156" xlink:href="#DejaVuSans-55"/>
      <use x="159.033203" xlink:href="#DejaVuSans-57"/>
      <use x="222.65625" xlink:href="#DejaVuSans-56"/>
      <use x="286.279297" xlink:href="#DejaVuSans-37"/>
     </g>
    </g>
    <g id="patch_78">
     <path d="M 1145.088 897.312 
L 1430.784 897.312 
L 1430.784 849.312 
L 1145.088 849.312 
z
" style="fill:#ffffff;stroke:#000000;stroke-linejoin:miter;"/>
    </g>
    <g id="text_76">
     <!-- 0.591% -->
     <g transform="translate(1310.70315 879.9345)scale(0.24 -0.24)">
      <use xlink:href="#DejaVuSans-48"/>
      <use x="63.623047" xlink:href="#DejaVuSans-46"/>
      <use x="95.410156" xlink:href="#DejaVuSans-53"/>
      <use x="159.033203" xlink:href="#DejaVuSans-57"/>
      <use x="222.65625" xlink:href="#DejaVuSans-49"/>
      <use x="286.279297" xlink:href="#DejaVuSans-37"/>
     </g>
    </g>
    <g id="patch_79">
     <path d="M 1430.784 897.312 
L 1716.48 897.312 
L 1716.48 849.312 
L 1430.784 849.312 
z
" style="fill:#ffffff;stroke:#000000;stroke-linejoin:miter;"/>
    </g>
    <g id="text_77">
     <!-- 0.603% -->
     <g transform="translate(1596.39915 879.9345)scale(0.24 -0.24)">
      <use xlink:href="#DejaVuSans-48"/>
      <use x="63.623047" xlink:href="#DejaVuSans-46"/>
      <use x="95.410156" xlink:href="#DejaVuSans-54"/>
      <use x="159.033203" xlink:href="#DejaVuSans-48"/>
      <use x="222.65625" xlink:href="#DejaVuSans-51"/>
      <use x="286.279297" xlink:href="#DejaVuSans-37"/>
     </g>
    </g>
    <g id="patch_80">
     <path d="M 7.2 945.312 
L 288 945.312 
L 288 897.312 
L 7.2 897.312 
z
" style="fill:#ffffff;stroke:#000000;stroke-linejoin:miter;"/>
    </g>
    <g id="text_78">
     <!-- 1.5 -->
     <g transform="translate(35.28 927.9345)scale(0.24 -0.24)">
      <use xlink:href="#DejaVuSans-49"/>
      <use x="63.623047" xlink:href="#DejaVuSans-46"/>
      <use x="95.410156" xlink:href="#DejaVuSans-53"/>
     </g>
    </g>
    <g id="patch_81">
     <path d="M 288 945.312 
L 573.696 945.312 
L 573.696 897.312 
L 288 897.312 
z
" style="fill:#ffffff;stroke:#000000;stroke-linejoin:miter;"/>
    </g>
    <g id="text_79">
     <!-- 69.56% -->
     <g transform="translate(453.61515 927.9345)scale(0.24 -0.24)">
      <use xlink:href="#DejaVuSans-54"/>
      <use x="63.623047" xlink:href="#DejaVuSans-57"/>
      <use x="127.246094" xlink:href="#DejaVuSans-46"/>
      <use x="159.033203" xlink:href="#DejaVuSans-53"/>
      <use x="222.65625" xlink:href="#DejaVuSans-54"/>
      <use x="286.279297" xlink:href="#DejaVuSans-37"/>
     </g>
    </g>
    <g id="patch_82">
     <path d="M 573.696 945.312 
L 859.392 945.312 
L 859.392 897.312 
L 573.696 897.312 
z
" style="fill:#ffffff;stroke:#000000;stroke-linejoin:miter;"/>
    </g>
    <g id="text_80">
     <!-- 77.42% -->
     <g transform="translate(739.31115 927.9345)scale(0.24 -0.24)">
      <use xlink:href="#DejaVuSans-55"/>
      <use x="63.623047" xlink:href="#DejaVuSans-55"/>
      <use x="127.246094" xlink:href="#DejaVuSans-46"/>
      <use x="159.033203" xlink:href="#DejaVuSans-52"/>
      <use x="222.65625" xlink:href="#DejaVuSans-50"/>
      <use x="286.279297" xlink:href="#DejaVuSans-37"/>
     </g>
    </g>
    <g id="patch_83">
     <path d="M 859.392 945.312 
L 1145.088 945.312 
L 1145.088 897.312 
L 859.392 897.312 
z
" style="fill:#ffffff;stroke:#000000;stroke-linejoin:miter;"/>
    </g>
    <g id="text_81">
     <!-- 80.23% -->
     <g transform="translate(1025.00715 927.9345)scale(0.24 -0.24)">
      <use xlink:href="#DejaVuSans-56"/>
      <use x="63.623047" xlink:href="#DejaVuSans-48"/>
      <use x="127.246094" xlink:href="#DejaVuSans-46"/>
      <use x="159.033203" xlink:href="#DejaVuSans-50"/>
      <use x="222.65625" xlink:href="#DejaVuSans-51"/>
      <use x="286.279297" xlink:href="#DejaVuSans-37"/>
     </g>
    </g>
    <g id="patch_84">
     <path d="M 1145.088 945.312 
L 1430.784 945.312 
L 1430.784 897.312 
L 1145.088 897.312 
z
" style="fill:#ffffff;stroke:#000000;stroke-linejoin:miter;"/>
    </g>
    <g id="text_82">
     <!-- 84.75% -->
     <g transform="translate(1310.70315 927.9345)scale(0.24 -0.24)">
      <use xlink:href="#DejaVuSans-56"/>
      <use x="63.623047" xlink:href="#DejaVuSans-52"/>
      <use x="127.246094" xlink:href="#DejaVuSans-46"/>
      <use x="159.033203" xlink:href="#DejaVuSans-55"/>
      <use x="222.65625" xlink:href="#DejaVuSans-53"/>
      <use x="286.279297" xlink:href="#DejaVuSans-37"/>
     </g>
    </g>
    <g id="patch_85">
     <path d="M 1430.784 945.312 
L 1716.48 945.312 
L 1716.48 897.312 
L 1430.784 897.312 
z
" style="fill:#ffffff;stroke:#000000;stroke-linejoin:miter;"/>
    </g>
    <g id="text_83">
     <!-- 85.12% -->
     <g transform="translate(1596.39915 927.9345)scale(0.24 -0.24)">
      <use xlink:href="#DejaVuSans-56"/>
      <use x="63.623047" xlink:href="#DejaVuSans-53"/>
      <use x="127.246094" xlink:href="#DejaVuSans-46"/>
      <use x="159.033203" xlink:href="#DejaVuSans-49"/>
      <use x="222.65625" xlink:href="#DejaVuSans-50"/>
      <use x="286.279297" xlink:href="#DejaVuSans-37"/>
     </g>
    </g>
    <g id="patch_86">
     <path d="M 7.2 993.312 
L 288 993.312 
L 288 945.312 
L 7.2 945.312 
z
" style="fill:#ffffff;stroke:#000000;stroke-linejoin:miter;"/>
    </g>
    <g id="text_84">
     <!-- 1.6 -->
     <g transform="translate(35.28 975.9345)scale(0.24 -0.24)">
      <use xlink:href="#DejaVuSans-49"/>
      <use x="63.623047" xlink:href="#DejaVuSans-46"/>
      <use x="95.410156" xlink:href="#DejaVuSans-54"/>
     </g>
    </g>
    <g id="patch_87">
     <path d="M 288 993.312 
L 573.696 993.312 
L 573.696 945.312 
L 288 945.312 
z
" style="fill:#ffffff;stroke:#000000;stroke-linejoin:miter;"/>
    </g>
    <g id="text_85">
     <!-- 15.42% -->
     <g transform="translate(453.61515 975.9345)scale(0.24 -0.24)">
      <use xlink:href="#DejaVuSans-49"/>
      <use x="63.623047" xlink:href="#DejaVuSans-53"/>
      <use x="127.246094" xlink:href="#DejaVuSans-46"/>
      <use x="159.033203" xlink:href="#DejaVuSans-52"/>
      <use x="222.65625" xlink:href="#DejaVuSans-50"/>
      <use x="286.279297" xlink:href="#DejaVuSans-37"/>
     </g>
    </g>
    <g id="patch_88">
     <path d="M 573.696 993.312 
L 859.392 993.312 
L 859.392 945.312 
L 573.696 945.312 
z
" style="fill:#ffffff;stroke:#000000;stroke-linejoin:miter;"/>
    </g>
    <g id="text_86">
     <!-- 11.92% -->
     <g transform="translate(739.31115 975.9345)scale(0.24 -0.24)">
      <use xlink:href="#DejaVuSans-49"/>
      <use x="63.623047" xlink:href="#DejaVuSans-49"/>
      <use x="127.246094" xlink:href="#DejaVuSans-46"/>
      <use x="159.033203" xlink:href="#DejaVuSans-57"/>
      <use x="222.65625" xlink:href="#DejaVuSans-50"/>
      <use x="286.279297" xlink:href="#DejaVuSans-37"/>
     </g>
    </g>
    <g id="patch_89">
     <path d="M 859.392 993.312 
L 1145.088 993.312 
L 1145.088 945.312 
L 859.392 945.312 
z
" style="fill:#ffffff;stroke:#000000;stroke-linejoin:miter;"/>
    </g>
    <g id="text_87">
     <!-- 11.75% -->
     <g transform="translate(1025.00715 975.9345)scale(0.24 -0.24)">
      <use xlink:href="#DejaVuSans-49"/>
      <use x="63.623047" xlink:href="#DejaVuSans-49"/>
      <use x="127.246094" xlink:href="#DejaVuSans-46"/>
      <use x="159.033203" xlink:href="#DejaVuSans-55"/>
      <use x="222.65625" xlink:href="#DejaVuSans-53"/>
      <use x="286.279297" xlink:href="#DejaVuSans-37"/>
     </g>
    </g>
    <g id="patch_90">
     <path d="M 1145.088 993.312 
L 1430.784 993.312 
L 1430.784 945.312 
L 1145.088 945.312 
z
" style="fill:#ffffff;stroke:#000000;stroke-linejoin:miter;"/>
    </g>
    <g id="text_88">
     <!-- 10.13% -->
     <g transform="translate(1310.70315 975.9345)scale(0.24 -0.24)">
      <use xlink:href="#DejaVuSans-49"/>
      <use x="63.623047" xlink:href="#DejaVuSans-48"/>
      <use x="127.246094" xlink:href="#DejaVuSans-46"/>
      <use x="159.033203" xlink:href="#DejaVuSans-49"/>
      <use x="222.65625" xlink:href="#DejaVuSans-51"/>
      <use x="286.279297" xlink:href="#DejaVuSans-37"/>
     </g>
    </g>
    <g id="patch_91">
     <path d="M 1430.784 993.312 
L 1716.48 993.312 
L 1716.48 945.312 
L 1430.784 945.312 
z
" style="fill:#ffffff;stroke:#000000;stroke-linejoin:miter;"/>
    </g>
    <g id="text_89">
     <!-- 9.931% -->
     <g transform="translate(1596.39915 975.9345)scale(0.24 -0.24)">
      <use xlink:href="#DejaVuSans-57"/>
      <use x="63.623047" xlink:href="#DejaVuSans-46"/>
      <use x="95.410156" xlink:href="#DejaVuSans-57"/>
      <use x="159.033203" xlink:href="#DejaVuSans-51"/>
      <use x="222.65625" xlink:href="#DejaVuSans-49"/>
      <use x="286.279297" xlink:href="#DejaVuSans-37"/>
     </g>
    </g>
    <g id="patch_92">
     <path d="M 7.2 1041.312 
L 288 1041.312 
L 288 993.312 
L 7.2 993.312 
z
" style="fill:#ffffff;stroke:#000000;stroke-linejoin:miter;"/>
    </g>
    <g id="text_90">
     <!-- 1.7 -->
     <g transform="translate(35.28 1023.9345)scale(0.24 -0.24)">
      <use xlink:href="#DejaVuSans-49"/>
      <use x="63.623047" xlink:href="#DejaVuSans-46"/>
      <use x="95.410156" xlink:href="#DejaVuSans-55"/>
     </g>
    </g>
    <g id="patch_93">
     <path d="M 288 1041.312 
L 573.696 1041.312 
L 573.696 993.312 
L 288 993.312 
z
" style="fill:#ffffff;stroke:#000000;stroke-linejoin:miter;"/>
    </g>
    <g id="text_91">
     <!-- 0.009% -->
     <g transform="translate(453.61515 1023.9345)scale(0.24 -0.24)">
      <use xlink:href="#DejaVuSans-48"/>
      <use x="63.623047" xlink:href="#DejaVuSans-46"/>
      <use x="95.410156" xlink:href="#DejaVuSans-48"/>
      <use x="159.033203" xlink:href="#DejaVuSans-48"/>
      <use x="222.65625" xlink:href="#DejaVuSans-57"/>
      <use x="286.279297" xlink:href="#DejaVuSans-37"/>
     </g>
    </g>
    <g id="patch_94">
     <path d="M 573.696 1041.312 
L 859.392 1041.312 
L 859.392 993.312 
L 573.696 993.312 
z
" style="fill:#ffffff;stroke:#000000;stroke-linejoin:miter;"/>
    </g>
    <g id="text_92">
     <!-- 0.005% -->
     <g transform="translate(739.31115 1023.9345)scale(0.24 -0.24)">
      <use xlink:href="#DejaVuSans-48"/>
      <use x="63.623047" xlink:href="#DejaVuSans-46"/>
      <use x="95.410156" xlink:href="#DejaVuSans-48"/>
      <use x="159.033203" xlink:href="#DejaVuSans-48"/>
      <use x="222.65625" xlink:href="#DejaVuSans-53"/>
      <use x="286.279297" xlink:href="#DejaVuSans-37"/>
     </g>
    </g>
    <g id="patch_95">
     <path d="M 859.392 1041.312 
L 1145.088 1041.312 
L 1145.088 993.312 
L 859.392 993.312 
z
" style="fill:#ffffff;stroke:#000000;stroke-linejoin:miter;"/>
    </g>
    <g id="text_93">
     <!-- 0.003% -->
     <g transform="translate(1025.00715 1023.9345)scale(0.24 -0.24)">
      <use xlink:href="#DejaVuSans-48"/>
      <use x="63.623047" xlink:href="#DejaVuSans-46"/>
      <use x="95.410156" xlink:href="#DejaVuSans-48"/>
      <use x="159.033203" xlink:href="#DejaVuSans-48"/>
      <use x="222.65625" xlink:href="#DejaVuSans-51"/>
      <use x="286.279297" xlink:href="#DejaVuSans-37"/>
     </g>
    </g>
    <g id="patch_96">
     <path d="M 1145.088 1041.312 
L 1430.784 1041.312 
L 1430.784 993.312 
L 1145.088 993.312 
z
" style="fill:#ffffff;stroke:#000000;stroke-linejoin:miter;"/>
    </g>
    <g id="text_94">
     <!-- 0.002% -->
     <g transform="translate(1310.70315 1023.9345)scale(0.24 -0.24)">
      <use xlink:href="#DejaVuSans-48"/>
      <use x="63.623047" xlink:href="#DejaVuSans-46"/>
      <use x="95.410156" xlink:href="#DejaVuSans-48"/>
      <use x="159.033203" xlink:href="#DejaVuSans-48"/>
      <use x="222.65625" xlink:href="#DejaVuSans-50"/>
      <use x="286.279297" xlink:href="#DejaVuSans-37"/>
     </g>
    </g>
    <g id="patch_97">
     <path d="M 1430.784 1041.312 
L 1716.48 1041.312 
L 1716.48 993.312 
L 1430.784 993.312 
z
" style="fill:#ffffff;stroke:#000000;stroke-linejoin:miter;"/>
    </g>
    <g id="text_95">
     <!-- 0.001% -->
     <g transform="translate(1596.39915 1023.9345)scale(0.24 -0.24)">
      <use xlink:href="#DejaVuSans-48"/>
      <use x="63.623047" xlink:href="#DejaVuSans-46"/>
      <use x="95.410156" xlink:href="#DejaVuSans-48"/>
      <use x="159.033203" xlink:href="#DejaVuSans-48"/>
      <use x="222.65625" xlink:href="#DejaVuSans-49"/>
      <use x="286.279297" xlink:href="#DejaVuSans-37"/>
     </g>
    </g>
    <g id="patch_98">
     <path d="M 7.2 1089.312 
L 288 1089.312 
L 288 1041.312 
L 7.2 1041.312 
z
" style="fill:#ffffff;stroke:#000000;stroke-linejoin:miter;"/>
    </g>
    <g id="text_96">
     <!-- $t_1$ [s] (NU-ADM) -->
     <defs>
      <path d="M 9.8125 72.90625 
L 23.09375 72.90625 
L 55.421875 11.921875 
L 55.421875 72.90625 
L 64.984375 72.90625 
L 64.984375 0 
L 51.703125 0 
L 19.390625 60.984375 
L 19.390625 0 
L 9.8125 0 
z
" id="DejaVuSans-78"/>
      <path d="M 8.6875 72.90625 
L 18.609375 72.90625 
L 18.609375 28.609375 
Q 18.609375 16.890625 22.84375 11.734375 
Q 27.09375 6.59375 36.625 6.59375 
Q 46.09375 6.59375 50.34375 11.734375 
Q 54.59375 16.890625 54.59375 28.609375 
L 54.59375 72.90625 
L 64.5 72.90625 
L 64.5 27.390625 
Q 64.5 13.140625 57.4375 5.859375 
Q 50.390625 -1.421875 36.625 -1.421875 
Q 22.796875 -1.421875 15.734375 5.859375 
Q 8.6875 13.140625 8.6875 27.390625 
z
" id="DejaVuSans-85"/>
      <path d="M 19.671875 64.796875 
L 19.671875 8.109375 
L 31.59375 8.109375 
Q 46.6875 8.109375 53.6875 14.9375 
Q 60.6875 21.78125 60.6875 36.53125 
Q 60.6875 51.171875 53.6875 57.984375 
Q 46.6875 64.796875 31.59375 64.796875 
z
M 9.8125 72.90625 
L 30.078125 72.90625 
Q 51.265625 72.90625 61.171875 64.09375 
Q 71.09375 55.28125 71.09375 36.53125 
Q 71.09375 17.671875 61.125 8.828125 
Q 51.171875 0 30.078125 0 
L 9.8125 0 
z
" id="DejaVuSans-68"/>
     </defs>
     <g transform="translate(35.28 1071.9345)scale(0.24 -0.24)">
      <use transform="translate(0 0.015625)" xlink:href="#DejaVuSans-Oblique-116"/>
      <use transform="translate(39.208984 -16.390625)scale(0.7)" xlink:href="#DejaVuSans-49"/>
      <use transform="translate(86.479492 0.015625)" xlink:href="#DejaVuSans-32"/>
      <use transform="translate(118.266602 0.015625)" xlink:href="#DejaVuSans-91"/>
      <use transform="translate(157.280273 0.015625)" xlink:href="#DejaVuSans-115"/>
      <use transform="translate(209.379883 0.015625)" xlink:href="#DejaVuSans-93"/>
      <use transform="translate(248.393555 0.015625)" xlink:href="#DejaVuSans-32"/>
      <use transform="translate(280.180664 0.015625)" xlink:href="#DejaVuSans-40"/>
      <use transform="translate(319.194336 0.015625)" xlink:href="#DejaVuSans-78"/>
      <use transform="translate(393.999023 0.015625)" xlink:href="#DejaVuSans-85"/>
      <use transform="translate(467.192383 0.015625)" xlink:href="#DejaVuSans-45"/>
      <use transform="translate(503.276367 0.015625)" xlink:href="#DejaVuSans-65"/>
      <use transform="translate(571.68457 0.015625)" xlink:href="#DejaVuSans-68"/>
      <use transform="translate(648.686523 0.015625)" xlink:href="#DejaVuSans-77"/>
      <use transform="translate(734.96582 0.015625)" xlink:href="#DejaVuSans-41"/>
     </g>
    </g>
    <g id="patch_99">
     <path d="M 288 1089.312 
L 573.696 1089.312 
L 573.696 1041.312 
L 288 1041.312 
z
" style="fill:#ffffff;stroke:#000000;stroke-linejoin:miter;"/>
    </g>
    <g id="text_97">
     <!-- 28.91 -->
     <g transform="translate(476.4189 1071.9345)scale(0.24 -0.24)">
      <use xlink:href="#DejaVuSans-50"/>
      <use x="63.623047" xlink:href="#DejaVuSans-56"/>
      <use x="127.246094" xlink:href="#DejaVuSans-46"/>
      <use x="159.033203" xlink:href="#DejaVuSans-57"/>
      <use x="222.65625" xlink:href="#DejaVuSans-49"/>
     </g>
    </g>
    <g id="patch_100">
     <path d="M 573.696 1089.312 
L 859.392 1089.312 
L 859.392 1041.312 
L 573.696 1041.312 
z
" style="fill:#ffffff;stroke:#000000;stroke-linejoin:miter;"/>
    </g>
    <g id="text_98">
     <!-- 83.22 -->
     <g transform="translate(762.1149 1071.9345)scale(0.24 -0.24)">
      <use xlink:href="#DejaVuSans-56"/>
      <use x="63.623047" xlink:href="#DejaVuSans-51"/>
      <use x="127.246094" xlink:href="#DejaVuSans-46"/>
      <use x="159.033203" xlink:href="#DejaVuSans-50"/>
      <use x="222.65625" xlink:href="#DejaVuSans-50"/>
     </g>
    </g>
    <g id="patch_101">
     <path d="M 859.392 1089.312 
L 1145.088 1089.312 
L 1145.088 1041.312 
L 859.392 1041.312 
z
" style="fill:#ffffff;stroke:#000000;stroke-linejoin:miter;"/>
    </g>
    <g id="text_99">
     <!-- 248.4 -->
     <g transform="translate(1047.8109 1071.9345)scale(0.24 -0.24)">
      <use xlink:href="#DejaVuSans-50"/>
      <use x="63.623047" xlink:href="#DejaVuSans-52"/>
      <use x="127.246094" xlink:href="#DejaVuSans-56"/>
      <use x="190.869141" xlink:href="#DejaVuSans-46"/>
      <use x="222.65625" xlink:href="#DejaVuSans-52"/>
     </g>
    </g>
    <g id="patch_102">
     <path d="M 1145.088 1089.312 
L 1430.784 1089.312 
L 1430.784 1041.312 
L 1145.088 1041.312 
z
" style="fill:#ffffff;stroke:#000000;stroke-linejoin:miter;"/>
    </g>
    <g id="text_100">
     <!-- 753.6 -->
     <g transform="translate(1333.5069 1071.9345)scale(0.24 -0.24)">
      <use xlink:href="#DejaVuSans-55"/>
      <use x="63.623047" xlink:href="#DejaVuSans-53"/>
      <use x="127.246094" xlink:href="#DejaVuSans-51"/>
      <use x="190.869141" xlink:href="#DejaVuSans-46"/>
      <use x="222.65625" xlink:href="#DejaVuSans-54"/>
     </g>
    </g>
    <g id="patch_103">
     <path d="M 1430.784 1089.312 
L 1716.48 1089.312 
L 1716.48 1041.312 
L 1430.784 1041.312 
z
" style="fill:#ffffff;stroke:#000000;stroke-linejoin:miter;"/>
    </g>
    <g id="text_101">
     <!-- 2371. -->
     <g transform="translate(1619.2029 1071.9345)scale(0.24 -0.24)">
      <use xlink:href="#DejaVuSans-50"/>
      <use x="63.623047" xlink:href="#DejaVuSans-51"/>
      <use x="127.246094" xlink:href="#DejaVuSans-55"/>
      <use x="190.869141" xlink:href="#DejaVuSans-49"/>
      <use x="254.492188" xlink:href="#DejaVuSans-46"/>
     </g>
    </g>
    <g id="patch_104">
     <path d="M 7.2 1137.312 
L 288 1137.312 
L 288 1089.312 
L 7.2 1089.312 
z
" style="fill:#ffffff;stroke:#000000;stroke-linejoin:miter;"/>
    </g>
    <g id="text_102">
     <!-- $t_{NU-ADM}=t_0+t_1$ [s] -->
     <defs>
      <path d="M 16.890625 72.90625 
L 30.171875 72.90625 
L 50.296875 10.40625 
L 62.5 72.90625 
L 72.125 72.90625 
L 57.90625 0 
L 44.578125 0 
L 24.515625 62.890625 
L 12.3125 0 
L 2.6875 0 
z
" id="DejaVuSans-Oblique-78"/>
      <path d="M 15.484375 72.90625 
L 25.390625 72.90625 
L 16.796875 28.609375 
Q 16.265625 25.640625 16.046875 23.703125 
Q 15.828125 21.78125 15.828125 20.3125 
Q 15.828125 13.578125 19.578125 10.078125 
Q 23.34375 6.59375 30.609375 6.59375 
Q 40.046875 6.59375 45.28125 11.765625 
Q 50.53125 16.9375 52.78125 28.609375 
L 61.375 72.90625 
L 71.296875 72.90625 
L 62.5 27.390625 
Q 59.625 12.640625 51.5625 5.609375 
Q 43.5 -1.421875 29.5 -1.421875 
Q 18.5625 -1.421875 12.1875 4.078125 
Q 5.8125 9.578125 5.8125 19 
Q 5.8125 20.703125 6.046875 22.828125 
Q 6.296875 24.953125 6.78125 27.390625 
z
" id="DejaVuSans-Oblique-85"/>
      <path d="M 10.59375 35.5 
L 73.1875 35.5 
L 73.1875 27.203125 
L 10.59375 27.203125 
z
" id="DejaVuSans-8722"/>
      <path d="M 36.8125 72.90625 
L 48 72.90625 
L 61.53125 0 
L 51.21875 0 
L 48.1875 18.703125 
L 15.375 18.703125 
L 5.078125 0 
L -5.328125 0 
z
M 40.375 63.1875 
L 19.921875 26.90625 
L 46.6875 26.90625 
z
" id="DejaVuSans-Oblique-65"/>
      <path d="M 16.890625 72.90625 
L 38.09375 72.90625 
Q 54.984375 72.90625 63.59375 65.75 
Q 72.21875 58.59375 72.21875 44.484375 
Q 72.21875 35.15625 68.9375 26.53125 
Q 65.671875 17.921875 59.90625 12.015625 
Q 54.109375 5.953125 45.171875 2.96875 
Q 36.234375 0 24.03125 0 
L 2.6875 0 
z
M 25.203125 64.796875 
L 14.203125 8.109375 
L 27.09375 8.109375 
Q 43.65625 8.109375 52.734375 17.625 
Q 61.8125 27.15625 61.8125 44.484375 
Q 61.8125 54.984375 55.953125 59.890625 
Q 50.09375 64.796875 37.59375 64.796875 
z
" id="DejaVuSans-Oblique-68"/>
      <path d="M 16.890625 72.90625 
L 31.6875 72.90625 
L 40.1875 23.78125 
L 68.40625 72.90625 
L 83.59375 72.90625 
L 69.390625 0 
L 59.8125 0 
L 72.21875 63.921875 
L 43.609375 14.015625 
L 33.984375 14.015625 
L 24.703125 64.109375 
L 12.3125 0 
L 2.6875 0 
z
" id="DejaVuSans-Oblique-77"/>
      <path d="M 46 62.703125 
L 46 35.5 
L 73.1875 35.5 
L 73.1875 27.203125 
L 46 27.203125 
L 46 0 
L 37.796875 0 
L 37.796875 27.203125 
L 10.59375 27.203125 
L 10.59375 35.5 
L 37.796875 35.5 
L 37.796875 62.703125 
z
" id="DejaVuSans-43"/>
     </defs>
     <g transform="translate(35.28 1119.9345)scale(0.24 -0.24)">
      <use transform="translate(0 0.015625)" xlink:href="#DejaVuSans-Oblique-116"/>
      <use transform="translate(39.208984 -16.390625)scale(0.7)" xlink:href="#DejaVuSans-Oblique-78"/>
      <use transform="translate(91.572266 -16.390625)scale(0.7)" xlink:href="#DejaVuSans-Oblique-85"/>
      <use transform="translate(156.445312 -16.390625)scale(0.7)" xlink:href="#DejaVuSans-8722"/>
      <use transform="translate(228.735352 -16.390625)scale(0.7)" xlink:href="#DejaVuSans-Oblique-65"/>
      <use transform="translate(276.621094 -16.390625)scale(0.7)" xlink:href="#DejaVuSans-Oblique-68"/>
      <use transform="translate(330.522461 -16.390625)scale(0.7)" xlink:href="#DejaVuSans-Oblique-77"/>
      <use transform="translate(413.134766 0.015625)" xlink:href="#DejaVuSans-61"/>
      <use transform="translate(516.40625 0.015625)" xlink:href="#DejaVuSans-Oblique-116"/>
      <use transform="translate(555.615234 -16.390625)scale(0.7)" xlink:href="#DejaVuSans-48"/>
      <use transform="translate(622.368164 0.015625)" xlink:href="#DejaVuSans-43"/>
      <use transform="translate(725.639648 0.015625)" xlink:href="#DejaVuSans-Oblique-116"/>
      <use transform="translate(764.848633 -16.390625)scale(0.7)" xlink:href="#DejaVuSans-49"/>
      <use transform="translate(812.119141 0.015625)" xlink:href="#DejaVuSans-32"/>
      <use transform="translate(843.90625 0.015625)" xlink:href="#DejaVuSans-91"/>
      <use transform="translate(882.919922 0.015625)" xlink:href="#DejaVuSans-115"/>
      <use transform="translate(935.019531 0.015625)" xlink:href="#DejaVuSans-93"/>
     </g>
    </g>
    <g id="patch_105">
     <path d="M 288 1137.312 
L 573.696 1137.312 
L 573.696 1089.312 
L 288 1089.312 
z
" style="fill:#ffffff;stroke:#000000;stroke-linejoin:miter;"/>
    </g>
    <g id="text_103">
     <!-- 29.37 -->
     <g transform="translate(476.4189 1119.9345)scale(0.24 -0.24)">
      <use xlink:href="#DejaVuSans-50"/>
      <use x="63.623047" xlink:href="#DejaVuSans-57"/>
      <use x="127.246094" xlink:href="#DejaVuSans-46"/>
      <use x="159.033203" xlink:href="#DejaVuSans-51"/>
      <use x="222.65625" xlink:href="#DejaVuSans-55"/>
     </g>
    </g>
    <g id="patch_106">
     <path d="M 573.696 1137.312 
L 859.392 1137.312 
L 859.392 1089.312 
L 573.696 1089.312 
z
" style="fill:#ffffff;stroke:#000000;stroke-linejoin:miter;"/>
    </g>
    <g id="text_104">
     <!-- 84.07 -->
     <g transform="translate(762.1149 1119.9345)scale(0.24 -0.24)">
      <use xlink:href="#DejaVuSans-56"/>
      <use x="63.623047" xlink:href="#DejaVuSans-52"/>
      <use x="127.246094" xlink:href="#DejaVuSans-46"/>
      <use x="159.033203" xlink:href="#DejaVuSans-48"/>
      <use x="222.65625" xlink:href="#DejaVuSans-55"/>
     </g>
    </g>
    <g id="patch_107">
     <path d="M 859.392 1137.312 
L 1145.088 1137.312 
L 1145.088 1089.312 
L 859.392 1089.312 
z
" style="fill:#ffffff;stroke:#000000;stroke-linejoin:miter;"/>
    </g>
    <g id="text_105">
     <!-- 250.1 -->
     <g transform="translate(1047.8109 1119.9345)scale(0.24 -0.24)">
      <use xlink:href="#DejaVuSans-50"/>
      <use x="63.623047" xlink:href="#DejaVuSans-53"/>
      <use x="127.246094" xlink:href="#DejaVuSans-48"/>
      <use x="190.869141" xlink:href="#DejaVuSans-46"/>
      <use x="222.65625" xlink:href="#DejaVuSans-49"/>
     </g>
    </g>
    <g id="patch_108">
     <path d="M 1145.088 1137.312 
L 1430.784 1137.312 
L 1430.784 1089.312 
L 1145.088 1089.312 
z
" style="fill:#ffffff;stroke:#000000;stroke-linejoin:miter;"/>
    </g>
    <g id="text_106">
     <!-- 757.2 -->
     <g transform="translate(1333.5069 1119.9345)scale(0.24 -0.24)">
      <use xlink:href="#DejaVuSans-55"/>
      <use x="63.623047" xlink:href="#DejaVuSans-53"/>
      <use x="127.246094" xlink:href="#DejaVuSans-55"/>
      <use x="190.869141" xlink:href="#DejaVuSans-46"/>
      <use x="222.65625" xlink:href="#DejaVuSans-50"/>
     </g>
    </g>
    <g id="patch_109">
     <path d="M 1430.784 1137.312 
L 1716.48 1137.312 
L 1716.48 1089.312 
L 1430.784 1089.312 
z
" style="fill:#ffffff;stroke:#000000;stroke-linejoin:miter;"/>
    </g>
    <g id="text_107">
     <!-- 2378. -->
     <g transform="translate(1619.2029 1119.9345)scale(0.24 -0.24)">
      <use xlink:href="#DejaVuSans-50"/>
      <use x="63.623047" xlink:href="#DejaVuSans-51"/>
      <use x="127.246094" xlink:href="#DejaVuSans-55"/>
      <use x="190.869141" xlink:href="#DejaVuSans-56"/>
      <use x="254.492188" xlink:href="#DejaVuSans-46"/>
     </g>
    </g>
    <g id="patch_110">
     <path d="M 7.2 1185.312 
L 288 1185.312 
L 288 1137.312 
L 7.2 1137.312 
z
" style="fill:#ffffff;stroke:#000000;stroke-linejoin:miter;"/>
    </g>
    <g id="text_108">
     <!-- $t_{fs}$ -->
     <defs>
      <path d="M 50 53.078125 
L 48.296875 44.578125 
Q 44.734375 46.53125 40.765625 47.5 
Q 36.8125 48.484375 32.625 48.484375 
Q 25.53125 48.484375 21.453125 46.0625 
Q 17.390625 43.65625 17.390625 39.5 
Q 17.390625 34.671875 26.859375 32.078125 
Q 27.59375 31.890625 27.9375 31.78125 
L 30.8125 30.90625 
Q 39.796875 28.421875 42.796875 25.6875 
Q 45.796875 22.953125 45.796875 18.21875 
Q 45.796875 9.515625 38.890625 4.046875 
Q 31.984375 -1.421875 20.796875 -1.421875 
Q 16.453125 -1.421875 11.671875 -0.578125 
Q 6.890625 0.25 1.125 2 
L 2.875 11.28125 
Q 7.8125 8.734375 12.59375 7.421875 
Q 17.390625 6.109375 21.78125 6.109375 
Q 28.375 6.109375 32.5 8.9375 
Q 36.625 11.765625 36.625 16.109375 
Q 36.625 20.796875 25.78125 23.6875 
L 24.859375 23.921875 
L 21.78125 24.703125 
Q 14.9375 26.515625 11.765625 29.46875 
Q 8.59375 32.421875 8.59375 37.015625 
Q 8.59375 45.75 15.15625 50.875 
Q 21.734375 56 33.015625 56 
Q 37.453125 56 41.671875 55.265625 
Q 45.90625 54.546875 50 53.078125 
z
" id="DejaVuSans-Oblique-115"/>
     </defs>
     <g transform="translate(35.28 1167.9345)scale(0.24 -0.24)">
      <use transform="translate(0 0.78125)" xlink:href="#DejaVuSans-Oblique-116"/>
      <use transform="translate(39.208984 -15.625)scale(0.7)" xlink:href="#DejaVuSans-Oblique-102"/>
      <use transform="translate(63.852539 -15.625)scale(0.7)" xlink:href="#DejaVuSans-Oblique-115"/>
     </g>
    </g>
    <g id="patch_111">
     <path d="M 288 1185.312 
L 573.696 1185.312 
L 573.696 1137.312 
L 288 1137.312 
z
" style="fill:#ffffff;stroke:#000000;stroke-linejoin:miter;"/>
    </g>
    <g id="text_109">
     <!-- 43.55 -->
     <g transform="translate(476.4189 1167.9345)scale(0.24 -0.24)">
      <use xlink:href="#DejaVuSans-52"/>
      <use x="63.623047" xlink:href="#DejaVuSans-51"/>
      <use x="127.246094" xlink:href="#DejaVuSans-46"/>
      <use x="159.033203" xlink:href="#DejaVuSans-53"/>
      <use x="222.65625" xlink:href="#DejaVuSans-53"/>
     </g>
    </g>
    <g id="patch_112">
     <path d="M 573.696 1185.312 
L 859.392 1185.312 
L 859.392 1137.312 
L 573.696 1137.312 
z
" style="fill:#ffffff;stroke:#000000;stroke-linejoin:miter;"/>
    </g>
    <g id="text_110">
     <!-- 232.8 -->
     <g transform="translate(762.1149 1167.9345)scale(0.24 -0.24)">
      <use xlink:href="#DejaVuSans-50"/>
      <use x="63.623047" xlink:href="#DejaVuSans-51"/>
      <use x="127.246094" xlink:href="#DejaVuSans-50"/>
      <use x="190.869141" xlink:href="#DejaVuSans-46"/>
      <use x="222.65625" xlink:href="#DejaVuSans-56"/>
     </g>
    </g>
    <g id="patch_113">
     <path d="M 859.392 1185.312 
L 1145.088 1185.312 
L 1145.088 1137.312 
L 859.392 1137.312 
z
" style="fill:#ffffff;stroke:#000000;stroke-linejoin:miter;"/>
    </g>
    <g id="text_111">
     <!-- 681.1 -->
     <g transform="translate(1047.8109 1167.9345)scale(0.24 -0.24)">
      <use xlink:href="#DejaVuSans-54"/>
      <use x="63.623047" xlink:href="#DejaVuSans-56"/>
      <use x="127.246094" xlink:href="#DejaVuSans-49"/>
      <use x="190.869141" xlink:href="#DejaVuSans-46"/>
      <use x="222.65625" xlink:href="#DejaVuSans-49"/>
     </g>
    </g>
    <g id="patch_114">
     <path d="M 1145.088 1185.312 
L 1430.784 1185.312 
L 1430.784 1137.312 
L 1145.088 1137.312 
z
" style="fill:#ffffff;stroke:#000000;stroke-linejoin:miter;"/>
    </g>
    <g id="text_112">
     <!-- 3180. -->
     <g transform="translate(1333.5069 1167.9345)scale(0.24 -0.24)">
      <use xlink:href="#DejaVuSans-51"/>
      <use x="63.623047" xlink:href="#DejaVuSans-49"/>
      <use x="127.246094" xlink:href="#DejaVuSans-56"/>
      <use x="190.869141" xlink:href="#DejaVuSans-48"/>
      <use x="254.492188" xlink:href="#DejaVuSans-46"/>
     </g>
    </g>
    <g id="patch_115">
     <path d="M 1430.784 1185.312 
L 1716.48 1185.312 
L 1716.48 1137.312 
L 1430.784 1137.312 
z
" style="fill:#ffffff;stroke:#000000;stroke-linejoin:miter;"/>
    </g>
    <g id="text_113">
     <!-- 11951 -->
     <g transform="translate(1611.5604 1167.9345)scale(0.24 -0.24)">
      <use xlink:href="#DejaVuSans-49"/>
      <use x="63.623047" xlink:href="#DejaVuSans-49"/>
      <use x="127.246094" xlink:href="#DejaVuSans-57"/>
      <use x="190.869141" xlink:href="#DejaVuSans-53"/>
      <use x="254.492188" xlink:href="#DejaVuSans-49"/>
     </g>
    </g>
   </g>
   <g id="matplotlib.axis_1">
    <g id="xtick_1"/>
    <g id="xtick_2"/>
    <g id="xtick_3"/>
   </g>
   <g id="matplotlib.axis_2">
    <g id="ytick_1"/>
    <g id="ytick_2"/>
    <g id="ytick_3"/>
   </g>
  </g>
 </g>
</svg>
