<?xml version="1.0" encoding="utf-8" standalone="no"?>
<!DOCTYPE svg PUBLIC "-//W3C//DTD SVG 1.1//EN"
  "http://www.w3.org/Graphics/SVG/1.1/DTD/svg11.dtd">
<!-- Created with matplotlib (https://matplotlib.org/) -->
<svg height="712.512pt" version="1.1" viewBox="0 0 1535.9355 712.512" width="1535.9355pt" xmlns="http://www.w3.org/2000/svg" xmlns:xlink="http://www.w3.org/1999/xlink">
 <defs>
  <style type="text/css">
*{stroke-linecap:butt;stroke-linejoin:round;}
  </style>
 </defs>
 <g id="figure_1">
  <g id="patch_1">
   <path d="M 0 712.512 
L 1535.9355 712.512 
L 1535.9355 -0 
L 0 -0 
z
" style="fill:none;"/>
  </g>
  <g id="axes_1">
   <g id="patch_2">
    <path d="M 635.9355 273.312 
L 993.0555 273.312 
L 993.0555 7.2 
L 635.9355 7.2 
z
" style="fill:none;"/>
   </g>
   <g id="table_1">
    <g id="patch_3">
     <path d="M 100.2555 321.312 
L 304.324071 321.312 
L 304.324071 273.312 
L 100.2555 273.312 
z
" style="fill:#ffffff;stroke:#000000;stroke-linejoin:miter;"/>
    </g>
    <g id="text_1">
     <!-- 3300 -->
     <defs>
      <path d="M 40.578125 39.3125 
Q 47.65625 37.796875 51.625 33 
Q 55.609375 28.21875 55.609375 21.1875 
Q 55.609375 10.40625 48.1875 4.484375 
Q 40.765625 -1.421875 27.09375 -1.421875 
Q 22.515625 -1.421875 17.65625 -0.515625 
Q 12.796875 0.390625 7.625 2.203125 
L 7.625 11.71875 
Q 11.71875 9.328125 16.59375 8.109375 
Q 21.484375 6.890625 26.8125 6.890625 
Q 36.078125 6.890625 40.9375 10.546875 
Q 45.796875 14.203125 45.796875 21.1875 
Q 45.796875 27.640625 41.28125 31.265625 
Q 36.765625 34.90625 28.71875 34.90625 
L 20.21875 34.90625 
L 20.21875 43.015625 
L 29.109375 43.015625 
Q 36.375 43.015625 40.234375 45.921875 
Q 44.09375 48.828125 44.09375 54.296875 
Q 44.09375 59.90625 40.109375 62.90625 
Q 36.140625 65.921875 28.71875 65.921875 
Q 24.65625 65.921875 20.015625 65.03125 
Q 15.375 64.15625 9.8125 62.3125 
L 9.8125 71.09375 
Q 15.4375 72.65625 20.34375 73.4375 
Q 25.25 74.21875 29.59375 74.21875 
Q 40.828125 74.21875 47.359375 69.109375 
Q 53.90625 64.015625 53.90625 55.328125 
Q 53.90625 49.265625 50.4375 45.09375 
Q 46.96875 40.921875 40.578125 39.3125 
z
" id="DejaVuSans-51"/>
      <path d="M 31.78125 66.40625 
Q 24.171875 66.40625 20.328125 58.90625 
Q 16.5 51.421875 16.5 36.375 
Q 16.5 21.390625 20.328125 13.890625 
Q 24.171875 6.390625 31.78125 6.390625 
Q 39.453125 6.390625 43.28125 13.890625 
Q 47.125 21.390625 47.125 36.375 
Q 47.125 51.421875 43.28125 58.90625 
Q 39.453125 66.40625 31.78125 66.40625 
z
M 31.78125 74.21875 
Q 44.046875 74.21875 50.515625 64.515625 
Q 56.984375 54.828125 56.984375 36.375 
Q 56.984375 17.96875 50.515625 8.265625 
Q 44.046875 -1.421875 31.78125 -1.421875 
Q 19.53125 -1.421875 13.0625 8.265625 
Q 6.59375 17.96875 6.59375 36.375 
Q 6.59375 54.828125 13.0625 64.515625 
Q 19.53125 74.21875 31.78125 74.21875 
z
" id="DejaVuSans-48"/>
     </defs>
     <g transform="translate(171.749786 303.9345)scale(0.24 -0.24)">
      <use xlink:href="#DejaVuSans-51"/>
      <use x="63.623047" xlink:href="#DejaVuSans-51"/>
      <use x="127.246094" xlink:href="#DejaVuSans-48"/>
      <use x="190.869141" xlink:href="#DejaVuSans-48"/>
     </g>
    </g>
    <g id="patch_4">
     <path d="M 304.324071 321.312 
L 508.392643 321.312 
L 508.392643 273.312 
L 304.324071 273.312 
z
" style="fill:#ffffff;stroke:#000000;stroke-linejoin:miter;"/>
    </g>
    <g id="text_2">
     <!-- 6600 -->
     <defs>
      <path d="M 33.015625 40.375 
Q 26.375 40.375 22.484375 35.828125 
Q 18.609375 31.296875 18.609375 23.390625 
Q 18.609375 15.53125 22.484375 10.953125 
Q 26.375 6.390625 33.015625 6.390625 
Q 39.65625 6.390625 43.53125 10.953125 
Q 47.40625 15.53125 47.40625 23.390625 
Q 47.40625 31.296875 43.53125 35.828125 
Q 39.65625 40.375 33.015625 40.375 
z
M 52.59375 71.296875 
L 52.59375 62.3125 
Q 48.875 64.0625 45.09375 64.984375 
Q 41.3125 65.921875 37.59375 65.921875 
Q 27.828125 65.921875 22.671875 59.328125 
Q 17.53125 52.734375 16.796875 39.40625 
Q 19.671875 43.65625 24.015625 45.921875 
Q 28.375 48.1875 33.59375 48.1875 
Q 44.578125 48.1875 50.953125 41.515625 
Q 57.328125 34.859375 57.328125 23.390625 
Q 57.328125 12.15625 50.6875 5.359375 
Q 44.046875 -1.421875 33.015625 -1.421875 
Q 20.359375 -1.421875 13.671875 8.265625 
Q 6.984375 17.96875 6.984375 36.375 
Q 6.984375 53.65625 15.1875 63.9375 
Q 23.390625 74.21875 37.203125 74.21875 
Q 40.921875 74.21875 44.703125 73.484375 
Q 48.484375 72.75 52.59375 71.296875 
z
" id="DejaVuSans-54"/>
     </defs>
     <g transform="translate(375.818357 303.9345)scale(0.24 -0.24)">
      <use xlink:href="#DejaVuSans-54"/>
      <use x="63.623047" xlink:href="#DejaVuSans-54"/>
      <use x="127.246094" xlink:href="#DejaVuSans-48"/>
      <use x="190.869141" xlink:href="#DejaVuSans-48"/>
     </g>
    </g>
    <g id="patch_5">
     <path d="M 508.392643 321.312 
L 712.461214 321.312 
L 712.461214 273.312 
L 508.392643 273.312 
z
" style="fill:#ffffff;stroke:#000000;stroke-linejoin:miter;"/>
    </g>
    <g id="text_3">
     <!-- 13200 -->
     <defs>
      <path d="M 12.40625 8.296875 
L 28.515625 8.296875 
L 28.515625 63.921875 
L 10.984375 60.40625 
L 10.984375 69.390625 
L 28.421875 72.90625 
L 38.28125 72.90625 
L 38.28125 8.296875 
L 54.390625 8.296875 
L 54.390625 0 
L 12.40625 0 
z
" id="DejaVuSans-49"/>
      <path d="M 19.1875 8.296875 
L 53.609375 8.296875 
L 53.609375 0 
L 7.328125 0 
L 7.328125 8.296875 
Q 12.9375 14.109375 22.625 23.890625 
Q 32.328125 33.6875 34.8125 36.53125 
Q 39.546875 41.84375 41.421875 45.53125 
Q 43.3125 49.21875 43.3125 52.78125 
Q 43.3125 58.59375 39.234375 62.25 
Q 35.15625 65.921875 28.609375 65.921875 
Q 23.96875 65.921875 18.8125 64.3125 
Q 13.671875 62.703125 7.8125 59.421875 
L 7.8125 69.390625 
Q 13.765625 71.78125 18.9375 73 
Q 24.125 74.21875 28.421875 74.21875 
Q 39.75 74.21875 46.484375 68.546875 
Q 53.21875 62.890625 53.21875 53.421875 
Q 53.21875 48.921875 51.53125 44.890625 
Q 49.859375 40.875 45.40625 35.40625 
Q 44.1875 33.984375 37.640625 27.21875 
Q 31.109375 20.453125 19.1875 8.296875 
z
" id="DejaVuSans-50"/>
     </defs>
     <g transform="translate(572.251929 303.9345)scale(0.24 -0.24)">
      <use xlink:href="#DejaVuSans-49"/>
      <use x="63.623047" xlink:href="#DejaVuSans-51"/>
      <use x="127.246094" xlink:href="#DejaVuSans-50"/>
      <use x="190.869141" xlink:href="#DejaVuSans-48"/>
      <use x="254.492188" xlink:href="#DejaVuSans-48"/>
     </g>
    </g>
    <g id="patch_6">
     <path d="M 712.461214 321.312 
L 916.529786 321.312 
L 916.529786 273.312 
L 712.461214 273.312 
z
" style="fill:#ffffff;stroke:#000000;stroke-linejoin:miter;"/>
    </g>
    <g id="text_4">
     <!-- 26400 -->
     <defs>
      <path d="M 37.796875 64.3125 
L 12.890625 25.390625 
L 37.796875 25.390625 
z
M 35.203125 72.90625 
L 47.609375 72.90625 
L 47.609375 25.390625 
L 58.015625 25.390625 
L 58.015625 17.1875 
L 47.609375 17.1875 
L 47.609375 0 
L 37.796875 0 
L 37.796875 17.1875 
L 4.890625 17.1875 
L 4.890625 26.703125 
z
" id="DejaVuSans-52"/>
     </defs>
     <g transform="translate(776.3205 303.9345)scale(0.24 -0.24)">
      <use xlink:href="#DejaVuSans-50"/>
      <use x="63.623047" xlink:href="#DejaVuSans-54"/>
      <use x="127.246094" xlink:href="#DejaVuSans-52"/>
      <use x="190.869141" xlink:href="#DejaVuSans-48"/>
      <use x="254.492188" xlink:href="#DejaVuSans-48"/>
     </g>
    </g>
    <g id="patch_7">
     <path d="M 916.529786 321.312 
L 1120.598357 321.312 
L 1120.598357 273.312 
L 916.529786 273.312 
z
" style="fill:#ffffff;stroke:#000000;stroke-linejoin:miter;"/>
    </g>
    <g id="text_5">
     <!-- 52800 -->
     <defs>
      <path d="M 10.796875 72.90625 
L 49.515625 72.90625 
L 49.515625 64.59375 
L 19.828125 64.59375 
L 19.828125 46.734375 
Q 21.96875 47.46875 24.109375 47.828125 
Q 26.265625 48.1875 28.421875 48.1875 
Q 40.625 48.1875 47.75 41.5 
Q 54.890625 34.8125 54.890625 23.390625 
Q 54.890625 11.625 47.5625 5.09375 
Q 40.234375 -1.421875 26.90625 -1.421875 
Q 22.3125 -1.421875 17.546875 -0.640625 
Q 12.796875 0.140625 7.71875 1.703125 
L 7.71875 11.625 
Q 12.109375 9.234375 16.796875 8.0625 
Q 21.484375 6.890625 26.703125 6.890625 
Q 35.15625 6.890625 40.078125 11.328125 
Q 45.015625 15.765625 45.015625 23.390625 
Q 45.015625 31 40.078125 35.4375 
Q 35.15625 39.890625 26.703125 39.890625 
Q 22.75 39.890625 18.8125 39.015625 
Q 14.890625 38.140625 10.796875 36.28125 
z
" id="DejaVuSans-53"/>
      <path d="M 31.78125 34.625 
Q 24.75 34.625 20.71875 30.859375 
Q 16.703125 27.09375 16.703125 20.515625 
Q 16.703125 13.921875 20.71875 10.15625 
Q 24.75 6.390625 31.78125 6.390625 
Q 38.8125 6.390625 42.859375 10.171875 
Q 46.921875 13.96875 46.921875 20.515625 
Q 46.921875 27.09375 42.890625 30.859375 
Q 38.875 34.625 31.78125 34.625 
z
M 21.921875 38.8125 
Q 15.578125 40.375 12.03125 44.71875 
Q 8.5 49.078125 8.5 55.328125 
Q 8.5 64.0625 14.71875 69.140625 
Q 20.953125 74.21875 31.78125 74.21875 
Q 42.671875 74.21875 48.875 69.140625 
Q 55.078125 64.0625 55.078125 55.328125 
Q 55.078125 49.078125 51.53125 44.71875 
Q 48 40.375 41.703125 38.8125 
Q 48.828125 37.15625 52.796875 32.3125 
Q 56.78125 27.484375 56.78125 20.515625 
Q 56.78125 9.90625 50.3125 4.234375 
Q 43.84375 -1.421875 31.78125 -1.421875 
Q 19.734375 -1.421875 13.25 4.234375 
Q 6.78125 9.90625 6.78125 20.515625 
Q 6.78125 27.484375 10.78125 32.3125 
Q 14.796875 37.15625 21.921875 38.8125 
z
M 18.3125 54.390625 
Q 18.3125 48.734375 21.84375 45.5625 
Q 25.390625 42.390625 31.78125 42.390625 
Q 38.140625 42.390625 41.71875 45.5625 
Q 45.3125 48.734375 45.3125 54.390625 
Q 45.3125 60.0625 41.71875 63.234375 
Q 38.140625 66.40625 31.78125 66.40625 
Q 25.390625 66.40625 21.84375 63.234375 
Q 18.3125 60.0625 18.3125 54.390625 
z
" id="DejaVuSans-56"/>
     </defs>
     <g transform="translate(980.389071 303.9345)scale(0.24 -0.24)">
      <use xlink:href="#DejaVuSans-53"/>
      <use x="63.623047" xlink:href="#DejaVuSans-50"/>
      <use x="127.246094" xlink:href="#DejaVuSans-56"/>
      <use x="190.869141" xlink:href="#DejaVuSans-48"/>
      <use x="254.492188" xlink:href="#DejaVuSans-48"/>
     </g>
    </g>
    <g id="patch_8">
     <path d="M 1120.598357 321.312 
L 1324.666929 321.312 
L 1324.666929 273.312 
L 1120.598357 273.312 
z
" style="fill:#ffffff;stroke:#000000;stroke-linejoin:miter;"/>
    </g>
    <g id="text_6">
     <!-- a -->
     <defs>
      <path d="M 34.28125 27.484375 
Q 23.390625 27.484375 19.1875 25 
Q 14.984375 22.515625 14.984375 16.5 
Q 14.984375 11.71875 18.140625 8.90625 
Q 21.296875 6.109375 26.703125 6.109375 
Q 34.1875 6.109375 38.703125 11.40625 
Q 43.21875 16.703125 43.21875 25.484375 
L 43.21875 27.484375 
z
M 52.203125 31.203125 
L 52.203125 0 
L 43.21875 0 
L 43.21875 8.296875 
Q 40.140625 3.328125 35.546875 0.953125 
Q 30.953125 -1.421875 24.3125 -1.421875 
Q 15.921875 -1.421875 10.953125 3.296875 
Q 6 8.015625 6 15.921875 
Q 6 25.140625 12.171875 29.828125 
Q 18.359375 34.515625 30.609375 34.515625 
L 43.21875 34.515625 
L 43.21875 35.40625 
Q 43.21875 41.609375 39.140625 45 
Q 35.0625 48.390625 27.6875 48.390625 
Q 23 48.390625 18.546875 47.265625 
Q 14.109375 46.140625 10.015625 43.890625 
L 10.015625 52.203125 
Q 14.9375 54.109375 19.578125 55.046875 
Q 24.21875 56 28.609375 56 
Q 40.484375 56 46.34375 49.84375 
Q 52.203125 43.703125 52.203125 31.203125 
z
" id="DejaVuSans-97"/>
     </defs>
     <g transform="translate(1215.278893 303.9345)scale(0.24 -0.24)">
      <use xlink:href="#DejaVuSans-97"/>
     </g>
    </g>
    <g id="patch_9">
     <path d="M 1324.666929 321.312 
L 1528.7355 321.312 
L 1528.7355 273.312 
L 1324.666929 273.312 
z
" style="fill:#ffffff;stroke:#000000;stroke-linejoin:miter;"/>
    </g>
    <g id="text_7">
     <!-- b -->
     <defs>
      <path d="M 48.6875 27.296875 
Q 48.6875 37.203125 44.609375 42.84375 
Q 40.53125 48.484375 33.40625 48.484375 
Q 26.265625 48.484375 22.1875 42.84375 
Q 18.109375 37.203125 18.109375 27.296875 
Q 18.109375 17.390625 22.1875 11.75 
Q 26.265625 6.109375 33.40625 6.109375 
Q 40.53125 6.109375 44.609375 11.75 
Q 48.6875 17.390625 48.6875 27.296875 
z
M 18.109375 46.390625 
Q 20.953125 51.265625 25.265625 53.625 
Q 29.59375 56 35.59375 56 
Q 45.5625 56 51.78125 48.09375 
Q 58.015625 40.1875 58.015625 27.296875 
Q 58.015625 14.40625 51.78125 6.484375 
Q 45.5625 -1.421875 35.59375 -1.421875 
Q 29.59375 -1.421875 25.265625 0.953125 
Q 20.953125 3.328125 18.109375 8.203125 
L 18.109375 0 
L 9.078125 0 
L 9.078125 75.984375 
L 18.109375 75.984375 
z
" id="DejaVuSans-98"/>
     </defs>
     <g transform="translate(1419.083089 303.9345)scale(0.24 -0.24)">
      <use xlink:href="#DejaVuSans-98"/>
     </g>
    </g>
    <g id="patch_10">
     <path d="M 7.2 369.312 
L 100.2555 369.312 
L 100.2555 321.312 
L 7.2 321.312 
z
" style="fill:#ffffff;stroke:#000000;stroke-linejoin:miter;"/>
    </g>
    <g id="text_8">
     <!-- Step 1 -->
     <defs>
      <path d="M 53.515625 70.515625 
L 53.515625 60.890625 
Q 47.90625 63.578125 42.921875 64.890625 
Q 37.9375 66.21875 33.296875 66.21875 
Q 25.25 66.21875 20.875 63.09375 
Q 16.5 59.96875 16.5 54.203125 
Q 16.5 49.359375 19.40625 46.890625 
Q 22.3125 44.4375 30.421875 42.921875 
L 36.375 41.703125 
Q 47.40625 39.59375 52.65625 34.296875 
Q 57.90625 29 57.90625 20.125 
Q 57.90625 9.515625 50.796875 4.046875 
Q 43.703125 -1.421875 29.984375 -1.421875 
Q 24.8125 -1.421875 18.96875 -0.25 
Q 13.140625 0.921875 6.890625 3.21875 
L 6.890625 13.375 
Q 12.890625 10.015625 18.65625 8.296875 
Q 24.421875 6.59375 29.984375 6.59375 
Q 38.421875 6.59375 43.015625 9.90625 
Q 47.609375 13.234375 47.609375 19.390625 
Q 47.609375 24.75 44.3125 27.78125 
Q 41.015625 30.8125 33.5 32.328125 
L 27.484375 33.5 
Q 16.453125 35.6875 11.515625 40.375 
Q 6.59375 45.0625 6.59375 53.421875 
Q 6.59375 63.09375 13.40625 68.65625 
Q 20.21875 74.21875 32.171875 74.21875 
Q 37.3125 74.21875 42.625 73.28125 
Q 47.953125 72.359375 53.515625 70.515625 
z
" id="DejaVuSans-83"/>
      <path d="M 18.3125 70.21875 
L 18.3125 54.6875 
L 36.8125 54.6875 
L 36.8125 47.703125 
L 18.3125 47.703125 
L 18.3125 18.015625 
Q 18.3125 11.328125 20.140625 9.421875 
Q 21.96875 7.515625 27.59375 7.515625 
L 36.8125 7.515625 
L 36.8125 0 
L 27.59375 0 
Q 17.1875 0 13.234375 3.875 
Q 9.28125 7.765625 9.28125 18.015625 
L 9.28125 47.703125 
L 2.6875 47.703125 
L 2.6875 54.6875 
L 9.28125 54.6875 
L 9.28125 70.21875 
z
" id="DejaVuSans-116"/>
      <path d="M 56.203125 29.59375 
L 56.203125 25.203125 
L 14.890625 25.203125 
Q 15.484375 15.921875 20.484375 11.0625 
Q 25.484375 6.203125 34.421875 6.203125 
Q 39.59375 6.203125 44.453125 7.46875 
Q 49.3125 8.734375 54.109375 11.28125 
L 54.109375 2.78125 
Q 49.265625 0.734375 44.1875 -0.34375 
Q 39.109375 -1.421875 33.890625 -1.421875 
Q 20.796875 -1.421875 13.15625 6.1875 
Q 5.515625 13.8125 5.515625 26.8125 
Q 5.515625 40.234375 12.765625 48.109375 
Q 20.015625 56 32.328125 56 
Q 43.359375 56 49.78125 48.890625 
Q 56.203125 41.796875 56.203125 29.59375 
z
M 47.21875 32.234375 
Q 47.125 39.59375 43.09375 43.984375 
Q 39.0625 48.390625 32.421875 48.390625 
Q 24.90625 48.390625 20.390625 44.140625 
Q 15.875 39.890625 15.1875 32.171875 
z
" id="DejaVuSans-101"/>
      <path d="M 18.109375 8.203125 
L 18.109375 -20.796875 
L 9.078125 -20.796875 
L 9.078125 54.6875 
L 18.109375 54.6875 
L 18.109375 46.390625 
Q 20.953125 51.265625 25.265625 53.625 
Q 29.59375 56 35.59375 56 
Q 45.5625 56 51.78125 48.09375 
Q 58.015625 40.1875 58.015625 27.296875 
Q 58.015625 14.40625 51.78125 6.484375 
Q 45.5625 -1.421875 35.59375 -1.421875 
Q 29.59375 -1.421875 25.265625 0.953125 
Q 20.953125 3.328125 18.109375 8.203125 
z
M 48.6875 27.296875 
Q 48.6875 37.203125 44.609375 42.84375 
Q 40.53125 48.484375 33.40625 48.484375 
Q 26.265625 48.484375 22.1875 42.84375 
Q 18.109375 37.203125 18.109375 27.296875 
Q 18.109375 17.390625 22.1875 11.75 
Q 26.265625 6.109375 33.40625 6.109375 
Q 40.53125 6.109375 44.609375 11.75 
Q 48.6875 17.390625 48.6875 27.296875 
z
" id="DejaVuSans-112"/>
      <path id="DejaVuSans-32"/>
     </defs>
     <g transform="translate(16.50555 351.9345)scale(0.24 -0.24)">
      <use xlink:href="#DejaVuSans-83"/>
      <use x="63.476562" xlink:href="#DejaVuSans-116"/>
      <use x="102.685547" xlink:href="#DejaVuSans-101"/>
      <use x="164.208984" xlink:href="#DejaVuSans-112"/>
      <use x="227.685547" xlink:href="#DejaVuSans-32"/>
      <use x="259.472656" xlink:href="#DejaVuSans-49"/>
     </g>
    </g>
    <g id="patch_11">
     <path d="M 100.2555 369.312 
L 304.324071 369.312 
L 304.324071 321.312 
L 100.2555 321.312 
z
" style="fill:#ffffff;stroke:#000000;stroke-linejoin:miter;"/>
    </g>
    <g id="text_9">
     <!-- 4.53e+00 -->
     <defs>
      <path d="M 10.6875 12.40625 
L 21 12.40625 
L 21 0 
L 10.6875 0 
z
" id="DejaVuSans-46"/>
      <path d="M 46 62.703125 
L 46 35.5 
L 73.1875 35.5 
L 73.1875 27.203125 
L 46 27.203125 
L 46 0 
L 37.796875 0 
L 37.796875 27.203125 
L 10.59375 27.203125 
L 10.59375 35.5 
L 37.796875 35.5 
L 37.796875 62.703125 
z
" id="DejaVuSans-43"/>
     </defs>
     <g transform="translate(165.060964 351.9345)scale(0.24 -0.24)">
      <use xlink:href="#DejaVuSans-52"/>
      <use x="63.623047" xlink:href="#DejaVuSans-46"/>
      <use x="95.410156" xlink:href="#DejaVuSans-53"/>
      <use x="159.033203" xlink:href="#DejaVuSans-51"/>
      <use x="222.65625" xlink:href="#DejaVuSans-101"/>
      <use x="284.179688" xlink:href="#DejaVuSans-43"/>
      <use x="367.96875" xlink:href="#DejaVuSans-48"/>
      <use x="431.591797" xlink:href="#DejaVuSans-48"/>
     </g>
    </g>
    <g id="patch_12">
     <path d="M 304.324071 369.312 
L 508.392643 369.312 
L 508.392643 321.312 
L 304.324071 321.312 
z
" style="fill:#ffffff;stroke:#000000;stroke-linejoin:miter;"/>
    </g>
    <g id="text_10">
     <!-- 9.18e+00 -->
     <defs>
      <path d="M 10.984375 1.515625 
L 10.984375 10.5 
Q 14.703125 8.734375 18.5 7.8125 
Q 22.3125 6.890625 25.984375 6.890625 
Q 35.75 6.890625 40.890625 13.453125 
Q 46.046875 20.015625 46.78125 33.40625 
Q 43.953125 29.203125 39.59375 26.953125 
Q 35.25 24.703125 29.984375 24.703125 
Q 19.046875 24.703125 12.671875 31.3125 
Q 6.296875 37.9375 6.296875 49.421875 
Q 6.296875 60.640625 12.9375 67.421875 
Q 19.578125 74.21875 30.609375 74.21875 
Q 43.265625 74.21875 49.921875 64.515625 
Q 56.59375 54.828125 56.59375 36.375 
Q 56.59375 19.140625 48.40625 8.859375 
Q 40.234375 -1.421875 26.421875 -1.421875 
Q 22.703125 -1.421875 18.890625 -0.6875 
Q 15.09375 0.046875 10.984375 1.515625 
z
M 30.609375 32.421875 
Q 37.25 32.421875 41.125 36.953125 
Q 45.015625 41.5 45.015625 49.421875 
Q 45.015625 57.28125 41.125 61.84375 
Q 37.25 66.40625 30.609375 66.40625 
Q 23.96875 66.40625 20.09375 61.84375 
Q 16.21875 57.28125 16.21875 49.421875 
Q 16.21875 41.5 20.09375 36.953125 
Q 23.96875 32.421875 30.609375 32.421875 
z
" id="DejaVuSans-57"/>
     </defs>
     <g transform="translate(369.129536 351.9345)scale(0.24 -0.24)">
      <use xlink:href="#DejaVuSans-57"/>
      <use x="63.623047" xlink:href="#DejaVuSans-46"/>
      <use x="95.410156" xlink:href="#DejaVuSans-49"/>
      <use x="159.033203" xlink:href="#DejaVuSans-56"/>
      <use x="222.65625" xlink:href="#DejaVuSans-101"/>
      <use x="284.179688" xlink:href="#DejaVuSans-43"/>
      <use x="367.96875" xlink:href="#DejaVuSans-48"/>
      <use x="431.591797" xlink:href="#DejaVuSans-48"/>
     </g>
    </g>
    <g id="patch_13">
     <path d="M 508.392643 369.312 
L 712.461214 369.312 
L 712.461214 321.312 
L 508.392643 321.312 
z
" style="fill:#ffffff;stroke:#000000;stroke-linejoin:miter;"/>
    </g>
    <g id="text_11">
     <!-- 1.92e+01 -->
     <g transform="translate(573.198107 351.9345)scale(0.24 -0.24)">
      <use xlink:href="#DejaVuSans-49"/>
      <use x="63.623047" xlink:href="#DejaVuSans-46"/>
      <use x="95.410156" xlink:href="#DejaVuSans-57"/>
      <use x="159.033203" xlink:href="#DejaVuSans-50"/>
      <use x="222.65625" xlink:href="#DejaVuSans-101"/>
      <use x="284.179688" xlink:href="#DejaVuSans-43"/>
      <use x="367.96875" xlink:href="#DejaVuSans-48"/>
      <use x="431.591797" xlink:href="#DejaVuSans-49"/>
     </g>
    </g>
    <g id="patch_14">
     <path d="M 712.461214 369.312 
L 916.529786 369.312 
L 916.529786 321.312 
L 712.461214 321.312 
z
" style="fill:#ffffff;stroke:#000000;stroke-linejoin:miter;"/>
    </g>
    <g id="text_12">
     <!-- 3.45e+01 -->
     <g transform="translate(777.266679 351.9345)scale(0.24 -0.24)">
      <use xlink:href="#DejaVuSans-51"/>
      <use x="63.623047" xlink:href="#DejaVuSans-46"/>
      <use x="95.410156" xlink:href="#DejaVuSans-52"/>
      <use x="159.033203" xlink:href="#DejaVuSans-53"/>
      <use x="222.65625" xlink:href="#DejaVuSans-101"/>
      <use x="284.179688" xlink:href="#DejaVuSans-43"/>
      <use x="367.96875" xlink:href="#DejaVuSans-48"/>
      <use x="431.591797" xlink:href="#DejaVuSans-49"/>
     </g>
    </g>
    <g id="patch_15">
     <path d="M 916.529786 369.312 
L 1120.598357 369.312 
L 1120.598357 321.312 
L 916.529786 321.312 
z
" style="fill:#ffffff;stroke:#000000;stroke-linejoin:miter;"/>
    </g>
    <g id="text_13">
     <!-- 9.48e+01 -->
     <g transform="translate(981.33525 351.9345)scale(0.24 -0.24)">
      <use xlink:href="#DejaVuSans-57"/>
      <use x="63.623047" xlink:href="#DejaVuSans-46"/>
      <use x="95.410156" xlink:href="#DejaVuSans-52"/>
      <use x="159.033203" xlink:href="#DejaVuSans-56"/>
      <use x="222.65625" xlink:href="#DejaVuSans-101"/>
      <use x="284.179688" xlink:href="#DejaVuSans-43"/>
      <use x="367.96875" xlink:href="#DejaVuSans-48"/>
      <use x="431.591797" xlink:href="#DejaVuSans-49"/>
     </g>
    </g>
    <g id="patch_16">
     <path d="M 1120.598357 369.312 
L 1324.666929 369.312 
L 1324.666929 321.312 
L 1120.598357 321.312 
z
" style="fill:#ffffff;stroke:#000000;stroke-linejoin:miter;"/>
    </g>
    <g id="text_14">
     <!-- 7.61e-04 -->
     <defs>
      <path d="M 8.203125 72.90625 
L 55.078125 72.90625 
L 55.078125 68.703125 
L 28.609375 0 
L 18.3125 0 
L 43.21875 64.59375 
L 8.203125 64.59375 
z
" id="DejaVuSans-55"/>
      <path d="M 4.890625 31.390625 
L 31.203125 31.390625 
L 31.203125 23.390625 
L 4.890625 23.390625 
z
" id="DejaVuSans-45"/>
     </defs>
     <g transform="translate(1196.856321 351.9345)scale(0.24 -0.24)">
      <use xlink:href="#DejaVuSans-55"/>
      <use x="63.623047" xlink:href="#DejaVuSans-46"/>
      <use x="95.410156" xlink:href="#DejaVuSans-54"/>
      <use x="159.033203" xlink:href="#DejaVuSans-49"/>
      <use x="222.65625" xlink:href="#DejaVuSans-101"/>
      <use x="284.179688" xlink:href="#DejaVuSans-45"/>
      <use x="320.263672" xlink:href="#DejaVuSans-48"/>
      <use x="383.886719" xlink:href="#DejaVuSans-52"/>
     </g>
    </g>
    <g id="patch_17">
     <path d="M 1324.666929 369.312 
L 1528.7355 369.312 
L 1528.7355 321.312 
L 1324.666929 321.312 
z
" style="fill:#ffffff;stroke:#000000;stroke-linejoin:miter;"/>
    </g>
    <g id="text_15">
     <!-- 1.0683 -->
     <g transform="translate(1424.351143 351.9345)scale(0.24 -0.24)">
      <use xlink:href="#DejaVuSans-49"/>
      <use x="63.623047" xlink:href="#DejaVuSans-46"/>
      <use x="95.410156" xlink:href="#DejaVuSans-48"/>
      <use x="159.033203" xlink:href="#DejaVuSans-54"/>
      <use x="222.65625" xlink:href="#DejaVuSans-56"/>
      <use x="286.279297" xlink:href="#DejaVuSans-51"/>
     </g>
    </g>
    <g id="patch_18">
     <path d="M 7.2 417.312 
L 100.2555 417.312 
L 100.2555 369.312 
L 7.2 369.312 
z
" style="fill:#ffffff;stroke:#000000;stroke-linejoin:miter;"/>
    </g>
    <g id="text_16">
     <!-- Step 2 -->
     <g transform="translate(16.50555 399.9345)scale(0.24 -0.24)">
      <use xlink:href="#DejaVuSans-83"/>
      <use x="63.476562" xlink:href="#DejaVuSans-116"/>
      <use x="102.685547" xlink:href="#DejaVuSans-101"/>
      <use x="164.208984" xlink:href="#DejaVuSans-112"/>
      <use x="227.685547" xlink:href="#DejaVuSans-32"/>
      <use x="259.472656" xlink:href="#DejaVuSans-50"/>
     </g>
    </g>
    <g id="patch_19">
     <path d="M 100.2555 417.312 
L 304.324071 417.312 
L 304.324071 369.312 
L 100.2555 369.312 
z
" style="fill:#ffffff;stroke:#000000;stroke-linejoin:miter;"/>
    </g>
    <g id="text_17">
     <!-- 3.71e-01 -->
     <g transform="translate(176.513464 399.9345)scale(0.24 -0.24)">
      <use xlink:href="#DejaVuSans-51"/>
      <use x="63.623047" xlink:href="#DejaVuSans-46"/>
      <use x="95.410156" xlink:href="#DejaVuSans-55"/>
      <use x="159.033203" xlink:href="#DejaVuSans-49"/>
      <use x="222.65625" xlink:href="#DejaVuSans-101"/>
      <use x="284.179688" xlink:href="#DejaVuSans-45"/>
      <use x="320.263672" xlink:href="#DejaVuSans-48"/>
      <use x="383.886719" xlink:href="#DejaVuSans-49"/>
     </g>
    </g>
    <g id="patch_20">
     <path d="M 304.324071 417.312 
L 508.392643 417.312 
L 508.392643 369.312 
L 304.324071 369.312 
z
" style="fill:#ffffff;stroke:#000000;stroke-linejoin:miter;"/>
    </g>
    <g id="text_18">
     <!-- 6.55e-01 -->
     <g transform="translate(380.582036 399.9345)scale(0.24 -0.24)">
      <use xlink:href="#DejaVuSans-54"/>
      <use x="63.623047" xlink:href="#DejaVuSans-46"/>
      <use x="95.410156" xlink:href="#DejaVuSans-53"/>
      <use x="159.033203" xlink:href="#DejaVuSans-53"/>
      <use x="222.65625" xlink:href="#DejaVuSans-101"/>
      <use x="284.179688" xlink:href="#DejaVuSans-45"/>
      <use x="320.263672" xlink:href="#DejaVuSans-48"/>
      <use x="383.886719" xlink:href="#DejaVuSans-49"/>
     </g>
    </g>
    <g id="patch_21">
     <path d="M 508.392643 417.312 
L 712.461214 417.312 
L 712.461214 369.312 
L 508.392643 369.312 
z
" style="fill:#ffffff;stroke:#000000;stroke-linejoin:miter;"/>
    </g>
    <g id="text_19">
     <!-- 1.36e+00 -->
     <g transform="translate(573.198107 399.9345)scale(0.24 -0.24)">
      <use xlink:href="#DejaVuSans-49"/>
      <use x="63.623047" xlink:href="#DejaVuSans-46"/>
      <use x="95.410156" xlink:href="#DejaVuSans-51"/>
      <use x="159.033203" xlink:href="#DejaVuSans-54"/>
      <use x="222.65625" xlink:href="#DejaVuSans-101"/>
      <use x="284.179688" xlink:href="#DejaVuSans-43"/>
      <use x="367.96875" xlink:href="#DejaVuSans-48"/>
      <use x="431.591797" xlink:href="#DejaVuSans-48"/>
     </g>
    </g>
    <g id="patch_22">
     <path d="M 712.461214 417.312 
L 916.529786 417.312 
L 916.529786 369.312 
L 712.461214 369.312 
z
" style="fill:#ffffff;stroke:#000000;stroke-linejoin:miter;"/>
    </g>
    <g id="text_20">
     <!-- 2.33e+00 -->
     <g transform="translate(777.266679 399.9345)scale(0.24 -0.24)">
      <use xlink:href="#DejaVuSans-50"/>
      <use x="63.623047" xlink:href="#DejaVuSans-46"/>
      <use x="95.410156" xlink:href="#DejaVuSans-51"/>
      <use x="159.033203" xlink:href="#DejaVuSans-51"/>
      <use x="222.65625" xlink:href="#DejaVuSans-101"/>
      <use x="284.179688" xlink:href="#DejaVuSans-43"/>
      <use x="367.96875" xlink:href="#DejaVuSans-48"/>
      <use x="431.591797" xlink:href="#DejaVuSans-48"/>
     </g>
    </g>
    <g id="patch_23">
     <path d="M 916.529786 417.312 
L 1120.598357 417.312 
L 1120.598357 369.312 
L 916.529786 369.312 
z
" style="fill:#ffffff;stroke:#000000;stroke-linejoin:miter;"/>
    </g>
    <g id="text_21">
     <!-- 6.50e+00 -->
     <g transform="translate(981.33525 399.9345)scale(0.24 -0.24)">
      <use xlink:href="#DejaVuSans-54"/>
      <use x="63.623047" xlink:href="#DejaVuSans-46"/>
      <use x="95.410156" xlink:href="#DejaVuSans-53"/>
      <use x="159.033203" xlink:href="#DejaVuSans-48"/>
      <use x="222.65625" xlink:href="#DejaVuSans-101"/>
      <use x="284.179688" xlink:href="#DejaVuSans-43"/>
      <use x="367.96875" xlink:href="#DejaVuSans-48"/>
      <use x="431.591797" xlink:href="#DejaVuSans-48"/>
     </g>
    </g>
    <g id="patch_24">
     <path d="M 1120.598357 417.312 
L 1324.666929 417.312 
L 1324.666929 369.312 
L 1120.598357 369.312 
z
" style="fill:#ffffff;stroke:#000000;stroke-linejoin:miter;"/>
    </g>
    <g id="text_22">
     <!-- 9.61e-05 -->
     <g transform="translate(1196.856321 399.9345)scale(0.24 -0.24)">
      <use xlink:href="#DejaVuSans-57"/>
      <use x="63.623047" xlink:href="#DejaVuSans-46"/>
      <use x="95.410156" xlink:href="#DejaVuSans-54"/>
      <use x="159.033203" xlink:href="#DejaVuSans-49"/>
      <use x="222.65625" xlink:href="#DejaVuSans-101"/>
      <use x="284.179688" xlink:href="#DejaVuSans-45"/>
      <use x="320.263672" xlink:href="#DejaVuSans-48"/>
      <use x="383.886719" xlink:href="#DejaVuSans-53"/>
     </g>
    </g>
    <g id="patch_25">
     <path d="M 1324.666929 417.312 
L 1528.7355 417.312 
L 1528.7355 369.312 
L 1324.666929 369.312 
z
" style="fill:#ffffff;stroke:#000000;stroke-linejoin:miter;"/>
    </g>
    <g id="text_23">
     <!-- 1.0089 -->
     <g transform="translate(1424.351143 399.9345)scale(0.24 -0.24)">
      <use xlink:href="#DejaVuSans-49"/>
      <use x="63.623047" xlink:href="#DejaVuSans-46"/>
      <use x="95.410156" xlink:href="#DejaVuSans-48"/>
      <use x="159.033203" xlink:href="#DejaVuSans-48"/>
      <use x="222.65625" xlink:href="#DejaVuSans-56"/>
      <use x="286.279297" xlink:href="#DejaVuSans-57"/>
     </g>
    </g>
    <g id="patch_26">
     <path d="M 7.2 465.312 
L 100.2555 465.312 
L 100.2555 417.312 
L 7.2 417.312 
z
" style="fill:#ffffff;stroke:#000000;stroke-linejoin:miter;"/>
    </g>
    <g id="text_24">
     <!-- Step 3 -->
     <g transform="translate(16.50555 447.9345)scale(0.24 -0.24)">
      <use xlink:href="#DejaVuSans-83"/>
      <use x="63.476562" xlink:href="#DejaVuSans-116"/>
      <use x="102.685547" xlink:href="#DejaVuSans-101"/>
      <use x="164.208984" xlink:href="#DejaVuSans-112"/>
      <use x="227.685547" xlink:href="#DejaVuSans-32"/>
      <use x="259.472656" xlink:href="#DejaVuSans-51"/>
     </g>
    </g>
    <g id="patch_27">
     <path d="M 100.2555 465.312 
L 304.324071 465.312 
L 304.324071 417.312 
L 100.2555 417.312 
z
" style="fill:#ffffff;stroke:#000000;stroke-linejoin:miter;"/>
    </g>
    <g id="text_25">
     <!-- 2.03e+00 -->
     <g transform="translate(165.060964 447.9345)scale(0.24 -0.24)">
      <use xlink:href="#DejaVuSans-50"/>
      <use x="63.623047" xlink:href="#DejaVuSans-46"/>
      <use x="95.410156" xlink:href="#DejaVuSans-48"/>
      <use x="159.033203" xlink:href="#DejaVuSans-51"/>
      <use x="222.65625" xlink:href="#DejaVuSans-101"/>
      <use x="284.179688" xlink:href="#DejaVuSans-43"/>
      <use x="367.96875" xlink:href="#DejaVuSans-48"/>
      <use x="431.591797" xlink:href="#DejaVuSans-48"/>
     </g>
    </g>
    <g id="patch_28">
     <path d="M 304.324071 465.312 
L 508.392643 465.312 
L 508.392643 417.312 
L 304.324071 417.312 
z
" style="fill:#ffffff;stroke:#000000;stroke-linejoin:miter;"/>
    </g>
    <g id="text_26">
     <!-- 3.7e+00 -->
     <g transform="translate(384.399536 447.9345)scale(0.24 -0.24)">
      <use xlink:href="#DejaVuSans-51"/>
      <use x="63.623047" xlink:href="#DejaVuSans-46"/>
      <use x="95.410156" xlink:href="#DejaVuSans-55"/>
      <use x="159.033203" xlink:href="#DejaVuSans-101"/>
      <use x="220.556641" xlink:href="#DejaVuSans-43"/>
      <use x="304.345703" xlink:href="#DejaVuSans-48"/>
      <use x="367.96875" xlink:href="#DejaVuSans-48"/>
     </g>
    </g>
    <g id="patch_29">
     <path d="M 508.392643 465.312 
L 712.461214 465.312 
L 712.461214 417.312 
L 508.392643 417.312 
z
" style="fill:#ffffff;stroke:#000000;stroke-linejoin:miter;"/>
    </g>
    <g id="text_27">
     <!-- 8.14e+00 -->
     <g transform="translate(573.198107 447.9345)scale(0.24 -0.24)">
      <use xlink:href="#DejaVuSans-56"/>
      <use x="63.623047" xlink:href="#DejaVuSans-46"/>
      <use x="95.410156" xlink:href="#DejaVuSans-49"/>
      <use x="159.033203" xlink:href="#DejaVuSans-52"/>
      <use x="222.65625" xlink:href="#DejaVuSans-101"/>
      <use x="284.179688" xlink:href="#DejaVuSans-43"/>
      <use x="367.96875" xlink:href="#DejaVuSans-48"/>
      <use x="431.591797" xlink:href="#DejaVuSans-48"/>
     </g>
    </g>
    <g id="patch_30">
     <path d="M 712.461214 465.312 
L 916.529786 465.312 
L 916.529786 417.312 
L 712.461214 417.312 
z
" style="fill:#ffffff;stroke:#000000;stroke-linejoin:miter;"/>
    </g>
    <g id="text_28">
     <!-- 1.51e+01 -->
     <g transform="translate(777.266679 447.9345)scale(0.24 -0.24)">
      <use xlink:href="#DejaVuSans-49"/>
      <use x="63.623047" xlink:href="#DejaVuSans-46"/>
      <use x="95.410156" xlink:href="#DejaVuSans-53"/>
      <use x="159.033203" xlink:href="#DejaVuSans-49"/>
      <use x="222.65625" xlink:href="#DejaVuSans-101"/>
      <use x="284.179688" xlink:href="#DejaVuSans-43"/>
      <use x="367.96875" xlink:href="#DejaVuSans-48"/>
      <use x="431.591797" xlink:href="#DejaVuSans-49"/>
     </g>
    </g>
    <g id="patch_31">
     <path d="M 916.529786 465.312 
L 1120.598357 465.312 
L 1120.598357 417.312 
L 916.529786 417.312 
z
" style="fill:#ffffff;stroke:#000000;stroke-linejoin:miter;"/>
    </g>
    <g id="text_29">
     <!-- 4.37e+01 -->
     <g transform="translate(981.33525 447.9345)scale(0.24 -0.24)">
      <use xlink:href="#DejaVuSans-52"/>
      <use x="63.623047" xlink:href="#DejaVuSans-46"/>
      <use x="95.410156" xlink:href="#DejaVuSans-51"/>
      <use x="159.033203" xlink:href="#DejaVuSans-55"/>
      <use x="222.65625" xlink:href="#DejaVuSans-101"/>
      <use x="284.179688" xlink:href="#DejaVuSans-43"/>
      <use x="367.96875" xlink:href="#DejaVuSans-48"/>
      <use x="431.591797" xlink:href="#DejaVuSans-49"/>
     </g>
    </g>
    <g id="patch_32">
     <path d="M 1120.598357 465.312 
L 1324.666929 465.312 
L 1324.666929 417.312 
L 1120.598357 417.312 
z
" style="fill:#ffffff;stroke:#000000;stroke-linejoin:miter;"/>
    </g>
    <g id="text_30">
     <!-- 2.71e-04 -->
     <g transform="translate(1196.856321 447.9345)scale(0.24 -0.24)">
      <use xlink:href="#DejaVuSans-50"/>
      <use x="63.623047" xlink:href="#DejaVuSans-46"/>
      <use x="95.410156" xlink:href="#DejaVuSans-55"/>
      <use x="159.033203" xlink:href="#DejaVuSans-49"/>
      <use x="222.65625" xlink:href="#DejaVuSans-101"/>
      <use x="284.179688" xlink:href="#DejaVuSans-45"/>
      <use x="320.263672" xlink:href="#DejaVuSans-48"/>
      <use x="383.886719" xlink:href="#DejaVuSans-52"/>
     </g>
    </g>
    <g id="patch_33">
     <path d="M 1324.666929 465.312 
L 1528.7355 465.312 
L 1528.7355 417.312 
L 1324.666929 417.312 
z
" style="fill:#ffffff;stroke:#000000;stroke-linejoin:miter;"/>
    </g>
    <g id="text_31">
     <!-- 1.0891 -->
     <g transform="translate(1424.351143 447.9345)scale(0.24 -0.24)">
      <use xlink:href="#DejaVuSans-49"/>
      <use x="63.623047" xlink:href="#DejaVuSans-46"/>
      <use x="95.410156" xlink:href="#DejaVuSans-48"/>
      <use x="159.033203" xlink:href="#DejaVuSans-56"/>
      <use x="222.65625" xlink:href="#DejaVuSans-57"/>
      <use x="286.279297" xlink:href="#DejaVuSans-49"/>
     </g>
    </g>
    <g id="patch_34">
     <path d="M 7.2 513.312 
L 100.2555 513.312 
L 100.2555 465.312 
L 7.2 465.312 
z
" style="fill:#ffffff;stroke:#000000;stroke-linejoin:miter;"/>
    </g>
    <g id="text_32">
     <!-- Step 4 -->
     <g transform="translate(16.50555 495.9345)scale(0.24 -0.24)">
      <use xlink:href="#DejaVuSans-83"/>
      <use x="63.476562" xlink:href="#DejaVuSans-116"/>
      <use x="102.685547" xlink:href="#DejaVuSans-101"/>
      <use x="164.208984" xlink:href="#DejaVuSans-112"/>
      <use x="227.685547" xlink:href="#DejaVuSans-32"/>
      <use x="259.472656" xlink:href="#DejaVuSans-52"/>
     </g>
    </g>
    <g id="patch_35">
     <path d="M 100.2555 513.312 
L 304.324071 513.312 
L 304.324071 465.312 
L 100.2555 465.312 
z
" style="fill:#ffffff;stroke:#000000;stroke-linejoin:miter;"/>
    </g>
    <g id="text_33">
     <!-- 1.76e+00 -->
     <g transform="translate(165.060964 495.9345)scale(0.24 -0.24)">
      <use xlink:href="#DejaVuSans-49"/>
      <use x="63.623047" xlink:href="#DejaVuSans-46"/>
      <use x="95.410156" xlink:href="#DejaVuSans-55"/>
      <use x="159.033203" xlink:href="#DejaVuSans-54"/>
      <use x="222.65625" xlink:href="#DejaVuSans-101"/>
      <use x="284.179688" xlink:href="#DejaVuSans-43"/>
      <use x="367.96875" xlink:href="#DejaVuSans-48"/>
      <use x="431.591797" xlink:href="#DejaVuSans-48"/>
     </g>
    </g>
    <g id="patch_36">
     <path d="M 304.324071 513.312 
L 508.392643 513.312 
L 508.392643 465.312 
L 304.324071 465.312 
z
" style="fill:#ffffff;stroke:#000000;stroke-linejoin:miter;"/>
    </g>
    <g id="text_34">
     <!-- 3.37e+00 -->
     <g transform="translate(369.129536 495.9345)scale(0.24 -0.24)">
      <use xlink:href="#DejaVuSans-51"/>
      <use x="63.623047" xlink:href="#DejaVuSans-46"/>
      <use x="95.410156" xlink:href="#DejaVuSans-51"/>
      <use x="159.033203" xlink:href="#DejaVuSans-55"/>
      <use x="222.65625" xlink:href="#DejaVuSans-101"/>
      <use x="284.179688" xlink:href="#DejaVuSans-43"/>
      <use x="367.96875" xlink:href="#DejaVuSans-48"/>
      <use x="431.591797" xlink:href="#DejaVuSans-48"/>
     </g>
    </g>
    <g id="patch_37">
     <path d="M 508.392643 513.312 
L 712.461214 513.312 
L 712.461214 465.312 
L 508.392643 465.312 
z
" style="fill:#ffffff;stroke:#000000;stroke-linejoin:miter;"/>
    </g>
    <g id="text_35">
     <!-- 7.24e+00 -->
     <g transform="translate(573.198107 495.9345)scale(0.24 -0.24)">
      <use xlink:href="#DejaVuSans-55"/>
      <use x="63.623047" xlink:href="#DejaVuSans-46"/>
      <use x="95.410156" xlink:href="#DejaVuSans-50"/>
      <use x="159.033203" xlink:href="#DejaVuSans-52"/>
      <use x="222.65625" xlink:href="#DejaVuSans-101"/>
      <use x="284.179688" xlink:href="#DejaVuSans-43"/>
      <use x="367.96875" xlink:href="#DejaVuSans-48"/>
      <use x="431.591797" xlink:href="#DejaVuSans-48"/>
     </g>
    </g>
    <g id="patch_38">
     <path d="M 712.461214 513.312 
L 916.529786 513.312 
L 916.529786 465.312 
L 712.461214 465.312 
z
" style="fill:#ffffff;stroke:#000000;stroke-linejoin:miter;"/>
    </g>
    <g id="text_36">
     <!-- 1.41e+01 -->
     <g transform="translate(777.266679 495.9345)scale(0.24 -0.24)">
      <use xlink:href="#DejaVuSans-49"/>
      <use x="63.623047" xlink:href="#DejaVuSans-46"/>
      <use x="95.410156" xlink:href="#DejaVuSans-52"/>
      <use x="159.033203" xlink:href="#DejaVuSans-49"/>
      <use x="222.65625" xlink:href="#DejaVuSans-101"/>
      <use x="284.179688" xlink:href="#DejaVuSans-43"/>
      <use x="367.96875" xlink:href="#DejaVuSans-48"/>
      <use x="431.591797" xlink:href="#DejaVuSans-49"/>
     </g>
    </g>
    <g id="patch_39">
     <path d="M 916.529786 513.312 
L 1120.598357 513.312 
L 1120.598357 465.312 
L 916.529786 465.312 
z
" style="fill:#ffffff;stroke:#000000;stroke-linejoin:miter;"/>
    </g>
    <g id="text_37">
     <!-- 3.82e+01 -->
     <g transform="translate(981.33525 495.9345)scale(0.24 -0.24)">
      <use xlink:href="#DejaVuSans-51"/>
      <use x="63.623047" xlink:href="#DejaVuSans-46"/>
      <use x="95.410156" xlink:href="#DejaVuSans-56"/>
      <use x="159.033203" xlink:href="#DejaVuSans-50"/>
      <use x="222.65625" xlink:href="#DejaVuSans-101"/>
      <use x="284.179688" xlink:href="#DejaVuSans-43"/>
      <use x="367.96875" xlink:href="#DejaVuSans-48"/>
      <use x="431.591797" xlink:href="#DejaVuSans-49"/>
     </g>
    </g>
    <g id="patch_40">
     <path d="M 1120.598357 513.312 
L 1324.666929 513.312 
L 1324.666929 465.312 
L 1120.598357 465.312 
z
" style="fill:#ffffff;stroke:#000000;stroke-linejoin:miter;"/>
    </g>
    <g id="text_38">
     <!-- 2.29e-04 -->
     <g transform="translate(1196.856321 495.9345)scale(0.24 -0.24)">
      <use xlink:href="#DejaVuSans-50"/>
      <use x="63.623047" xlink:href="#DejaVuSans-46"/>
      <use x="95.410156" xlink:href="#DejaVuSans-50"/>
      <use x="159.033203" xlink:href="#DejaVuSans-57"/>
      <use x="222.65625" xlink:href="#DejaVuSans-101"/>
      <use x="284.179688" xlink:href="#DejaVuSans-45"/>
      <use x="320.263672" xlink:href="#DejaVuSans-48"/>
      <use x="383.886719" xlink:href="#DejaVuSans-52"/>
     </g>
    </g>
    <g id="patch_41">
     <path d="M 1324.666929 513.312 
L 1528.7355 513.312 
L 1528.7355 465.312 
L 1324.666929 465.312 
z
" style="fill:#ffffff;stroke:#000000;stroke-linejoin:miter;"/>
    </g>
    <g id="text_39">
     <!-- 1.0952 -->
     <g transform="translate(1424.351143 495.9345)scale(0.24 -0.24)">
      <use xlink:href="#DejaVuSans-49"/>
      <use x="63.623047" xlink:href="#DejaVuSans-46"/>
      <use x="95.410156" xlink:href="#DejaVuSans-48"/>
      <use x="159.033203" xlink:href="#DejaVuSans-57"/>
      <use x="222.65625" xlink:href="#DejaVuSans-53"/>
      <use x="286.279297" xlink:href="#DejaVuSans-50"/>
     </g>
    </g>
    <g id="patch_42">
     <path d="M 7.2 561.312 
L 100.2555 561.312 
L 100.2555 513.312 
L 7.2 513.312 
z
" style="fill:#ffffff;stroke:#000000;stroke-linejoin:miter;"/>
    </g>
    <g id="text_40">
     <!-- Step 5 -->
     <g transform="translate(16.50555 543.9345)scale(0.24 -0.24)">
      <use xlink:href="#DejaVuSans-83"/>
      <use x="63.476562" xlink:href="#DejaVuSans-116"/>
      <use x="102.685547" xlink:href="#DejaVuSans-101"/>
      <use x="164.208984" xlink:href="#DejaVuSans-112"/>
      <use x="227.685547" xlink:href="#DejaVuSans-32"/>
      <use x="259.472656" xlink:href="#DejaVuSans-53"/>
     </g>
    </g>
    <g id="patch_43">
     <path d="M 100.2555 561.312 
L 304.324071 561.312 
L 304.324071 513.312 
L 100.2555 513.312 
z
" style="fill:#ffffff;stroke:#000000;stroke-linejoin:miter;"/>
    </g>
    <g id="text_41">
     <!-- 3.77e+00 -->
     <g transform="translate(165.060964 543.9345)scale(0.24 -0.24)">
      <use xlink:href="#DejaVuSans-51"/>
      <use x="63.623047" xlink:href="#DejaVuSans-46"/>
      <use x="95.410156" xlink:href="#DejaVuSans-55"/>
      <use x="159.033203" xlink:href="#DejaVuSans-55"/>
      <use x="222.65625" xlink:href="#DejaVuSans-101"/>
      <use x="284.179688" xlink:href="#DejaVuSans-43"/>
      <use x="367.96875" xlink:href="#DejaVuSans-48"/>
      <use x="431.591797" xlink:href="#DejaVuSans-48"/>
     </g>
    </g>
    <g id="patch_44">
     <path d="M 304.324071 561.312 
L 508.392643 561.312 
L 508.392643 513.312 
L 304.324071 513.312 
z
" style="fill:#ffffff;stroke:#000000;stroke-linejoin:miter;"/>
    </g>
    <g id="text_42">
     <!-- 1.21e+01 -->
     <g transform="translate(369.129536 543.9345)scale(0.24 -0.24)">
      <use xlink:href="#DejaVuSans-49"/>
      <use x="63.623047" xlink:href="#DejaVuSans-46"/>
      <use x="95.410156" xlink:href="#DejaVuSans-50"/>
      <use x="159.033203" xlink:href="#DejaVuSans-49"/>
      <use x="222.65625" xlink:href="#DejaVuSans-101"/>
      <use x="284.179688" xlink:href="#DejaVuSans-43"/>
      <use x="367.96875" xlink:href="#DejaVuSans-48"/>
      <use x="431.591797" xlink:href="#DejaVuSans-49"/>
     </g>
    </g>
    <g id="patch_45">
     <path d="M 508.392643 561.312 
L 712.461214 561.312 
L 712.461214 513.312 
L 508.392643 513.312 
z
" style="fill:#ffffff;stroke:#000000;stroke-linejoin:miter;"/>
    </g>
    <g id="text_43">
     <!-- 3.74e+01 -->
     <g transform="translate(573.198107 543.9345)scale(0.24 -0.24)">
      <use xlink:href="#DejaVuSans-51"/>
      <use x="63.623047" xlink:href="#DejaVuSans-46"/>
      <use x="95.410156" xlink:href="#DejaVuSans-55"/>
      <use x="159.033203" xlink:href="#DejaVuSans-52"/>
      <use x="222.65625" xlink:href="#DejaVuSans-101"/>
      <use x="284.179688" xlink:href="#DejaVuSans-43"/>
      <use x="367.96875" xlink:href="#DejaVuSans-48"/>
      <use x="431.591797" xlink:href="#DejaVuSans-49"/>
     </g>
    </g>
    <g id="patch_46">
     <path d="M 712.461214 561.312 
L 916.529786 561.312 
L 916.529786 513.312 
L 712.461214 513.312 
z
" style="fill:#ffffff;stroke:#000000;stroke-linejoin:miter;"/>
    </g>
    <g id="text_44">
     <!-- 1.2e+02 -->
     <g transform="translate(792.536679 543.9345)scale(0.24 -0.24)">
      <use xlink:href="#DejaVuSans-49"/>
      <use x="63.623047" xlink:href="#DejaVuSans-46"/>
      <use x="95.410156" xlink:href="#DejaVuSans-50"/>
      <use x="159.033203" xlink:href="#DejaVuSans-101"/>
      <use x="220.556641" xlink:href="#DejaVuSans-43"/>
      <use x="304.345703" xlink:href="#DejaVuSans-48"/>
      <use x="367.96875" xlink:href="#DejaVuSans-50"/>
     </g>
    </g>
    <g id="patch_47">
     <path d="M 916.529786 561.312 
L 1120.598357 561.312 
L 1120.598357 513.312 
L 916.529786 513.312 
z
" style="fill:#ffffff;stroke:#000000;stroke-linejoin:miter;"/>
    </g>
    <g id="text_45">
     <!-- 3.78e+02 -->
     <g transform="translate(981.33525 543.9345)scale(0.24 -0.24)">
      <use xlink:href="#DejaVuSans-51"/>
      <use x="63.623047" xlink:href="#DejaVuSans-46"/>
      <use x="95.410156" xlink:href="#DejaVuSans-55"/>
      <use x="159.033203" xlink:href="#DejaVuSans-56"/>
      <use x="222.65625" xlink:href="#DejaVuSans-101"/>
      <use x="284.179688" xlink:href="#DejaVuSans-43"/>
      <use x="367.96875" xlink:href="#DejaVuSans-48"/>
      <use x="431.591797" xlink:href="#DejaVuSans-50"/>
     </g>
    </g>
    <g id="patch_48">
     <path d="M 1120.598357 561.312 
L 1324.666929 561.312 
L 1324.666929 513.312 
L 1120.598357 513.312 
z
" style="fill:#ffffff;stroke:#000000;stroke-linejoin:miter;"/>
    </g>
    <g id="text_46">
     <!-- 5.42e-06 -->
     <g transform="translate(1196.856321 543.9345)scale(0.24 -0.24)">
      <use xlink:href="#DejaVuSans-53"/>
      <use x="63.623047" xlink:href="#DejaVuSans-46"/>
      <use x="95.410156" xlink:href="#DejaVuSans-52"/>
      <use x="159.033203" xlink:href="#DejaVuSans-50"/>
      <use x="222.65625" xlink:href="#DejaVuSans-101"/>
      <use x="284.179688" xlink:href="#DejaVuSans-45"/>
      <use x="320.263672" xlink:href="#DejaVuSans-48"/>
      <use x="383.886719" xlink:href="#DejaVuSans-54"/>
     </g>
    </g>
    <g id="patch_49">
     <path d="M 1324.666929 561.312 
L 1528.7355 561.312 
L 1528.7355 513.312 
L 1324.666929 513.312 
z
" style="fill:#ffffff;stroke:#000000;stroke-linejoin:miter;"/>
    </g>
    <g id="text_47">
     <!-- 1.6608 -->
     <g transform="translate(1424.351143 543.9345)scale(0.24 -0.24)">
      <use xlink:href="#DejaVuSans-49"/>
      <use x="63.623047" xlink:href="#DejaVuSans-46"/>
      <use x="95.410156" xlink:href="#DejaVuSans-54"/>
      <use x="159.033203" xlink:href="#DejaVuSans-54"/>
      <use x="222.65625" xlink:href="#DejaVuSans-48"/>
      <use x="286.279297" xlink:href="#DejaVuSans-56"/>
     </g>
    </g>
    <g id="patch_50">
     <path d="M 7.2 609.312 
L 100.2555 609.312 
L 100.2555 561.312 
L 7.2 561.312 
z
" style="fill:#ffffff;stroke:#000000;stroke-linejoin:miter;"/>
    </g>
    <g id="text_48">
     <!-- Step 6 -->
     <g transform="translate(16.50555 591.9345)scale(0.24 -0.24)">
      <use xlink:href="#DejaVuSans-83"/>
      <use x="63.476562" xlink:href="#DejaVuSans-116"/>
      <use x="102.685547" xlink:href="#DejaVuSans-101"/>
      <use x="164.208984" xlink:href="#DejaVuSans-112"/>
      <use x="227.685547" xlink:href="#DejaVuSans-32"/>
      <use x="259.472656" xlink:href="#DejaVuSans-54"/>
     </g>
    </g>
    <g id="patch_51">
     <path d="M 100.2555 609.312 
L 304.324071 609.312 
L 304.324071 561.312 
L 100.2555 561.312 
z
" style="fill:#ffffff;stroke:#000000;stroke-linejoin:miter;"/>
    </g>
    <g id="text_49">
     <!-- 4.3e+01 -->
     <g transform="translate(180.330964 591.9345)scale(0.24 -0.24)">
      <use xlink:href="#DejaVuSans-52"/>
      <use x="63.623047" xlink:href="#DejaVuSans-46"/>
      <use x="95.410156" xlink:href="#DejaVuSans-51"/>
      <use x="159.033203" xlink:href="#DejaVuSans-101"/>
      <use x="220.556641" xlink:href="#DejaVuSans-43"/>
      <use x="304.345703" xlink:href="#DejaVuSans-48"/>
      <use x="367.96875" xlink:href="#DejaVuSans-49"/>
     </g>
    </g>
    <g id="patch_52">
     <path d="M 304.324071 609.312 
L 508.392643 609.312 
L 508.392643 561.312 
L 304.324071 561.312 
z
" style="fill:#ffffff;stroke:#000000;stroke-linejoin:miter;"/>
    </g>
    <g id="text_50">
     <!-- 7.42e+01 -->
     <g transform="translate(369.129536 591.9345)scale(0.24 -0.24)">
      <use xlink:href="#DejaVuSans-55"/>
      <use x="63.623047" xlink:href="#DejaVuSans-46"/>
      <use x="95.410156" xlink:href="#DejaVuSans-52"/>
      <use x="159.033203" xlink:href="#DejaVuSans-50"/>
      <use x="222.65625" xlink:href="#DejaVuSans-101"/>
      <use x="284.179688" xlink:href="#DejaVuSans-43"/>
      <use x="367.96875" xlink:href="#DejaVuSans-48"/>
      <use x="431.591797" xlink:href="#DejaVuSans-49"/>
     </g>
    </g>
    <g id="patch_53">
     <path d="M 508.392643 609.312 
L 712.461214 609.312 
L 712.461214 561.312 
L 508.392643 561.312 
z
" style="fill:#ffffff;stroke:#000000;stroke-linejoin:miter;"/>
    </g>
    <g id="text_51">
     <!-- 1.64e+02 -->
     <g transform="translate(573.198107 591.9345)scale(0.24 -0.24)">
      <use xlink:href="#DejaVuSans-49"/>
      <use x="63.623047" xlink:href="#DejaVuSans-46"/>
      <use x="95.410156" xlink:href="#DejaVuSans-54"/>
      <use x="159.033203" xlink:href="#DejaVuSans-52"/>
      <use x="222.65625" xlink:href="#DejaVuSans-101"/>
      <use x="284.179688" xlink:href="#DejaVuSans-43"/>
      <use x="367.96875" xlink:href="#DejaVuSans-48"/>
      <use x="431.591797" xlink:href="#DejaVuSans-50"/>
     </g>
    </g>
    <g id="patch_54">
     <path d="M 712.461214 609.312 
L 916.529786 609.312 
L 916.529786 561.312 
L 712.461214 561.312 
z
" style="fill:#ffffff;stroke:#000000;stroke-linejoin:miter;"/>
    </g>
    <g id="text_52">
     <!-- 3.12e+02 -->
     <g transform="translate(777.266679 591.9345)scale(0.24 -0.24)">
      <use xlink:href="#DejaVuSans-51"/>
      <use x="63.623047" xlink:href="#DejaVuSans-46"/>
      <use x="95.410156" xlink:href="#DejaVuSans-49"/>
      <use x="159.033203" xlink:href="#DejaVuSans-50"/>
      <use x="222.65625" xlink:href="#DejaVuSans-101"/>
      <use x="284.179688" xlink:href="#DejaVuSans-43"/>
      <use x="367.96875" xlink:href="#DejaVuSans-48"/>
      <use x="431.591797" xlink:href="#DejaVuSans-50"/>
     </g>
    </g>
    <g id="patch_55">
     <path d="M 916.529786 609.312 
L 1120.598357 609.312 
L 1120.598357 561.312 
L 916.529786 561.312 
z
" style="fill:#ffffff;stroke:#000000;stroke-linejoin:miter;"/>
    </g>
    <g id="text_53">
     <!-- 7.26e+02 -->
     <g transform="translate(981.33525 591.9345)scale(0.24 -0.24)">
      <use xlink:href="#DejaVuSans-55"/>
      <use x="63.623047" xlink:href="#DejaVuSans-46"/>
      <use x="95.410156" xlink:href="#DejaVuSans-50"/>
      <use x="159.033203" xlink:href="#DejaVuSans-54"/>
      <use x="222.65625" xlink:href="#DejaVuSans-101"/>
      <use x="284.179688" xlink:href="#DejaVuSans-43"/>
      <use x="367.96875" xlink:href="#DejaVuSans-48"/>
      <use x="431.591797" xlink:href="#DejaVuSans-50"/>
     </g>
    </g>
    <g id="patch_56">
     <path d="M 1120.598357 609.312 
L 1324.666929 609.312 
L 1324.666929 561.312 
L 1120.598357 561.312 
z
" style="fill:#ffffff;stroke:#000000;stroke-linejoin:miter;"/>
    </g>
    <g id="text_54">
     <!-- 9.97e-03 -->
     <g transform="translate(1196.856321 591.9345)scale(0.24 -0.24)">
      <use xlink:href="#DejaVuSans-57"/>
      <use x="63.623047" xlink:href="#DejaVuSans-46"/>
      <use x="95.410156" xlink:href="#DejaVuSans-57"/>
      <use x="159.033203" xlink:href="#DejaVuSans-55"/>
      <use x="222.65625" xlink:href="#DejaVuSans-101"/>
      <use x="284.179688" xlink:href="#DejaVuSans-45"/>
      <use x="320.263672" xlink:href="#DejaVuSans-48"/>
      <use x="383.886719" xlink:href="#DejaVuSans-51"/>
     </g>
    </g>
    <g id="patch_57">
     <path d="M 1324.666929 609.312 
L 1528.7355 609.312 
L 1528.7355 561.312 
L 1324.666929 561.312 
z
" style="fill:#ffffff;stroke:#000000;stroke-linejoin:miter;"/>
    </g>
    <g id="text_55">
     <!-- 1.0231 -->
     <g transform="translate(1424.351143 591.9345)scale(0.24 -0.24)">
      <use xlink:href="#DejaVuSans-49"/>
      <use x="63.623047" xlink:href="#DejaVuSans-46"/>
      <use x="95.410156" xlink:href="#DejaVuSans-48"/>
      <use x="159.033203" xlink:href="#DejaVuSans-50"/>
      <use x="222.65625" xlink:href="#DejaVuSans-51"/>
      <use x="286.279297" xlink:href="#DejaVuSans-49"/>
     </g>
    </g>
    <g id="patch_58">
     <path d="M 7.2 657.312 
L 100.2555 657.312 
L 100.2555 609.312 
L 7.2 609.312 
z
" style="fill:#ffffff;stroke:#000000;stroke-linejoin:miter;"/>
    </g>
    <g id="text_56">
     <!-- Step 7 -->
     <g transform="translate(16.50555 639.9345)scale(0.24 -0.24)">
      <use xlink:href="#DejaVuSans-83"/>
      <use x="63.476562" xlink:href="#DejaVuSans-116"/>
      <use x="102.685547" xlink:href="#DejaVuSans-101"/>
      <use x="164.208984" xlink:href="#DejaVuSans-112"/>
      <use x="227.685547" xlink:href="#DejaVuSans-32"/>
      <use x="259.472656" xlink:href="#DejaVuSans-55"/>
     </g>
    </g>
    <g id="patch_59">
     <path d="M 100.2555 657.312 
L 304.324071 657.312 
L 304.324071 609.312 
L 100.2555 609.312 
z
" style="fill:#ffffff;stroke:#000000;stroke-linejoin:miter;"/>
    </g>
    <g id="text_57">
     <!-- 2.6e-03 -->
     <g transform="translate(191.783464 639.9345)scale(0.24 -0.24)">
      <use xlink:href="#DejaVuSans-50"/>
      <use x="63.623047" xlink:href="#DejaVuSans-46"/>
      <use x="95.410156" xlink:href="#DejaVuSans-54"/>
      <use x="159.033203" xlink:href="#DejaVuSans-101"/>
      <use x="220.556641" xlink:href="#DejaVuSans-45"/>
      <use x="256.640625" xlink:href="#DejaVuSans-48"/>
      <use x="320.263672" xlink:href="#DejaVuSans-51"/>
     </g>
    </g>
    <g id="patch_60">
     <path d="M 304.324071 657.312 
L 508.392643 657.312 
L 508.392643 609.312 
L 304.324071 609.312 
z
" style="fill:#ffffff;stroke:#000000;stroke-linejoin:miter;"/>
    </g>
    <g id="text_58">
     <!-- 4.59e-03 -->
     <g transform="translate(380.582036 639.9345)scale(0.24 -0.24)">
      <use xlink:href="#DejaVuSans-52"/>
      <use x="63.623047" xlink:href="#DejaVuSans-46"/>
      <use x="95.410156" xlink:href="#DejaVuSans-53"/>
      <use x="159.033203" xlink:href="#DejaVuSans-57"/>
      <use x="222.65625" xlink:href="#DejaVuSans-101"/>
      <use x="284.179688" xlink:href="#DejaVuSans-45"/>
      <use x="320.263672" xlink:href="#DejaVuSans-48"/>
      <use x="383.886719" xlink:href="#DejaVuSans-51"/>
     </g>
    </g>
    <g id="patch_61">
     <path d="M 508.392643 657.312 
L 712.461214 657.312 
L 712.461214 609.312 
L 508.392643 609.312 
z
" style="fill:#ffffff;stroke:#000000;stroke-linejoin:miter;"/>
    </g>
    <g id="text_59">
     <!-- 9.53e-03 -->
     <g transform="translate(584.650607 639.9345)scale(0.24 -0.24)">
      <use xlink:href="#DejaVuSans-57"/>
      <use x="63.623047" xlink:href="#DejaVuSans-46"/>
      <use x="95.410156" xlink:href="#DejaVuSans-53"/>
      <use x="159.033203" xlink:href="#DejaVuSans-51"/>
      <use x="222.65625" xlink:href="#DejaVuSans-101"/>
      <use x="284.179688" xlink:href="#DejaVuSans-45"/>
      <use x="320.263672" xlink:href="#DejaVuSans-48"/>
      <use x="383.886719" xlink:href="#DejaVuSans-51"/>
     </g>
    </g>
    <g id="patch_62">
     <path d="M 712.461214 657.312 
L 916.529786 657.312 
L 916.529786 609.312 
L 712.461214 609.312 
z
" style="fill:#ffffff;stroke:#000000;stroke-linejoin:miter;"/>
    </g>
    <g id="text_60">
     <!-- 1.63e-02 -->
     <g transform="translate(788.719179 639.9345)scale(0.24 -0.24)">
      <use xlink:href="#DejaVuSans-49"/>
      <use x="63.623047" xlink:href="#DejaVuSans-46"/>
      <use x="95.410156" xlink:href="#DejaVuSans-54"/>
      <use x="159.033203" xlink:href="#DejaVuSans-51"/>
      <use x="222.65625" xlink:href="#DejaVuSans-101"/>
      <use x="284.179688" xlink:href="#DejaVuSans-45"/>
      <use x="320.263672" xlink:href="#DejaVuSans-48"/>
      <use x="383.886719" xlink:href="#DejaVuSans-50"/>
     </g>
    </g>
    <g id="patch_63">
     <path d="M 916.529786 657.312 
L 1120.598357 657.312 
L 1120.598357 609.312 
L 916.529786 609.312 
z
" style="fill:#ffffff;stroke:#000000;stroke-linejoin:miter;"/>
    </g>
    <g id="text_61">
     <!-- 4.55e-02 -->
     <g transform="translate(992.78775 639.9345)scale(0.24 -0.24)">
      <use xlink:href="#DejaVuSans-52"/>
      <use x="63.623047" xlink:href="#DejaVuSans-46"/>
      <use x="95.410156" xlink:href="#DejaVuSans-53"/>
      <use x="159.033203" xlink:href="#DejaVuSans-53"/>
      <use x="222.65625" xlink:href="#DejaVuSans-101"/>
      <use x="284.179688" xlink:href="#DejaVuSans-45"/>
      <use x="320.263672" xlink:href="#DejaVuSans-48"/>
      <use x="383.886719" xlink:href="#DejaVuSans-50"/>
     </g>
    </g>
    <g id="patch_64">
     <path d="M 1120.598357 657.312 
L 1324.666929 657.312 
L 1324.666929 609.312 
L 1120.598357 609.312 
z
" style="fill:#ffffff;stroke:#000000;stroke-linejoin:miter;"/>
    </g>
    <g id="text_62">
     <!-- 6.73e-07 -->
     <g transform="translate(1196.856321 639.9345)scale(0.24 -0.24)">
      <use xlink:href="#DejaVuSans-54"/>
      <use x="63.623047" xlink:href="#DejaVuSans-46"/>
      <use x="95.410156" xlink:href="#DejaVuSans-55"/>
      <use x="159.033203" xlink:href="#DejaVuSans-51"/>
      <use x="222.65625" xlink:href="#DejaVuSans-101"/>
      <use x="284.179688" xlink:href="#DejaVuSans-45"/>
      <use x="320.263672" xlink:href="#DejaVuSans-48"/>
      <use x="383.886719" xlink:href="#DejaVuSans-55"/>
     </g>
    </g>
    <g id="patch_65">
     <path d="M 1324.666929 657.312 
L 1528.7355 657.312 
L 1528.7355 609.312 
L 1324.666929 609.312 
z
" style="fill:#ffffff;stroke:#000000;stroke-linejoin:miter;"/>
    </g>
    <g id="text_63">
     <!-- 1.0089 -->
     <g transform="translate(1424.351143 639.9345)scale(0.24 -0.24)">
      <use xlink:href="#DejaVuSans-49"/>
      <use x="63.623047" xlink:href="#DejaVuSans-46"/>
      <use x="95.410156" xlink:href="#DejaVuSans-48"/>
      <use x="159.033203" xlink:href="#DejaVuSans-48"/>
      <use x="222.65625" xlink:href="#DejaVuSans-56"/>
      <use x="286.279297" xlink:href="#DejaVuSans-57"/>
     </g>
    </g>
    <g id="patch_66">
     <path d="M 7.2 705.312 
L 100.2555 705.312 
L 100.2555 657.312 
L 7.2 657.312 
z
" style="fill:#ffffff;stroke:#000000;stroke-linejoin:miter;"/>
    </g>
    <g id="text_64">
     <!-- Total -->
     <defs>
      <path d="M -0.296875 72.90625 
L 61.375 72.90625 
L 61.375 64.59375 
L 35.5 64.59375 
L 35.5 0 
L 25.59375 0 
L 25.59375 64.59375 
L -0.296875 64.59375 
z
" id="DejaVuSans-84"/>
      <path d="M 30.609375 48.390625 
Q 23.390625 48.390625 19.1875 42.75 
Q 14.984375 37.109375 14.984375 27.296875 
Q 14.984375 17.484375 19.15625 11.84375 
Q 23.34375 6.203125 30.609375 6.203125 
Q 37.796875 6.203125 41.984375 11.859375 
Q 46.1875 17.53125 46.1875 27.296875 
Q 46.1875 37.015625 41.984375 42.703125 
Q 37.796875 48.390625 30.609375 48.390625 
z
M 30.609375 56 
Q 42.328125 56 49.015625 48.375 
Q 55.71875 40.765625 55.71875 27.296875 
Q 55.71875 13.875 49.015625 6.21875 
Q 42.328125 -1.421875 30.609375 -1.421875 
Q 18.84375 -1.421875 12.171875 6.21875 
Q 5.515625 13.875 5.515625 27.296875 
Q 5.515625 40.765625 12.171875 48.375 
Q 18.84375 56 30.609375 56 
z
" id="DejaVuSans-111"/>
      <path d="M 9.421875 75.984375 
L 18.40625 75.984375 
L 18.40625 0 
L 9.421875 0 
z
" id="DejaVuSans-108"/>
     </defs>
     <g transform="translate(16.50555 687.9345)scale(0.24 -0.24)">
      <use xlink:href="#DejaVuSans-84"/>
      <use x="60.818359" xlink:href="#DejaVuSans-111"/>
      <use x="122" xlink:href="#DejaVuSans-116"/>
      <use x="161.208984" xlink:href="#DejaVuSans-97"/>
      <use x="222.488281" xlink:href="#DejaVuSans-108"/>
     </g>
    </g>
    <g id="patch_67">
     <path d="M 100.2555 705.312 
L 304.324071 705.312 
L 304.324071 657.312 
L 100.2555 657.312 
z
" style="fill:#ffffff;stroke:#000000;stroke-linejoin:miter;"/>
    </g>
    <g id="text_65">
     <!-- 5.54e+01 -->
     <g transform="translate(165.060964 687.9345)scale(0.24 -0.24)">
      <use xlink:href="#DejaVuSans-53"/>
      <use x="63.623047" xlink:href="#DejaVuSans-46"/>
      <use x="95.410156" xlink:href="#DejaVuSans-53"/>
      <use x="159.033203" xlink:href="#DejaVuSans-52"/>
      <use x="222.65625" xlink:href="#DejaVuSans-101"/>
      <use x="284.179688" xlink:href="#DejaVuSans-43"/>
      <use x="367.96875" xlink:href="#DejaVuSans-48"/>
      <use x="431.591797" xlink:href="#DejaVuSans-49"/>
     </g>
    </g>
    <g id="patch_68">
     <path d="M 304.324071 705.312 
L 508.392643 705.312 
L 508.392643 657.312 
L 304.324071 657.312 
z
" style="fill:#ffffff;stroke:#000000;stroke-linejoin:miter;"/>
    </g>
    <g id="text_66">
     <!-- 1.03e+02 -->
     <g transform="translate(369.129536 687.9345)scale(0.24 -0.24)">
      <use xlink:href="#DejaVuSans-49"/>
      <use x="63.623047" xlink:href="#DejaVuSans-46"/>
      <use x="95.410156" xlink:href="#DejaVuSans-48"/>
      <use x="159.033203" xlink:href="#DejaVuSans-51"/>
      <use x="222.65625" xlink:href="#DejaVuSans-101"/>
      <use x="284.179688" xlink:href="#DejaVuSans-43"/>
      <use x="367.96875" xlink:href="#DejaVuSans-48"/>
      <use x="431.591797" xlink:href="#DejaVuSans-50"/>
     </g>
    </g>
    <g id="patch_69">
     <path d="M 508.392643 705.312 
L 712.461214 705.312 
L 712.461214 657.312 
L 508.392643 657.312 
z
" style="fill:#ffffff;stroke:#000000;stroke-linejoin:miter;"/>
    </g>
    <g id="text_67">
     <!-- 2.37e+02 -->
     <g transform="translate(573.198107 687.9345)scale(0.24 -0.24)">
      <use xlink:href="#DejaVuSans-50"/>
      <use x="63.623047" xlink:href="#DejaVuSans-46"/>
      <use x="95.410156" xlink:href="#DejaVuSans-51"/>
      <use x="159.033203" xlink:href="#DejaVuSans-55"/>
      <use x="222.65625" xlink:href="#DejaVuSans-101"/>
      <use x="284.179688" xlink:href="#DejaVuSans-43"/>
      <use x="367.96875" xlink:href="#DejaVuSans-48"/>
      <use x="431.591797" xlink:href="#DejaVuSans-50"/>
     </g>
    </g>
    <g id="patch_70">
     <path d="M 712.461214 705.312 
L 916.529786 705.312 
L 916.529786 657.312 
L 712.461214 657.312 
z
" style="fill:#ffffff;stroke:#000000;stroke-linejoin:miter;"/>
    </g>
    <g id="text_68">
     <!-- 4.98e+02 -->
     <g transform="translate(777.266679 687.9345)scale(0.24 -0.24)">
      <use xlink:href="#DejaVuSans-52"/>
      <use x="63.623047" xlink:href="#DejaVuSans-46"/>
      <use x="95.410156" xlink:href="#DejaVuSans-57"/>
      <use x="159.033203" xlink:href="#DejaVuSans-56"/>
      <use x="222.65625" xlink:href="#DejaVuSans-101"/>
      <use x="284.179688" xlink:href="#DejaVuSans-43"/>
      <use x="367.96875" xlink:href="#DejaVuSans-48"/>
      <use x="431.591797" xlink:href="#DejaVuSans-50"/>
     </g>
    </g>
    <g id="patch_71">
     <path d="M 916.529786 705.312 
L 1120.598357 705.312 
L 1120.598357 657.312 
L 916.529786 657.312 
z
" style="fill:#ffffff;stroke:#000000;stroke-linejoin:miter;"/>
    </g>
    <g id="text_69">
     <!-- 1.29e+03 -->
     <g transform="translate(981.33525 687.9345)scale(0.24 -0.24)">
      <use xlink:href="#DejaVuSans-49"/>
      <use x="63.623047" xlink:href="#DejaVuSans-46"/>
      <use x="95.410156" xlink:href="#DejaVuSans-50"/>
      <use x="159.033203" xlink:href="#DejaVuSans-57"/>
      <use x="222.65625" xlink:href="#DejaVuSans-101"/>
      <use x="284.179688" xlink:href="#DejaVuSans-43"/>
      <use x="367.96875" xlink:href="#DejaVuSans-48"/>
      <use x="431.591797" xlink:href="#DejaVuSans-51"/>
     </g>
    </g>
    <g id="patch_72">
     <path d="M 1120.598357 705.312 
L 1324.666929 705.312 
L 1324.666929 657.312 
L 1120.598357 657.312 
z
" style="fill:#ffffff;stroke:#000000;stroke-linejoin:miter;"/>
    </g>
    <g id="text_70">
     <!-- 5.15e-03 -->
     <g transform="translate(1196.856321 687.9345)scale(0.24 -0.24)">
      <use xlink:href="#DejaVuSans-53"/>
      <use x="63.623047" xlink:href="#DejaVuSans-46"/>
      <use x="95.410156" xlink:href="#DejaVuSans-49"/>
      <use x="159.033203" xlink:href="#DejaVuSans-53"/>
      <use x="222.65625" xlink:href="#DejaVuSans-101"/>
      <use x="284.179688" xlink:href="#DejaVuSans-45"/>
      <use x="320.263672" xlink:href="#DejaVuSans-48"/>
      <use x="383.886719" xlink:href="#DejaVuSans-51"/>
     </g>
    </g>
    <g id="patch_73">
     <path d="M 1324.666929 705.312 
L 1528.7355 705.312 
L 1528.7355 657.312 
L 1324.666929 657.312 
z
" style="fill:#ffffff;stroke:#000000;stroke-linejoin:miter;"/>
    </g>
    <g id="text_71">
     <!-- 1.1348 -->
     <g transform="translate(1424.351143 687.9345)scale(0.24 -0.24)">
      <use xlink:href="#DejaVuSans-49"/>
      <use x="63.623047" xlink:href="#DejaVuSans-46"/>
      <use x="95.410156" xlink:href="#DejaVuSans-49"/>
      <use x="159.033203" xlink:href="#DejaVuSans-51"/>
      <use x="222.65625" xlink:href="#DejaVuSans-52"/>
      <use x="286.279297" xlink:href="#DejaVuSans-56"/>
     </g>
    </g>
   </g>
   <g id="matplotlib.axis_1">
    <g id="xtick_1"/>
    <g id="xtick_2"/>
    <g id="xtick_3"/>
   </g>
   <g id="matplotlib.axis_2">
    <g id="ytick_1"/>
    <g id="ytick_2"/>
    <g id="ytick_3"/>
   </g>
  </g>
 </g>
</svg>
